<svg width="141" height="141" viewBox="0 0 141 141" fill="none" xmlns="http://www.w3.org/2000/svg">
<mask id="mask0" mask-type="alpha" maskUnits="userSpaceOnUse" x="0" y="0" width="141" height="141">
<rect x="0.584961" y="0.00256348" width="140" height="140" fill="#C4C4C4"/>
</mask>
<g mask="url(#mask0)">
<path d="M45.2624 102.728C44.4416 100.931 45.2395 94.8466 45.2624 92.9696C45.3428 86.9023 44.8664 86.5349 44.5564 80.4792C45.2624 79.1934 45.2395 76.6735 46.4105 77.4714C48.0923 80.4562 46.9845 83.2057 47.5585 86.6555C48.1325 90.0995 48.1497 92.4587 47.5585 96.4136C47.2485 97.0623 48.1727 102.378 47.5585 102.728C46.8582 102.929 46.0373 102.665 45.2624 102.728Z" fill="#CACFE5"/>
<path d="M67.6489 103.876C66.8281 102.079 67.4021 99.387 67.4308 97.51C67.5111 91.4427 67.2586 83.0909 66.9429 77.0351C67.6489 75.7493 67.6259 73.2294 68.7969 74.0273C70.4788 77.0122 69.3709 84.9277 69.9449 88.3775C70.519 91.8216 71.1102 96.4768 70.519 100.432C70.209 101.08 69.9851 102.378 69.3709 102.728C68.6706 102.929 68.4238 103.813 67.6489 103.876Z" fill="#CACFE5"/>
<path d="M90.0351 103.302C89.2143 101.505 89.7883 98.813 89.817 96.936C89.8974 90.8687 89.6448 93.4231 89.3291 87.3673C90.0351 86.0815 90.0122 83.5616 91.1832 84.3595C92.865 87.3443 91.7572 88.3259 91.7572 91.8216C91.7572 95.2656 91.7572 95.8396 91.7572 98.7097C91.4472 99.3583 91.7973 101.804 91.1832 102.154C90.4829 102.355 90.8101 103.239 90.0351 103.302Z" fill="#CACFE5"/>
<path d="M111.848 105.598C111.027 103.801 111.601 101.109 111.63 99.232C111.71 93.1648 111.457 84.8129 111.142 78.7571C111.848 77.4713 111.825 74.9515 112.996 75.7493C114.678 78.7342 113.57 86.6498 114.144 90.0995C114.718 93.5436 115.309 98.1988 114.718 102.154C114.408 102.802 114.184 104.1 113.57 104.45C112.869 104.651 112.623 105.535 111.848 105.598Z" fill="#CACFE5"/>
<path d="M115.401 106.344C114.987 105.196 114.241 105.075 113.26 105.632C109.362 106.378 105.43 105.862 101.515 105.936C76.942 105.879 52.3745 105.971 27.8012 105.931C24.7646 105.919 21.7224 105.988 18.6916 105.885C17.469 105.845 15.6953 106.235 15.6953 104.031C17.3829 102.774 19.346 103.216 21.2001 103.216C52.7189 103.187 84.2434 103.193 115.762 103.193C117.358 103.342 119.12 102.843 120.394 104.318C118.713 104.961 117.392 106.488 115.401 106.344Z" fill="#CACFE5"/>
<path d="M115.349 72.0298C114.264 73.459 113.449 75.7034 111.13 73.4361C110.923 73.1319 110.958 72.8506 111.222 72.598C113.42 72.202 113.868 70.1929 114.867 68.6776C115.699 67.4205 116.284 65.9855 117.478 64.9867C118.448 63.3221 119.413 61.6574 120.383 59.9871C120.813 59.0342 120.882 57.8977 121.818 57.2031L121.841 57.1687C122.088 56.9391 122.335 56.7095 122.581 56.4741C122.937 56.1757 123.27 56.1986 123.586 56.5315C120.836 61.6976 118.093 66.8637 115.349 72.0298Z" fill="#00254D"/>
<path d="M132.512 57.0309C132.684 57.1629 132.879 57.2261 133.091 57.2318C133.774 58.1789 135.301 58.001 136.019 59.6254C132.804 58.6955 130.112 57.5131 127.782 55.372C129.36 55.9231 130.933 56.4741 132.512 57.0309Z" fill="#00254D"/>
<path d="M126.829 104.14C126.812 103.916 126.801 103.692 126.795 103.468C129.636 101.947 132.506 102.108 135.394 103.307C135.583 103.411 135.79 103.485 136.002 103.531C133.029 105.064 129.889 103.95 126.829 104.14Z" fill="#00254D"/>
<path d="M123.587 56.5315C123.254 56.5143 122.915 56.4913 122.582 56.4741C123.294 54.5684 124.103 52.9038 126.732 54.9874C125.664 55.6762 124.166 55.3318 123.587 56.5315Z" fill="#00254D"/>
<path d="M103.938 52.2666C103.984 53.5467 104.386 55.0448 102.801 55.6361C102.164 55.8714 101.188 56.4626 100.557 55.6992C99.65 54.5971 99.6386 53.3171 100.419 52.0772C101.63 51.3999 102.813 51.3597 103.938 52.2666Z" fill="#CACFE5"/>
<path d="M137.678 45.9066C137.66 47.5368 136.868 48.3175 135.542 48.3749C134.119 48.4437 133.384 47.4507 133.373 46.1707C133.361 44.7701 134.371 44.1329 135.697 44.1559C136.92 44.1789 137.603 44.8734 137.678 45.9066Z" fill="#CACFE5"/>
<path d="M95.5743 77.856C94.5181 79.4861 93.462 81.1163 92.4115 82.7465C92.2106 83.5673 91.7916 84.2561 90.8961 84.3078C90.1557 84.348 90.104 83.6936 90.1097 83.1081C90.259 82.5628 90.7354 82.3619 91.1659 82.1093C92.3656 80.2438 93.5653 78.3783 94.7592 76.5128C96.045 73.4476 98.0483 70.7899 99.6612 67.9084C100.907 65.687 102.612 65.2909 104.644 66.8235C106.612 68.3045 108.794 69.5213 110.389 71.4615H110.372C110.654 71.8231 110.941 72.1905 111.222 72.5521C111.193 72.8449 111.164 73.1433 111.13 73.4361C109.844 72.9826 108.995 71.6911 107.531 71.582C107.221 71.3008 106.905 71.0252 106.595 70.744C103.128 68.0519 101.027 70.3651 98.9724 72.8276H98.9782C98.5477 73.5738 98.5419 74.5841 97.5891 74.9916L97.5776 75.0031C97.1586 76.1225 96.6534 77.1901 95.5743 77.856Z" fill="#00254D"/>
<path d="M15.5805 104.323C14.6563 104.266 13.7379 104.209 12.8138 104.151C12.5899 103.985 12.5038 103.801 12.544 103.6C12.5841 103.394 12.6415 103.285 12.7047 103.285C12.9974 103.084 13.3189 102.946 13.669 102.877C14.2143 102.825 14.7195 102.917 15.1442 103.29C47.4896 103.325 79.835 103.359 112.175 103.405C113.478 103.405 114.775 103.48 116.078 103.52C116.084 103.715 116.089 103.91 116.078 104.111C86.614 104.14 57.1559 104.168 27.6921 104.209C23.6568 104.209 19.6158 104.283 15.5805 104.323Z" fill="#00254D"/>
<path d="M76.2358 62.8915C76.454 62.4094 76.6778 61.9272 76.8959 61.4393C76.9476 61.2384 76.9935 61.0375 77.0222 60.8309C77.4585 60.7964 77.8947 60.762 78.3367 60.7333C78.8476 60.8596 79.1633 61.1695 79.2494 61.6976C78.9394 62.7997 78.0669 63.1269 77.0682 63.2876C76.741 63.2647 76.4654 63.1326 76.2358 62.8915Z" fill="#00254D"/>
<path d="M79.0144 61.4336C78.7905 61.1982 78.5666 60.9686 78.3428 60.7333C79.7204 58.3569 80.4092 59.8378 81.0865 61.2327C83.2104 65.5951 85.3284 69.9633 87.4465 74.3258C88.5199 77.0007 89.4441 79.7444 91.1719 82.1036C90.8619 82.3619 90.5462 82.6202 90.2362 82.8785C88.4109 82.494 88.2329 80.7547 87.4867 79.5034C85.3916 75.979 84.2493 71.9724 82.0394 68.5054C81.6204 67.9773 81.3219 67.3803 81.1382 66.7317C80.7536 64.8432 79.5769 63.2589 79.0144 61.4336Z" fill="#00254D"/>
<path d="M91.9406 43.5876C94.0759 44.397 93.1747 45.8435 92.3826 46.848C91.1484 48.4093 89.9947 47.5254 89.0533 46.2855C88.6171 43.8976 89.7594 43.1916 91.9406 43.5876Z" fill="#CACFE5"/>
<path d="M91.9408 43.5876C90.3221 43.7828 89.3405 44.6668 89.0535 46.2912C87.917 45.1776 88.7895 44.0928 89.0994 43.0022L89.0937 43.0194C90.0523 43.1686 91.1372 42.6692 91.9408 43.5876Z" fill="#CACFE5"/>
<path d="M113.242 47.1982C114.603 47.29 115.435 47.9673 115.412 49.4023C115.389 50.8603 114.465 51.5147 113.122 51.4917C111.916 51.4688 111.13 50.7857 111.095 49.5114C111.061 48.1051 111.847 47.3646 113.242 47.1982Z" fill="#CACFE5"/>
<path d="M126.68 42.7266C126.513 44.0124 125.756 44.9193 124.407 44.9136C123.086 44.9136 122.134 44.0755 122.145 42.6979C122.157 41.3605 123.023 40.3961 124.367 40.4248C125.635 40.4535 126.559 41.2399 126.68 42.7266Z" fill="#CACFE5"/>
<path d="M11.9184 38.6913C12.0389 38.1116 11.9701 37.4285 12.7278 37.1874C13.4108 38.4101 13.0664 39.7418 13.0722 41.0218C13.1009 57.3753 13.0836 73.7231 13.1009 90.0766C13.1009 91.4886 12.877 92.9237 13.4338 94.2955C13.5141 94.749 13.5027 95.2025 13.3993 95.6502C12.6072 98.2505 13.5601 100.977 12.8139 103.583C12.7909 103.778 12.7909 103.968 12.8139 104.163C11.1263 100.966 12.5613 97.4985 11.9414 94.2095C11.155 92.2521 11.7175 90.2316 11.7117 88.2512C11.6601 73.0228 11.6773 57.7944 11.6945 42.5659C11.6945 41.2686 11.4764 39.9542 11.9184 38.6913Z" fill="#00254D"/>
<path d="M14.7884 39.8394C14.7941 58.3397 14.8056 76.8457 14.8114 95.346C13.8413 94.9786 13.8241 94.2324 13.8642 93.3312C14.5818 77.6263 13.9963 61.91 14.18 46.1994C14.4784 44.087 13.5428 41.8599 14.7884 39.8394Z" fill="#CACFE5"/>
<path d="M8.42253 70.9736C8.35365 72.4775 7.0736 72.1962 6.28147 72.3569C5.18512 72.5808 4.84645 71.6854 4.94977 70.7899C5.07605 69.6878 5.94282 69.8141 6.80957 69.7108C7.96907 69.5673 8.29051 70.0839 8.42253 70.9736Z" fill="#CACFE5"/>
<path d="M7.02179 58.5176C7.50396 58.5406 7.98613 58.5635 8.46256 58.5865C8.36498 59.2523 8.45681 60.033 8.13537 60.5668C7.54988 61.5311 6.47649 60.9973 5.64417 60.9399C5.02425 60.894 4.89222 60.1707 4.92666 59.5566C5.01277 57.9608 6.53388 59.281 7.02179 58.5176Z" fill="#CACFE5"/>
<path d="M8.43415 82.161C8.43415 83.4411 7.6822 83.2574 6.76378 83.1713C5.89129 83.0909 4.98436 83.177 5.08194 82.0118C5.19674 80.6399 6.45955 81.0704 7.28039 80.8982C8.29638 80.6916 8.41119 81.4148 8.43415 82.161Z" fill="#CACFE5"/>
<path d="M5.03027 94.9097C5.30006 93.1877 4.98436 91.7297 7.06227 92.0512C8.084 92.2119 8.73262 92.7629 8.41117 93.6526C7.79125 95.3575 6.20125 93.7445 5.03027 94.9097Z" fill="#CACFE5"/>
<path d="M4.89825 47.1809C5.86833 47.1695 6.35625 47.6516 6.36199 48.6217C5.98888 51.2679 4.4161 48.9604 3.49194 49.322C3.95689 48.6045 4.42757 47.8927 4.89825 47.1809Z" fill="#CACFE5"/>
<path d="M7.49854 101.534C8.02663 101.545 8.34234 101.792 8.38252 102.326C8.43418 102.923 8.35382 103.508 7.68797 103.692C6.97046 103.893 6.64901 103.371 6.56865 102.785C6.48829 102.131 6.95323 101.775 7.49854 101.534Z" fill="#CACFE5"/>
<path d="M7.01025 48.616C7.17672 48.128 7.06192 47.2383 7.9172 47.5253C8.69785 47.7836 8.44528 48.6906 8.57156 49.3392C7.4178 50.4815 7.14802 49.6951 7.01025 48.616Z" fill="#CACFE5"/>
<path d="M11.3154 34.3633C12.1707 33.7491 13.3819 34.5413 14.1683 33.6516C13.6631 35.6606 12.5725 35.3449 11.3154 34.3633Z" fill="#F2F3EE"/>
<path d="M26.3777 85.8576C29.1674 81.8912 31.9628 77.9248 34.7525 73.9584C35.0969 74.3086 35.1486 74.6989 34.896 75.1237C31.7218 80.0601 28.6565 85.0655 25.3445 89.9101C23.1575 93.1131 19.4035 93.7962 15.9939 94.9442C15.5577 92.9237 17.2912 92.7342 18.4449 92.1488C20.8041 90.9606 23.3872 90.1455 25.0633 87.8953C25.7521 87.3787 26.2113 86.7129 26.3777 85.8576Z" fill="#00254D"/>
<path d="M24.0299 56.0149C25.3099 56.2445 26.2226 56.9448 26.1939 58.311C26.1652 59.6541 25.3099 60.4807 23.9552 60.5094C22.503 60.5381 21.8888 59.568 21.8429 58.2536C21.7855 56.8128 22.6982 56.2043 24.0299 56.0149Z" fill="#CACFE5"/>
<path d="M36.836 54.7406C36.0324 54.821 35.1771 55.1137 34.4309 54.9358C33.2714 54.6545 32.7261 53.6844 32.9959 52.4962C33.2198 51.5147 33.9028 50.7972 34.9705 50.78C36.7901 50.7455 37.4157 51.8763 37.4215 53.5122C37.2321 53.9198 37.0312 54.3273 36.836 54.7406Z" fill="#CACFE5"/>
<path d="M46.2784 75.8125C47.0131 75.1122 47.7479 74.4119 48.4826 73.7116L48.4481 73.6599C50.1989 71.4213 52.4892 69.883 55.0206 68.6661C55.187 68.6259 55.3305 68.5455 55.4568 68.4307C55.8127 68.7694 55.8643 69.154 55.6118 69.5787C52.9599 72.1159 50.1644 74.4808 47.0705 76.4726C46.2899 76.8687 46.2038 76.4381 46.2784 75.8125Z" fill="#00254D"/>
<path d="M55.6061 69.5787C55.5545 69.1942 55.5028 68.8153 55.4512 68.4307C55.9333 67.9658 56.4155 67.4951 56.8977 67.0301C57.4143 66.7144 57.9022 66.7546 58.3557 67.1564H58.3614C59.5726 67.7591 61.1281 67.5353 62.1097 68.6948C62.0006 69.2688 61.8284 69.7337 61.0994 69.3549C59.2511 68.9531 57.3856 68.1552 55.6061 69.5787Z" fill="#00254D"/>
<path d="M48.4538 55.4983C48.3218 56.698 47.4321 57.3351 46.0831 57.2376C44.8777 57.1457 44.12 56.3823 44.1373 55.1596C44.1545 53.782 44.9581 52.9153 46.3529 52.9784C47.6731 53.0473 48.5169 53.7992 48.4538 55.4983Z" fill="#CACFE5"/>
<path d="M59.716 60.1076C59.4864 61.3991 58.7976 62.2716 57.3913 62.2199C56.1801 62.174 55.4225 61.4623 55.3823 60.2167C55.3363 58.8505 55.9505 57.9436 57.42 57.9034C58.8837 57.869 59.4635 58.8103 59.716 60.1076Z" fill="#CACFE5"/>
<path d="M61.8971 68.7005C62.121 68.7005 62.3506 68.689 62.5744 68.6775C68.2284 71.163 68.2342 71.1687 72.3383 66.9785C73.6586 65.6353 74.9386 64.2519 76.2358 62.8915C76.563 62.9202 76.8845 62.9547 77.2117 62.9834C76.5917 66.9842 73.3428 68.6776 70.4556 70.6923C68.8369 72.7186 67.023 71.7772 65.2264 71.031C63.8545 70.4627 62.4769 69.9059 61.105 69.3434C61.369 69.131 61.6331 68.9186 61.8971 68.7005Z" fill="#00254D"/>
<path d="M71.0296 55.108C70.5073 56.9506 69.7898 58.575 67.4134 57.4327C66.6557 57.0711 66.2424 56.2617 66.3687 55.3663C66.495 54.4938 67.0288 53.8853 67.8783 53.5983C69.4109 53.0817 70.2834 53.9772 71.0469 55.1022C71.0469 55.1022 71.0296 55.108 71.0296 55.108Z" fill="#CACFE5"/>
<path d="M81.9474 49.5057C81.8728 51.1301 81.0692 51.9682 79.7547 51.9567C78.4517 51.9452 77.6022 51.1129 77.6194 49.7123C77.6309 48.4438 78.446 47.8296 79.617 47.7148C81.0635 47.5655 81.6949 48.4438 81.9474 49.5057Z" fill="#CACFE5"/>
<path d="M46.2786 75.8125C46.5427 76.0306 46.801 76.2487 47.065 76.4669C44.4648 77.5001 42.1573 75.9101 39.7235 75.5599C38.1105 75.3303 36.5664 74.7276 34.9018 75.1294C34.8559 74.7448 34.8042 74.3545 34.7583 73.9642C37.5365 72.8908 39.9014 74.8367 42.5074 75.049C43.776 75.1524 45.0216 75.5484 46.2786 75.8125Z" fill="#00254D"/>
</g>
</svg>
