<svg width="172" height="93" viewBox="0 0 172 93" fill="none" xmlns="http://www.w3.org/2000/svg">
<path d="M53.863 88.0654C52.8211 85.7848 53.8338 78.0616 53.863 75.679C53.965 67.9776 53.3602 67.5113 52.9668 59.8245C53.863 58.1924 53.8339 54.9938 55.3202 56.0066C57.455 59.7953 56.0488 63.2854 56.7774 67.6643C57.506 72.036 57.5279 75.0305 56.7774 80.0507C56.384 80.874 57.557 87.6209 56.7774 88.0654C55.8885 88.3204 54.8466 87.9852 53.863 88.0654Z" fill="#CACFE5"/>
<path d="M82.278 89.5226C81.2361 87.242 81.9647 83.8249 82.0012 81.4423C82.1032 73.7409 81.7826 63.1396 81.3818 55.4528C82.278 53.8207 82.2489 50.6221 83.7353 51.6349C85.8701 55.4237 84.4639 65.4712 85.1925 69.8501C85.9211 74.2218 86.6715 80.1308 85.9211 85.1509C85.5276 85.9743 85.2435 87.6209 84.4639 88.0654C83.575 88.3204 83.2617 89.4424 82.278 89.5226Z" fill="#CACFE5"/>
<path d="M110.694 88.794C109.652 86.5134 110.381 83.0962 110.417 80.7137C110.519 73.0123 110.199 76.2546 109.798 68.5678C110.694 66.9357 110.665 63.7371 112.151 64.7499C114.286 68.5386 112.88 69.7845 112.88 74.2218C112.88 78.5934 112.88 79.322 112.88 82.9651C112.486 83.7884 112.931 86.8923 112.151 87.3367C111.262 87.5918 111.678 88.7138 110.694 88.794Z" fill="#CACFE5"/>
<path d="M138.382 91.7084C137.34 89.4279 138.068 86.0107 138.105 83.6281C138.207 75.9267 137.886 65.3255 137.485 57.6386C138.382 56.0065 138.352 52.808 139.839 53.8207C141.974 57.6095 140.567 67.657 141.296 72.036C142.025 76.4076 142.775 82.3166 142.025 87.3368C141.631 88.1601 141.347 89.8067 140.567 90.2512C139.678 90.5062 139.365 91.6283 138.382 91.7084Z" fill="#CACFE5"/>
<path d="M142.891 92.6556C142.367 91.1984 141.42 91.0454 140.174 91.7521C135.226 92.6993 130.236 92.0436 125.266 92.1383C94.0746 92.0654 62.8902 92.182 31.6984 92.131C27.8441 92.1164 23.9824 92.2039 20.1354 92.0727C18.5834 92.0217 16.332 92.5172 16.332 89.7193C18.4741 88.1236 20.966 88.6847 23.3194 88.6847C63.3273 88.6483 103.343 88.6555 143.35 88.6555C145.376 88.845 147.613 88.2111 149.23 90.0836C147.096 90.8996 145.42 92.8377 142.891 92.6556Z" fill="#CACFE5"/>
<path d="M142.826 49.0993C141.449 50.9136 140.414 53.7624 137.471 50.8844C137.208 50.4983 137.252 50.1413 137.587 49.8207C140.378 49.3179 140.946 46.7678 142.214 44.8443C143.27 43.2486 144.013 41.4271 145.529 40.1593C146.76 38.0463 147.984 35.9334 149.216 33.8131C149.762 32.6036 149.85 31.161 151.037 30.2794L151.066 30.2356C151.38 29.9442 151.693 29.6528 152.006 29.354C152.458 28.9752 152.881 29.0043 153.281 29.4269C149.791 35.9844 146.309 42.5418 142.826 49.0993Z" fill="#00254D"/>
<path d="M164.611 30.0608C164.83 30.2284 165.077 30.3085 165.347 30.3158C166.214 31.518 168.152 31.2921 169.063 33.3541C164.983 32.1737 161.566 30.6728 158.607 27.9551C160.611 28.6546 162.607 29.354 164.611 30.0608Z" fill="#00254D"/>
<path d="M157.398 89.8577C157.376 89.5735 157.362 89.2894 157.354 89.0052C160.961 87.0744 164.604 87.2784 168.269 88.8012C168.509 88.9324 168.772 89.0271 169.041 89.0854C165.267 91.0308 161.282 89.6173 157.398 89.8577Z" fill="#00254D"/>
<path d="M153.282 29.4269C152.859 29.405 152.429 29.3759 152.007 29.354C152.91 26.935 153.938 24.8221 157.275 27.4669C155.919 28.3412 154.018 27.9041 153.282 29.4269Z" fill="#00254D"/>
<path d="M128.341 24.0133C128.399 25.6381 128.909 27.5398 126.898 28.2902C126.09 28.589 124.851 29.3394 124.05 28.3704C122.898 26.9715 122.884 25.3467 123.875 23.7729C125.412 22.9131 126.913 22.8621 128.341 24.0133Z" fill="#CACFE5"/>
<path d="M171.169 15.9403C171.147 18.0096 170.141 19.0005 168.458 19.0733C166.651 19.1608 165.719 17.9003 165.704 16.2755C165.69 14.4977 166.972 13.6889 168.655 13.7181C170.207 13.7472 171.074 14.6288 171.169 15.9403Z" fill="#CACFE5"/>
<path d="M117.725 56.4947C116.385 58.564 115.044 60.6332 113.711 62.7025C113.456 63.7444 112.924 64.6187 111.787 64.6843C110.847 64.7353 110.782 63.9047 110.789 63.1615C110.978 62.4693 111.583 62.2143 112.13 61.8937C113.652 59.5257 115.175 57.1577 116.691 54.7898C118.323 50.899 120.866 47.5255 122.913 43.8679C124.494 41.0482 126.658 40.5455 129.237 42.4909C131.737 44.3707 134.505 45.9153 136.531 48.378H136.509C136.866 48.837 137.23 49.3033 137.587 49.7624C137.551 50.134 137.514 50.5128 137.471 50.8844C135.839 50.3088 134.76 48.6694 132.902 48.531C132.509 48.174 132.108 47.8243 131.715 47.4672C127.314 44.0501 124.647 46.9864 122.039 50.1121H122.046C121.5 51.0593 121.492 52.3416 120.283 52.859L120.268 52.8735C119.736 54.2943 119.095 55.6495 117.725 56.4947Z" fill="#00254D"/>
<path d="M16.1863 90.0909C15.0132 90.018 13.8474 89.9452 12.6744 89.8723C12.3902 89.661 12.2809 89.4279 12.3319 89.1728C12.3829 88.9105 12.4558 88.7721 12.5359 88.7721C12.9075 88.5171 13.3156 88.3422 13.76 88.2548C14.4522 88.1892 15.0934 88.3058 15.6325 88.7794C56.6897 88.8231 97.7468 88.8668 138.797 88.9251C140.451 88.9251 142.097 89.0198 143.751 89.0708C143.758 89.3186 143.766 89.5663 143.751 89.8213C106.352 89.8577 68.9595 89.8942 31.5599 89.9452C26.4378 89.9452 21.3084 90.0399 16.1863 90.0909Z" fill="#00254D"/>
<path d="M93.1782 37.4999C93.4551 36.8878 93.7392 36.2758 94.0161 35.6565C94.0817 35.4015 94.14 35.1465 94.1764 34.8842C94.7302 34.8405 95.2839 34.7967 95.8449 34.7603C96.4934 34.9206 96.8941 35.314 97.0034 35.9844C96.61 37.3833 95.5025 37.7986 94.2347 38.0026C93.8194 37.9735 93.4697 37.8059 93.1782 37.4999Z" fill="#00254D"/>
<path d="M96.705 35.6492C96.4208 35.3505 96.1367 35.059 95.8525 34.7603C97.6012 31.7439 98.4755 33.6237 99.3353 35.3942C102.031 40.9316 104.72 46.4763 107.408 52.0138C108.771 55.4091 109.944 58.8919 112.137 61.8864C111.744 62.2143 111.343 62.5422 110.949 62.8701C108.632 62.3819 108.406 60.1742 107.459 58.5858C104.8 54.1122 103.35 49.0265 100.545 44.6257C100.013 43.9554 99.634 43.1976 99.4009 42.3743C98.9127 39.9772 97.419 37.9662 96.705 35.6492Z" fill="#00254D"/>
<path d="M113.113 12.9968C115.824 14.0241 114.68 15.8602 113.674 17.1352C112.108 19.1171 110.643 17.995 109.448 16.4212C108.894 13.3902 110.344 12.494 113.113 12.9968Z" fill="#CACFE5"/>
<path d="M113.113 12.9967C111.059 13.2445 109.813 14.3665 109.448 16.4285C108.006 15.015 109.113 13.6379 109.507 12.2536L109.499 12.2754C110.716 12.4649 112.093 11.831 113.113 12.9967Z" fill="#CACFE5"/>
<path d="M140.152 17.5797C141.878 17.6963 142.935 18.556 142.906 20.3776C142.877 22.2282 141.704 23.0588 139.999 23.0297C138.469 23.0005 137.47 22.1335 137.427 20.516C137.383 18.7309 138.381 17.791 140.152 17.5797Z" fill="#CACFE5"/>
<path d="M157.209 11.9038C156.997 13.5359 156.036 14.6871 154.323 14.6798C152.648 14.6798 151.438 13.6161 151.453 11.8674C151.467 10.1697 152.568 8.94566 154.272 8.98209C155.883 9.01852 157.056 10.0167 157.209 11.9038Z" fill="#CACFE5"/>
<path d="M11.5376 6.78171C11.6906 6.04581 11.6031 5.17877 12.5649 4.87276C13.4319 6.42469 12.9948 8.11506 13.0021 9.73986C13.0385 30.4979 13.0166 51.2487 13.0385 72.0068C13.0385 73.7992 12.7543 75.6207 13.4611 77.3621C13.5631 77.9377 13.5485 78.5133 13.4174 79.0816C12.4119 82.3822 13.6214 85.8431 12.6742 89.151C12.645 89.3987 12.645 89.6392 12.6742 89.8869C10.5321 85.8285 12.3536 81.4277 11.5667 77.2528C10.5685 74.7682 11.2825 72.2035 11.2752 69.6898C11.2097 50.3598 11.2315 31.0298 11.2534 11.6998C11.2534 10.0532 10.9765 8.38465 11.5376 6.78171Z" fill="#00254D"/>
<path d="M15.181 8.23893C15.1882 31.722 15.2028 55.2124 15.2101 78.6955C13.9788 78.2291 13.9569 77.282 14.0079 76.138C14.9186 56.2033 14.1755 36.2539 14.4086 16.3119C14.7875 13.6306 13.5999 10.8036 15.181 8.23893Z" fill="#CACFE5"/>
<path d="M7.10041 47.7587C7.01298 49.6676 5.38817 49.3106 4.38269 49.5146C2.99105 49.7988 2.56116 48.6622 2.69231 47.5255C2.85261 46.1266 3.95282 46.2869 5.05302 46.1558C6.52481 45.9736 6.93283 46.6293 7.10041 47.7587Z" fill="#CACFE5"/>
<path d="M5.32255 31.9479C5.93458 31.977 6.54662 32.0062 7.15136 32.0353C7.0275 32.8805 7.14407 33.8714 6.73605 34.549C5.99287 35.7731 4.63037 35.0955 3.57389 35.0226C2.78699 34.9643 2.61941 34.0463 2.66313 33.2667C2.77242 31.2411 4.70323 32.9169 5.32255 31.9479Z" fill="#CACFE5"/>
<path d="M7.11484 61.9593C7.11484 63.5841 6.16036 63.3509 4.99459 63.2416C3.8871 63.1396 2.7359 63.2489 2.85977 61.7698C3.00549 60.0285 4.60842 60.5749 5.65033 60.3563C6.93997 60.094 7.0857 61.0121 7.11484 61.9593Z" fill="#CACFE5"/>
<path d="M2.79443 78.1417C3.13688 75.9559 2.73615 74.1052 5.37372 74.5132C6.67064 74.7172 7.49395 75.4167 7.08593 76.546C6.29903 78.71 4.2808 76.6626 2.79443 78.1417Z" fill="#CACFE5"/>
<path d="M2.62688 17.5579C3.85823 17.5433 4.47756 18.1553 4.48484 19.3867C4.01125 22.7455 2.01486 19.8165 0.841797 20.2756C1.43197 19.3648 2.02942 18.4613 2.62688 17.5579Z" fill="#CACFE5"/>
<path d="M5.92771 86.5499C6.59803 86.5644 6.99877 86.8777 7.04977 87.5553C7.11534 88.3131 7.01335 89.0563 6.16816 89.2894C5.2574 89.5444 4.84937 88.8814 4.74736 88.1382C4.64536 87.3076 5.23553 86.8559 5.92771 86.5499Z" fill="#CACFE5"/>
<path d="M5.30811 19.3794C5.5194 18.76 5.37369 17.6307 6.45932 17.995C7.45023 18.3229 7.12963 19.4741 7.28992 20.2974C5.82542 21.7473 5.48297 20.7492 5.30811 19.3794Z" fill="#CACFE5"/>
<path d="M10.7725 1.28799C11.8581 0.508378 13.3955 1.51387 14.3936 0.384521C13.7525 2.93465 12.3681 2.53391 10.7725 1.28799Z" fill="#F2F3EE"/>
<path d="M29.8915 66.6515C33.4326 61.6168 36.9809 56.5821 40.5219 51.5475C40.9591 51.9919 41.0247 52.4874 40.7041 53.0265C36.6749 59.2926 32.7841 65.6461 28.58 71.7955C25.804 75.8612 21.0389 76.7282 16.711 78.1854C16.1572 75.6207 18.3576 75.3803 19.8221 74.6371C22.8167 73.1289 26.0955 72.0942 28.223 69.2381C29.0973 68.5823 29.6802 67.7371 29.8915 66.6515Z" fill="#00254D"/>
<path d="M26.9111 28.7711C28.5359 29.0626 29.6944 29.9515 29.6579 31.6856C29.6215 33.3905 28.5359 34.4397 26.8164 34.4762C24.973 34.5126 24.1934 33.2812 24.1351 31.6127C24.0622 29.7839 25.2207 29.0116 26.9111 28.7711Z" fill="#CACFE5"/>
<path d="M43.1667 27.1536C42.1466 27.2556 41.061 27.6272 40.1138 27.4013C38.642 27.0443 37.9498 25.813 38.2923 24.3047C38.5764 23.0588 39.4435 22.1481 40.7987 22.1262C43.1084 22.0825 43.9025 23.5179 43.9098 25.5944C43.6694 26.1117 43.4144 26.629 43.1667 27.1536Z" fill="#CACFE5"/>
<path d="M55.1524 53.9008C56.085 53.0119 57.0176 52.1231 57.9502 51.2342L57.9065 51.1686C60.1288 48.327 63.0359 46.3743 66.2491 44.8297C66.4604 44.7787 66.6426 44.6767 66.8028 44.5309C67.2546 44.9608 67.3201 45.449 66.9996 45.9882C63.6334 49.2086 60.0851 52.2105 56.1579 54.7388C55.1669 55.2415 55.0576 54.695 55.1524 53.9008Z" fill="#00254D"/>
<path d="M66.9921 45.9882C66.9266 45.5 66.861 45.0191 66.7954 44.531C67.4074 43.9408 68.0195 43.3433 68.6315 42.7532C69.2872 42.3524 69.9066 42.4034 70.4822 42.9134H70.4895C72.0268 43.6785 74.0014 43.3943 75.2473 44.8661C75.1088 45.5947 74.8903 46.1849 73.9649 45.704C71.6188 45.194 69.2508 44.1812 66.9921 45.9882Z" fill="#00254D"/>
<path d="M57.9136 28.1154C57.746 29.6382 56.6167 30.4469 54.9044 30.3231C53.3743 30.2065 52.4126 29.2374 52.4344 27.6855C52.4563 25.9368 53.4763 24.8366 55.2469 24.9168C56.9227 25.0042 57.9937 25.9587 57.9136 28.1154Z" fill="#CACFE5"/>
<path d="M72.2091 33.9661C71.9177 35.6055 71.0433 36.713 69.2582 36.6474C67.7209 36.5891 66.7591 35.6856 66.7081 34.1046C66.6498 32.3705 67.4294 31.2193 69.2947 31.1683C71.1526 31.1245 71.8885 32.3195 72.2091 33.9661Z" fill="#CACFE5"/>
<path d="M74.9777 44.8734C75.2618 44.8734 75.5532 44.8588 75.8374 44.8442C83.0142 47.9991 83.0215 48.0064 88.2311 42.6876C89.9069 40.9826 91.5316 39.2267 93.1783 37.4999C93.5936 37.5363 94.0016 37.58 94.4169 37.6165C93.63 42.6949 89.5061 44.8443 85.8412 47.4017C83.7865 49.9737 81.4841 48.7787 79.2036 47.8316C77.4622 47.1102 75.7135 46.4035 73.9722 45.6894C74.3073 45.4199 74.6425 45.1503 74.9777 44.8734Z" fill="#00254D"/>
<path d="M86.5699 27.6199C85.9068 29.9588 84.9961 32.0207 81.9796 30.5708C81.0179 30.1118 80.4933 29.0844 80.6535 27.9478C80.8138 26.8403 81.4915 26.068 82.5698 25.7037C84.5152 25.0479 85.6227 26.1846 86.5917 27.6126L86.5699 27.6199Z" fill="#CACFE5"/>
<path d="M100.428 20.5087C100.333 22.5707 99.3134 23.6344 97.6448 23.6199C95.9909 23.6053 94.9125 22.5488 94.9344 20.771C94.949 19.1608 95.9836 18.3812 97.47 18.2355C99.3061 18.046 100.108 19.1608 100.428 20.5087Z" fill="#CACFE5"/>
<path d="M55.1525 53.9009C55.4876 54.1777 55.8155 54.4546 56.1507 54.7315C52.8501 56.043 49.9211 54.0247 46.8318 53.5803C44.7844 53.2888 42.8244 52.5238 40.7114 53.0338C40.6532 52.5457 40.5876 52.0502 40.5293 51.5548C44.0558 50.1923 47.0576 52.6622 50.3655 52.9318C51.9757 53.063 53.5568 53.5657 55.1525 53.9009Z" fill="#00254D"/>
</svg>
