<svg width="141" height="142" viewBox="0 0 141 142" fill="none" xmlns="http://www.w3.org/2000/svg">
<mask id="mask0" mask-type="alpha" maskUnits="userSpaceOnUse" x="0" y="0" width="141" height="142">
<rect x="0.209473" y="0.983032" width="140.304" height="140.304" fill="#C4C4C4"/>
</mask>
<g mask="url(#mask0)">
<path d="M114.346 12.1922C114.026 11.6398 113.7 11.1921 113.252 10.7909C112.816 10.3955 112.305 10.099 111.758 9.88966C110.653 9.47101 109.456 9.38961 108.275 9.31402C107.979 9.29658 107.682 9.26751 107.391 9.26751C107.101 9.26751 106.804 9.29658 106.508 9.31984C105.926 9.36635 105.257 9.33147 104.781 8.91864C104.321 8.49418 104.071 7.95924 103.67 7.51734C103.292 7.0638 102.879 6.63934 102.426 6.26721C100.612 4.73218 98.2103 4.06351 95.8554 4.02862C94.6751 3.99374 93.4889 4.07514 92.3202 4.22632C91.1631 4.38331 89.9886 4.79033 88.7617 4.53449C88.157 4.40657 87.6221 4.03444 87.2209 3.58091C87.0173 3.35414 86.8487 3.0983 86.6859 2.84828C86.5522 2.62151 86.3021 2.49359 86.0289 2.44708C85.4765 2.34823 84.8602 2.40637 84.2729 2.35986C83.6856 2.32497 83.0925 2.33079 82.5053 2.34241C80.1562 2.42963 77.7897 2.95294 75.7895 4.18562C74.7952 4.79614 73.8881 5.55203 73.1264 6.44746C72.3589 7.33709 71.7368 8.32555 71.1786 9.36635C71.0332 9.63382 70.8762 9.89548 70.6785 10.1455C70.4808 10.3897 70.225 10.6281 69.882 10.7444C69.5331 10.8549 69.1668 10.7851 68.8702 10.6572C68.5679 10.5234 68.3178 10.3374 68.0736 10.1455L67.7306 9.84314L67.3992 9.57567C67.184 9.38961 66.9165 9.27332 66.684 9.11633C66.1665 8.86631 65.6315 8.64535 65.0734 8.49999C63.957 8.19763 62.7824 8.07553 61.6312 8.13949C60.4799 8.20926 59.3286 8.4651 58.3285 9.00585C58.0727 9.13377 57.8575 9.31402 57.6191 9.4652C57.4156 9.65126 57.2005 9.83733 57.0144 10.0408C56.8516 10.2734 56.683 10.4595 56.5144 10.7328C56.3458 10.9886 56.1655 11.2444 55.9329 11.477C55.7062 11.7096 55.4271 11.9247 55.084 12.0352C54.7468 12.1515 54.3863 12.1515 54.0665 12.0992C53.4269 12.0003 52.857 11.7154 52.3279 11.5701C51.2348 11.2503 50.0661 11.1863 48.9148 11.2735C47.7577 11.3491 46.6181 11.6166 45.5249 11.9945C44.4318 12.3725 43.3736 12.8783 42.4374 13.5528C41.5013 14.2215 40.6291 14.9948 39.9953 15.9484C39.3499 16.8962 38.9371 17.9486 38.6638 19.094C38.3789 20.2221 38.1928 21.3791 38.1056 22.5479C37.9254 24.8795 38.0998 27.2344 38.3731 29.5776C38.408 30.1474 38.6115 30.6649 38.6812 31.3394C38.7103 31.6708 38.6929 32.0546 38.5126 32.4093C38.3382 32.764 38.03 33.0198 37.7335 33.1826C37.5823 33.2757 37.4253 33.328 37.2741 33.3978L36.8613 33.5548C36.588 33.6594 36.3147 33.7641 36.0473 33.8804C35.5065 34.1013 34.989 34.3572 34.4948 34.6304C34.018 34.9212 33.5761 35.2584 33.2796 35.6712C32.9772 36.0841 32.8435 36.5899 32.8202 37.1307C32.8086 38.2296 33.0935 39.3809 33.3958 40.5089L33.3493 40.3984C33.8668 41.2008 34.2041 42.1486 34.3087 43.108C34.4134 44.0732 34.3436 44.9919 34.1808 45.9339C34.0006 46.8642 33.7156 47.7131 33.6284 48.5504C33.5296 49.3877 33.6924 50.1726 34.1808 50.8064L34.2855 50.9402L34.268 51.1204C34.2157 51.6379 34.2622 52.1496 34.4308 52.6264C34.5995 53.1032 34.8844 53.5393 35.2449 53.9346C35.9659 54.7196 36.9311 55.3185 37.9021 55.9348L37.2509 56.1267L37.5532 55.4755L38.0126 56.0337C38.7394 56.9175 39.6581 57.6269 40.6756 58.1734C41.6932 58.7258 42.8037 59.1328 43.9376 59.505L43.8794 59.4875C45.304 59.7492 46.7983 59.5398 48.3101 59.284C49.0718 59.1619 49.8451 59.034 50.6359 58.9642C51.0313 58.9293 51.4383 58.9177 51.8395 58.9177H52.9966L62.2417 58.9061L71.4868 58.8944H76.1209C76.8885 58.9119 77.6211 58.9177 78.2897 58.7723C79.0573 58.5979 79.3015 58.4467 79.4178 57.8013L79.4119 57.8885C79.4468 56.7082 78.7258 55.5511 78.2607 54.1614C78.1502 53.8067 78.0572 53.4346 78.0107 53.0508C77.97 52.6264 77.9758 52.3531 77.9234 52.0507C77.8362 51.4518 77.6036 50.9169 77.2315 50.4924C76.8536 50.068 76.3361 49.754 75.7546 49.5389C75.1732 49.3179 74.5394 49.2074 73.8649 49.0911C72.5217 48.876 71.0972 48.6144 69.7657 48.0969L68.1783 47.4805L69.8122 46.9979C70.8239 46.6956 71.9112 46.6316 72.8997 46.6491C73.3939 46.6491 73.8707 46.6607 74.3126 46.6083C74.772 46.556 75.2546 46.4804 75.7081 46.3816C76.6152 46.1839 77.4583 45.8466 78.0746 45.271C78.3828 44.9803 78.6502 44.643 78.8479 44.2535C78.9468 44.0616 79.0398 43.8581 79.1154 43.6488L79.3596 42.9568C79.7259 41.9625 80.3132 40.9799 81.2261 40.3112C81.6622 39.9565 82.1913 39.7298 82.7204 39.5495C83.2612 39.4158 83.8252 39.3286 84.3775 39.3809C85.4881 39.439 86.5115 39.881 87.3895 40.445C88.2733 41.0264 88.971 41.666 89.7851 42.0498C90.1921 42.2533 90.5642 42.3347 91.0701 42.4219C91.5469 42.5207 92.0236 42.5905 92.5004 42.6661C93.454 42.7882 94.4076 42.8638 95.3321 42.7824C96.2508 42.701 97.123 42.4219 97.7742 41.8521C98.4312 41.2881 98.8266 40.4508 99.0592 39.5495C99.3092 38.6541 99.3325 37.6772 99.3674 36.7237C99.3674 36.2178 99.3964 35.6829 99.5302 35.1596L99.9546 33.735C100.205 32.8047 100.42 31.8744 99.8383 31.2289C99.5651 30.8917 99.1929 30.5835 98.8092 30.2928C98.4254 29.9963 98.0242 29.7172 97.623 29.4323L97.6637 29.4555C97.0939 29.1706 96.5299 28.781 96.1636 28.1763C95.9833 27.8798 95.8787 27.5309 95.8612 27.182C95.8554 27.1472 95.8554 27.0832 95.8612 27.0192C95.8728 26.9669 95.8729 26.9378 95.9194 26.8506C95.9484 26.8041 95.9775 26.7634 96.0357 26.7343C96.088 26.6994 96.181 26.682 96.2159 26.6878C96.2566 26.6878 96.2973 26.6994 96.3322 26.7111L96.3903 26.7401C96.4369 26.7634 96.4485 26.775 96.4718 26.7925C96.5125 26.8215 96.5473 26.8506 96.5822 26.8797C96.6927 26.9785 96.8439 27.1065 96.8381 27.0948L96.7857 27.0018L96.9544 27.1588C97.3032 27.4902 97.7044 27.717 98.187 27.8914C98.658 28.0833 99.1348 28.2635 99.6232 28.4031C100.594 28.6938 101.6 28.8857 102.612 28.9438C104.641 29.0543 106.682 28.595 108.514 27.6821L109.182 27.3507L108.7 27.9205L108.694 27.9321L108.531 27.6879C109.979 27.2693 111.31 26.4378 112.27 25.2632C113.235 24.1003 113.886 22.6816 114.34 21.2338C114.741 19.7627 114.979 18.2393 114.991 16.7159C114.997 15.9542 114.944 15.1867 114.84 14.4308C114.718 13.6575 114.526 12.8667 114.346 12.1922ZM114.415 12.0992C114.683 12.89 114.828 13.6051 114.956 14.3785C115.072 15.1402 115.131 15.9135 115.136 16.681C115.142 18.2277 114.921 19.7627 114.526 21.257C114.078 22.7339 113.439 24.1759 112.456 25.3912C111.479 26.6122 110.101 27.496 108.607 27.9437L108.13 28.0891L108.444 27.6995L108.45 27.6879L108.636 27.9205C106.787 28.8915 104.682 29.4148 102.577 29.3392C101.525 29.3043 100.484 29.1241 99.472 28.8392C98.9662 28.6996 98.4661 28.531 97.9835 28.3391C97.4951 28.1763 96.966 27.903 96.5648 27.5251L96.6752 27.5891C96.5124 27.5309 96.4543 27.4728 96.3787 27.4146L96.2043 27.2634L96.1345 27.2111C96.1287 27.2111 96.1113 27.1937 96.1229 27.2053H96.1287C96.1461 27.2111 96.1694 27.2169 96.1868 27.2169C96.2043 27.2169 96.2741 27.2111 96.309 27.182C96.3438 27.1588 96.3671 27.1413 96.3845 27.1064C96.4136 27.0541 96.4078 27.0657 96.4078 27.0483L96.4136 27.1123C96.431 27.3681 96.5125 27.6181 96.652 27.8333C96.9253 28.2752 97.4021 28.6124 97.9137 28.8508L97.9312 28.8624L97.9545 28.8799C98.3615 29.159 98.7743 29.4323 99.1813 29.7288C99.5825 30.0253 99.9953 30.3393 100.35 30.758C100.722 31.165 100.926 31.7988 100.902 32.3453C100.891 32.8977 100.774 33.3978 100.652 33.8862L100.263 35.2991C100.164 35.7352 100.141 36.1945 100.152 36.6713C100.141 37.6772 100.135 38.6948 99.8791 39.7123C99.6465 40.7124 99.1988 41.7532 98.3673 42.5033C97.5416 43.265 96.4427 43.6022 95.4135 43.7069C94.3727 43.8174 93.3493 43.7418 92.3492 43.6255C91.8492 43.5557 91.355 43.486 90.8666 43.3929C90.4014 43.3231 89.8025 43.201 89.3257 42.9568C88.3431 42.5033 87.5639 41.7997 86.7906 41.3171C86.023 40.8345 85.1567 40.4857 84.2903 40.4566C83.8542 40.4159 83.4298 40.4973 83.0228 40.5961C82.6274 40.7415 82.232 40.9043 81.9064 41.1834C81.2203 41.6951 80.7493 42.48 80.4353 43.3173L80.1853 44.0151C80.0981 44.2709 79.9818 44.5151 79.8538 44.7593C79.6038 45.2478 79.255 45.7013 78.8421 46.085C78.0107 46.8584 76.9408 47.2596 75.9349 47.4747C75.4232 47.5852 74.929 47.6608 74.4115 47.7189C73.8707 47.7771 73.359 47.7654 72.8706 47.7654C71.8938 47.748 70.9925 47.812 70.1087 48.0678L70.1552 46.9688C71.3879 47.4456 72.6787 47.684 74.0393 47.905C75.3709 48.1259 76.9757 48.4457 78.0804 49.6842C78.6154 50.2948 78.941 51.0681 79.0456 51.824C79.1154 52.1961 79.1096 52.6147 79.1387 52.8706C79.1794 53.1671 79.2491 53.4637 79.3422 53.766C79.5399 54.3707 79.8248 54.9813 80.0864 55.6499C80.3423 56.3186 80.5574 57.0687 80.5458 57.8653V57.9001L80.54 57.9467C80.4702 58.3944 80.2725 58.9351 79.8306 59.3014C79.6329 59.4817 79.3538 59.6154 79.1503 59.6794C78.941 59.755 78.7316 59.8131 78.5223 59.8596C77.6792 60.0457 76.8535 60.0224 76.086 60.005L71.4751 59.9759L62.2242 59.9294L52.9733 59.8829L51.8162 59.8771C51.4499 59.8713 51.0836 59.8829 50.7115 59.912C49.9672 59.9701 49.2172 60.0864 48.4555 60.2085C46.9437 60.4469 45.3214 60.6853 43.6934 60.3771L43.6643 60.3713L43.6352 60.3597C42.4839 59.9759 41.321 59.5457 40.2221 58.9409C39.129 58.342 38.1056 57.5513 37.3032 56.5628L38.0591 56.464L37.8381 56.9349L37.4079 56.6558C36.4427 56.0337 35.4193 55.4115 34.582 54.4928C34.1692 54.0335 33.8087 53.4927 33.5994 52.8822C33.3842 52.2717 33.3319 51.6147 33.4017 50.9867L33.4889 51.3007C33.1807 50.8937 32.9539 50.4169 32.8377 49.9168C32.7214 49.4168 32.7214 48.9051 32.7737 48.4283C32.8842 47.4631 33.1865 46.5909 33.3493 45.742C33.4947 44.9047 33.5703 44.0034 33.4773 43.1662C33.39 42.323 33.1051 41.5206 32.6516 40.7996L32.6167 40.7473L32.5993 40.6892C32.3027 39.5321 32.0004 38.3517 32.0178 37.0667C32.0411 36.4271 32.2271 35.7352 32.6283 35.1828C33.0237 34.6304 33.5587 34.2467 34.0936 33.9269C34.6343 33.6245 35.1867 33.3571 35.7449 33.1361C36.024 33.0198 36.3031 32.9093 36.5822 32.8047L37.0009 32.6477C37.1171 32.5895 37.2509 32.5547 37.3497 32.4849C37.8091 32.2465 37.9719 31.8976 37.9195 31.3685C37.8788 30.8626 37.6637 30.2463 37.623 29.6241C37.3555 27.2576 37.1869 24.8562 37.3846 22.449C37.4834 21.2512 37.6812 20.0534 37.9777 18.8847C38.2568 17.7276 38.7219 16.5357 39.4255 15.5239C40.1174 14.4948 41.0536 13.6749 42.0479 12.9772C43.0421 12.2736 44.1527 11.7503 45.2982 11.3549C46.4436 10.9595 47.6356 10.6921 48.8508 10.6165C50.0603 10.5351 51.2987 10.6048 52.4849 10.9595C53.0954 11.1398 53.6071 11.3898 54.142 11.477C54.677 11.5817 55.1305 11.4247 55.5085 11.0293C55.8864 10.6514 56.1597 10.1281 56.5783 9.63382C56.7877 9.40124 57.0319 9.19773 57.2644 8.98841C57.5261 8.81979 57.7761 8.62209 58.0494 8.48836C59.1483 7.90691 60.3694 7.65688 61.5788 7.59292C62.7941 7.53478 64.0093 7.67433 65.178 8.00576C65.7653 8.16856 66.3293 8.40114 66.8758 8.68024C67.1317 8.84886 67.4108 8.98259 67.6492 9.1861L68.0097 9.48264L68.3295 9.76755C68.7597 10.1222 69.2772 10.4479 69.7424 10.3025C70.2018 10.1455 70.539 9.62801 70.8181 9.13377C71.3879 8.09297 72.045 7.06962 72.8415 6.16837C73.6323 5.2613 74.5743 4.48216 75.6093 3.86582C77.685 2.62151 80.1097 2.10983 82.4878 2.04587C83.0867 2.04006 83.6798 2.04006 84.2787 2.08076C84.8718 2.13309 85.4532 2.07495 86.0696 2.18542C86.3719 2.23775 86.7034 2.40056 86.872 2.6971C87.029 2.94131 87.186 3.18552 87.3778 3.40066C87.7558 3.83675 88.2442 4.1798 88.8024 4.30191C89.942 4.55193 91.1166 4.16817 92.2911 4.017C93.4773 3.87745 94.6634 3.80767 95.8554 3.84837C98.2219 3.91233 100.652 4.58682 102.496 6.1393C102.955 6.51724 103.374 6.94751 103.757 7.40686C104.159 7.84876 104.432 8.40696 104.85 8.79072C105.292 9.17447 105.92 9.20936 106.496 9.16284C106.793 9.1454 107.089 9.11633 107.386 9.11051C107.688 9.11051 107.979 9.13959 108.275 9.15703C109.456 9.23262 110.665 9.31402 111.787 9.73848C112.345 9.95362 112.875 10.256 113.322 10.663C113.776 11.0991 114.16 11.6166 114.415 12.0992Z" fill="#00254D"/>
<path d="M69.3354 29.3566C69.318 29.5369 69.3354 29.7695 69.3587 30.0718C69.3761 30.3742 69.3645 30.7347 69.3122 31.0719L68.847 34.1594L68.4109 30.9266C68.3702 30.6416 68.2248 30.316 68.3818 30.002C68.4458 29.8451 68.5563 29.6939 68.7016 29.566C68.7714 29.502 68.8586 29.4497 68.9517 29.409C69.004 29.3915 69.0505 29.3741 69.1028 29.3683C69.1319 29.3683 69.1435 29.3625 69.2133 29.3392C69.2773 29.3159 69.3296 29.3392 69.3354 29.3566ZM69.2773 29.4497C69.2598 29.4846 69.2889 29.5369 69.3296 29.5427C69.3703 29.5369 69.3645 29.566 69.3703 29.5892C69.3761 29.6299 69.3877 29.6706 69.3994 29.7055L69.4575 29.9032C69.4924 30.0253 69.5215 30.13 69.5331 30.2404C69.5738 30.4556 69.3936 30.6765 69.347 30.9324L68.4458 30.787C68.5388 30.6184 68.6668 30.4672 68.8296 30.2637C68.9924 30.0544 69.1493 29.7811 69.2773 29.4497Z" fill="#00254D"/>
<path d="M55.0439 38.0319C54.9858 38.0377 54.852 38.0377 54.7939 38.0028L54.6195 37.9389L54.2648 37.8109L53.5438 37.5725C53.0612 37.4214 52.5727 37.2353 52.125 36.9969C51.2354 36.5201 50.369 36.0201 49.4969 35.6131L46.3687 34.1594L49.8632 34.7583C50.433 34.8572 50.9272 35.1188 51.3691 35.3863C51.811 35.6596 52.189 35.9503 52.5902 36.2236C52.9856 36.5027 53.3577 36.8283 53.7415 37.1597C53.9333 37.3225 54.1369 37.4795 54.3462 37.6132C54.4508 37.6772 54.5613 37.7412 54.6718 37.7993L54.8462 37.8807C54.9276 37.9156 54.9974 38.0028 55.0439 38.0319ZM54.9334 37.997C54.8579 37.9854 54.8171 38.0319 54.7823 38.0203L54.602 37.9738L54.2299 37.8865L53.4682 37.7295C52.9507 37.6249 52.4448 37.4679 51.9855 37.2295C51.5261 36.9911 51.0842 36.7004 50.6947 36.4213C50.2993 36.1422 49.933 35.8863 49.555 35.6479L49.9213 34.7932C50.8226 35.3107 51.6134 35.9387 52.4274 36.5027C52.8286 36.7934 53.2182 37.0899 53.6426 37.3574C53.8519 37.4911 54.0729 37.6074 54.2997 37.7121C54.416 37.7586 54.5264 37.8109 54.6485 37.8516L54.8288 37.9098C54.8869 37.9098 54.8695 37.9505 54.9334 37.997Z" fill="#00254D"/>
<path d="M57.1833 48.5096C56.9914 49.6609 56.6367 50.8122 55.9274 51.7716C55.2296 52.7368 54.1946 53.4055 53.1189 53.8939L53.1131 53.8997L53.0899 53.9055C51.4269 54.3009 49.7233 54.5567 48.0022 54.6614C46.2869 54.7603 44.5542 54.7196 42.8389 54.5044L42.9377 53.7427C44.7577 53.9172 46.595 53.8881 48.4208 53.702C49.3337 53.6032 50.2407 53.4694 51.142 53.3008C51.5955 53.2194 52.0433 53.1264 52.491 53.0275C52.9387 52.9345 53.3108 52.824 53.6888 52.6438C55.1773 51.9518 56.0669 50.3412 56.3402 48.655C56.4739 47.8293 56.4158 47.0037 56.0087 46.3234C55.8169 45.9687 55.532 45.7012 55.1889 45.4047L54.1249 44.4279L52.334 42.7823L54.4679 43.9394L54.8924 44.172L54.9738 44.2127L54.9912 44.2302C55.247 44.5034 55.5727 44.7942 55.8576 45.0965C56.1425 45.4047 56.4158 45.7303 56.6425 46.085C57.1077 46.8002 57.3345 47.6782 57.1833 48.5096ZM57.067 48.4864C57.1135 48.0852 57.0903 47.6782 56.9798 47.2944C56.8751 46.9107 56.6716 46.556 56.4274 46.242C56.189 45.9222 55.8983 45.6431 55.5843 45.3873C55.2761 45.1256 54.9505 44.9047 54.6075 44.6197L54.7063 44.6837L54.1888 44.4802L54.5319 43.9918L55.6308 44.7767C56.0262 45.0326 56.4797 45.364 56.7879 45.7943C57.1019 46.2304 57.3228 46.7362 57.4275 47.2595C57.5263 47.7828 57.5264 48.3061 57.474 48.8178C57.3345 49.8237 57.0205 50.7773 56.4797 51.6669C55.9448 52.5449 55.1133 53.2776 54.1597 53.702C53.6946 53.9172 53.1596 54.0393 52.6945 54.1207C52.2293 54.2021 51.77 54.2777 51.299 54.3416C50.3687 54.4753 49.4325 54.58 48.4906 54.6382C46.6125 54.7661 44.717 54.7428 42.8447 54.5044L42.9435 53.7427C44.6007 54.0044 46.2869 54.0974 47.9731 54.0509C49.6593 54.0102 51.3455 53.8416 53.0201 53.5683L52.991 53.5799C54.0667 53.1903 55.0901 52.5973 55.8169 51.6902C56.5495 50.7831 56.8926 49.6319 57.067 48.4864Z" fill="#00254D"/>
<path d="M57.0557 38.4738C57.1371 38.4447 57.3173 38.4331 57.3871 38.4447L57.6604 38.4622C57.8406 38.468 58.0209 38.4622 58.2011 38.4506C58.5616 38.4215 58.9163 38.3575 59.2652 38.2645C59.9571 38.0726 60.5967 37.7528 61.2247 37.4214C62.4864 36.7702 63.6203 35.8922 64.6669 34.9211L66.9752 32.7814L65.3762 35.4852C65.2658 35.677 65.1495 35.8805 65.0274 36.055L64.6436 36.5027C64.3761 36.7934 64.0912 37.0725 63.7889 37.3284C63.1783 37.84 62.469 38.247 61.7131 38.5029C60.9572 38.7704 60.1548 38.8401 59.3757 38.7994C58.9861 38.782 58.6023 38.7355 58.2244 38.6948L57.6604 38.6192C57.4511 38.6076 57.2068 38.5087 57.0557 38.4738ZM57.1719 38.4854C57.3871 38.4854 57.515 38.4215 57.6778 38.4389C57.8639 38.4331 58.0499 38.4215 58.2302 38.404C58.5965 38.3575 58.957 38.2819 59.3059 38.1773C60.0036 37.9738 60.6549 37.6947 61.2886 37.4156C61.9166 37.1307 62.5213 36.805 63.0969 36.4213C63.3819 36.2294 63.661 36.0143 63.9226 35.7817L64.3005 35.4154C64.3994 35.2933 64.4692 35.177 64.5622 35.0549L65.2716 35.6189C64.1087 36.5376 62.8527 37.3632 61.4747 37.9389C60.7886 38.2238 60.0559 38.4215 59.3175 38.4971C58.9512 38.5378 58.5791 38.5552 58.2127 38.561C58.0267 38.5668 57.8464 38.561 57.6662 38.5552L57.3929 38.5494C57.2708 38.5668 57.2708 38.532 57.1719 38.4854Z" fill="#00254D"/>
<path d="M67.1958 33.1651C67.3179 33.0198 67.4167 32.8163 67.533 32.5255C67.6667 32.2348 67.8586 31.8976 68.0737 31.6185L68.882 30.5951L68.7947 32.1999C68.7773 32.5662 68.5447 32.8279 68.2831 33.0023C68.1493 33.0896 67.9923 33.1477 67.8295 33.1826C67.7481 33.2 67.6609 33.2058 67.5679 33.2117C67.5097 33.2175 67.5039 33.1942 67.3993 33.2233C67.283 33.2465 67.1841 33.1826 67.1958 33.1651ZM67.283 33.0896C67.3469 33.0314 67.3004 32.9209 67.2481 32.9093C67.1958 32.8977 67.2481 32.8279 67.2423 32.793C67.2597 32.7116 67.283 32.6302 67.3062 32.5604C67.3527 32.4151 67.4051 32.2872 67.469 32.1825C67.6028 31.9674 67.7365 31.7987 68.0214 31.6999L68.7424 32.2813C68.5738 32.3976 68.3703 32.45 68.1203 32.5546C67.8412 32.6535 67.5504 32.8395 67.283 33.0896Z" fill="#00254D"/>
<path d="M69.3472 29.3392C69.3472 29.3101 69.4054 29.2229 69.4344 29.2055C69.4577 29.1822 69.481 29.159 69.51 29.1357C69.5624 29.095 69.6205 29.0543 69.6845 29.0252C69.8066 28.9613 69.9403 28.9148 70.074 28.8857C70.3415 28.8392 70.609 28.8217 70.859 28.8508H70.8648L71.3939 28.8682L70.9404 29.7172C70.7834 30.0079 70.3938 30.1125 70.074 30.0428C69.9112 30.0079 69.7717 29.9323 69.6554 29.8276C69.5972 29.7753 69.5449 29.7113 69.4984 29.6416L69.4635 29.5834C69.4461 29.566 69.4054 29.5311 69.3879 29.502C69.3356 29.4322 69.3298 29.3625 69.3472 29.3392ZM69.4635 29.3276C69.5333 29.3218 69.5856 29.2694 69.5856 29.2229C69.5914 29.1997 69.5798 29.1764 69.5914 29.1648L69.6438 29.1299L69.8182 29.0252C69.9229 28.9613 70.0101 28.9148 70.074 28.8799C70.2136 28.8159 70.2717 28.7927 70.5276 28.8799L70.609 29.7462C70.4229 29.6474 70.2427 29.5369 70.0508 29.4671C69.9578 29.4264 69.8589 29.3915 69.7601 29.3799C69.7077 29.3741 69.6612 29.3683 69.6089 29.3683C69.5798 29.3683 69.5565 29.3683 69.5275 29.3683C69.4984 29.3799 69.51 29.3276 69.4635 29.3276Z" fill="#00254D"/>
<path d="M76.3714 26.9959C76.3772 27.246 76.3539 27.5309 76.2958 27.7983C76.2434 28.0658 76.1446 28.3333 76.0051 28.5833L75.3306 29.7753L75.7259 28.4496C75.9178 27.8041 75.9295 27.1122 76.0051 26.4145C76.0806 25.7167 76.1388 25.0248 76.3481 24.2922C76.447 23.9375 76.6214 23.5305 76.9703 23.2165C77.3308 22.9025 77.8017 22.7978 78.1913 22.7746C78.9821 22.7339 79.674 22.856 80.3834 22.9374L80.2031 24.0422C79.6856 24.0131 79.1623 23.9666 78.6972 23.9666C78.4588 23.9666 78.2436 23.9782 78.075 24.0189C77.9122 24.0654 77.8134 24.1003 77.7145 24.2224C77.4994 24.4899 77.3424 25.0539 77.1389 25.5481C76.9296 26.054 76.6854 26.5482 76.3714 26.9959ZM76.2551 26.9727C76.3248 26.4261 76.4004 25.897 76.447 25.3737C76.5226 24.8446 76.4993 24.3154 76.8191 23.6526C76.9993 23.3095 77.3715 23.0421 77.7087 22.9141C78.0518 22.7978 78.3716 22.763 78.6681 22.7513C79.267 22.7281 79.8078 22.8269 80.3543 22.9258L80.1741 24.0305C79.5112 23.8619 78.8309 23.6991 78.2262 23.6758C77.9238 23.67 77.6738 23.7165 77.4936 23.8445C77.3133 23.9782 77.1505 24.2224 77.04 24.5248C76.8075 25.1237 76.6854 25.8156 76.54 26.4901C76.3946 27.1587 76.3016 27.8739 76.0225 28.5484L75.7434 28.4147C75.8888 28.2112 75.9992 27.9844 76.0864 27.7402C76.1679 27.496 76.2202 27.2518 76.2551 26.9727Z" fill="#00254D"/>
<path d="M82.1039 24.1294C81.5573 23.9317 81.0049 23.7456 80.4409 23.5828L80.4758 23.4433C80.9235 23.5189 81.3829 23.577 81.8364 23.6293C82.2841 23.6933 82.726 23.7224 83.2086 23.7921C83.6738 23.8735 84.1796 24.0073 84.5925 24.3561C85.0227 24.6934 85.267 25.24 85.3309 25.7458C85.4065 26.2575 85.3542 26.7517 85.2786 27.2285C85.1972 27.6879 85.139 28.1065 85.11 28.5484C85.0518 29.4206 85.1216 30.2928 85.3426 31.1184L84.3134 31.4499C83.9703 30.7463 83.7261 29.9323 83.7901 29.0659C83.8366 28.6007 83.9238 28.3042 83.9878 27.9437L84.2029 26.9029C84.2727 26.5599 84.3308 26.2342 84.325 25.9493C84.3192 25.6702 84.2145 25.426 83.9645 25.1934C83.4587 24.7399 82.7609 24.4259 82.1039 24.1294ZM82.1504 24.0247C82.8365 24.2864 83.5342 24.4492 84.2436 24.798C84.6041 24.9667 84.9646 25.3446 85.0867 25.7865C85.2204 26.2168 85.2437 26.6296 85.2321 27.0076C85.2321 27.3971 85.1856 27.7635 85.1449 28.1298C85.1042 28.4903 85.0286 28.9031 84.9995 29.1648C84.9472 29.752 85.0867 30.3916 85.3193 31.0196L84.2901 31.351C84.1273 30.3858 84.1215 29.4148 84.2436 28.467C84.3018 27.996 84.4064 27.5134 84.5111 27.0773C84.6099 26.6587 84.6739 26.2284 84.6448 25.833C84.6157 25.4376 84.482 25.0771 84.2029 24.8213C83.9296 24.5597 83.5342 24.3852 83.1156 24.2689C82.9063 24.205 82.6911 24.1759 82.4702 24.1178L81.7957 23.9375C81.348 23.8212 80.9119 23.6933 80.4642 23.5886L80.4991 23.4491C81.034 23.6642 81.5922 23.8445 82.1504 24.0247Z" fill="#00254D"/>
<path d="M76.0515 139.402C59.9686 139.414 43.8798 139.431 27.7968 139.408C26.8142 139.408 24.8314 140.048 26.0002 137.664C27.9887 138.46 29.0411 137.733 29.5063 135.698C30.0819 133.181 31.2972 130.832 31.5588 128.221C31.7565 127.639 32.2217 127.384 32.7683 127.232C33.5532 127.081 34.344 126.924 35.1522 126.942C36.0244 127.105 36.8442 127.535 37.7687 127.471C38.8095 127.715 39.7224 127.023 40.74 127.046C41.3098 127.25 41.8389 127.5 41.961 128.186C41.9494 128.512 41.8738 128.814 41.7284 129.105C40.7109 131.082 40.048 133.21 39.2572 135.274C38.3676 137.588 38.6467 137.978 41.147 137.989C49.9153 138.024 58.6836 137.989 67.4519 138.013C69.8591 138.018 72.2663 137.873 74.6735 138.14C75.3422 138.338 76.0632 138.478 76.0515 139.402Z" fill="#E2E6F2"/>
<path d="M30.1635 126.087C29.9367 124.098 30.6984 122.29 31.309 120.488C33.2801 114.661 34.914 108.748 36.5013 102.811C37.8212 102.544 38.9957 102.753 39.8737 103.887C40.5657 107.289 38.9841 110.353 38.1178 113.423C37.0304 117.266 35.9664 121.185 34.1639 124.814C33.6638 125.343 33.03 125.622 32.3323 125.767C31.588 125.744 30.9252 126.267 30.1635 126.087Z" fill="#CACFE5"/>
<path d="M82.93 102.213C84.1743 103.759 84.5232 105.661 85.0523 107.498C86.4187 112.219 87.8374 116.929 89.1922 121.656C89.6109 123.116 90.1109 124.61 89.3027 126.116C88.4015 126.128 88.0351 125.418 87.57 124.837C85.2209 117.54 82.4358 110.359 81.2612 102.718C81.2903 102.41 81.3891 102.12 81.5403 101.846C82.2148 101.149 82.5811 101.649 82.93 102.213Z" fill="#CACFE5"/>
<path d="M31.8436 128.366C32.3727 131.995 30.2039 134.977 29.2736 138.239C29.0119 139.164 26.814 139.722 26 137.669C26.2035 136.716 26.4128 135.762 26.6163 134.809C28.0642 132.262 28.8375 129.477 29.5178 126.657C29.6748 126.639 29.8376 126.628 29.9946 126.622C30.4597 126.831 30.7795 127.227 31.1982 127.5C31.5238 127.703 31.6285 128.076 31.8436 128.366Z" fill="#CACFE5"/>
<path d="M79.4994 82.4665C79.668 83.4433 79.168 84.5539 80.0983 85.3737C80.7728 86.2575 79.9878 87.4262 80.6623 88.3042C80.4181 92.1069 82.2962 95.5782 82.395 99.3286C82.0229 99.6484 81.5984 99.8344 81.0984 99.8402C80.6042 99.7937 80.1739 99.6193 79.8773 99.1948C78.7493 93.828 77.0573 88.5601 76.9526 83.0072C77.0399 81.8792 76.8712 80.7221 77.412 79.658C78.1737 78.8673 78.9179 78.2335 79.2029 79.9895C79.3366 80.8035 78.9761 81.6873 79.4994 82.4665Z" fill="#CACFE5"/>
<path d="M90.5184 139.362C90.5358 139.181 90.5417 139.007 90.5358 138.827C90.6231 138.728 90.7045 138.623 90.7859 138.518C91.8383 137.792 91.3382 136.89 91.1057 135.983C90.5358 133.791 89.3904 131.808 88.7973 129.628C88.7566 129.198 88.8031 128.773 88.9485 128.366C89.0764 128.099 89.2683 127.895 89.5357 127.762C90.8789 127.686 91.3441 128.593 91.6929 129.657C92.5244 132.21 93.2861 134.785 94.2222 137.303C94.7862 138.821 94.4839 139.495 92.821 139.431C92.0534 139.391 91.2859 139.379 90.5184 139.362Z" fill="#CACFE5"/>
<path d="M80.6622 88.3042C79.7493 87.467 80.197 86.368 80.0982 85.3737C81.0692 86.1994 80.5459 87.31 80.6622 88.3042Z" fill="#F8F9F9"/>
<path d="M39.9434 59.2781C40.9145 59.22 41.8855 59.1677 42.8565 59.1095C55.0263 58.3071 67.2135 58.7665 79.3891 58.6327C79.4647 58.7781 79.5112 58.9351 79.5287 59.0979C79.4124 59.2374 79.2961 59.3712 79.1856 59.5107C75.9062 60.6387 72.5222 59.8945 69.1905 60.0515C63.6899 60.1096 58.1894 60.0398 52.6889 60.0864C51.4678 60.098 50.1305 59.8422 49.2467 61.069C48.8164 62.1621 47.0139 61.7028 46.8918 63.1622C46.3743 64.3193 45.6068 64.4298 44.6357 63.7204C44.2404 63.5227 44.0892 62.511 43.3856 63.3599C43.0251 63.9414 42.5716 64.3251 41.839 64.1216C40.9726 63.5111 40.8679 62.2901 39.926 61.7435C39.7806 60.9178 39.4318 60.0922 39.9434 59.2781Z" fill="#CACFE5"/>
<path d="M79.4993 82.4665C78.7493 81.9199 78.9237 81.1059 78.9528 80.3732C78.9935 79.3848 78.5865 79.2045 77.7608 79.5708C76.1095 79.158 76.7781 77.7451 76.7374 76.8089C76.6502 74.8785 76.4758 72.8434 77.9934 71.2444C79.5749 72.8027 78.947 69.6454 80.0866 70.2618C80.0285 74.332 79.1737 78.373 79.4993 82.4665Z" fill="#CACFE5"/>
<path d="M80.0808 70.256C79.011 69.8955 80.3716 73.2272 78.3365 71.4073C77.2782 70.8898 77.569 70.006 77.7143 69.1629C78.3714 67.6627 77.7841 65.552 79.8541 64.7322C80.5634 64.6333 80.924 65.0811 81.2438 65.6044C81.5926 67.3371 80.3367 68.6744 80.0808 70.256Z" fill="#CACFE5"/>
<path d="M79.5343 59.0921C79.7204 59.1095 79.9064 59.1212 80.0925 59.1444C81.2787 59.2781 83.0288 58.5862 83.5463 59.4817C84.3255 60.819 82.1741 61.4528 81.8427 62.7029C81.6624 62.9006 81.4473 62.9587 81.1914 62.8715C80.5751 62.4471 79.9123 62.104 79.3192 61.6388C78.8831 60.8422 78.1679 60.0224 79.4878 59.3537L79.5343 59.0921Z" fill="#CACFE5"/>
<path d="M79.6212 61.697C80.5341 61.4004 81.2144 61.4528 81.0864 62.6913C81.3772 63.2495 80.8306 63.8774 81.2376 64.4182C81.2376 64.8136 81.2376 65.209 81.2376 65.5985C80.8597 65.4066 80.4817 65.2148 80.1038 65.0229C79.3537 64.4647 78.9641 63.7204 78.9932 62.7727C79.0455 62.325 79.2025 61.9296 79.6212 61.697Z" fill="#CACFE5"/>
<path d="M81.238 64.4182C80.4763 63.9007 80.5519 63.3134 81.0868 62.6913C81.3369 62.6971 81.5869 62.6971 81.8369 62.7029C81.6392 63.2727 81.4415 63.8484 81.238 64.4182Z" fill="#CACFE5"/>
<path d="M38.1406 102.201C38.3732 101.236 38.6116 100.271 38.8442 99.3111C39.4198 99.1425 40.0013 98.4099 40.5711 99.3169C41.2049 100.346 40.792 101.061 39.885 101.631C39.3035 101.823 38.7221 102.009 38.1406 102.201Z" fill="#CACFE5"/>
<path d="M42.2803 98.7413C43.5014 98.7704 43.4607 99.6716 43.5072 100.515C43.67 100.765 43.7107 101.032 43.6409 101.323C42.6757 103.032 41.7745 102.899 40.9372 101.218C40.8441 100.555 41.129 100.125 41.7512 99.91C42.1989 99.6425 42.2861 99.2123 42.2803 98.7413Z" fill="#CACFE5"/>
<path d="M39.7626 62.0808C39.8615 62.2843 39.9603 62.482 40.0591 62.6855C39.9719 63.1681 40.0359 63.7263 39.3905 63.9007C39.1753 63.139 38.9544 62.3773 38.7393 61.6156C39.3498 61.1737 39.5998 61.5284 39.7626 62.0808Z" fill="#CACFE5"/>
<path d="M47.537 128.36C45.8508 130.803 44.1937 130.803 41.7051 128.366C41.7167 128.186 41.7283 128 41.7341 127.82C42.4784 127.802 42.868 126.994 43.618 126.959C44.9961 127.477 45.8043 125.895 47.0777 126.017C47.694 126.715 47.6301 127.535 47.537 128.36Z" fill="#CACFE5"/>
<path d="M37.6465 127.826C36.5883 128.779 36.0068 127.808 35.3207 127.25C34.6113 126.337 35.0881 125.517 35.5184 124.686C36.8325 123.622 37.7919 124.145 38.6001 125.366C38.8327 126.395 38.4663 127.198 37.6465 127.826Z" fill="#CACFE5"/>
<path d="M43.3794 127.209C42.9201 127.657 42.5945 128.448 41.7339 127.826C41.2222 127.791 40.7513 127.686 40.4896 127.168C40.1698 126.779 40.1582 126.349 40.2861 125.883C40.6001 125.116 41.106 124.569 41.9549 124.401C43.0771 124.325 43.8271 124.738 43.9725 125.947C43.9609 126.453 43.8329 126.907 43.3794 127.209Z" fill="#CACFE5"/>
<path d="M31.2041 127.75C31.4367 126.988 31.6693 126.221 31.9018 125.459C32.46 125.267 33.0182 125.081 33.5822 124.889C33.8265 124.68 34.0648 124.662 34.3149 124.883C34.8614 126.25 34.0997 127.07 33.0938 127.785C32.6054 127.814 32.1344 127.889 31.8553 128.366C31.6286 128.157 31.4192 127.953 31.2041 127.75Z" fill="#CACFE5"/>
<path d="M81.2964 138.809C84.1222 137.629 87.0818 138.565 89.9658 138.274C90.5124 138.094 90.6694 138.309 90.5356 138.827C90.5356 138.827 90.5415 138.827 90.5356 138.827C87.454 138.821 84.3781 138.815 81.2964 138.809Z" fill="#939EA4"/>
<path d="M39.7632 62.0808C39.4201 61.9238 39.0771 61.7668 38.734 61.6156C37.6525 61.5109 36.2454 61.1446 36.5943 59.9817C37.0885 58.3362 38.7747 59.3945 39.9434 59.2782C40.0655 60.0399 40.5365 60.7958 40.0074 61.5749C39.9202 61.7377 39.8388 61.9122 39.7632 62.0808Z" fill="#CACFE5"/>
<path d="M89.4075 129.547C88.8202 129.547 88.2329 129.547 87.6457 129.547C87.1282 129.291 86.7968 128.93 86.9363 128.302C87.2561 127.837 87.6282 127.512 88.2388 127.796C88.6051 127.959 88.9714 128.116 89.3319 128.279C89.361 128.704 89.3842 129.122 89.4075 129.547Z" fill="#CACFE5"/>
<path d="M88.2384 127.796C87.8488 127.994 87.4593 128.192 87.0639 128.39C86.1277 128.616 85.9301 127.872 85.6044 127.291C85.4998 126.872 85.5172 126.477 85.8079 126.128C85.901 125 86.6801 124.854 87.5814 124.889C87.6337 125.895 87.5523 126.93 88.2384 127.796Z" fill="#CACFE5"/>
<path d="M48.6356 61.5923C48.1414 60.2783 47.81 59.1851 49.973 59.2258C56.3457 59.3363 62.7242 59.3305 69.0969 59.3654C70.0505 59.8712 70.2831 60.8365 70.6203 61.7435C70.5913 62.3017 70.4052 62.7494 69.783 62.8599C68.9574 62.5459 68.1317 62.2494 67.2188 62.4296C66.1664 62.1796 65.5617 62.6157 65.3291 63.6391C65.1838 63.8716 64.9686 64.0112 64.7012 64.0635C64.4337 64.017 64.2186 63.8833 64.0499 63.6681C63.6604 63.2611 63.5266 62.0168 62.6312 63.2437C61.852 64.5519 60.7182 64.7147 59.3983 64.2496C58.4738 63.7844 58.3459 61.8831 56.6829 62.7436C55.1886 64.4008 54.1943 62.7669 53.0372 62.2087C51.7697 62.2378 51.7173 63.6274 50.8801 64.1333C49.9555 64.2379 49.1008 64.1333 48.4554 63.3658C48.1647 62.7378 48.1937 62.1447 48.6356 61.5923Z" fill="#CACFE5"/>
<path d="M46.9558 102.806C46.8221 101.724 45.6592 102.195 45.1882 101.625C44.4323 100.654 44.8277 99.9391 45.7057 99.3344C46.479 98.8809 47.2523 98.6948 48.0431 99.2995C48.6362 100.119 48.2292 100.968 48.1361 101.811C47.9152 102.352 47.7815 102.998 46.9558 102.806Z" fill="#CACFE5"/>
<path d="M47.5373 128.36C46.6419 127.762 47.1013 126.785 46.8861 126C46.5896 125.581 46.6245 125.168 46.8919 124.75C47.9618 124.069 49.1305 123.965 50.3516 124.139C50.6074 124.308 50.7876 124.54 50.9039 124.825C51.1423 125.552 51.1075 126.285 50.8981 127.011C50.6946 127.576 50.3981 128.07 49.8283 128.343C49.0666 127.86 48.299 127.86 47.5373 128.36Z" fill="#CACFE5"/>
<path d="M62.1547 127.244C62.1198 126.5 62.0791 125.756 62.0443 125.011C61.8175 124.726 61.8349 124.453 62.0908 124.197C63.8351 123.883 65.2132 124.331 65.9516 126.081C66.1144 126.727 66.0621 127.331 65.5737 127.843C64.2887 128.471 63.1025 128.535 62.1547 127.244Z" fill="#CACFE5"/>
<path d="M57.4043 128.366C56.2647 127.436 55.1192 128.227 53.9737 128.349C53.7586 128.163 53.6307 127.924 53.5726 127.645C53.5551 127.36 53.5784 127.075 53.6365 126.796C53.8865 125.965 53.8982 125.005 54.7994 124.5C55.596 124.18 56.3751 124.197 57.1368 124.593C58.0672 125.79 57.823 127.075 57.4043 128.366Z" fill="#CACFE5"/>
<path d="M69.2081 127.25C69.1267 126.465 69.0453 125.686 68.9639 124.901C69.5744 124.343 70.1849 124.482 70.7955 124.895C71.0978 125.808 72.0805 126.761 71.2722 127.657C70.7547 128.233 69.7256 128.279 69.2081 127.25Z" fill="#CACFE5"/>
<path d="M57.4043 128.366C57.2473 127.203 57.8869 125.913 56.8519 124.895C56.7531 123.563 57.7648 123.575 58.6428 123.412C59.6371 123.767 61.1489 123.122 61.4512 124.848C59.4801 124.866 57.3636 124.715 58.0207 127.791C57.8637 128.035 58.2881 128.895 57.4043 128.366Z" fill="#CACFE5"/>
<path d="M53.34 131.343C52.9098 131.483 52.6307 131.675 52.4795 131.599C52.2818 131.5 52.1771 131.198 52.0376 130.983C52.2062 130.913 52.4039 130.756 52.5376 130.797C52.7644 130.872 52.9563 131.07 53.34 131.343Z" fill="#DAD1D7"/>
<path d="M79.0463 127.139C78.8137 127.558 78.5811 127.977 78.3485 128.395C77.959 128.39 77.5752 128.384 77.1856 128.378C76.9996 127.401 76.8135 126.418 76.6274 125.442C76.9647 124.703 77.5112 124.43 78.2962 124.674C78.7904 124.982 79.0521 125.453 79.244 125.982C79.3428 126.389 79.3196 126.785 79.0463 127.139Z" fill="#CACFE5"/>
<path d="M79.4991 102.835C78.2664 102.724 77.4058 102.038 76.7372 101.05C76.1034 100.654 76.0568 100.055 76.1615 99.4041C76.6557 98.2529 77.3767 98.2412 78.2373 99.0029C79.1909 99.8286 79.1793 101.212 80.0224 102.102C79.8537 102.346 79.6793 102.59 79.4991 102.835Z" fill="#CACFE5"/>
<path d="M58.6197 102.23C57.5963 102.213 56.573 102.201 55.5496 102.183C54.8344 101.166 54.9217 100.207 55.7706 99.3111C56.6486 98.718 57.637 98.7238 58.6313 98.7587C59.5093 99.9158 59.4919 101.073 58.6197 102.23Z" fill="#CACFE5"/>
<path d="M52.8749 100.561C52.8749 101.108 52.8807 101.649 52.8807 102.195C51.5666 102.3 50.3107 102.323 50.3572 100.451C50.3805 100.073 50.4037 99.6949 50.427 99.3169C51.8923 98.4564 52.7993 98.689 52.8749 100.561Z" fill="#CACFE5"/>
<path d="M64.4686 102.137C63.6778 102.864 62.8289 101.951 62.0207 102.218C61.259 101.224 61.2939 100.253 62.1137 99.3111C62.8463 98.7994 63.579 98.7297 64.3 99.3227L64.4628 99.3286C64.7302 99.6832 64.9337 100.067 64.9861 100.515C65.0384 101.125 64.8872 101.672 64.4686 102.137Z" fill="#CACFE5"/>
<path d="M66.8645 99.8984C67.5623 98.7355 68.4286 98.4389 69.5334 99.3693C69.5799 99.7298 69.6264 100.09 69.6729 100.457C69.8067 102.259 68.6031 102.294 67.3239 102.224C67.1262 102.044 66.9401 101.852 66.7599 101.654C66.4285 101.044 66.0854 100.439 66.8645 99.8984Z" fill="#CACFE5"/>
<path d="M83.5757 124.901C83.4361 125.767 83.8722 126.494 84.1629 127.25C83.5292 128.093 82.6221 127.738 81.8139 127.791C80.9126 127.285 80.5638 126.541 80.8254 125.523C81.0173 125.087 81.2673 124.75 81.8255 124.889C82.407 125.256 82.9942 125.255 83.5757 124.901Z" fill="#CACFE5"/>
<path d="M72.5046 102.224C72.4697 101.468 72.4406 100.712 72.4058 99.9565C72.6907 98.4854 73.5687 98.9622 74.4176 99.3402C74.9525 100.026 75.6037 100.689 74.8944 101.631C74.2606 102.492 73.3245 102.12 72.5046 102.224Z" fill="#CACFE5"/>
<path d="M25.6107 139.391C31.3961 139.943 37.2106 140.019 43.0135 139.862C48.8164 139.705 54.6135 139.309 60.4048 138.891C66.2018 138.478 71.9989 138.053 77.8134 137.815C83.6279 137.582 89.4599 137.536 95.2802 137.925L94.8383 138.53L87.1748 120.075C85.9014 116.987 84.8025 113.795 83.9768 110.545C83.1279 107.294 82.5348 103.992 82.0813 100.678C81.1975 94.0373 80.93 87.3623 80.6916 80.7047C80.5986 77.3729 80.5637 74.018 80.9184 70.6804C81.2905 67.3545 82.0871 64.0402 83.5814 61.0516L83.6861 61.1039C82.3255 64.1449 81.6975 67.4417 81.4649 70.7386C81.2149 74.0412 81.3428 77.3555 81.5347 80.6756C81.9068 87.3216 82.308 93.9618 83.2384 100.521C84.1629 107.085 85.6979 113.528 88.1923 119.674L95.6407 138.204L95.9082 138.867L95.2046 138.815C83.6454 137.943 72.0222 138.757 60.428 139.449C54.6251 139.792 48.8222 140.117 43.0077 140.205C37.1932 140.292 31.367 140.141 25.5874 139.513L25.6107 139.391Z" fill="#00254D"/>
<path d="M26.1167 136.652C27.2215 135.536 28.0355 134.163 28.6518 132.727C29.274 131.285 29.7217 129.779 30.1403 128.262L32.6173 119.144C34.2512 113.062 35.8211 106.963 37.1236 100.811C38.4319 94.6595 39.432 88.4496 40.1588 82.2164C40.5309 79.1057 40.746 75.9717 40.6414 72.8493C40.5367 69.7269 40.0599 66.6045 39.0307 63.6274L39.1121 63.5984C40.3855 66.494 41.0135 69.6571 41.2519 72.8144C41.4903 75.9833 41.3159 79.1638 41.0309 82.3095C40.4088 88.6008 39.211 94.8165 37.8097 100.962C36.4142 107.114 34.7629 113.202 33.0418 119.261L30.3962 128.331C29.9485 129.843 29.4717 131.355 28.8146 132.797C28.1634 134.233 27.3145 135.605 26.1807 136.71L26.1167 136.652Z" fill="#00254D"/>
<path d="M37.5479 60.8132C37.0885 60.9993 36.5536 60.883 36.1582 60.5981C35.7628 60.319 35.4663 59.8538 35.4896 59.348V59.2956H35.5419C43.688 58.9119 51.84 58.6444 59.9978 58.4583C64.0737 58.3595 68.1555 58.2723 72.2315 58.3014C74.2724 58.3362 76.3075 58.2897 78.36 58.4467C78.8717 58.4874 79.3834 58.5398 79.8892 58.6153C80.3951 58.6967 80.9068 58.7607 81.4068 58.9351C81.8952 59.1096 82.3953 59.4119 82.6395 59.9004C82.8837 60.3597 82.907 60.9993 82.5174 61.3889L82.4767 61.3482C82.8139 60.9644 82.75 60.383 82.5057 59.9759C82.2615 59.5515 81.7964 59.3131 81.3312 59.1794C80.3776 58.9351 79.3368 58.8886 78.3368 58.8363C76.3133 58.7723 74.2724 58.8421 72.2373 58.8654C68.1613 58.9293 64.0854 58.9235 60.0094 58.9526C51.8574 59.0224 43.7055 59.1852 35.5535 59.4119L35.6058 59.3596C35.5535 60.2899 36.6408 61.0981 37.5304 60.7609L37.5479 60.8132Z" fill="#00254D"/>
<path d="M40.3037 63.4995C47.1532 63.7611 54.0085 63.8309 60.858 63.7146C64.2828 63.6507 67.7017 63.5053 71.1265 63.4065L81.4007 63.1099L81.4065 63.1681C77.9992 63.5693 74.5745 63.796 71.1497 63.9879C67.725 64.1623 64.2886 64.1798 60.8638 64.1798C54.0027 64.1914 47.1474 63.9879 40.3037 63.5576V63.4995Z" fill="#00254D"/>
<path d="M38.0361 102.37L48.7116 102.596C52.2701 102.678 55.8286 102.782 59.387 102.829C62.9455 102.87 66.4982 102.811 70.0392 102.637C73.5861 102.486 77.1155 102.096 80.6275 101.503L80.6391 101.561C77.1911 102.48 73.6326 102.963 70.0741 103.218C66.5098 103.468 62.9397 103.399 59.3812 103.294C55.8227 103.189 52.2643 103.027 48.7116 102.887L38.0419 102.428L38.0361 102.37Z" fill="#00254D"/>
<path d="M38.0361 97.7063L59.387 98.0668C62.9397 98.0959 66.4924 98.0028 70.0276 97.8458C73.5687 97.7237 77.0922 97.3516 80.6158 96.8399L80.6333 96.9271C77.2027 97.9331 73.6384 98.4331 70.0741 98.718C66.504 98.9855 62.9281 98.8866 59.3696 98.7645C55.8053 98.6424 52.2526 98.468 48.7 98.311L38.0361 97.7935V97.7063Z" fill="#00254D"/>
<path d="M31.5063 128.169L59.9045 128.314L67.004 128.343L74.1035 128.424C78.8307 128.517 83.5579 128.483 88.2619 127.948L88.2677 128.006C83.5986 128.872 78.8307 128.994 74.0977 129.006L66.9982 128.919L59.8986 128.779L31.5063 128.227V128.169Z" fill="#00254D"/>
<path d="M32.0879 122.924H46.2869L60.486 122.965C65.219 122.976 69.952 122.941 74.6851 123.046C79.4123 123.162 84.1278 123.151 88.8376 122.703L88.8492 122.79C84.1918 123.738 79.4064 123.883 74.6734 123.924C69.9346 123.936 65.2074 123.773 60.4744 123.668L46.2811 123.366L32.0879 123.017V122.924Z" fill="#00254D"/>
<path d="M39.5656 29.2927C39.147 29.0834 38.9086 28.6356 38.7807 28.2054C38.6469 27.7693 38.5888 27.3216 38.5074 26.8797C38.362 25.99 38.2457 25.1004 38.1876 24.1992C38.0771 22.4025 38.1876 20.5535 38.769 18.8091C39.3156 17.0648 40.4378 15.4425 42.0019 14.4191C42.7869 13.9249 43.6532 13.5412 44.5719 13.3842C45.4848 13.2272 46.4384 13.2911 47.2815 13.6167L47.2641 13.6749C45.4906 13.3435 43.723 13.8842 42.3275 14.9018C40.9262 15.9135 39.7982 17.309 39.2051 18.9661C38.5946 20.6174 38.426 22.4141 38.4725 24.1875C38.49 25.0772 38.5655 25.9668 38.676 26.8564C38.7341 27.2983 38.7749 27.746 38.8853 28.1763C38.9958 28.5949 39.1993 29.0252 39.5889 29.2404L39.5656 29.2927Z" fill="#CACFE5"/>
<path d="M71.0103 11.5177C72.179 9.59309 73.6384 7.84292 75.3363 6.34859C76.1852 5.60433 77.0922 4.91822 78.0516 4.31351C78.9994 3.7088 80.0344 3.14479 81.2147 2.97036C81.7962 2.88314 82.4241 2.92965 82.994 3.14479C83.5696 3.35993 84.0522 3.72043 84.4941 4.07511C84.936 4.43561 85.3489 4.80193 85.7966 5.08684C86.2385 5.37757 86.7327 5.58689 87.2502 5.7497C89.3318 6.41255 91.6227 6.40092 93.7857 5.82528L93.8032 5.87761C91.7216 6.77887 89.3085 6.90679 87.0758 6.30208C86.5176 6.13345 85.971 5.90669 85.4651 5.58689C84.9651 5.26128 84.5464 4.86589 84.122 4.5112C83.7033 4.1507 83.2789 3.81928 82.8021 3.62158C82.3253 3.42389 81.7962 3.36574 81.2671 3.42389C80.203 3.54599 79.1913 4.05186 78.2435 4.62749C77.2841 5.19732 76.3771 5.84854 75.5165 6.56373C73.7896 7.98247 72.2836 9.66868 71.051 11.5468L71.0103 11.5177Z" fill="#CACFE5"/>
<path d="M53.7415 34.4153C54.852 35.2816 56.2824 35.5433 57.6488 35.5433C58.3408 35.5491 59.0327 35.4968 59.7246 35.4212C60.4165 35.3398 61.1085 35.2584 61.7655 35.0897C62.4226 34.9211 63.0447 34.6537 63.5622 34.2524C64.0739 33.8454 64.5158 33.3454 64.8763 32.7814C65.6205 31.6534 66.0392 30.316 66.5509 29.0078L66.609 29.0194C66.4229 30.4091 66.0857 31.8045 65.3763 33.0837C65.01 33.7117 64.5158 34.2873 63.9053 34.7176C63.2889 35.1421 62.5795 35.3979 61.876 35.5433C61.1724 35.6945 60.4631 35.7468 59.7653 35.7991C59.0618 35.8514 58.3582 35.8747 57.6488 35.8398C56.2475 35.77 54.7823 35.4095 53.7124 34.4676L53.7415 34.4153Z" fill="#CACFE5"/>
<path d="M36.0999 51.225C35.4487 51.1204 34.9195 50.6261 34.6172 50.0563C34.3032 49.4749 34.2276 48.7946 34.2741 48.1491C34.373 46.8467 34.8847 45.6373 34.8672 44.422C34.8614 43.2068 34.1404 42.1544 33.6694 40.945C33.4427 40.3344 33.2682 39.6774 33.2798 39.0029C33.2857 38.3401 33.495 37.6365 33.9776 37.1888L34.0241 37.2237C33.6869 37.7644 33.6171 38.3866 33.6869 38.9797C33.7566 39.5785 33.9427 40.16 34.2102 40.7124C34.4602 41.2764 34.7567 41.8462 34.9835 42.4567C35.2103 43.0673 35.3673 43.7417 35.3382 44.4162C35.2917 45.7652 34.7102 46.9339 34.5707 48.1666C34.4951 48.7771 34.5242 49.4109 34.78 49.9691C35.03 50.5215 35.501 51.0157 36.1173 51.1611L36.0999 51.225Z" fill="#CACFE5"/>
<path d="M49.9966 53.1089C51.3281 52.8415 52.6771 52.51 53.9098 51.9809C54.5145 51.7076 55.0145 51.2599 55.2064 50.6494C55.4099 50.0505 55.4332 49.3469 55.4448 48.7015C55.4332 48.3875 55.3285 48.1782 55.1017 47.9573C54.875 47.7363 54.6075 47.5212 54.3458 47.3177C53.8167 46.9048 53.2585 46.5095 52.7294 46.0501C52.2119 45.5791 51.7119 45.05 51.3746 44.422C51.0316 43.7999 50.8339 43.0673 50.956 42.3753L51.0141 42.3811C51.0665 43.0614 51.3339 43.6836 51.7177 44.2127C52.1015 44.7477 52.5724 45.207 53.1074 45.6082C53.6248 46.0269 54.183 46.4222 54.7122 46.8758C54.9796 47.1084 55.2297 47.3351 55.4855 47.6026C55.6076 47.7421 55.7355 47.9049 55.8169 48.1026C55.8983 48.3003 55.9158 48.5097 55.9158 48.6957C55.8751 49.4109 55.8286 50.097 55.5669 50.7889C55.4332 51.1262 55.2238 51.446 54.9506 51.696C54.6773 51.946 54.3575 52.1205 54.0319 52.2542C52.712 52.731 51.3688 52.9752 50.0082 53.1729L49.9966 53.1089Z" fill="#CACFE5"/>
<path d="M73.6326 45.114C73.9466 45.2942 74.3246 45.3001 74.6734 45.2245C75.0223 45.1489 75.3595 45.0035 75.6852 44.8465C76.3306 44.5325 77.0167 44.1837 77.319 43.5673C77.4702 43.265 77.5284 42.9161 77.5923 42.5556C77.6505 42.1951 77.7377 41.8172 77.8598 41.4625C78.1098 40.7473 78.4936 40.0786 78.982 39.4972C79.4762 38.9215 80.0751 38.4098 80.7729 38.0726C81.1159 37.8924 81.4939 37.7761 81.8718 37.683C82.2556 37.6133 82.6451 37.5784 83.0347 37.5958C84.593 37.6947 85.9652 38.375 87.2095 39.1425L87.1863 39.1948C85.7966 38.7238 84.4244 38.1598 83.0231 38.1773C81.645 38.154 80.2961 38.7703 79.3367 39.8111C78.8599 40.3286 78.4819 40.9392 78.2203 41.602C78.0924 41.9334 77.9993 42.2707 77.9296 42.6312C77.854 42.9859 77.7784 43.3696 77.5865 43.7185C77.1737 44.4279 76.4236 44.736 75.7666 45.021C75.4293 45.1605 75.0746 45.2942 74.7025 45.3582C74.3362 45.4163 73.9292 45.3873 73.6094 45.1838L73.6326 45.114Z" fill="#CACFE5"/>
<path d="M103.136 11.8491C104.084 13.3086 105.084 14.8378 105.281 16.6868C105.316 17.1461 105.287 17.6229 105.113 18.0881C104.944 18.5533 104.572 18.9545 104.159 19.1929C103.746 19.4429 103.31 19.5882 102.886 19.7278C102.461 19.8673 102.025 19.9894 101.589 20.0883C99.8448 20.4953 97.9958 20.6232 96.2165 20.2685C95.3153 20.1116 94.4896 19.7278 93.8035 19.9022C93.0999 20.0709 92.7394 20.9779 92.472 21.7919L92.3848 21.7745C92.4022 21.3326 92.4603 20.8849 92.6115 20.4372C92.7685 20.0011 93.0941 19.5475 93.5884 19.3324C94.0826 19.1056 94.6117 19.1463 95.0594 19.2045C95.5246 19.2743 95.9258 19.3615 96.3503 19.408C98.0307 19.6289 99.7518 19.6987 101.444 19.4022C101.868 19.3324 102.281 19.2336 102.7 19.1231C103.118 19.0126 103.525 18.8905 103.874 18.7044C104.223 18.5184 104.496 18.2567 104.648 17.8962C104.805 17.5415 104.857 17.1287 104.845 16.7101C104.787 15.0064 103.915 13.4074 103.06 11.8956L103.136 11.8491Z" fill="#00254D"/>
</g>
</svg>
