<svg width="91" height="139" viewBox="0 0 91 139" fill="none" xmlns="http://www.w3.org/2000/svg">
<path d="M89.4886 10.3728C89.1688 9.82043 88.8432 9.37271 88.3955 8.97151C87.9594 8.57613 87.4477 8.27958 86.9012 8.07026C85.7964 7.65162 84.5986 7.57021 83.4183 7.49463C83.1217 7.47718 82.8252 7.44811 82.5345 7.44811C82.2438 7.44811 81.9472 7.47718 81.6507 7.50044C81.0692 7.54696 80.4005 7.51207 79.9238 7.09924C79.4644 6.67478 79.2144 6.13984 78.8132 5.69794C78.4352 5.24441 78.0224 4.81995 77.5689 4.44782C75.7548 2.91278 73.3533 2.24411 70.9985 2.20923C69.8181 2.17434 68.632 2.25574 67.4632 2.40692C66.3062 2.56391 65.1316 2.97093 63.9048 2.71509C63.3001 2.58717 62.7651 2.21504 62.3639 1.76151C62.1604 1.53474 61.9918 1.27891 61.829 1.02888C61.6952 0.802114 61.4452 0.674195 61.1719 0.627679C60.6196 0.528832 60.0032 0.586977 59.416 0.540461C58.8287 0.505574 58.2356 0.511388 57.6483 0.523017C55.2993 0.610235 52.9328 1.13354 50.9326 2.36622C49.9383 2.97674 49.0312 3.73263 48.2695 4.62807C47.502 5.51769 46.8799 6.50616 46.3217 7.54696C46.1763 7.81442 46.0193 8.07608 45.8216 8.3261C45.6239 8.57031 45.3681 8.80871 45.025 8.925C44.6761 9.03547 44.3098 8.9657 44.0133 8.83778C43.7109 8.70404 43.4609 8.51798 43.2167 8.3261L42.8736 8.02375L42.5422 7.75628C42.3271 7.57021 42.0596 7.45392 41.827 7.29693C41.3095 7.04691 40.7746 6.82596 40.2164 6.68059C39.1 6.37824 37.9255 6.25613 36.7742 6.32009C35.6229 6.38987 34.4717 6.6457 33.4716 7.18646C33.2157 7.31437 33.0006 7.49463 32.7622 7.6458C32.5587 7.83187 32.3436 8.01793 32.1575 8.22144C31.9947 8.45402 31.8261 8.64009 31.6574 8.91337C31.4888 9.16921 31.3086 9.42505 31.076 9.65763C30.8492 9.89021 30.5701 10.1053 30.2271 10.2158C29.8898 10.3321 29.5293 10.3321 29.2095 10.2798C28.5699 10.1809 28.0001 9.89602 27.471 9.75066C26.3779 9.43086 25.2091 9.3669 24.0579 9.45412C22.9008 9.52971 21.7611 9.79718 20.668 10.1751C19.5749 10.5531 18.5166 11.0589 17.5805 11.7334C16.6443 12.4021 15.7722 13.1754 15.1384 14.129C14.493 15.0768 14.0801 16.1292 13.8069 17.2746C13.522 18.4027 13.3359 19.5598 13.2487 20.7285C13.0684 23.0601 13.2429 25.415 13.5161 27.7582C13.551 28.328 13.7545 28.8455 13.8243 29.52C13.8534 29.8514 13.8359 30.2352 13.6557 30.5899C13.4812 30.9446 13.1731 31.2004 12.8765 31.3632C12.7254 31.4563 12.5684 31.5086 12.4172 31.5784L12.0044 31.7354C11.7311 31.84 11.4578 31.9447 11.1903 32.061C10.6496 32.2819 10.1321 32.5378 9.63785 32.811C9.16106 33.1018 8.71917 33.439 8.42263 33.8518C8.12027 34.2647 7.98653 34.7705 7.96327 35.3113C7.95165 36.4102 8.23656 37.5615 8.53891 38.6895L8.4924 38.579C9.00989 39.3815 9.34714 40.3292 9.4518 41.2886C9.55646 42.2538 9.48668 43.1725 9.32388 44.1145C9.14363 45.0448 8.85871 45.8937 8.77149 46.731C8.67265 47.5683 8.83546 48.3533 9.32388 48.987L9.42854 49.1208L9.41109 49.301C9.35876 49.8185 9.40528 50.3302 9.5739 50.807C9.74252 51.2838 10.0274 51.7199 10.3879 52.1152C11.1089 52.9002 12.0741 53.4991 13.0452 54.1154L12.3939 54.3073L12.6963 53.6561L13.1556 54.2143C13.8825 55.0981 14.8011 55.8075 15.8187 56.354C16.8362 56.9064 17.9468 57.3134 19.0806 57.6856L19.0225 57.6681C20.447 57.9298 21.9414 57.7204 23.4532 57.4646C24.2149 57.3425 24.9882 57.2146 25.779 57.1448C26.1743 57.1099 26.5814 57.0983 26.9826 57.0983H28.1397L37.3847 57.0867L46.6298 57.075H51.264C52.0315 57.0925 52.7641 57.0983 53.4328 56.9529C54.2003 56.7785 54.4445 56.6273 54.5608 55.9819L54.555 56.0691C54.5899 54.8888 53.8689 53.7317 53.4037 52.342C53.2933 51.9873 53.2002 51.6152 53.1537 51.2314C53.113 50.807 53.1188 50.5337 53.0665 50.2313C52.9793 49.6324 52.7467 49.0975 52.3746 48.673C51.9966 48.2486 51.4791 47.9346 50.8977 47.7195C50.3162 47.4985 49.6825 47.388 49.008 47.2718C47.6648 47.0566 46.2402 46.795 44.9087 46.2775L43.3214 45.6611L44.9552 45.1785C45.967 44.8762 47.0543 44.8122 48.0428 44.8297C48.537 44.8297 49.0138 44.8413 49.4557 44.789C49.915 44.7366 50.3976 44.661 50.8512 44.5622C51.7582 44.3645 52.6013 44.0272 53.2177 43.4516C53.5258 43.1609 53.7933 42.8236 53.991 42.4341C54.0898 42.2422 54.1829 42.0387 54.2585 41.8294L54.5027 41.1374C54.869 40.1432 55.4563 39.1605 56.3692 38.4918C56.8052 38.1371 57.3343 37.9104 57.8635 37.7301C58.4042 37.5964 58.9682 37.5092 59.5206 37.5615C60.6312 37.6197 61.6545 38.0616 62.5325 38.6256C63.4163 39.207 64.1141 39.8466 64.9281 40.2304C65.3351 40.4339 65.7073 40.5153 66.2131 40.6025C66.6899 40.7013 67.1667 40.7711 67.6435 40.8467C68.5971 40.9688 69.5507 41.0444 70.4752 40.963C71.3939 40.8816 72.266 40.6025 72.9173 40.0327C73.5743 39.4687 73.9697 38.6314 74.2023 37.7301C74.4523 36.8347 74.4756 35.8578 74.5104 34.9043C74.5104 34.3984 74.5395 33.8635 74.6732 33.3402L75.0977 31.9156C75.3477 30.9853 75.5629 30.055 74.9814 29.4095C74.7081 29.0723 74.336 28.7641 73.9522 28.4734C73.5685 28.1769 73.1673 27.8978 72.7661 27.6129L72.8068 27.6361C72.237 27.3512 71.673 26.9616 71.3066 26.3569C71.1264 26.0604 71.0217 25.7115 71.0043 25.3626C70.9985 25.3278 70.9985 25.2638 71.0043 25.1998C71.0159 25.1475 71.0159 25.1184 71.0624 25.0312C71.0915 24.9847 71.1206 24.944 71.1787 24.9149C71.2311 24.88 71.3241 24.8626 71.359 24.8684C71.3997 24.8684 71.4404 24.88 71.4753 24.8917L71.5334 24.9207C71.5799 24.944 71.5916 24.9556 71.6148 24.9731C71.6555 25.0021 71.6904 25.0312 71.7253 25.0603C71.8358 25.1591 71.9869 25.2871 71.9811 25.2754L71.9288 25.1824L72.0974 25.3394C72.4463 25.6708 72.8475 25.8976 73.3301 26.072C73.8011 26.2639 74.2779 26.4441 74.7663 26.5837C75.7373 26.8744 76.7432 27.0663 77.755 27.1244C79.7842 27.2349 81.8251 26.7756 83.6567 25.8627L84.3253 25.5313L83.8428 26.1011L83.8369 26.1127L83.6741 25.8685C85.1219 25.4499 86.4535 24.6184 87.4129 23.4439C88.3781 22.2809 89.0293 20.8622 89.4828 19.4144C89.884 17.9433 90.1224 16.4199 90.134 14.8965C90.1399 14.1348 90.0875 13.3673 89.9829 12.6114C89.8608 11.8381 89.6689 11.0473 89.4886 10.3728ZM89.5584 10.2798C89.8259 11.0706 89.9712 11.7857 90.0992 12.5591C90.2155 13.3208 90.2736 14.0941 90.2794 14.8616C90.2852 16.4083 90.0643 17.9433 89.6689 19.4376C89.2212 20.9145 88.5816 22.3565 87.5989 23.5718C86.6221 24.7928 85.244 25.6766 83.7497 26.1243L83.2729 26.2697L83.5869 25.8801L83.5927 25.8685L83.7788 26.1011C81.9298 27.0721 79.8249 27.5954 77.7201 27.5198C76.6676 27.4849 75.6268 27.3047 74.6151 27.0198C74.1092 26.8802 73.6092 26.7116 73.1266 26.5197C72.6382 26.3569 72.109 26.0836 71.7078 25.7057L71.8183 25.7697C71.6555 25.7115 71.5974 25.6534 71.5218 25.5952L71.3473 25.444L71.2776 25.3917C71.2718 25.3917 71.2543 25.3743 71.2659 25.3859H71.2718C71.2892 25.3917 71.3125 25.3975 71.3299 25.3975C71.3473 25.3975 71.4171 25.3917 71.452 25.3626C71.4869 25.3394 71.5101 25.3219 71.5276 25.2871C71.5567 25.2347 71.5508 25.2464 71.5508 25.2289L71.5567 25.2929C71.5741 25.5487 71.6555 25.7987 71.7951 26.0139C72.0684 26.4558 72.5451 26.793 73.0568 27.0314L73.0742 27.043L73.0975 27.0605C73.5045 27.3396 73.9174 27.6129 74.3244 27.9094C74.7256 28.2059 75.1384 28.5199 75.4931 28.9386C75.8652 29.3456 76.0687 29.9794 76.0455 30.5259C76.0339 31.0783 75.9175 31.5784 75.7954 32.0668L75.4059 33.4797C75.307 33.9158 75.2838 34.3751 75.2954 34.8519C75.2838 35.8578 75.278 36.8754 75.0221 37.8929C74.7895 38.893 74.3418 39.9338 73.5103 40.6839C72.6847 41.4456 71.5857 41.7828 70.5566 41.8875C69.5158 41.998 68.4924 41.9224 67.4923 41.8061C66.9923 41.7363 66.498 41.6666 66.0096 41.5735C65.5445 41.5037 64.9456 41.3816 64.4688 41.1374C63.4861 40.6839 62.707 39.9803 61.9336 39.4977C61.1661 39.0151 60.2998 38.6663 59.4334 38.6372C58.9973 38.5965 58.5729 38.6779 58.1658 38.7767C57.7704 38.9221 57.3751 39.0849 57.0494 39.364C56.3633 39.8757 55.8924 40.6606 55.5784 41.4979L55.3283 42.1957C55.2411 42.4515 55.1248 42.6957 54.9969 42.9399C54.7469 43.4284 54.398 43.8819 53.9852 44.2656C53.1537 45.039 52.0838 45.4402 51.0779 45.6553C50.5663 45.7658 50.072 45.8414 49.5545 45.8995C49.0138 45.9577 48.5021 45.946 48.0137 45.946C47.0368 45.9286 46.1356 45.9926 45.2518 46.2484L45.2983 45.1495C46.531 45.6262 47.8218 45.8646 49.1824 46.0856C50.5139 46.3065 52.1187 46.6263 53.2235 47.8648C53.7584 48.4754 54.084 49.2487 54.1887 50.0046C54.2585 50.3767 54.2527 50.7953 54.2817 51.0512C54.3224 51.3477 54.3922 51.6443 54.4852 51.9466C54.6829 52.5513 54.9678 53.1619 55.2295 53.8305C55.4853 54.4992 55.7005 55.2493 55.6888 56.0459V56.0807L55.683 56.1273C55.6133 56.575 55.4156 57.1157 54.9737 57.482C54.776 57.6623 54.4969 57.796 54.2934 57.86C54.084 57.9356 53.8747 57.9937 53.6654 58.0402C52.8223 58.2263 51.9966 58.203 51.2291 58.1856L46.6182 58.1565L37.3673 58.11L28.1164 58.0635L26.9593 58.0577C26.593 58.0519 26.2267 58.0635 25.8546 58.0926C25.1103 58.1507 24.3602 58.267 23.5985 58.3891C22.0867 58.6275 20.4645 58.8659 18.8364 58.5577L18.8074 58.5519L18.7783 58.5403C17.627 58.1565 16.4641 57.7263 15.3652 57.1215C14.272 56.5227 13.2487 55.7319 12.4463 54.7434L13.2022 54.6446L12.9812 55.1155L12.5509 54.8364C11.5857 54.2143 10.5624 53.5921 9.72508 52.6734C9.31225 52.2141 8.95175 51.6733 8.74243 51.0628C8.52729 50.4523 8.47495 49.7953 8.54473 49.1673L8.63195 49.4813C8.32378 49.0743 8.09701 48.5975 7.98072 48.0974C7.86443 47.5974 7.86443 47.0857 7.91676 46.6089C8.02723 45.6437 8.32959 44.7715 8.4924 43.9226C8.63776 43.0853 8.71335 42.184 8.62032 41.3468C8.5331 40.5037 8.24819 39.7012 7.79466 38.9802L7.75977 38.9279L7.74233 38.8698C7.44579 37.7127 7.14343 36.5323 7.16088 35.2473C7.18413 34.6077 7.37019 33.9158 7.77139 33.3634C8.16678 32.811 8.70173 32.4273 9.23666 32.1075C9.77741 31.8051 10.3298 31.5377 10.888 31.3167C11.1671 31.2004 11.4462 31.0899 11.7253 30.9853L12.1439 30.8283C12.2602 30.7701 12.3939 30.7353 12.4928 30.6655C12.9521 30.4271 13.1149 30.0782 13.0626 29.5491C13.0219 29.0432 12.8068 28.4269 12.7661 27.8047C12.4986 25.4382 12.33 23.0368 12.5277 20.6296C12.6265 19.4318 12.8242 18.234 13.1208 17.0653C13.3999 15.9082 13.865 14.7163 14.5686 13.7045C15.2605 12.6754 16.1966 11.8555 17.1909 11.1578C18.1852 10.4542 19.2958 9.93091 20.4412 9.53552C21.5867 9.14013 22.7787 8.87267 23.9939 8.79708C25.2033 8.71567 26.4418 8.78545 27.628 9.14013C28.2385 9.32038 28.7502 9.57041 29.2851 9.65763C29.8201 9.76229 30.2736 9.6053 30.6515 9.20991C31.0295 8.83196 31.3028 8.30866 31.7214 7.81442C31.9307 7.58184 32.1749 7.37833 32.4075 7.16901C32.6692 7.00039 32.9192 6.8027 33.1925 6.66896C34.2914 6.08751 35.5125 5.83749 36.7219 5.77353C37.9371 5.71538 39.1524 5.85493 40.3211 6.18636C40.9083 6.34917 41.4723 6.58175 42.0189 6.86084C42.2747 7.02946 42.5539 7.1632 42.7922 7.36671L43.1527 7.66325L43.4725 7.94816C43.9028 8.30284 44.4203 8.62846 44.8855 8.48309C45.3448 8.3261 45.6821 7.80861 45.9611 7.31438C46.531 6.27358 47.188 5.25022 47.9846 4.34897C48.7754 3.44191 49.7173 2.66276 50.7523 2.04642C52.8281 0.802114 55.2528 0.290436 57.6309 0.226477C58.2298 0.220662 58.8229 0.220663 59.4218 0.261364C60.0149 0.313695 60.5963 0.255549 61.2126 0.366025C61.515 0.418355 61.8464 0.581163 62.015 0.877703C62.172 1.12191 62.329 1.36612 62.5209 1.58126C62.8988 2.01735 63.3873 2.36041 63.9455 2.48251C65.0851 2.73253 66.2596 2.34878 67.4342 2.1976C68.6203 2.05805 69.8065 1.98828 70.9985 2.02898C73.365 2.09294 75.7954 2.76742 77.6387 4.3199C78.098 4.69784 78.5167 5.12812 78.9004 5.58746C79.3016 6.02937 79.5749 6.58756 79.9935 6.97132C80.4354 7.35508 81.0634 7.38996 81.639 7.34345C81.9356 7.326 82.2321 7.29693 82.5287 7.29112C82.831 7.29112 83.1217 7.32019 83.4183 7.33763C84.5986 7.41322 85.8081 7.49463 86.9303 7.91909C87.4885 8.13422 88.0176 8.43658 88.4653 8.84359C88.9188 9.27968 89.3026 9.79717 89.5584 10.2798Z" fill="#00254D"/>
<path d="M44.4785 27.5372C44.461 27.7175 44.4785 27.9501 44.5017 28.2524C44.5192 28.5548 44.5076 28.9153 44.4552 29.2525L43.9901 32.34L43.554 29.1072C43.5133 28.8222 43.3679 28.4966 43.5249 28.1827C43.5889 28.0257 43.6993 27.8745 43.8447 27.7466C43.9145 27.6826 44.0017 27.6303 44.0947 27.5896C44.1471 27.5721 44.1936 27.5547 44.2459 27.5489C44.275 27.5489 44.2866 27.5431 44.3564 27.5198C44.4203 27.4965 44.4727 27.5198 44.4785 27.5372ZM44.4203 27.6303C44.4029 27.6652 44.432 27.7175 44.4727 27.7233C44.5134 27.7175 44.5076 27.7466 44.5134 27.7698C44.5192 27.8105 44.5308 27.8512 44.5424 27.8861L44.6006 28.0838C44.6355 28.2059 44.6645 28.3106 44.6762 28.421C44.7169 28.6362 44.5366 28.8571 44.4901 29.113L43.5889 28.9676C43.6819 28.799 43.8098 28.6478 43.9726 28.4443C44.1354 28.235 44.2924 27.9617 44.4203 27.6303Z" fill="#00254D"/>
<path d="M30.187 36.2125C30.1288 36.2183 29.9951 36.2183 29.937 36.1834L29.7625 36.1195L29.4078 35.9915L28.6868 35.7532C28.2042 35.602 27.7158 35.4159 27.2681 35.1775C26.3785 34.7007 25.5121 34.2007 24.6399 33.7937L21.5117 32.34L25.0063 32.9389C25.5761 33.0378 26.0703 33.2994 26.5122 33.5669C26.9541 33.8402 27.3321 34.1309 27.7333 34.4042C28.1286 34.6833 28.5008 35.0089 28.8845 35.3403C29.0764 35.5031 29.2799 35.6601 29.4892 35.7939C29.5939 35.8578 29.7044 35.9218 29.8149 35.9799L29.9893 36.0613C30.0707 36.0962 30.1405 36.1834 30.187 36.2125ZM30.0765 36.1776C30.0009 36.166 29.9602 36.2125 29.9253 36.2009L29.7451 36.1544L29.3729 36.0671L28.6112 35.9101C28.0937 35.8055 27.5879 35.6485 27.1285 35.4101C26.6692 35.1717 26.2273 34.881 25.8377 34.6019C25.4423 34.3228 25.076 34.0669 24.6981 33.8285L25.0644 32.9738C25.9656 33.4913 26.7564 34.1193 27.5705 34.6833C27.9717 34.974 28.3612 35.2705 28.7857 35.538C28.995 35.6717 29.216 35.788 29.4427 35.8927C29.559 35.9392 29.6695 35.9915 29.7916 36.0322L29.9718 36.0904C30.03 36.0904 30.0126 36.1311 30.0765 36.1776Z" fill="#00254D"/>
<path d="M32.3264 46.6903C32.1345 47.8415 31.7798 48.9928 31.0704 49.9522C30.3727 50.9174 29.3377 51.5861 28.262 52.0745L28.2562 52.0803L28.2329 52.0861C26.57 52.4815 24.8663 52.7374 23.1452 52.842C21.4299 52.9409 19.6972 52.9002 17.9819 52.685L18.0808 51.9233C19.9007 52.0978 21.7381 52.0687 23.5639 51.8826C24.4768 51.7838 25.3838 51.65 26.2851 51.4814C26.7386 51.4 27.1863 51.307 27.634 51.2081C28.0818 51.1151 28.4539 51.0046 28.8318 50.8244C30.3203 50.1324 31.21 48.5218 31.4832 46.8356C31.617 46.01 31.5588 45.1843 31.1518 44.504C30.9599 44.1493 30.675 43.8818 30.332 43.5853L29.2679 42.6085L27.4771 40.963L29.611 42.12L30.0354 42.3526L30.1168 42.3933L30.1343 42.4108C30.3901 42.684 30.7157 42.9748 31.0007 43.2771C31.2856 43.5853 31.5588 43.9109 31.7856 44.2656C32.2508 44.9808 32.4775 45.8588 32.3264 46.6903ZM32.2101 46.667C32.2566 46.2658 32.2333 45.8588 32.1228 45.475C32.0182 45.0913 31.8147 44.7366 31.5705 44.4226C31.3321 44.1028 31.0414 43.8237 30.7274 43.5679C30.4192 43.3062 30.0936 43.0853 29.7505 42.8003L29.8494 42.8643L29.3319 42.6608L29.6749 42.1724L30.7739 42.9573C31.1693 43.2132 31.6228 43.5446 31.931 43.9749C32.245 44.411 32.4659 44.9168 32.5706 45.4401C32.6694 45.9634 32.6694 46.4867 32.6171 46.9984C32.4775 48.0043 32.1636 48.9579 31.6228 49.8475C31.0879 50.7255 30.2564 51.4582 29.3028 51.8826C28.8376 52.0978 28.3027 52.2199 27.8376 52.3013C27.3724 52.3827 26.913 52.4583 26.4421 52.5222C25.5117 52.656 24.5756 52.7606 23.6336 52.8188C21.7556 52.9467 19.86 52.9234 17.9878 52.685L18.0866 51.9233C19.7437 52.185 21.43 52.278 23.1162 52.2315C24.8024 52.1908 26.4886 52.0222 28.1632 51.7489L28.1341 51.7605C29.2098 51.3709 30.2331 50.7779 30.9599 49.8708C31.6926 48.9637 32.0356 47.8125 32.2101 46.667Z" fill="#00254D"/>
<path d="M32.1987 36.6544C32.2801 36.6253 32.4604 36.6137 32.5302 36.6253L32.8034 36.6428C32.9837 36.6486 33.1639 36.6428 33.3442 36.6312C33.7047 36.6021 34.0594 36.5381 34.4082 36.4451C35.1002 36.2532 35.7398 35.9334 36.3677 35.602C37.6295 34.9508 38.7633 34.0728 39.8099 33.1017L42.1183 30.962L40.5193 33.6658C40.4088 33.8576 40.2925 34.0611 40.1704 34.2356L39.7867 34.6833C39.5192 34.974 39.2343 35.2531 38.9319 35.509C38.3214 36.0206 37.6121 36.4277 36.8562 36.6835C36.1003 36.951 35.2979 37.0207 34.5187 36.98C34.1291 36.9626 33.7454 36.9161 33.3675 36.8754L32.8034 36.7998C32.5941 36.7882 32.3499 36.6893 32.1987 36.6544ZM32.315 36.666C32.5301 36.666 32.6581 36.6021 32.8209 36.6195C33.007 36.6137 33.193 36.6021 33.3733 36.5846C33.7396 36.5381 34.1001 36.4625 34.4489 36.3579C35.1467 36.1544 35.7979 35.8753 36.4317 35.5962C37.0597 35.3113 37.6644 34.9856 38.24 34.6019C38.5249 34.41 38.804 34.1949 39.0657 33.9623L39.4436 33.596C39.5425 33.4739 39.6122 33.3576 39.7053 33.2355L40.4146 33.7995C39.2517 34.7182 37.9958 35.5438 36.6178 36.1195C35.9317 36.4044 35.199 36.6021 34.4606 36.6777C34.0943 36.7184 33.7221 36.7358 33.3558 36.7416C33.1697 36.7474 32.9895 36.7416 32.8092 36.7358L32.536 36.73C32.4139 36.7475 32.4139 36.7126 32.315 36.666Z" fill="#00254D"/>
<path d="M42.3388 31.3457C42.4609 31.2004 42.5598 30.9969 42.6761 30.7061C42.8098 30.4154 43.0017 30.0782 43.2168 29.7991L44.025 28.7757L43.9378 30.3805C43.9204 30.7468 43.6878 31.0085 43.4261 31.1829C43.2924 31.2702 43.1354 31.3283 42.9726 31.3632C42.8912 31.3806 42.804 31.3864 42.7109 31.3923C42.6528 31.3981 42.647 31.3748 42.5423 31.4039C42.426 31.4271 42.3272 31.3632 42.3388 31.3457ZM42.426 31.2702C42.49 31.212 42.4435 31.1015 42.3912 31.0899C42.3388 31.0783 42.3911 31.0085 42.3853 30.9736C42.4028 30.8922 42.426 30.8108 42.4493 30.741C42.4958 30.5957 42.5481 30.4678 42.6121 30.3631C42.7458 30.148 42.8796 29.9793 43.1645 29.8805L43.8855 30.4619C43.7169 30.5782 43.5134 30.6306 43.2633 30.7352C42.9842 30.8341 42.6935 31.0201 42.426 31.2702Z" fill="#00254D"/>
<path d="M44.4903 27.5198C44.4903 27.4907 44.5484 27.4035 44.5775 27.3861C44.6008 27.3628 44.624 27.3396 44.6531 27.3163C44.7054 27.2756 44.7636 27.2349 44.8275 27.2058C44.9496 27.1419 45.0834 27.0954 45.2171 27.0663C45.4846 27.0198 45.752 27.0023 46.0021 27.0314H46.0079L46.537 27.0488L46.0835 27.8978C45.9265 28.1885 45.5369 28.2931 45.2171 28.2234C45.0543 28.1885 44.9147 28.1129 44.7985 28.0082C44.7403 27.9559 44.688 27.8919 44.6415 27.8222L44.6066 27.764C44.5891 27.7466 44.5484 27.7117 44.531 27.6826C44.4787 27.6129 44.4728 27.5431 44.4903 27.5198ZM44.6066 27.5082C44.6764 27.5024 44.7287 27.45 44.7287 27.4035C44.7345 27.3803 44.7229 27.357 44.7345 27.3454L44.7868 27.3105L44.9613 27.2058C45.0659 27.1419 45.1531 27.0954 45.2171 27.0605C45.3566 26.9965 45.4148 26.9733 45.6706 27.0605L45.752 27.9268C45.566 27.828 45.3857 27.7175 45.1939 27.6477C45.1008 27.607 45.002 27.5721 44.9031 27.5605C44.8508 27.5547 44.8043 27.5489 44.7519 27.5489C44.7229 27.5489 44.6996 27.5489 44.6705 27.5489C44.6415 27.5605 44.6531 27.5082 44.6066 27.5082Z" fill="#00254D"/>
<path d="M51.5144 25.1765C51.5203 25.4266 51.497 25.7115 51.4388 25.9789C51.3865 26.2464 51.2877 26.5139 51.1481 26.7639L50.4736 27.9559L50.869 26.6302C51.0609 25.9847 51.0725 25.2928 51.1481 24.5951C51.2237 23.8973 51.2819 23.2054 51.4912 22.4728C51.59 22.1181 51.7645 21.7111 52.1133 21.3971C52.4738 21.0831 52.9448 20.9784 53.3344 20.9552C54.1252 20.9145 54.8171 21.0366 55.5265 21.118L55.3462 22.2228C54.8287 22.1937 54.3054 22.1472 53.8402 22.1472C53.6018 22.1472 53.3867 22.1588 53.2181 22.1995C53.0553 22.246 52.9564 22.2809 52.8576 22.403C52.6425 22.6705 52.4855 23.2345 52.282 23.7287C52.0726 24.2346 51.8284 24.7288 51.5144 25.1765ZM51.3981 25.1533C51.4679 24.6067 51.5435 24.0776 51.59 23.5543C51.6656 23.0252 51.6423 22.496 51.9621 21.8332C52.1424 21.4901 52.5145 21.2227 52.8518 21.0947C53.1948 20.9784 53.5146 20.9436 53.8112 20.9319C54.4101 20.9087 54.9508 21.0075 55.4974 21.1064L55.3171 22.2111C54.6543 22.0425 53.974 21.8797 53.3693 21.8564C53.0669 21.8506 52.8169 21.8971 52.6366 22.0251C52.4564 22.1588 52.2936 22.403 52.1831 22.7054C51.9505 23.3043 51.8284 23.9962 51.6831 24.6707C51.5377 25.3393 51.4447 26.0545 51.1656 26.729L50.8865 26.5953C51.0318 26.3918 51.1423 26.165 51.2295 25.9208C51.3109 25.6766 51.3633 25.4324 51.3981 25.1533Z" fill="#00254D"/>
<path d="M57.2469 22.31C56.7004 22.1123 56.148 21.9262 55.584 21.7634L55.6189 21.6239C56.0666 21.6995 56.5259 21.7576 56.9795 21.8099C57.4272 21.8739 57.8691 21.903 58.3517 21.9727C58.8168 22.0541 59.3227 22.1879 59.7355 22.5368C60.1658 22.874 60.41 23.4206 60.474 23.9264C60.5496 24.4381 60.4973 24.9323 60.4217 25.4091C60.3403 25.8685 60.2821 26.2871 60.253 26.729C60.1949 27.6012 60.2647 28.4734 60.4856 29.299L59.4565 29.6305C59.1134 28.9269 58.8692 28.1129 58.9331 27.2465C58.9797 26.7814 59.0669 26.4848 59.1308 26.1243L59.346 25.0835C59.4158 24.7405 59.4739 24.4148 59.4681 24.1299C59.4623 23.8508 59.3576 23.6066 59.1076 23.374C58.6017 22.9205 57.904 22.6065 57.2469 22.31ZM57.2935 22.2053C57.9796 22.467 58.6773 22.6298 59.3867 22.9787C59.7472 23.1473 60.1077 23.5252 60.2298 23.9671C60.3635 24.3974 60.3868 24.8102 60.3751 25.1882C60.3751 25.5777 60.3286 25.9441 60.2879 26.3104C60.2472 26.6709 60.1716 27.0837 60.1426 27.3454C60.0902 27.9326 60.2298 28.5722 60.4624 29.2002L59.4332 29.5316C59.2704 28.5664 59.2646 27.5954 59.3867 26.6476C59.4448 26.1766 59.5495 25.694 59.6541 25.2579C59.753 24.8393 59.8169 24.409 59.7879 24.0136C59.7588 23.6182 59.6251 23.2578 59.346 23.0019C59.0727 22.7403 58.6773 22.5658 58.2587 22.4495C58.0493 22.3856 57.8342 22.3565 57.6132 22.2984L56.9388 22.1181C56.491 22.0018 56.055 21.8739 55.6072 21.7692L55.6421 21.6297C56.1771 21.8448 56.7353 22.0251 57.2935 22.2053Z" fill="#00254D"/>
<path d="M51.1946 137.583C35.1116 137.594 19.0229 137.612 2.9399 137.589C1.95725 137.589 -0.0254986 138.228 1.14322 135.844C3.13179 136.641 4.18421 135.914 4.64937 133.879C5.22501 131.361 6.44025 129.012 6.7019 126.402C6.89959 125.82 7.36475 125.564 7.91132 125.413C8.69628 125.262 9.48705 125.105 10.2953 125.122C11.1674 125.285 11.9873 125.715 12.9118 125.651C13.9526 125.896 14.8655 125.204 15.883 125.227C16.4529 125.43 16.982 125.681 17.1041 126.367C17.0925 126.692 17.0168 126.995 16.8715 127.285C15.8539 129.262 15.1911 131.39 14.4003 133.455C13.5107 135.769 13.7898 136.158 16.29 136.17C25.0583 136.205 33.8266 136.17 42.5949 136.193C45.0021 136.199 47.4093 136.054 49.8166 136.321C50.4852 136.519 51.2062 136.658 51.1946 137.583Z" fill="#E2E6F2"/>
<path d="M5.30656 124.268C5.07979 122.279 5.8415 120.471 6.45202 118.668C8.42314 112.842 10.057 106.929 11.6444 100.992C12.9643 100.725 14.1388 100.934 15.0168 102.068C15.7087 105.469 14.1272 108.533 13.2608 111.604C12.1735 115.447 11.1095 119.366 9.30695 122.994C8.8069 123.523 8.17311 123.802 7.47537 123.948C6.73111 123.925 6.06826 124.448 5.30656 124.268Z" fill="#CACFE5"/>
<path d="M58.0731 100.393C59.3174 101.94 59.6662 103.841 60.1954 105.679C61.5618 110.4 62.9805 115.11 64.3353 119.837C64.7539 121.296 65.254 122.791 64.4458 124.297C63.5445 124.308 63.1782 123.599 62.713 123.017C60.364 115.72 57.5788 108.539 56.4043 100.899C56.4334 100.591 56.5322 100.3 56.6834 100.027C57.3579 99.3291 57.7242 99.8292 58.0731 100.393Z" fill="#CACFE5"/>
<path d="M6.98666 126.547C7.51578 130.175 5.34697 133.158 4.41664 136.42C4.15499 137.344 1.9571 137.903 1.14307 135.85C1.34657 134.897 1.5559 133.943 1.7594 132.989C3.20722 130.443 3.98055 127.657 4.66085 124.837C4.81784 124.82 4.98065 124.808 5.13764 124.803C5.6028 125.012 5.9226 125.407 6.34125 125.68C6.66686 125.884 6.77152 126.256 6.98666 126.547Z" fill="#CACFE5"/>
<path d="M54.6425 80.6471C54.8111 81.6239 54.311 82.7345 55.2414 83.5543C55.9158 84.4381 55.1309 85.6069 55.8054 86.4848C55.5612 90.2875 57.4392 93.7588 57.5381 97.5092C57.166 97.829 56.7415 98.015 56.2415 98.0208C55.7472 97.9743 55.3169 97.7999 55.0204 97.3754C53.8924 92.0086 52.2004 86.7407 52.0957 81.1878C52.1829 80.0598 52.0143 78.9027 52.5551 77.8386C53.3168 77.0479 54.061 76.4141 54.3459 78.1701C54.4797 78.9841 54.1192 79.8679 54.6425 80.6471Z" fill="#CACFE5"/>
<path d="M65.6615 137.542C65.6789 137.362 65.6847 137.187 65.6789 137.007C65.7661 136.908 65.8475 136.804 65.9289 136.699C66.9814 135.972 66.4813 135.071 66.2487 134.164C65.6789 131.972 64.5335 129.989 63.9404 127.809C63.8997 127.378 63.9462 126.954 64.0916 126.547C64.2195 126.279 64.4113 126.076 64.6788 125.942C66.022 125.867 66.4871 126.774 66.836 127.838C67.6675 130.39 68.4292 132.966 69.3653 135.484C69.9293 137.001 69.627 137.676 67.964 137.612C67.1965 137.571 66.429 137.56 65.6615 137.542Z" fill="#CACFE5"/>
<path d="M55.8052 86.4848C54.8924 85.6476 55.3401 84.5486 55.2412 83.5543C56.2122 84.38 55.6889 85.4906 55.8052 86.4848Z" fill="#F8F9F9"/>
<path d="M15.0865 57.4587C16.0575 57.4006 17.0285 57.3483 17.9996 57.2901C30.1694 56.4877 42.3566 56.9471 54.5322 56.8133C54.6078 56.9587 54.6543 57.1157 54.6717 57.2785C54.5555 57.418 54.4392 57.5518 54.3287 57.6913C51.0493 58.8193 47.6652 58.0751 44.3335 58.2321C38.833 58.2902 33.3325 58.2204 27.8319 58.267C26.6109 58.2786 25.2735 58.0228 24.3897 59.2496C23.9595 60.3427 22.1569 59.8834 22.0348 61.3428C21.5174 62.4999 20.7498 62.6104 19.7788 61.901C19.3834 61.7033 19.2322 60.6916 18.5287 61.5405C18.1682 62.122 17.7147 62.5057 16.982 62.3022C16.1157 61.6917 16.011 60.4707 15.0691 59.9241C14.9237 59.0984 14.5748 58.2728 15.0865 57.4587Z" fill="#CACFE5"/>
<path d="M54.6424 80.6471C53.8923 80.1005 54.0668 79.2865 54.0958 78.5538C54.1365 77.5654 53.7295 77.3851 52.9039 77.7514C51.2525 77.3386 51.9212 75.9257 51.8805 74.9895C51.7933 73.0591 51.6189 71.024 53.1365 69.425C54.718 70.9833 54.09 67.8261 55.2297 68.4424C55.1715 72.5126 54.3168 76.5536 54.6424 80.6471Z" fill="#CACFE5"/>
<path d="M55.2239 68.4366C54.154 68.0761 55.5146 71.4078 53.4796 69.5879C52.4213 69.0704 52.712 68.1866 52.8574 67.3435C53.5144 65.8433 52.9272 63.7326 54.9971 62.9128C55.7065 62.8139 56.067 63.2617 56.3868 63.785C56.7357 65.5177 55.4798 66.855 55.2239 68.4366Z" fill="#CACFE5"/>
<path d="M54.6774 57.2727C54.8634 57.2901 55.0495 57.3018 55.2356 57.325C56.4217 57.4587 58.1719 56.7668 58.6894 57.6623C59.4685 58.9996 57.3172 59.6334 56.9857 60.8835C56.8055 61.0812 56.5904 61.1393 56.3345 61.0521C55.7182 60.6277 55.0553 60.2846 54.4622 59.8194C54.0261 59.0229 53.3109 58.203 54.6308 57.5343L54.6774 57.2727Z" fill="#CACFE5"/>
<path d="M54.7643 59.8776C55.6771 59.581 56.3574 59.6334 56.2295 60.8719C56.5202 61.4301 55.9737 62.058 56.3807 62.5988C56.3807 62.9942 56.3807 63.3896 56.3807 63.7791C56.0028 63.5873 55.6248 63.3954 55.2469 63.2035C54.4968 62.6453 54.1072 61.901 54.1363 60.9533C54.1886 60.5056 54.3456 60.1102 54.7643 59.8776Z" fill="#CACFE5"/>
<path d="M56.3811 62.5988C55.6194 62.0813 55.695 61.494 56.2299 60.8719C56.4799 60.8777 56.73 60.8777 56.98 60.8835C56.7823 61.4533 56.5846 62.029 56.3811 62.5988Z" fill="#CACFE5"/>
<path d="M13.2837 100.382C13.5163 99.4163 13.7547 98.4511 13.9872 97.4917C14.5629 97.3231 15.1443 96.5905 15.7142 97.4975C16.3479 98.5267 15.9351 99.2419 15.028 99.8117C14.4466 100.004 13.8651 100.19 13.2837 100.382Z" fill="#CACFE5"/>
<path d="M17.4234 96.9219C18.6444 96.951 18.6037 97.8522 18.6502 98.6953C18.8131 98.9454 18.8538 99.2128 18.784 99.5036C17.8188 101.213 16.9175 101.079 16.0802 99.3989C15.9872 98.736 16.2721 98.3058 16.8943 98.0906C17.342 97.8232 17.4292 97.3929 17.4234 96.9219Z" fill="#CACFE5"/>
<path d="M14.9057 60.2614C15.0045 60.4649 15.1034 60.6626 15.2022 60.8661C15.115 61.3487 15.179 61.9069 14.5335 62.0813C14.3184 61.3196 14.0975 60.5579 13.8823 59.7962C14.4928 59.3543 14.7429 59.709 14.9057 60.2614Z" fill="#CACFE5"/>
<path d="M22.6801 126.541C20.9939 128.983 19.3368 128.983 16.8481 126.547C16.8598 126.367 16.8714 126.181 16.8772 126C17.6215 125.983 18.011 125.175 18.7611 125.14C20.1391 125.657 20.9474 124.076 22.2208 124.198C22.8371 124.896 22.7731 125.715 22.6801 126.541Z" fill="#CACFE5"/>
<path d="M12.7896 126.006C11.7313 126.96 11.1499 125.989 10.4638 125.43C9.75439 124.518 10.2312 123.698 10.6615 122.866C11.9755 121.802 12.9349 122.326 13.7432 123.547C13.9757 124.576 13.6094 125.378 12.7896 126.006Z" fill="#CACFE5"/>
<path d="M18.5225 125.39C18.0631 125.837 17.7375 126.628 16.877 126.006C16.3653 125.971 15.8943 125.867 15.6327 125.349C15.3129 124.96 15.3013 124.529 15.4292 124.064C15.7432 123.297 16.249 122.75 17.0979 122.581C18.2201 122.506 18.9702 122.919 19.1156 124.128C19.1039 124.634 18.976 125.087 18.5225 125.39Z" fill="#CACFE5"/>
<path d="M6.34717 125.931C6.57975 125.169 6.81233 124.401 7.04491 123.64C7.6031 123.448 8.1613 123.262 8.72531 123.07C8.96952 122.86 9.20791 122.843 9.45793 123.064C10.0045 124.43 9.2428 125.25 8.23689 125.965C7.74847 125.994 7.27749 126.07 6.99839 126.547C6.77163 126.338 6.56231 126.134 6.34717 125.931Z" fill="#CACFE5"/>
<path d="M56.4395 136.99C59.2653 135.809 62.2249 136.746 65.1089 136.455C65.6555 136.275 65.8124 136.49 65.6787 137.007C65.6787 137.007 65.6845 137.007 65.6787 137.007C62.597 137.001 59.5211 136.996 56.4395 136.99Z" fill="#939EA4"/>
<path d="M14.9063 60.2614C14.5632 60.1044 14.2201 59.9474 13.8771 59.7962C12.7956 59.6915 11.3885 59.3252 11.7373 58.1623C12.2316 56.5168 13.9178 57.5751 15.0865 57.4588C15.2086 58.2205 15.6796 58.9764 15.1505 59.7555C15.0632 59.9183 14.9818 60.0928 14.9063 60.2614Z" fill="#CACFE5"/>
<path d="M64.5505 127.727C63.9633 127.727 63.376 127.727 62.7887 127.727C62.2712 127.471 61.9398 127.111 62.0794 126.483C62.3992 126.018 62.7713 125.692 63.3818 125.977C63.7481 126.14 64.1145 126.297 64.475 126.46C64.504 126.884 64.5273 127.303 64.5505 127.727Z" fill="#CACFE5"/>
<path d="M63.3815 125.977C62.9919 126.175 62.6023 126.372 62.2069 126.57C61.2708 126.797 61.0731 126.053 60.7475 125.471C60.6428 125.053 60.6603 124.657 60.951 124.308C61.044 123.18 61.8232 123.035 62.7244 123.07C62.7768 124.076 62.6954 125.111 63.3815 125.977Z" fill="#CACFE5"/>
<path d="M23.7787 59.7729C23.2845 58.4589 22.9531 57.3657 25.1161 57.4064C31.4888 57.5169 37.8673 57.5111 44.24 57.546C45.1936 58.0519 45.4262 59.0171 45.7634 59.9241C45.7343 60.4823 45.5483 60.93 44.9261 61.0405C44.1004 60.7265 43.2748 60.43 42.3619 60.6102C41.3095 60.3602 40.7048 60.7963 40.4722 61.8197C40.3268 62.0522 40.1117 62.1918 39.8442 62.2441C39.5768 62.1976 39.3616 62.0639 39.193 61.8487C38.8034 61.4417 38.6697 60.1974 37.7743 61.4243C36.9951 62.7325 35.8613 62.8953 34.5414 62.4302C33.6169 61.965 33.4889 60.0637 31.826 60.9242C30.3317 62.5814 29.3374 60.9475 28.1803 60.3893C26.9127 60.4184 26.8604 61.808 26.0231 62.3139C25.0986 62.4186 24.2439 62.3139 23.5985 61.5464C23.3077 60.9184 23.3368 60.3253 23.7787 59.7729Z" fill="#CACFE5"/>
<path d="M22.0989 100.986C21.9651 99.9048 20.8022 100.376 20.3312 99.8059C19.5754 98.8349 19.9707 98.1197 20.8487 97.515C21.6221 97.0615 22.3954 96.8754 23.1862 97.4801C23.7793 98.2999 23.3722 99.1489 23.2792 99.992C23.0583 100.533 22.9245 101.178 22.0989 100.986Z" fill="#CACFE5"/>
<path d="M22.6804 126.541C21.785 125.942 22.2443 124.965 22.0292 124.18C21.7326 123.762 21.7675 123.349 22.035 122.93C23.1049 122.25 24.2736 122.145 25.4946 122.32C25.7505 122.488 25.9307 122.721 26.047 123.006C26.2854 123.733 26.2505 124.465 26.0412 125.192C25.8377 125.756 25.5412 126.25 24.9713 126.524C24.2096 126.041 23.4421 126.041 22.6804 126.541Z" fill="#CACFE5"/>
<path d="M37.2978 125.425C37.2629 124.68 37.2222 123.936 37.1873 123.192C36.9606 122.907 36.978 122.634 37.2338 122.378C38.9782 122.064 40.3562 122.512 41.0947 124.262C41.2575 124.907 41.2052 125.512 40.7167 126.024C39.4317 126.652 38.2456 126.715 37.2978 125.425Z" fill="#CACFE5"/>
<path d="M32.5474 126.547C31.4077 125.617 30.2623 126.407 29.1168 126.529C28.9017 126.343 28.7738 126.105 28.7156 125.826C28.6982 125.541 28.7214 125.256 28.7796 124.977C29.0296 124.145 29.0412 123.186 29.9425 122.68C30.7391 122.36 31.5182 122.378 32.2799 122.773C33.2102 123.971 32.966 125.256 32.5474 126.547Z" fill="#CACFE5"/>
<path d="M44.3512 125.43C44.2697 124.646 44.1883 123.866 44.1069 123.081C44.7175 122.523 45.328 122.663 45.9385 123.076C46.2409 123.988 47.2235 124.942 46.4153 125.838C45.8978 126.413 44.8686 126.46 44.3512 125.43Z" fill="#CACFE5"/>
<path d="M32.5474 126.547C32.3904 125.384 33.03 124.093 31.995 123.076C31.8961 121.744 32.9079 121.756 33.7859 121.593C34.7801 121.948 36.2919 121.302 36.5943 123.029C34.6232 123.047 32.5067 122.895 33.1637 125.971C33.0067 126.215 33.4312 127.076 32.5474 126.547Z" fill="#CACFE5"/>
<path d="M28.4831 129.524C28.0528 129.663 27.7738 129.855 27.6226 129.78C27.4249 129.681 27.3202 129.379 27.1807 129.163C27.3493 129.094 27.547 128.937 27.6807 128.977C27.9075 129.053 28.0994 129.251 28.4831 129.524Z" fill="#DAD1D7"/>
<path d="M54.1893 125.32C53.9568 125.739 53.7242 126.157 53.4916 126.576C53.102 126.57 52.7183 126.564 52.3287 126.559C52.1426 125.582 51.9566 124.599 51.7705 123.622C52.1077 122.884 52.6543 122.61 53.4393 122.855C53.9335 123.163 54.1952 123.634 54.387 124.163C54.4859 124.57 54.4626 124.965 54.1893 125.32Z" fill="#CACFE5"/>
<path d="M54.6421 101.015C53.4094 100.905 52.5489 100.219 51.8802 99.2302C51.2464 98.8349 51.1999 98.236 51.3046 97.5847C51.7988 96.4335 52.5198 96.4218 53.3804 97.1835C54.3339 98.0092 54.3223 99.393 55.1654 100.283C54.9968 100.527 54.8224 100.771 54.6421 101.015Z" fill="#CACFE5"/>
<path d="M33.7628 100.411C32.7394 100.393 31.716 100.382 30.6927 100.364C29.9775 99.3465 30.0647 98.3871 30.9136 97.4917C31.7916 96.8986 32.7801 96.9044 33.7744 96.9393C34.6524 98.0964 34.6349 99.2535 33.7628 100.411Z" fill="#CACFE5"/>
<path d="M28.018 98.7418C28.018 99.2884 28.0238 99.8292 28.0238 100.376C26.7097 100.48 25.4538 100.504 25.5003 98.6314C25.5235 98.2534 25.5468 97.8755 25.5701 97.4975C27.0353 96.637 27.9424 96.8696 28.018 98.7418Z" fill="#CACFE5"/>
<path d="M39.6117 100.318C38.8209 101.044 37.972 100.132 37.1638 100.399C36.4021 99.4047 36.4369 98.4337 37.2568 97.4917C37.9894 96.98 38.722 96.9103 39.443 97.5033L39.6058 97.5092C39.8733 97.8638 40.0768 98.2476 40.1291 98.6953C40.1815 99.3059 40.0303 99.8524 39.6117 100.318Z" fill="#CACFE5"/>
<path d="M42.0076 98.079C42.7054 96.9161 43.5717 96.6195 44.6765 97.5499C44.723 97.9104 44.7695 98.2709 44.816 98.6372C44.9497 100.44 43.7462 100.475 42.467 100.405C42.2693 100.225 42.0832 100.033 41.903 99.835C41.5715 99.2244 41.2285 98.6197 42.0076 98.079Z" fill="#CACFE5"/>
<path d="M58.7187 123.081C58.5792 123.948 59.0153 124.675 59.306 125.43C58.6722 126.274 57.7652 125.919 56.9569 125.971C56.0557 125.465 55.7068 124.721 55.9685 123.704C56.1604 123.267 56.4104 122.93 56.9686 123.07C57.55 123.436 58.1373 123.436 58.7187 123.081Z" fill="#CACFE5"/>
<path d="M47.6477 100.405C47.6128 99.6489 47.5837 98.893 47.5488 98.1371C47.8337 96.666 48.7117 97.1428 49.5606 97.5208C50.0956 98.2069 50.7468 98.8698 50.0374 99.8117C49.4037 100.672 48.4675 100.3 47.6477 100.405Z" fill="#CACFE5"/>
<path d="M0.753732 137.571C6.53918 138.124 12.3537 138.199 18.1566 138.042C23.9595 137.885 29.7566 137.49 35.5478 137.071C41.3449 136.658 47.142 136.234 52.9565 135.995C58.771 135.763 64.603 135.716 70.4233 136.106L69.9814 136.711L62.3179 118.255C61.0445 115.168 59.9455 111.976 59.1199 108.725C58.271 105.475 57.6779 102.172 57.2243 98.8581C56.3405 92.218 56.0731 85.5429 55.8347 78.8853C55.7416 75.5535 55.7068 72.1986 56.0614 68.861C56.4336 65.5351 57.2302 62.2208 58.7245 59.2322L58.8291 59.2845C57.4685 62.3255 56.8406 65.6223 56.608 68.9192C56.358 72.2218 56.4859 75.5361 56.6778 78.8562C57.0499 85.5022 57.4511 92.1424 58.3814 98.7011C59.3059 105.266 60.841 111.708 63.3354 117.854L70.7838 136.385L71.0513 137.048L70.3477 136.996C58.7884 136.123 47.1652 136.937 35.5711 137.629C29.7682 137.972 23.9653 138.298 18.1508 138.385C12.3363 138.472 6.5101 138.321 0.730469 137.693L0.753732 137.571Z" fill="#00254D"/>
<path d="M1.25977 134.833C2.36452 133.716 3.17856 132.344 3.7949 130.908C4.41705 129.466 4.86477 127.96 5.28341 126.442L7.7604 117.325C9.39428 111.243 10.9642 105.144 12.2667 98.9919C13.5749 92.8401 14.575 86.6302 15.3018 80.3971C15.674 77.2863 15.8891 74.1523 15.7844 71.0299C15.6798 67.9075 15.203 64.7851 14.1738 61.808L14.2552 61.779C15.5286 64.6746 16.1566 67.8377 16.395 70.995C16.6334 74.1639 16.4589 77.3444 16.174 80.4901C15.5519 86.7814 14.3541 92.9971 12.9528 99.1431C11.5573 105.295 9.90596 111.383 8.18486 117.441L5.53925 126.512C5.09153 128.024 4.61474 129.536 3.9577 130.978C3.30648 132.414 2.45756 133.786 1.32373 134.891L1.25977 134.833Z" fill="#00254D"/>
<path d="M12.691 58.9938C12.2316 59.1799 11.6967 59.0636 11.3013 58.7787C10.9059 58.4996 10.6094 58.0344 10.6326 57.5286V57.4762H10.685C18.8311 57.0925 26.9831 56.825 35.1408 56.639C39.2168 56.5401 43.2986 56.4529 47.3746 56.482C49.4155 56.5169 51.4505 56.4703 53.5031 56.6273C54.0147 56.668 54.5264 56.7204 55.0323 56.7959C55.5381 56.8774 56.0498 56.9413 56.5499 57.1157C57.0383 57.2902 57.5383 57.5925 57.7826 58.081C58.0268 58.5403 58.05 59.1799 57.6605 59.5695L57.6198 59.5288C57.957 59.145 57.893 58.5636 57.6488 58.1565C57.4046 57.7321 56.9395 57.4937 56.4743 57.36C55.5207 57.1157 54.4799 57.0692 53.4798 57.0169C51.4564 56.9529 49.4155 57.0227 47.3804 57.046C43.3044 57.1099 39.2284 57.1041 35.1524 57.1332C27.0005 57.203 18.8485 57.3658 10.6966 57.5925L10.7489 57.5402C10.6966 58.4705 11.7839 59.2787 12.6735 58.9415L12.691 58.9938Z" fill="#00254D"/>
<path d="M15.4468 61.6801C22.2963 61.9418 29.1516 62.0115 36.0011 61.8952C39.4259 61.8313 42.8448 61.6859 46.2695 61.5871L56.5438 61.2905L56.5496 61.3487C53.1423 61.7499 49.7175 61.9766 46.2928 62.1685C42.868 62.343 39.4317 62.3604 36.0069 62.3604C29.1458 62.372 22.2905 62.1685 15.4468 61.7382V61.6801Z" fill="#00254D"/>
<path d="M13.1792 100.55L23.8546 100.777C27.4131 100.858 30.9716 100.963 34.5301 101.009C38.0886 101.05 41.6413 100.992 45.1823 100.818C48.7292 100.666 52.2586 100.277 55.7705 99.6838L55.7822 99.7419C52.3342 100.661 48.7757 101.143 45.2172 101.399C41.6529 101.649 38.0828 101.579 34.5243 101.475C30.9658 101.37 27.4073 101.207 23.8546 101.068L13.185 100.608L13.1792 100.55Z" fill="#00254D"/>
<path d="M13.1792 95.8869L34.5301 96.2474C38.0828 96.2765 41.6354 96.1834 45.1707 96.0264C48.7117 95.9043 52.2353 95.5322 55.7589 95.0205L55.7764 95.1078C52.3458 96.1137 48.7815 96.6137 45.2172 96.8986C41.6471 97.1661 38.0711 97.0672 34.5127 96.9451C30.9484 96.823 27.3957 96.6486 23.843 96.4916L13.1792 95.9741V95.8869Z" fill="#00254D"/>
<path d="M6.64941 126.349L35.0475 126.495L42.147 126.524L49.2466 126.605C53.9738 126.698 58.701 126.663 63.4049 126.128L63.4107 126.186C58.7417 127.053 53.9738 127.175 49.2408 127.186L42.1412 127.099L35.0417 126.96L6.64941 126.407V126.349Z" fill="#00254D"/>
<path d="M7.23096 121.104H21.43L35.6291 121.145C40.3621 121.157 45.0951 121.122 49.8281 121.227C54.5553 121.343 59.2709 121.331 63.9807 120.884L63.9923 120.971C59.3349 121.919 54.5495 122.064 49.8165 122.105C45.0777 122.116 40.3505 121.953 35.6174 121.849L21.4242 121.546L7.23096 121.198V121.104Z" fill="#00254D"/>
<path d="M14.7087 27.4733C14.29 27.264 14.0517 26.8163 13.9237 26.386C13.79 25.9499 13.7319 25.5022 13.6505 25.0603C13.5051 24.1706 13.3888 23.281 13.3307 22.3798C13.2202 20.5831 13.3307 18.7341 13.9121 16.9897C14.4587 15.2454 15.5809 13.6231 17.145 12.5998C17.9299 12.1055 18.7963 11.7218 19.715 11.5648C20.6279 11.4078 21.5815 11.4717 22.4246 11.7973L22.4071 11.8555C20.6337 11.5241 18.8661 12.0648 17.4706 13.0824C16.0693 14.0941 14.9413 15.4896 14.3482 17.1467C13.7377 18.798 13.5691 20.5947 13.6156 22.3681C13.633 23.2578 13.7086 24.1474 13.8191 25.037C13.8772 25.4789 13.9179 25.9266 14.0284 26.3569C14.1389 26.7756 14.3424 27.2058 14.732 27.421L14.7087 27.4733Z" fill="#CACFE5"/>
<path d="M46.1533 9.6983C47.322 7.77369 48.7815 6.02353 50.4793 4.52919C51.3282 3.78494 52.2353 3.09882 53.1947 2.49411C54.1425 1.8894 55.1774 1.32539 56.3578 1.15096C56.9392 1.06374 57.5672 1.11026 58.137 1.32539C58.7127 1.54053 59.1953 1.90103 59.6372 2.25572C60.0791 2.61622 60.4919 2.98253 60.9396 3.26744C61.3815 3.55817 61.8758 3.76749 62.3933 3.9303C64.4749 4.59315 66.7658 4.58152 68.9288 4.00589L68.9462 4.05822C66.8646 4.95947 64.4516 5.08739 62.2188 4.48268C61.6606 4.31406 61.1141 4.08729 60.6082 3.76749C60.1082 3.44188 59.6895 3.04649 59.2651 2.69181C58.8464 2.33131 58.422 1.99988 57.9452 1.80218C57.4684 1.60449 56.9392 1.54635 56.4101 1.60449C55.3461 1.7266 54.3343 2.23246 53.3866 2.8081C52.4272 3.37792 51.5201 4.02915 50.6596 4.74433C48.9327 6.16307 47.4267 7.84929 46.194 9.72738L46.1533 9.6983Z" fill="#CACFE5"/>
<path d="M28.8845 32.5959C29.9951 33.4622 31.4255 33.7239 32.7919 33.7239C33.4838 33.7297 34.1758 33.6774 34.8677 33.6018C35.5596 33.5204 36.2515 33.439 36.9086 33.2703C37.5656 33.1017 38.1878 32.8343 38.7053 32.4331C39.2169 32.026 39.6588 31.526 40.0193 30.962C40.7636 29.834 41.1822 28.4966 41.6939 27.1884L41.7521 27.2C41.566 28.5897 41.2288 29.9851 40.5194 31.2643C40.1531 31.8923 39.6588 32.4679 39.0483 32.8982C38.432 33.3227 37.7226 33.5785 37.0191 33.7239C36.3155 33.8751 35.6061 33.9274 34.9084 33.9797C34.2048 34.032 33.5013 34.0553 32.7919 34.0204C31.3906 33.9506 29.9253 33.5901 28.8555 32.6482L28.8845 32.5959Z" fill="#CACFE5"/>
<path d="M11.2434 49.4056C10.5922 49.301 10.0631 48.8067 9.76074 48.2369C9.44676 47.6555 9.37117 46.9752 9.41769 46.3298C9.51653 45.0273 10.0282 43.8179 10.0108 42.6026C10.0049 41.3874 9.28395 40.335 8.81297 39.1256C8.58621 38.515 8.41177 37.858 8.4234 37.1835C8.42922 36.5207 8.63854 35.8171 9.12114 35.3694L9.16765 35.4043C8.83041 35.945 8.76064 36.5672 8.83042 37.1603C8.90019 37.7591 9.08625 38.3406 9.35372 38.893C9.60374 39.457 9.90029 40.0268 10.1271 40.6373C10.3538 41.2479 10.5108 41.9223 10.4817 42.5968C10.4352 43.9458 9.85376 45.1145 9.71422 46.3472C9.63863 46.9577 9.66771 47.5915 9.92355 48.1497C10.1736 48.7021 10.6445 49.1963 11.2609 49.3417L11.2434 49.4056Z" fill="#CACFE5"/>
<path d="M25.1396 51.2895C26.4712 51.0221 27.8201 50.6906 29.0528 50.1615C29.6575 49.8882 30.1576 49.4405 30.3495 48.83C30.553 48.2311 30.5762 47.5275 30.5878 46.8821C30.5762 46.5681 30.4716 46.3588 30.2448 46.1379C30.018 45.9169 29.7506 45.7018 29.4889 45.4983C28.9598 45.0854 28.4016 44.6901 27.8725 44.2307C27.355 43.7597 26.8549 43.2306 26.5177 42.6026C26.1746 41.9805 25.977 41.2479 26.0991 40.5559L26.1572 40.5618C26.2095 41.242 26.477 41.8642 26.8608 42.3933C27.2445 42.9283 27.7155 43.3876 28.2504 43.7888C28.7679 44.2075 29.3261 44.6028 29.8552 45.0564C30.1227 45.289 30.3727 45.5157 30.6286 45.7832C30.7507 45.9227 30.8786 46.0855 30.96 46.2832C31.0414 46.4809 31.0588 46.6903 31.0588 46.8763C31.0181 47.5915 30.9716 48.2776 30.71 48.9695C30.5762 49.3068 30.3669 49.6266 30.0936 49.8766C29.8203 50.1266 29.5005 50.3011 29.1749 50.4348C27.855 50.9116 26.5119 51.1558 25.1513 51.3535L25.1396 51.2895Z" fill="#CACFE5"/>
<path d="M48.7757 43.2946C49.0897 43.4748 49.4676 43.4807 49.8165 43.4051C50.1654 43.3295 50.5026 43.1841 50.8282 43.0271C51.4736 42.7131 52.1598 42.3643 52.4621 41.7479C52.6133 41.4456 52.6714 41.0967 52.7354 40.7362C52.7935 40.3757 52.8807 39.9978 53.0029 39.6431C53.2529 38.9279 53.6366 38.2592 54.1251 37.6778C54.6193 37.1021 55.2182 36.5905 55.9159 36.2532C56.259 36.073 56.6369 35.9567 57.0149 35.8636C57.3986 35.7939 57.7882 35.759 58.1778 35.7764C59.7361 35.8753 61.1083 36.5556 62.3526 37.3231L62.3293 37.3754C60.9397 36.9044 59.5674 36.3404 58.1661 36.3579C56.7881 36.3346 55.4391 36.9509 54.4797 37.9917C54.003 38.5092 53.625 39.1198 53.3634 39.7826C53.2354 40.114 53.1424 40.4513 53.0726 40.8118C52.997 41.1665 52.9214 41.5502 52.7296 41.8991C52.3167 42.6085 51.5667 42.9166 50.9096 43.2016C50.5724 43.3411 50.2177 43.4748 49.8456 43.5388C49.4793 43.5969 49.0722 43.5679 48.7524 43.3644L48.7757 43.2946Z" fill="#CACFE5"/>
<path d="M78.2789 10.0297C79.2266 11.4892 80.2267 13.0184 80.4244 14.8674C80.4593 15.3268 80.4302 15.8035 80.2558 16.2687C80.0872 16.7339 79.7151 17.1351 79.3022 17.3735C78.8894 17.6235 78.4533 17.7688 78.0289 17.9084C77.6044 18.0479 77.1683 18.17 76.7322 18.2689C74.9879 18.6759 73.1388 18.8038 71.3596 18.4491C70.4583 18.2922 69.6327 17.9084 68.9466 18.0828C68.243 18.2515 67.8825 19.1585 67.615 19.9726L67.5278 19.9551C67.5453 19.5132 67.6034 19.0655 67.7546 18.6178C67.9116 18.1817 68.2372 17.7281 68.7314 17.513C69.2257 17.2862 69.7548 17.3269 70.2025 17.3851C70.6677 17.4549 71.0689 17.5421 71.4933 17.5886C73.1737 17.8096 74.8948 17.8793 76.5868 17.5828C77.0113 17.513 77.4241 17.4142 77.8428 17.3037C78.2614 17.1932 78.6684 17.0711 79.0173 16.885C79.3662 16.699 79.6395 16.4373 79.7907 16.0768C79.9476 15.7221 80 15.3093 79.9883 14.8907C79.9302 13.187 79.058 11.588 78.2033 10.0762L78.2789 10.0297Z" fill="#00254D"/>
</svg>
