<svg width="125" height="122" viewBox="0 0 125 122" fill="none" xmlns="http://www.w3.org/2000/svg">
<path d="M58.9615 53.3031C58.8193 51.7795 58.7583 50.4692 58.3622 49.1386C57.9864 47.8283 57.3668 46.579 56.4831 45.543C54.7259 43.4201 52.085 42.2825 49.4442 41.6527C48.0831 41.3277 46.7728 40.8707 45.4727 40.4136L43.5123 39.7432C42.8318 39.5197 42.1818 39.1947 41.6129 38.7376C41.0441 38.2805 40.5769 37.6508 40.3941 36.9195C40.1909 36.1882 40.2823 35.406 40.5464 34.7255C40.8105 34.0348 41.2168 33.4254 41.6739 32.887C42.1513 32.3386 42.6084 31.8815 43.0045 31.3229C43.8171 30.2462 44.457 29.0375 44.8429 27.7577C45.2492 26.4779 45.3203 25.1168 45.4219 23.7354C45.5946 21.0031 45.5133 18.2403 45.0562 15.5487C44.1218 10.2568 39.1041 6.04153 33.7309 6.05169C31.0596 5.90949 28.4289 6.77282 26.2959 8.3675C25.2395 9.15977 24.2339 10.1146 23.4315 11.1405C22.7104 12.1359 22.2533 13.436 21.9587 14.7361C21.3493 17.3567 21.1868 20.1093 21.3087 22.8111C21.4204 24.162 21.5321 25.5129 21.847 26.8131C22.1619 28.103 22.5478 29.4133 23.2589 30.4392C23.4214 30.7134 23.6448 30.9064 23.8378 31.14C24.0206 31.3635 24.366 31.658 24.5894 31.9526C25.077 32.562 25.4426 33.2934 25.6255 34.045C25.8185 34.7966 25.8591 35.5381 25.8794 36.2491C25.8794 36.9296 25.9505 37.7625 25.4833 38.6259C24.9856 39.5197 24.0206 39.8244 23.3706 40.0174L21.4102 40.6675L17.4997 41.9676C16.1793 42.3942 14.9198 42.8411 13.7212 43.4201C12.5328 43.999 11.4257 44.6999 10.603 45.6445C8.9067 47.5134 8.46993 50.2559 8.2871 52.9272L8.16522 54.7556L6.92604 53.4148C4.81333 51.1396 3.28975 48.4276 2.2334 45.5836C1.17705 42.7294 0.557458 39.733 0.303528 36.7163C0.029283 33.6895 0.222272 30.6322 0.801234 27.6561C1.03485 26.1528 1.51224 24.7003 1.92868 23.2377C2.48733 21.8258 2.98503 20.3733 3.72651 19.0428C4.35626 17.6512 5.23994 16.4019 6.05252 15.1119C6.48928 14.4923 6.98698 13.9134 7.45421 13.304L8.16522 12.4101C8.41915 12.1257 8.69339 11.8616 8.95748 11.5874L10.5522 9.95203L12.289 8.46911L13.1626 7.73776L14.1072 7.08775C14.7369 6.66114 15.3565 6.20406 15.9964 5.80793C18.617 4.25387 21.4305 3.01467 24.366 2.17162C27.3116 1.41999 30.3486 0.901959 33.4059 0.952745C34.1677 0.901959 34.9295 1.01372 35.6913 1.04419C36.4531 1.10513 37.2149 1.12543 37.9665 1.28795L40.2214 1.67393L42.4255 2.26307C43.167 2.43574 43.878 2.70994 44.589 2.98419C45.2899 3.26859 46.0212 3.49208 46.7017 3.83742L48.7433 4.85314C49.434 5.16802 50.0434 5.63521 50.6935 6.02119C52.0139 6.78298 53.1617 7.7784 54.3704 8.70271C54.9595 9.1801 55.4776 9.73878 56.0362 10.2568L56.8589 11.0389C57.123 11.3131 57.3566 11.6077 57.6106 11.8921C59.6826 14.1064 61.2773 16.7269 62.6282 19.4186C63.9791 22.1305 64.812 25.0558 65.4113 27.9913C65.97 30.9572 66.0309 33.984 65.8074 36.9703C65.5129 39.9565 64.7409 42.8716 63.6643 45.6547C63.0447 47.0157 62.4556 48.387 61.6328 49.6363C60.9726 50.9161 59.8452 52.1756 58.9615 53.3031ZM59.0326 53.1202L60.2007 51.3021C60.5968 50.7536 60.9523 50.0934 61.2875 49.4433C62.0391 48.1838 62.5571 46.8024 63.1158 45.4515C64.0604 42.6786 64.6902 39.8143 64.8527 36.8992C64.9847 33.9942 64.8324 31.0689 64.2229 28.2249C63.5729 25.4012 62.6892 22.6181 61.318 20.0686C58.6568 14.9494 54.6954 10.4904 49.7489 7.53467C44.8734 4.47734 39.1143 2.97403 33.4059 2.98419C30.5416 2.95372 27.6976 3.4514 24.9348 4.17257C22.1822 4.96483 19.5718 6.16344 17.0934 7.59561C16.484 7.97142 15.905 8.39802 15.3159 8.79415L14.4322 9.39339L13.6095 10.0841L11.964 11.4655L10.4608 12.9992C10.217 13.2531 9.95289 13.4969 9.70911 13.7712L9.03874 14.6041C8.60198 15.1627 8.12459 15.7011 7.70814 16.2902C6.94635 17.4989 6.09314 18.6568 5.49387 19.9569C4.77271 21.1961 4.30547 22.5572 3.75698 23.8776C3.36085 25.2488 2.87331 26.6099 2.64985 28.0319C2.07089 30.8353 1.85758 33.7403 2.08104 36.6046C2.28419 39.469 2.84283 42.3231 3.80777 45.0249C4.77271 47.7268 6.18456 50.2762 8.09412 52.3584L6.72289 52.846C6.83462 51.4342 7.0073 50.0122 7.40343 48.6003C7.77924 47.1884 8.48009 45.7969 9.49581 44.6695C10.5014 43.5217 11.8015 42.7396 13.0915 42.12C14.3916 41.5004 15.7527 41.0433 17.0629 40.637L21.0243 39.3572L23.0049 38.7173C23.655 38.5345 24.1222 38.3313 24.3152 37.9758C24.5387 37.6102 24.559 36.9906 24.5488 36.31C24.5387 35.6396 24.498 34.9997 24.3457 34.4005C24.2035 33.8012 23.9495 33.2731 23.5737 32.7957C23.3807 32.5417 23.1877 32.3894 22.9237 32.0847C22.6799 31.7799 22.3853 31.5057 22.1923 31.1806C21.3391 29.911 20.9633 28.4991 20.6281 27.1076C20.3031 25.716 20.1914 24.3042 20.0898 22.8924C19.9882 20.0788 20.1711 17.2551 20.8414 14.4923C21.1766 13.111 21.6439 11.7296 22.558 10.4904C23.4722 9.35278 24.5082 8.39803 25.656 7.53467C27.9616 5.82825 30.8971 4.89375 33.7614 5.08674C39.5612 5.168 44.9039 9.72859 45.8282 15.437C46.265 18.2099 46.3056 21.0132 46.1024 23.7963C45.9806 25.1675 45.8891 26.5896 45.4422 27.9608C45.0156 29.3219 44.3249 30.5814 43.4616 31.6987C43.0451 32.2573 42.5169 32.7855 42.0903 33.273C41.6536 33.7809 41.2778 34.3294 41.0441 34.9388C40.8105 35.5381 40.7293 36.1983 40.8918 36.8077C41.0441 37.4172 41.4301 37.9657 41.9278 38.372C42.9232 39.2252 44.3351 39.4893 45.6149 40.0073C46.915 40.4847 48.205 40.9519 49.5356 41.2871C52.2069 41.9676 54.9189 43.1661 56.7167 45.3804C57.6106 46.4672 58.2302 47.7572 58.606 49.098C58.9513 50.4083 59.1646 51.8709 59.0326 53.1202Z" fill="#00254D"/>
<path d="M23.1977 48.0824C23.2688 48.5801 23.3806 49.0676 23.5431 49.5247C23.6751 49.931 24.0001 50.6115 24.0408 50.4084L25.4628 50.4186L26.2144 50.4389C26.316 50.4389 26.1941 50.3881 26.0113 50.4998C25.8691 50.6217 25.8792 50.6725 25.8792 50.6014C25.8995 50.1951 25.8894 49.6466 25.7878 49.3317C25.6964 48.9965 25.5847 48.7832 25.5034 48.6207C25.4425 48.4887 25.3409 48.316 24.9448 48.2449C24.5588 48.184 24.0408 48.2449 23.472 48.2652L23.3602 48.0926C23.6446 47.5847 24.0306 47.1378 24.6401 46.8534C24.9448 46.701 25.3206 46.6299 25.737 46.6604C26.1535 46.6908 26.5801 46.8838 26.9051 47.1581C27.5552 47.7066 27.8091 48.509 27.7888 49.1794C27.7583 49.8803 27.606 50.3373 27.4739 50.9366C27.413 51.1194 27.3419 51.4241 26.9965 51.7085C26.6207 51.9929 26.2144 51.9421 26.0722 51.9218L25.3104 51.7695L24.569 51.5968C24.3049 51.5257 24.122 51.5156 23.7259 51.3835C23.5431 51.3124 23.2993 51.1296 23.1977 50.9366C23.0962 50.7436 23.0657 50.5912 23.0454 50.4693C22.9946 50.2052 22.954 49.9412 22.9336 49.6669C22.8829 49.1388 22.9133 48.6004 23.0047 48.0926L23.1977 48.0824Z" fill="#00254D"/>
<path d="M31.4651 47.5238C31.4144 48.7426 31.5261 49.9716 31.7699 51.16C31.8003 51.3124 31.8511 51.4952 31.9933 51.5663C32.1051 51.6171 32.2371 51.5968 32.3488 51.5663C33.2223 51.3632 34.0959 51.16 34.9694 50.967C35.0507 50.9467 35.1319 50.9264 35.1929 50.8655C35.2741 50.7842 35.264 50.6522 35.2538 50.5404C35.1522 49.6669 34.8069 48.834 34.4615 48.0113C34.3904 47.8386 34.3092 47.6558 34.1568 47.5542C34.0248 47.4628 33.8521 47.4425 33.6896 47.4221C33.0903 47.3714 32.4809 47.3612 31.8714 47.3917" stroke="#00254D" stroke-width="2" stroke-miterlimit="10"/>
<path d="M39.9065 46.7112C39.8558 47.3409 39.9065 47.9606 40.0589 48.5395C40.2011 49.1083 40.4855 49.6873 40.7801 50.1037C40.8512 50.185 40.8918 50.185 40.8715 50.1545C40.8613 50.1342 40.9223 50.1342 41.034 50.1037L41.9177 49.8498C42.5169 49.6771 43.1061 49.5146 43.6952 49.3114L43.1162 50.703C42.5271 50.0123 42.07 49.2404 41.745 48.3871C41.6536 48.184 41.5723 47.9301 41.5825 47.8895C41.5825 47.859 41.6333 47.8691 41.6637 47.8488C41.6841 47.8183 41.6231 47.7777 41.5215 47.7371C41.0848 47.5644 40.648 47.3714 40.2214 47.0972L40.2417 46.8941C40.709 46.6909 41.166 46.569 41.6231 46.4572C41.745 46.4369 41.9075 46.4166 42.1411 46.4572C42.3849 46.508 42.6287 46.6503 42.7709 46.7925C43.0756 47.0972 43.1975 47.2495 43.3397 47.4222C43.9288 48.1129 44.3859 48.8849 44.7211 49.7279L45.2391 51.0585L44.1421 51.1296C43.4717 51.1702 42.8115 51.2515 42.1615 51.3226C41.8263 51.3531 41.5215 51.4038 41.166 51.4241C40.9731 51.4241 40.6988 51.4343 40.3839 51.2921C40.0691 51.1397 39.8862 50.8858 39.7948 50.6929C39.4799 49.9818 39.3784 49.3216 39.3581 48.6309C39.3479 47.9504 39.4596 47.2698 39.6932 46.6604L39.9065 46.7112Z" fill="#00254D"/>
<path d="M28.3875 38.9409C29.1087 39.3879 29.7892 39.8653 30.5104 40.2208C31.2112 40.5864 31.9425 40.8708 32.5723 40.8911C33.2427 40.9013 33.4966 40.5051 34.1467 40.2106C34.7764 39.916 35.6093 39.3675 36.6555 39.398L36.7571 39.5707C36.3711 40.4544 36.0562 41.1349 35.3655 41.8357C35.0303 42.1709 34.5428 42.4655 33.974 42.5772C33.4052 42.689 32.8059 42.628 32.3082 42.496C31.2925 42.2217 30.551 41.6428 29.9212 41.0435C29.3017 40.4239 28.7633 39.7738 28.2656 39.0933L28.3875 38.9409Z" fill="#00254D"/>
<path d="M117.874 112.215C117.731 110.692 117.67 109.381 117.274 108.051C116.898 106.74 116.279 105.491 115.395 104.455C113.638 102.332 110.997 101.195 108.356 100.565C106.995 100.24 105.685 99.7827 104.385 99.3256L102.424 98.6552C101.744 98.4318 101.094 98.1068 100.525 97.6497C99.9562 97.1926 99.4889 96.5629 99.2959 95.8316C99.0928 95.1002 99.1842 94.3181 99.4483 93.6376C99.7124 92.9469 100.119 92.3374 100.576 91.7991C101.053 91.2506 101.51 90.7936 101.906 90.2349C102.719 89.1583 103.359 87.9495 103.745 86.6697C104.151 85.3899 104.222 84.0288 104.324 82.6474C104.496 79.9152 104.415 77.1524 103.958 74.4607C103.024 69.1688 98.006 64.9536 92.6328 64.9638C89.9614 64.8216 87.3307 65.6849 85.1977 67.2796C84.1414 68.0718 83.1358 69.0267 82.3334 70.0525C81.6122 71.0479 81.1551 72.348 80.8606 73.6482C80.2511 76.2687 80.0886 79.0213 80.2105 81.7232C80.3222 83.0741 80.434 84.425 80.7488 85.7251C81.0637 87.0151 81.4497 88.3254 82.1607 89.3512C82.3232 89.6255 82.5467 89.8185 82.7397 90.0521C82.9225 90.2756 83.2678 90.5701 83.4913 90.8647C83.9788 91.4741 84.3445 92.2054 84.5273 92.957C84.7203 93.7087 84.761 94.4501 84.7813 95.1611C84.7813 95.8417 84.8524 96.6746 84.3851 97.538C83.8874 98.4318 82.9225 98.7365 82.2724 98.9295L80.3121 99.5796L76.4016 100.88C75.0811 101.306 73.8216 101.753 72.6231 102.332C71.4347 102.911 70.3275 103.612 69.5048 104.557C67.8086 106.426 67.3718 109.168 67.189 111.839L67.0671 113.668L65.8279 112.327C63.7152 110.052 62.1916 107.34 61.1353 104.496C60.0789 101.641 59.4593 98.6451 59.2054 95.6284C58.9311 92.6016 59.1241 89.5442 59.7031 86.5682C59.9367 85.0649 60.4141 83.6124 60.8305 82.1498C61.3892 80.7379 61.8869 79.2854 62.6284 77.9548C63.2581 76.5633 64.1418 75.3139 64.9544 74.024C65.3911 73.4044 65.8888 72.8255 66.3561 72.216L67.0671 71.3222C67.321 71.0378 67.5952 70.7737 67.8593 70.4995L69.454 68.8641L71.1909 67.3812L72.0644 66.6498L73.009 65.9998C73.6388 65.5732 74.2584 65.1161 74.8983 64.72C77.5189 63.1659 80.3324 61.9267 83.2678 61.0837C86.2134 60.3321 89.2505 59.814 92.3078 59.8648C93.0696 59.814 93.8314 59.9258 94.5932 59.9563C95.3549 60.0172 96.1167 60.0375 96.8684 60.2L99.1233 60.586L101.327 61.1751C102.069 61.3478 102.78 61.622 103.491 61.8963C104.192 62.1807 104.923 62.4041 105.604 62.7495L107.645 63.7652C108.336 64.0801 108.945 64.5473 109.595 64.9333C110.916 65.695 112.064 66.6905 113.272 67.6148C113.861 68.0922 114.379 68.6508 114.938 69.1689L115.761 69.9509C116.025 70.2252 116.259 70.5198 116.512 70.8042C118.585 73.0184 120.179 75.639 121.53 78.3306C122.881 81.0426 123.714 83.9679 124.313 86.9033C124.872 89.8692 124.933 92.8961 124.709 95.8823C124.415 98.8686 123.643 101.784 122.566 104.567C121.947 105.928 121.357 107.299 120.535 108.548C119.885 109.828 118.757 111.088 117.874 112.215ZM117.945 112.032L119.113 110.214C119.509 109.666 119.864 109.005 120.199 108.355C120.951 107.096 121.469 105.714 122.028 104.364C122.972 101.591 123.602 98.7263 123.765 95.8112C123.897 92.9063 123.744 89.981 123.135 87.137C122.485 84.3133 121.601 81.5302 120.23 78.9807C117.569 73.8615 113.607 69.4025 108.661 66.4467C103.785 63.3894 98.0263 61.8861 92.3179 61.8963C89.4536 61.8658 86.6096 62.3635 83.8468 63.0846C81.0942 63.8769 78.4838 65.0755 76.0054 66.5077C75.396 66.8835 74.817 67.3101 74.2279 67.7062L73.3442 68.3055L72.5215 68.9961L70.876 70.3776L69.3728 71.9113C69.129 72.1652 68.8649 72.409 68.6211 72.6832L67.9508 73.5161C67.514 74.0748 67.0366 74.6131 66.6202 75.2022C65.8584 76.411 65.0052 77.5689 64.4059 78.869C63.6847 80.1082 63.2175 81.4692 62.669 82.7897C62.2729 84.1609 61.7853 85.522 61.5619 86.944C60.9829 89.7474 60.7696 92.6524 60.9931 95.5167C61.1962 98.381 61.7548 101.235 62.7198 103.937C63.6847 106.639 65.0966 109.188 67.0061 111.27L65.6349 111.758C65.7466 110.346 65.9193 108.924 66.3154 107.512C66.6913 106.101 67.3921 104.709 68.4078 103.582C69.4134 102.434 70.7135 101.652 72.0035 101.032C73.3036 100.412 74.6647 99.9554 75.975 99.5491L79.9363 98.2693L81.9169 97.6293C82.567 97.4465 83.0342 97.2434 83.2272 96.8879C83.4507 96.5222 83.471 95.9026 83.4608 95.2221C83.4507 94.5517 83.41 93.9118 83.2577 93.3125C83.1155 92.7132 82.8616 92.1851 82.4857 91.7077C82.2928 91.4538 82.0998 91.3014 81.8357 90.9967C81.5919 90.692 81.2973 90.4177 81.1044 90.0927C80.2512 88.8231 79.8753 87.4112 79.5401 86.0197C79.2151 84.6281 79.1034 83.2163 79.0018 81.8044C78.9002 78.9909 79.0831 76.1672 79.7534 73.4044C80.0886 72.023 80.5559 70.6416 81.47 69.4025C82.3842 68.2648 83.4202 67.3101 84.568 66.4467C86.8736 64.7403 89.8091 63.8058 92.6734 63.9988C98.4732 64.0801 103.816 68.6407 104.74 74.349C105.177 77.1219 105.218 79.9253 105.014 82.7084C104.893 84.0796 104.801 85.5017 104.354 86.8729C103.928 88.234 103.237 89.4934 102.374 90.6107C101.957 91.1694 101.429 91.6975 101.002 92.1851C100.566 92.693 100.19 93.2415 99.9562 93.8509C99.7225 94.4502 99.6413 95.1103 99.8038 95.7198C99.9562 96.3292 100.342 96.8777 100.84 97.284C101.835 98.1372 103.247 98.4013 104.527 98.9193C105.827 99.3967 107.117 99.864 108.448 100.199C111.119 100.88 113.831 102.078 115.629 104.292C116.523 105.379 117.142 106.669 117.518 108.01C117.863 109.32 118.077 110.783 117.945 112.032Z" fill="#00254D"/>
<path d="M82.1094 106.994C82.1805 107.492 82.2922 107.98 82.4547 108.437C82.5867 108.843 82.9118 109.523 82.9524 109.32L84.3744 109.33L85.126 109.351C85.2276 109.351 85.1057 109.3 84.9229 109.412C84.7807 109.534 84.7909 109.584 84.7909 109.513C84.8112 109.107 84.801 108.558 84.6994 108.244C84.608 107.908 84.4963 107.695 84.415 107.533C84.3541 107.401 84.2525 107.228 83.8564 107.157C83.4704 107.096 82.9524 107.157 82.3836 107.177L82.2719 107.004C82.5563 106.497 82.9422 106.05 83.5517 105.765C83.8564 105.613 84.2322 105.542 84.6487 105.572C85.0651 105.603 85.4917 105.796 85.8167 106.07C86.4668 106.618 86.7207 107.421 86.7004 108.091C86.6699 108.792 86.5176 109.249 86.3855 109.848C86.3246 110.031 86.2535 110.336 85.9082 110.62C85.5323 110.905 85.126 110.854 84.9838 110.834L84.2221 110.681L83.4806 110.509C83.2165 110.438 83.0337 110.427 82.6375 110.295C82.4547 110.224 82.2109 110.041 82.1094 109.848C82.0078 109.655 81.9773 109.503 81.957 109.381C81.9062 109.117 81.8656 108.853 81.8453 108.579C81.7945 108.051 81.8249 107.512 81.9164 107.004L82.1094 106.994Z" fill="#00254D"/>
<path d="M90.3777 106.436C90.327 107.655 90.4387 108.883 90.6825 110.072C90.7129 110.224 90.7637 110.407 90.9059 110.478C91.0177 110.529 91.1497 110.509 91.2614 110.478C92.135 110.275 93.0085 110.072 93.882 109.879C93.9632 109.859 94.0445 109.838 94.1054 109.777C94.1867 109.696 94.1766 109.564 94.1664 109.452C94.0648 108.579 93.7195 107.746 93.3741 106.923C93.303 106.75 93.2218 106.568 93.0694 106.466C92.9374 106.375 92.7647 106.354 92.6022 106.334C92.0029 106.283 91.3935 106.273 90.784 106.304" stroke="#00254D" stroke-width="2" stroke-miterlimit="10"/>
<path d="M98.8186 105.623C98.7679 106.253 98.8187 106.872 98.971 107.451C99.1132 108.02 99.3976 108.599 99.6922 109.016C99.7633 109.097 99.8039 109.097 99.7836 109.066C99.7734 109.046 99.8344 109.046 99.9461 109.016L100.83 108.762C101.429 108.589 102.018 108.426 102.607 108.223L102.028 109.615C101.439 108.924 100.982 108.152 100.657 107.299C100.566 107.096 100.484 106.842 100.495 106.801C100.495 106.771 100.545 106.781 100.576 106.761C100.596 106.73 100.535 106.69 100.434 106.649C99.9969 106.476 99.5601 106.283 99.1335 106.009L99.1538 105.806C99.6211 105.603 100.078 105.481 100.535 105.369C100.657 105.349 100.82 105.328 101.053 105.369C101.297 105.42 101.541 105.562 101.683 105.704C101.988 106.009 102.11 106.161 102.252 106.334C102.841 107.025 103.298 107.797 103.633 108.64L104.151 109.97L103.054 110.041C102.384 110.082 101.724 110.163 101.074 110.234C100.738 110.265 100.434 110.316 100.078 110.336C99.8852 110.336 99.6109 110.346 99.296 110.204C98.9812 110.052 98.7983 109.798 98.7069 109.605C98.392 108.894 98.2905 108.233 98.2702 107.543C98.26 106.862 98.3717 106.182 98.6054 105.572L98.8186 105.623Z" fill="#00254D"/>
<path d="M87.2996 97.8528C88.0208 98.2997 88.7013 98.7771 89.4225 99.1326C90.1233 99.4983 90.8546 99.7827 91.4844 99.803C92.1548 99.8131 92.4087 99.417 93.0588 99.1225C93.6885 98.8279 94.5214 98.2794 95.5676 98.3099L95.6692 98.4825C95.2832 99.3662 94.9683 100.047 94.2776 100.748C93.9424 101.083 93.4549 101.377 92.8861 101.489C92.3173 101.601 91.718 101.54 91.2203 101.408C90.2046 101.134 89.4631 100.555 88.8334 99.9554C88.2138 99.3358 87.6754 98.6857 87.1777 98.0051L87.2996 97.8528Z" fill="#00254D"/>
<path d="M80.5955 22.476C82.5356 24.345 85.1155 25.2388 87.5227 26.4374C89.9503 27.6359 92.1646 29.2509 94.1656 31.0691C96.1665 32.8974 97.9948 34.9389 99.4879 37.204C100.951 39.4894 102.2 41.8966 103.073 44.4563L102.982 44.4969C101.57 42.2013 100.219 39.916 98.6449 37.7728C97.0807 35.6398 95.5063 33.4966 93.6171 31.6379C91.7278 29.7791 89.6253 28.1234 87.2993 26.8538C84.9936 25.5638 82.4035 24.5278 80.5244 22.537L80.5955 22.476Z" fill="#00254D"/>
<path d="M88.386 13.7713C91.0777 15.691 93.8913 17.4279 96.6439 19.2766C99.3965 21.1252 102.068 23.1363 104.424 25.5232C105.603 26.7116 106.679 28.0118 107.675 29.3627C108.65 30.6933 109.594 32.0645 110.478 33.4763C112.184 36.3204 113.769 39.3675 114.317 42.6686L114.216 42.6889C113.099 39.5707 111.463 36.7368 109.615 34.0146C108.711 32.6434 107.766 31.2925 106.842 29.9315C105.917 28.5806 104.942 27.2804 103.825 26.0818C101.601 23.6847 99.0207 21.6229 96.3392 19.693C93.6678 17.7529 90.9253 15.884 88.3149 13.8526L88.386 13.7713Z" fill="#00254D"/>
<path d="M95.3332 43.5015C101.885 46.3557 108.355 49.4333 115.13 51.6273L114.601 51.9421L115.455 46.4674C115.739 44.6391 116.054 42.821 116.389 41.013C116.755 39.205 117.1 37.3869 117.486 35.5789C117.872 33.7709 118.268 31.9731 118.735 30.1752L118.837 30.1956C118.664 32.0442 118.431 33.8725 118.197 35.7008C117.953 37.5291 117.669 39.3573 117.405 41.1856C117.11 43.0038 116.795 44.8321 116.45 46.6401L115.414 52.0844L115.323 52.5516L114.886 52.3992C111.503 51.2007 108.202 49.7787 104.952 48.2754C101.712 46.7518 98.5124 45.147 95.3027 43.5929L95.3332 43.5015Z" fill="#00254D"/>
<path d="M74.2978 7.52464C73.9321 8.09344 74.1454 8.8552 74.572 9.1396C74.7955 9.30212 75.0697 9.37323 75.3745 9.4037C75.6792 9.43417 75.994 9.39357 76.3292 9.37326L75.8011 9.86079C75.7503 9.50528 75.8011 9.14979 75.862 8.79429C75.9229 8.43879 76.0347 8.0731 76.2175 7.68713L76.3191 7.67696C76.5222 8.03246 76.6441 8.39814 76.7254 8.77396C76.8066 9.14977 76.8676 9.53574 76.8371 9.91156L76.7965 10.4499L76.3191 10.3991C75.9636 10.3686 75.5979 10.2874 75.2221 10.1858C74.8564 10.0741 74.4603 9.90139 74.1759 9.58652C73.8813 9.2818 73.7493 8.84506 73.7696 8.45908C73.7899 8.07311 73.9524 7.6973 74.2267 7.45353L74.2978 7.52464Z" fill="#00254D"/>
<path d="M81.1948 10.4702L81.205 11.6586C81.205 11.8516 81.205 12.075 81.2151 12.2375C81.2456 12.4001 81.2659 12.3696 81.4284 12.4103L83.5716 12.6642C83.5107 12.6743 83.4193 12.7658 83.4091 12.7962C83.3989 12.8267 83.3989 12.7962 83.4091 12.7454L83.4396 12.4509L83.4904 11.8617L83.5615 11.2727L83.6529 10.7749C83.663 10.6835 83.6834 10.7038 83.6427 10.6226C83.6021 10.5515 83.4396 10.4702 83.2669 10.389C82.952 10.2366 82.3934 10.0335 82.2816 9.54591L82.3731 9.49514C82.6778 9.72876 83.0231 9.63734 83.4396 9.68813C83.6529 9.70844 83.8865 9.72871 84.1607 9.89122C84.4451 10.0436 84.6584 10.4499 84.6584 10.7648C84.6584 11.0797 84.6178 11.2422 84.5873 11.4351L84.4655 12.0141L84.3131 12.5931L84.242 12.8774C84.2318 12.9181 84.2217 12.9892 84.1709 13.1111C84.1303 13.233 83.9677 13.4057 83.8052 13.4361C83.4904 13.4971 83.4091 13.4158 83.3177 13.4056L83.0333 13.3345L82.4543 13.1923L81.2761 12.8978C81.1644 12.8572 81.0222 12.7962 80.9206 12.6642C80.8088 12.5321 80.7885 12.3594 80.7987 12.2375C80.819 12.0039 80.8596 11.8313 80.8901 11.6281L81.0831 10.4499L81.1948 10.4702Z" fill="#00254D"/>
<path d="M37.0418 114.277C35.7213 112.946 33.9946 112.164 32.3999 111.199C30.7849 110.234 29.2105 109.209 27.7377 108.051C24.7617 105.745 22.07 103.084 19.7034 100.148C17.3469 97.2027 15.285 93.993 13.7817 90.5294C12.2988 87.0556 11.212 83.399 10.8057 79.6612L10.9072 79.6409C11.8823 83.2569 13.091 86.7713 14.706 90.1028C16.3007 93.4344 18.1189 96.6745 20.3535 99.6506C22.5982 102.606 25.1883 105.298 28.0628 107.654C29.4848 108.853 31.0084 109.93 32.5726 110.945C34.1165 111.961 35.8432 112.825 37.1332 114.216L37.0418 114.277Z" fill="#00254D"/>
<path d="M46.1529 106.273C43.1362 105.552 40.2617 104.16 37.763 102.281C35.2237 100.423 33.1719 98.0661 30.8663 96.0042C30.2975 95.4659 29.7388 94.9478 29.1802 94.3587C28.6418 93.7696 28.1441 93.1703 27.6566 92.5609C27.169 91.9514 26.712 91.3217 26.2447 90.7123C25.7876 90.0927 25.3001 89.5036 24.8532 88.8434C23.9695 87.5331 23.1671 86.172 22.5577 84.7297C21.9279 83.2975 21.42 81.7942 21.1763 80.2503L21.2778 80.23C22.2936 83.1451 23.8171 85.847 25.6353 88.2746C26.5901 89.4426 27.555 90.7123 28.4793 91.921C29.4036 93.1601 30.399 94.2673 31.4859 95.3744C33.69 97.5582 35.6706 99.9554 38.0779 101.865C40.4445 103.815 43.1971 105.308 46.1732 106.172L46.1529 106.273Z" fill="#00254D"/>
<path d="M31.0185 84.9125C24.5483 81.0121 17.6414 77.8634 10.4704 75.5679L10.9986 75.2834C10.5517 77.0406 10.2063 78.8181 9.88128 80.6058C9.5461 82.3833 9.27186 84.2117 8.81478 85.9994C8.34755 87.7769 7.89047 89.5239 7.40293 91.2912C6.87475 93.0586 6.23485 94.7752 5.51368 96.4613L5.41211 96.4308C5.82856 94.6431 6.29579 92.8859 6.65129 91.1084C7.02711 89.3309 7.41308 87.5331 7.81937 85.7657C8.03268 84.8719 8.20535 84.0187 8.35771 83.1147L8.88588 80.423C9.2617 78.6353 9.6883 76.8375 10.1962 75.0702L10.318 74.6435L10.7243 74.7857C17.8953 77.2844 24.7413 80.6668 31.0591 84.8211L31.0185 84.9125Z" fill="#00254D"/>
<path d="M42.4865 115.537L42.3748 118.32L42.1818 118.066C43.3397 118.188 44.5078 118.167 45.6352 117.964L45.2899 118.259C45.5235 117.212 45.4829 116.156 45.4829 115.11L45.879 115.526C45.0055 115.252 44.1421 114.927 43.3397 114.49L43.3702 114.389C44.3046 114.368 45.1782 114.45 46.0415 114.582L46.3564 114.632L46.4376 114.998C46.6916 116.166 46.4681 117.385 46.0923 118.492L46.0009 118.777L45.747 118.797C44.5281 118.878 43.2991 118.807 42.1107 118.533L41.8872 118.482L41.9177 118.279L42.3951 115.537H42.4865Z" fill="#00254D"/>
<path d="M49.6672 117.517C49.7078 118.055 49.6773 118.604 49.5859 119.142C49.5351 119.417 49.4742 119.681 49.3929 119.945C49.3625 120.067 49.2914 120.229 49.2812 120.31C49.3015 120.402 49.2507 120.28 49.3117 120.331C50.2766 120.524 51.3736 120.554 52.3792 120.412C52.4909 120.392 52.6636 120.371 52.7245 120.351C52.7448 120.331 52.6331 120.381 52.5925 120.442C52.562 120.503 52.5721 120.493 52.5721 120.453L52.5112 119.67C52.4807 119.142 52.4604 118.614 52.4807 118.086C52.4909 117.842 52.4503 117.67 52.4401 117.649C52.4706 117.598 52.2268 117.527 51.9526 117.497C51.4345 117.426 50.9165 117.314 50.368 117.172L50.3579 117.07C50.886 116.938 51.4345 116.847 51.9932 116.786C52.1354 116.766 52.2573 116.745 52.4299 116.766C52.5925 116.776 52.8362 116.826 53.0292 116.989C53.4253 117.344 53.4355 117.761 53.4863 118.035C53.5269 118.584 53.5168 119.122 53.5066 119.67L53.466 120.493C53.4558 120.585 53.4558 120.717 53.3542 120.889C53.2527 121.072 53.0089 121.194 52.8972 121.194C52.694 121.225 52.6026 121.214 52.4401 121.225C51.3126 121.265 50.236 121.143 49.1288 120.808C49.0476 120.767 48.9257 120.707 48.8546 120.564C48.7835 120.422 48.814 120.28 48.8343 120.188C48.9054 120.016 48.9562 119.935 49.007 119.803C49.1187 119.569 49.2101 119.315 49.2812 119.071C49.4336 118.574 49.5351 118.045 49.5656 117.517H49.6672Z" fill="#00254D"/>
<path d="M113.435 46.4166C113.079 43.085 110.783 40.3527 108.904 37.722C106.954 34.9999 104.963 32.3082 102.82 29.7486C98.6253 24.7513 93.7397 20.2719 87.7469 17.5396C87.1172 17.2552 86.2233 17.4584 85.6647 17.8139C85.2889 18.0577 84.7607 18.6569 85.4006 18.9515C91.2511 21.6228 95.9844 26.0108 100.078 30.8862C102.099 33.2935 103.978 35.8125 105.806 38.3619C107.736 41.0434 110.123 43.7859 110.489 47.1886C110.59 48.1636 113.556 47.5237 113.435 46.4166Z" fill="#CACFE5"/>
<path d="M11.9129 80.1894C13.1419 87.3807 16.4125 94.0642 20.5668 100.006C24.2437 105.278 29.0582 110.041 35.6401 111.108C36.9301 111.321 38.6873 109.534 36.7269 109.209C30.592 108.213 26.1127 102.962 22.8116 98.0966C18.9823 92.439 16.0164 86.172 14.8585 79.3972C14.6553 78.2291 11.6996 78.9502 11.9129 80.1894Z" fill="#CACFE5"/>
<path d="M6.84496 44.9641C5.34169 39.6011 4.56975 33.9334 5.37217 28.3774C5.75814 25.7263 6.49962 23.1159 7.64738 20.6883C8.88657 18.0881 10.532 15.7113 11.7001 13.0806C12.0048 12.3899 9.15065 12.6743 8.77484 13.5275C7.60676 16.1582 5.96129 18.535 4.7221 21.1353C3.51339 23.6949 2.7516 26.4475 2.38594 29.2509C1.66478 34.7866 2.3961 40.4036 3.89937 45.7463C4.13299 46.5995 7.07858 45.8072 6.84496 44.9641Z" fill="#CACFE5"/>
<path d="M114.775 76.0961C120.351 84.4758 121.59 95.3237 118.157 104.77C117.822 105.684 120.747 105.318 121.093 104.374C124.627 94.633 123.236 83.5717 117.507 74.9584C116.999 74.1966 114.135 75.1413 114.775 76.0961Z" fill="#CACFE5"/>
<path d="M32.0651 7.91063C37.2249 7.55513 40.9221 12.329 41.8058 16.9505C42.8215 22.2526 41.2167 27.9508 38.2711 32.3895C37.6312 33.3443 40.5159 32.9786 40.9729 32.2981C44.1928 27.4328 46.0211 21.1454 44.5686 15.3558C43.2685 10.1655 38.7891 6.13311 33.2839 6.50893C32.7253 6.54956 31.6283 6.70191 31.3236 7.26055C31.029 7.78873 31.5775 7.9411 32.0651 7.91063Z" fill="#CACFE5"/>
<path d="M87.5942 91.2201C84.679 87.4213 82.5866 83.2264 82.871 78.3306C83.1148 74.0341 84.9126 70.0017 88.0309 67.0256C88.5489 66.5279 88.2239 65.8169 87.6449 65.5833C86.9136 65.2887 86.0909 65.6341 85.5627 66.1419C82.1905 69.3618 80.1489 73.8919 79.8848 78.5541C79.5903 83.8358 81.7436 88.4167 84.9025 92.5304C85.7252 93.5868 88.5185 92.4288 87.5942 91.2201Z" fill="#CACFE5"/>
</svg>
