<svg width="141" height="141" viewBox="0 0 141 141" fill="none" xmlns="http://www.w3.org/2000/svg">
<mask id="mask0" mask-type="alpha" maskUnits="userSpaceOnUse" x="0" y="0" width="141" height="141">
<rect x="0.952637" y="0.00256348" width="140" height="140" fill="#C4C4C4"/>
</mask>
<g mask="url(#mask0)">
<path d="M98.3607 12.4873L70.491 13.0308L42.64 13.5181L43.3147 13.2089C42.3964 14.2022 41.4499 15.1675 40.4472 16.0577C39.4445 16.948 38.4043 17.782 37.3641 18.6067C35.2931 20.256 33.1565 21.7741 31.1604 23.4234C29.155 25.0634 27.2339 26.797 25.6596 28.84C24.8349 29.8427 24.2351 30.9484 23.4855 32.0823C23.1106 32.6352 22.6889 33.1881 22.1548 33.638C21.63 34.0971 20.9553 34.397 20.2712 34.4157L20.2524 34.2283C21.5457 33.9941 22.3141 32.8508 22.8951 31.7356C23.4667 30.6017 24.029 29.3366 24.7974 28.2308C26.2593 25.963 28.1242 23.9857 30.1015 22.2052C32.0788 20.4153 34.1498 18.766 36.1833 17.1261C37.1954 16.3014 38.1981 15.4767 39.154 14.6052C40.1379 13.7618 41.0469 12.8716 41.9372 11.9532L42.2371 11.6439H42.6119L70.5004 11.9438L98.3701 12.2999L98.3607 12.4873Z" fill="#00254D"/>
<path d="M22.8204 36.5149C28.6867 36.3837 34.5531 36.2806 40.4194 36.1963L40.0539 36.5336C40.2601 33.413 40.4475 30.2925 40.7286 27.1906C40.8786 25.635 41.0098 24.0888 41.1316 22.5332C41.2628 20.9775 41.3565 19.422 41.4596 17.8664H41.5533C41.7313 19.422 41.7876 20.9963 41.7969 22.5613C41.7969 24.1263 41.7407 25.7006 41.6657 27.2656C41.4971 30.3955 41.066 33.4974 40.7755 36.5992L40.7474 36.9366H40.41C34.5437 36.8522 28.6774 36.7492 22.811 36.618V36.5149H22.8204Z" fill="#00254D"/>
<path d="M99.8978 16.7606L100.385 71.4035C100.46 80.5123 100.619 89.621 100.526 98.7203C100.394 107.829 100.291 116.938 99.8978 126.037H99.7572C99.3543 116.928 99.2512 107.82 99.12 98.7203C99.0263 89.6116 99.1856 80.5029 99.2606 71.4035L99.7479 16.7606H99.8978Z" fill="#00254D"/>
<path d="M18.9688 40.254C18.2378 53.7109 17.7974 67.1772 17.6662 80.6435C17.5819 87.3813 17.5725 94.1097 17.6381 100.848L17.788 110.95L17.9099 116.001C17.9567 117.687 17.9754 119.346 18.3128 120.892C18.6408 122.439 19.3624 123.807 20.5431 124.706C21.7239 125.615 23.2608 126.056 24.8445 126.262C26.4376 126.478 28.0869 126.459 29.7737 126.459L34.8247 126.449L55.0195 126.374C68.4858 126.384 81.952 126.131 95.4371 126.056L95.4465 126.243C82.0083 127.396 68.5326 127.921 55.0476 128.249L44.9361 128.361L34.8247 128.305L29.7643 128.221C28.0869 128.193 26.3532 128.183 24.6102 127.921C22.8765 127.658 21.0585 127.134 19.5685 125.953C18.0598 124.781 17.1695 122.945 16.8509 121.202C16.4948 119.44 16.5042 117.706 16.4854 116.029L16.4386 110.968L16.4292 100.857C16.4573 94.1191 16.5604 87.3719 16.7385 80.6341C17.1227 67.1584 17.8068 53.6921 18.7907 40.254H18.9688Z" fill="#00254D"/>
<path d="M120.486 105.13C120.486 105.13 111.115 107.942 107.367 107.942C103.618 107.942 99.8698 107.942 92.3729 107.004C87.7529 106.423 75.5049 105.13 75.5049 105.13V67.6457C75.5049 67.6457 96.8991 67.4676 97.9956 66.7086C98.7734 66.5305 103.309 66.7086 103.309 66.7086H120.486V105.13Z" fill="white"/>
<path d="M78.5784 62.501C78.3348 58.6682 78.4098 54.8073 78.794 50.9745C79.1782 47.1511 79.881 43.3089 81.4273 39.7479C82.1957 37.9674 83.2078 36.29 84.4635 34.8C85.7192 33.31 87.2748 32.0636 88.9898 31.1358C92.4383 29.271 96.4117 28.5776 100.282 28.7181C102.222 28.7931 104.19 29.1117 106.026 29.852C107.873 30.5829 109.512 31.7825 110.843 33.235C113.514 36.1682 115.032 39.9166 115.95 43.665C116.888 47.4416 117.281 51.3025 117.637 55.1259C117.843 57.1032 117.693 59.0149 117.778 60.9173C117.806 61.8638 117.862 62.8102 118.003 63.7099C118.087 64.1409 118.171 64.6095 118.34 64.9375C118.415 65.0968 118.537 65.2467 118.518 65.2093C118.602 65.2467 118.818 65.2842 119.024 65.303C119.896 65.3685 120.852 65.2467 121.91 65.3217C122.173 65.3498 122.463 65.3779 122.838 65.556C122.941 65.631 123.035 65.6778 123.138 65.7903C123.222 65.8934 123.335 66.1182 123.344 66.1651L123.438 66.5212C123.56 66.9897 123.71 67.4583 123.822 67.9269C124.3 69.8104 124.647 71.7315 124.891 73.6526C125.387 77.5041 125.5 81.3838 125.472 85.2353C125.434 89.0962 125.303 92.929 125.2 96.7618L125.04 102.516C125.022 102.994 125.04 103.471 124.947 104.052C124.881 104.605 124.581 105.327 124.056 105.749C123.56 106.17 123.082 106.377 122.641 106.583C122.192 106.808 121.732 106.995 121.273 107.182C117.553 108.635 113.58 109.038 109.709 109.179C105.839 109.291 101.997 109.272 98.136 109.15C90.4235 108.916 82.7298 108.241 75.0924 107.136L74.7363 107.089L74.502 106.826C73.2088 105.364 72.4404 103.537 72.0468 101.728C71.6626 99.9105 71.5782 98.1018 71.5876 96.3213C71.6532 92.7884 71.7844 89.3492 71.9062 85.8538L72.0936 80.6341C72.1217 79.7626 72.1686 78.8817 72.1592 78.0664C72.1498 77.223 72.0936 76.3515 72.0655 75.48C72.0093 73.7276 71.9437 71.9377 72.2717 70.0916C72.4403 69.1826 72.6934 68.208 73.3962 67.3365C73.5743 67.1303 73.7992 66.9429 74.0053 66.7555C74.249 66.6055 74.5114 66.4743 74.7644 66.3431C75.2517 66.1745 75.7296 66.0808 76.1982 66.0152C78.063 65.809 79.8248 66.0058 81.5303 66.0808C82.3644 66.1276 83.2172 66.0901 84.098 66.0808L86.7126 66.0433C90.1986 65.9777 93.6847 65.9777 97.1707 65.9683C100.657 65.9308 104.143 65.9964 107.62 65.9496L118.068 65.8184V66.0058C111.106 66.3713 104.152 66.7742 97.1895 66.9429C93.7128 67.046 90.2267 67.1397 86.7501 67.299L84.1449 67.4021C83.2827 67.4302 82.4019 67.4958 81.4929 67.4677C79.7311 67.4396 77.9974 67.2709 76.395 67.4864C76.0014 67.5427 75.6265 67.627 75.2892 67.7488C75.1673 67.8331 75.0361 67.8894 74.9049 67.9644C74.8019 68.0768 74.6801 68.1705 74.577 68.2923C74.174 68.7984 73.9397 69.5668 73.8179 70.354C73.5649 71.9471 73.6305 73.6714 73.7148 75.3863C73.7617 76.2484 73.8273 77.1199 73.8554 78.0102C73.8835 78.9379 73.846 79.7907 73.8273 80.6622L73.7242 85.8819L73.4993 96.3026C73.4993 98.0082 73.593 99.695 73.9397 101.288C74.2865 102.881 74.9424 104.352 75.9639 105.505L75.3829 105.186C82.9454 106.311 90.5641 107.014 98.2016 107.342C102.016 107.501 105.858 107.557 109.662 107.492C113.448 107.398 117.244 107.033 120.72 105.721C121.151 105.552 121.582 105.383 121.995 105.177C122.426 104.99 122.829 104.793 123.063 104.587C123.297 104.39 123.391 104.174 123.466 103.781C123.532 103.415 123.532 102.928 123.55 102.441L123.757 96.6868C123.888 92.854 124.056 89.0118 124.122 85.1884C124.178 81.365 124.103 77.551 123.644 73.7744C123.419 71.8908 123.101 70.0166 122.651 68.1799C122.548 67.7207 122.407 67.2615 122.295 66.8023L122.201 66.4556C122.182 66.3806 122.201 66.5118 122.238 66.5118C122.267 66.5305 122.238 66.5306 122.257 66.5306C122.201 66.5025 122.014 66.4462 121.798 66.4369C120.936 66.3619 119.971 66.4743 118.93 66.3994C118.659 66.3619 118.396 66.3525 118.031 66.1932C117.843 66.1089 117.609 65.9027 117.562 65.7903C117.469 65.6591 117.365 65.5091 117.319 65.3779C117.066 64.8344 117 64.3377 116.897 63.8411C116.747 62.8477 116.71 61.8731 116.681 60.8985C116.616 58.9587 116.775 57.0189 116.597 55.1728C116.269 51.3494 115.913 47.5447 115.023 43.8431C114.151 40.1696 112.727 36.5524 110.225 33.741C108.978 32.3541 107.46 31.2108 105.736 30.508C104.012 29.7958 102.137 29.4584 100.244 29.3741C96.4773 29.196 92.5976 29.8333 89.2522 31.5951C87.5841 32.476 86.0753 33.6567 84.8383 35.0905C83.6013 36.5243 82.5893 38.1455 81.8208 39.8885C80.2652 43.3745 79.5249 47.1699 79.0938 50.9745C78.6628 54.7792 78.5597 58.6214 78.7471 62.4542L78.5784 62.501Z" fill="#00254D"/>
<path d="M84.9041 84.1014C84.5387 83.6422 83.7515 83.8109 83.3954 84.2607C83.0393 84.7105 82.983 85.3384 82.9362 85.9194C82.9175 86.2474 82.8987 86.5848 83.0393 86.8846C83.3579 87.5406 84.2575 87.6062 84.9885 87.5781C85.279 87.5687 85.5882 87.5499 85.8506 87.4187C86.3286 87.1751 86.5347 86.5941 86.619 86.06C86.7127 85.4321 86.6846 84.7574 86.3285 84.2326C85.9724 83.7078 85.2134 83.4267 84.6792 83.764" stroke="#00254D" stroke-miterlimit="10"/>
<path d="M97.8825 84.7292C96.9548 85.7319 97.0579 87.5031 98.0887 88.384C98.2949 88.562 98.5385 88.7026 98.8103 88.7213C99.5037 88.7588 99.9254 87.981 100.141 87.3157C100.338 86.7253 100.525 86.1068 100.497 85.479C100.469 84.8511 100.188 84.2045 99.6443 83.8859C99.1008 83.5672 98.2948 83.7172 98.0137 84.2794" stroke="#00254D" stroke-miterlimit="10"/>
<path d="M113.383 84.645C111.902 84.3076 110.262 85.6664 110.403 87.1752C110.506 88.2622 111.528 89.2181 112.624 89.1525C113.72 89.0869 114.639 87.9342 114.386 86.8753C114.142 85.8351 113.055 85.2447 112.052 84.8699" stroke="#00254D" stroke-miterlimit="10"/>
<path d="M31.6294 58.4433L38.6952 58.2278L45.7517 58.0778C48.1038 58.0403 50.456 57.881 52.8081 58.0029C55.1603 58.1153 57.5124 58.2934 59.8646 58.6963V58.8369C57.5124 59.2023 55.1509 59.3336 52.7987 59.4085C50.4466 59.4929 48.0944 59.2867 45.7423 59.2023L38.6858 58.9306L31.6294 58.5839V58.4433Z" fill="#00254D"/>
<path d="M31.4419 73.0059L38.7232 72.6217L46.014 72.3125C48.4411 72.2188 50.8776 72.0032 53.3047 72.0688C55.7318 72.1251 58.1683 72.2469 60.5954 72.603V72.7436C58.1683 73.1653 55.7412 73.3527 53.3141 73.4745C50.887 73.6151 48.4598 73.4651 46.0327 73.437L38.742 73.3246L31.4512 73.1465L31.4419 73.0059Z" fill="#00254D"/>
<path d="M31.4419 86.1255L38.7232 85.7413L46.014 85.4321C48.4411 85.3383 50.8776 85.1228 53.3047 85.1884C55.7318 85.2446 58.1683 85.3665 60.5954 85.7226V85.8631C58.1683 86.2848 55.7412 86.4722 53.3141 86.5941C50.887 86.7346 48.4598 86.5847 46.0327 86.5566L38.742 86.4441L31.4512 86.2661L31.4419 86.1255Z" fill="#00254D"/>
<path d="M31.4419 100.182L38.7232 99.798L46.014 99.4887C48.4411 99.395 50.8776 99.1795 53.3047 99.2451C55.7318 99.3013 58.1683 99.4231 60.5954 99.7792V99.9198C58.1683 100.342 55.7412 100.529 53.3141 100.651C50.887 100.791 48.4598 100.641 46.0327 100.613L38.742 100.501L31.4512 100.323L31.4419 100.182Z" fill="#00254D"/>
<path d="M29.1366 121.68C27.656 122.617 26.4471 122.504 24.8072 122.411C24.2262 122.232 24.5448 122.457 25.7443 123.067C25.6037 122.926 25.4725 122.767 25.3507 122.607C25.1071 122.298 24.9103 121.97 24.7228 121.623C24.3667 120.967 24.0856 120.265 23.8513 119.552C22.7362 116.169 22.3988 112.58 22.3332 109.038C22.202 102.113 23.0548 95.15 21.696 88.2903C21.5554 87.5875 19.9529 86.8471 19.3907 86.5379C19.1845 86.4254 17.657 85.6195 17.7507 86.0881C19.4281 94.5689 17.6383 103.218 18.6972 111.746C19.1564 115.41 19.9623 119.524 22.9142 122.026C25.6881 124.369 29.7083 126.318 33.1193 124.154C33.3724 123.994 31.4794 122.673 31.3295 122.589C30.9452 122.336 29.6333 121.361 29.1366 121.68Z" fill="#CACFE5"/>
<path d="M74.7921 88.6277C74.8389 90.6706 74.8858 92.7228 74.9327 94.7657C74.9608 95.8059 74.9795 96.8461 75.0076 97.8957C75.0264 98.8141 75.017 99.7418 75.195 100.641C75.7948 103.818 79.0091 104.652 81.7736 105.121C84.0788 105.514 86.3935 105.899 88.6988 106.292C89.2048 106.377 89.561 105.767 88.9518 105.664C86.5528 105.261 84.1538 104.868 81.7548 104.455C80.0961 104.165 78.1657 103.799 77.0037 102.469C76.3008 101.672 76.0759 100.651 76.0103 99.6106C75.926 98.4298 75.9353 97.2397 75.9072 96.0496C75.851 93.5756 75.7948 91.111 75.7386 88.637C75.7198 88.1872 74.7827 88.1872 74.7921 88.6277Z" fill="#CACFE5"/>
<path d="M121.508 84.017C121.742 88.1684 122.304 92.4604 121.948 96.6118C121.658 100.032 120.083 104.015 116.438 105.027C115.266 105.355 115.829 106.845 116.916 106.545C120.664 105.505 122.904 102.075 123.579 98.4017C123.991 96.1901 123.916 93.9317 123.804 91.692C123.672 89.143 123.522 86.5847 123.382 84.0358C123.326 83.0143 121.451 82.9956 121.508 84.017Z" fill="#CACFE5"/>
<path d="M36.0709 35.4184C36.6051 35.4746 37.1299 35.4934 37.664 35.4278C38.1045 35.3809 38.7136 35.3247 39.0791 35.0342C39.4633 34.7344 39.4633 34.144 39.5289 33.7035C39.6319 33.0476 39.7444 32.3916 39.8475 31.7356C40.2505 29.2148 40.6628 26.6939 41.0657 24.1731C41.1126 23.9107 40.391 23.3766 40.3535 23.6108C39.9787 25.9161 39.6132 28.2121 39.2384 30.5173C39.0603 31.6138 38.9947 32.7945 38.6948 33.8628C38.395 34.9405 36.4926 34.8281 35.6024 34.725C35.2838 34.6875 35.8273 35.3903 36.0709 35.4184Z" fill="#CACFE5"/>
<path d="M44.4766 15.8703C54.3725 15.5892 64.2778 15.2987 74.1737 15.0176C74.7266 14.9988 75.6918 14.8488 75.9636 14.2772C76.226 13.743 75.7481 13.4619 75.2233 13.4713C65.3274 13.7524 55.4221 14.0429 45.5262 14.324C44.9733 14.3428 44.0081 14.4928 43.7363 15.0644C43.4833 15.5986 43.9612 15.8797 44.4766 15.8703Z" fill="#CACFE5"/>
<path d="M82.5897 53.9732C82.5991 49.0253 82.8052 43.74 84.4639 39.0357C85.8321 35.156 89.2244 30.3299 93.9475 31.089C94.5753 31.1921 95.2782 31.0515 95.8498 30.7517C96.0466 30.6486 96.8057 30.0957 96.1684 30.002C90.9019 29.1586 85.6634 32.1105 83.0676 36.6554C80.0595 41.922 79.8908 48.8004 79.8721 54.7136C79.8721 55.1915 82.5897 54.7979 82.5897 53.9732Z" fill="#CACFE5"/>
<path d="M31.3009 59.6896C38.6385 60.3644 46.0135 60.3644 53.3511 59.6896C53.651 59.6615 54.4288 59.5678 54.56 59.2398C54.6912 58.9212 54.4569 58.8462 54.1196 58.8744C46.9132 59.5397 39.6693 59.5397 32.4629 58.8837C32.1068 58.8463 31.4415 58.94 31.1791 59.2305C30.9729 59.4554 30.8698 59.6428 31.3009 59.6896Z" fill="#CACFE5"/>
<path d="M39.9601 74.3554C46.7167 74.6459 53.4826 74.8614 60.2392 75.002C60.5859 75.0114 61.2794 74.8802 61.4293 74.5054C61.5792 74.1305 61.2981 73.9618 60.9326 73.9618C54.1667 73.8213 47.4101 73.6057 40.6535 73.3152C39.9507 73.2777 38.7418 74.2992 39.9601 74.3554Z" fill="#CACFE5"/>
<path d="M31.0945 87.5312C35.8738 86.5941 40.6999 88.3184 45.5167 87.7936C46.0227 87.7374 46.2101 87.0439 45.5916 87.1189C40.6906 87.6531 35.8176 85.9475 30.9259 86.894C30.3542 87.0064 30.5323 87.6436 31.0945 87.5312Z" fill="#CACFE5"/>
<path d="M41.2347 101.166C48.4317 101.382 55.6381 101.363 62.8352 101.11C63.0882 101.101 63.8191 100.707 63.2194 100.726C56.088 100.969 48.9472 100.988 41.8064 100.773C41.6283 100.763 41.2909 100.801 41.1691 100.941C41.0941 101.054 41.0098 101.157 41.2347 101.166Z" fill="#CACFE5"/>
<path d="M95.1093 111.802C93.6942 111.306 92.2042 111.221 90.7236 111.165C89.1023 111.109 87.4811 111.025 85.8599 110.893C82.5613 110.64 79.2627 110.237 76.0015 109.703C75.8141 109.844 75.6173 109.975 75.4299 110.116C81.9709 110.94 88.5307 111.746 95.1374 111.578C95.4091 111.568 96.1213 111.156 95.5122 111.165C91.0328 111.175 86.5534 111.175 82.0834 110.884C79.928 110.744 77.7445 110.594 75.6079 110.228C73.7993 109.919 71.7845 109.047 71.4659 107.023C71.166 107.108 70.8662 107.183 70.5569 107.267C71.0536 109.282 73.2371 110.247 75.1488 109.741C75.2425 109.713 75.6079 109.6 75.5517 109.45C75.4955 109.291 75.1488 109.375 75.055 109.403C73.4713 109.825 71.822 108.523 71.4565 107.033C71.4003 106.798 70.5101 107.014 70.5475 107.276C70.8474 109.16 72.6373 110.153 74.3429 110.519C76.517 110.997 78.8129 111.118 81.0338 111.278C85.7194 111.606 90.4143 111.606 95.1093 111.596C95.2311 111.456 95.3623 111.315 95.4841 111.184C88.9431 111.343 82.4489 110.537 75.9734 109.722C75.7579 109.694 74.9145 110.059 75.4018 110.134C78.5973 110.659 81.8116 111.053 85.0353 111.306C86.6284 111.428 88.2215 111.521 89.8146 111.578C91.3514 111.634 92.8883 111.69 94.3502 112.196C94.5938 112.262 95.4091 111.906 95.1093 111.802Z" fill="#CACFE5"/>
<path d="M20.7959 39.092C18.6218 47.4979 17.8627 56.2505 18.5468 64.9094C18.5937 65.5091 19.5308 65.5091 19.4839 64.9094C18.8092 56.3254 19.5495 47.6759 21.7049 39.345C21.8454 38.7546 20.9458 38.511 20.7959 39.092Z" fill="#CACFE5"/>
</g>
</svg>
