<svg width="111" height="117" viewBox="0 0 111 117" fill="none" xmlns="http://www.w3.org/2000/svg">
<path d="M82.9134 0.88334L55.0437 1.42682L27.1928 1.91414L27.8675 1.60488C26.9491 2.59822 26.0026 3.56348 24.9999 4.45373C23.9972 5.34399 22.957 6.17799 21.9168 7.00265C19.8458 8.65197 17.7092 10.1701 15.7131 11.8194C13.7077 13.4594 11.7866 15.193 10.2123 17.2359C9.38764 18.2387 8.78788 19.3444 8.03819 20.4783C7.66335 21.0312 7.24166 21.5841 6.70751 22.034C6.18273 22.4931 5.508 22.793 4.82391 22.8117L4.80518 22.6243C6.09839 22.3901 6.8668 21.2468 7.44781 20.1316C8.01945 18.9977 8.58174 17.7326 9.35017 16.6268C10.8121 14.359 12.6769 12.3817 14.6542 10.6012C16.6315 8.8113 18.7025 7.162 20.7361 5.52205C21.7482 4.6974 22.7508 3.87274 23.7067 3.00122C24.6907 2.15782 25.5997 1.26755 26.4899 0.34918L26.7898 0.039917H27.1646L55.0531 0.3398L82.9228 0.695907L82.9134 0.88334Z" fill="#00254D"/>
<path d="M7.37315 24.9109C13.2395 24.7797 19.1058 24.6766 24.9721 24.5923L24.6066 24.9296C24.8128 21.809 25.0002 18.6885 25.2814 15.5866C25.4313 14.031 25.5625 12.4848 25.6843 10.9291C25.8155 9.37354 25.9092 7.81796 26.0123 6.26235H26.106C26.2841 7.81796 26.3403 9.39231 26.3497 10.9573C26.3497 12.5223 26.2934 14.0966 26.2185 15.6616C26.0498 18.7915 25.6187 21.8934 25.3282 24.9952L25.3001 25.3326H24.9627C19.0964 25.2482 13.2301 25.1452 7.36377 25.014V24.9109H7.37315Z" fill="#00254D"/>
<path d="M84.4505 5.15657L84.9378 59.7995C85.0128 68.9083 85.1721 78.017 85.0784 87.1163C84.9472 96.225 84.8441 105.334 84.4505 114.433H84.31C83.907 105.324 83.8039 96.2157 83.6728 87.1163C83.579 78.0076 83.7383 68.8989 83.8133 59.7995L84.3006 5.15657H84.4505Z" fill="#00254D"/>
<path d="M3.52153 28.65C2.79058 42.1069 2.35012 55.5732 2.21893 69.0395C2.13459 75.7773 2.12522 82.5057 2.19082 89.2436L2.34076 99.3457L2.46259 104.397C2.50944 106.083 2.52818 107.742 2.86554 109.288C3.19353 110.835 3.91511 112.203 5.09587 113.102C6.27663 114.011 7.81349 114.452 9.39721 114.658C10.9903 114.874 12.6396 114.855 14.3264 114.855L19.3774 114.845L39.5722 114.77C53.0385 114.78 66.5048 114.527 79.9898 114.452L79.9992 114.639C66.561 115.792 53.0854 116.317 39.6003 116.645L29.4889 116.757L19.3774 116.701L14.317 116.617C12.6396 116.589 10.906 116.579 9.16293 116.317C7.42927 116.054 5.61127 115.53 4.12126 114.349C2.61251 113.177 1.72226 111.341 1.40365 109.598C1.04754 107.836 1.0569 106.102 1.03816 104.425L0.991314 99.3644L0.981934 89.253C1.01005 82.5151 1.11315 75.7679 1.2912 69.0301C1.67541 55.5544 2.35951 42.0881 3.34347 28.65H3.52153Z" fill="#00254D"/>
<path d="M105.039 93.5262C105.039 93.5262 95.6679 96.3375 91.9194 96.3375C88.171 96.3375 84.4225 96.3375 76.9256 95.4004C72.3057 94.8194 60.0576 93.5262 60.0576 93.5262V56.0417C60.0576 56.0417 81.4519 55.8636 82.5483 55.1046C83.3261 54.9265 87.8617 55.1046 87.8617 55.1046H105.039V93.5262Z" fill="white"/>
<path d="M63.1312 50.897C62.8875 47.0642 62.9625 43.2033 63.3467 39.3705C63.7309 35.5471 64.4338 31.7049 65.98 28.1439C66.7484 26.3634 67.7605 24.686 69.0162 23.196C70.272 21.706 71.8276 20.4596 73.5425 19.5318C76.9911 17.667 80.9644 16.9736 84.8347 17.1141C86.7745 17.1891 88.7424 17.5077 90.5792 18.248C92.4253 18.9789 94.0652 20.1785 95.3959 21.631C98.0667 24.5642 99.5848 28.3126 100.503 32.061C101.44 35.8376 101.834 39.6985 102.19 43.5219C102.396 45.4992 102.246 47.4109 102.331 49.3133C102.359 50.2598 102.415 51.2062 102.555 52.1058C102.64 52.5369 102.724 53.0055 102.893 53.3335C102.968 53.4928 103.09 53.6427 103.071 53.6053C103.155 53.6427 103.371 53.6802 103.577 53.6989C104.448 53.7645 105.404 53.6427 106.463 53.7177C106.726 53.7458 107.016 53.7739 107.391 53.952C107.494 54.027 107.588 54.0738 107.691 54.1863C107.775 54.2893 107.888 54.5142 107.897 54.5611L107.991 54.9172C108.113 55.3857 108.262 55.8543 108.375 56.3228C108.853 58.2064 109.2 60.1275 109.443 62.0486C109.94 65.9001 110.052 69.7798 110.024 73.6313C109.987 77.4922 109.856 81.325 109.752 85.1578L109.593 90.9117C109.574 91.3896 109.593 91.8675 109.499 92.4485C109.434 93.0014 109.134 93.723 108.609 94.1447C108.113 94.5664 107.635 94.7725 107.194 94.9787C106.744 95.2036 106.285 95.391 105.826 95.5785C102.106 97.031 98.1323 97.434 94.262 97.5745C90.3918 97.687 86.5496 97.6682 82.6887 97.5464C74.9763 97.3121 67.2826 96.6374 59.6451 95.5316L59.289 95.4848L59.0547 95.2224C57.7615 93.7605 56.9931 91.9331 56.5995 90.1245C56.2153 88.3065 56.131 86.4978 56.1403 84.7173C56.2059 81.1844 56.3371 77.7452 56.4589 74.2498L56.6463 69.0301C56.6745 68.1586 56.7213 67.2777 56.712 66.4624C56.7026 65.619 56.6463 64.7475 56.6182 63.876C56.562 62.1236 56.4964 60.3337 56.8244 58.4876C56.9931 57.5786 57.2461 56.604 57.9489 55.7325C58.127 55.5263 58.3519 55.3389 58.5581 55.1515C58.8017 55.0015 59.0641 54.8703 59.3171 54.7391C59.8044 54.5704 60.2823 54.4768 60.7509 54.4112C62.6158 54.205 64.3775 54.4018 66.0831 54.4768C66.9171 54.5236 67.7699 54.4861 68.6508 54.4768L71.2653 54.4392C74.7514 54.3736 78.2374 54.3737 81.7235 54.3643C85.2095 54.3268 88.6956 54.3924 92.1723 54.3456L102.621 54.2143V54.4018C95.6583 54.7673 88.705 55.1702 81.7422 55.3389C78.2655 55.442 74.7795 55.5357 71.3028 55.695L68.6976 55.7981C67.8355 55.8262 66.9546 55.8918 66.0456 55.8637C64.2838 55.8356 62.5502 55.6669 60.9477 55.8824C60.5541 55.9387 60.1793 56.023 59.8419 56.1448C59.7201 56.2291 59.5889 56.2854 59.4577 56.3604C59.3546 56.4728 59.2328 56.5665 59.1297 56.6883C58.7268 57.1944 58.4925 57.9628 58.3707 58.75C58.1176 60.3431 58.1832 62.0674 58.2676 63.7823C58.3144 64.6444 58.38 65.5159 58.4081 66.4062C58.4362 67.3339 58.3988 68.1867 58.38 69.0582L58.2769 74.2779L58.052 84.6986C58.052 86.4042 58.1457 88.091 58.4925 89.6841C58.8392 91.2771 59.4952 92.7484 60.5166 93.9011L59.9356 93.5824C67.4981 94.7069 75.1168 95.4098 82.7543 95.7378C86.5683 95.8971 90.4105 95.9533 94.2152 95.8877C98.0011 95.794 101.796 95.4285 105.273 94.1166C105.704 93.9479 106.135 93.7792 106.548 93.573C106.979 93.3856 107.382 93.1888 107.616 92.9827C107.85 92.7859 107.944 92.5703 108.019 92.1768C108.084 91.8113 108.084 91.324 108.103 90.8367L108.309 85.0828C108.441 81.25 108.609 77.4078 108.675 73.5844C108.731 69.761 108.656 65.947 108.197 62.1704C107.972 60.2868 107.653 58.4126 107.204 56.5759C107.1 56.1167 106.96 55.6575 106.847 55.1983L106.754 54.8516C106.735 54.7766 106.754 54.9078 106.791 54.9078C106.819 54.9265 106.791 54.9266 106.81 54.9266C106.754 54.8984 106.566 54.8422 106.351 54.8329C105.489 54.7579 104.523 54.8703 103.483 54.7954C103.211 54.7579 102.949 54.7485 102.584 54.5892C102.396 54.5049 102.162 54.2987 102.115 54.1863C102.021 54.0551 101.918 53.9051 101.871 53.7739C101.618 53.2304 101.553 52.7337 101.45 52.2371C101.3 51.2437 101.262 50.2691 101.234 49.2945C101.169 47.3547 101.328 45.4149 101.15 43.5688C100.822 39.7454 100.466 35.9407 99.5755 32.2391C98.7039 28.5656 97.2795 24.9484 94.7774 22.137C93.5311 20.7501 92.013 19.6068 90.2887 18.904C88.5644 18.1918 86.6902 17.8544 84.7972 17.7701C81.03 17.592 77.1504 18.2293 73.8049 19.9911C72.1368 20.872 70.6281 22.0527 69.3911 23.4865C68.1541 24.9203 67.142 26.5415 66.3736 28.2845C64.818 31.7705 64.0776 35.5659 63.6466 39.3705C63.2155 43.1752 63.1124 47.0174 63.2998 50.8502L63.1312 50.897Z" fill="#00254D"/>
<path d="M69.4569 72.4974C69.0914 72.0382 68.3042 72.2069 67.9481 72.6567C67.592 73.1065 67.5358 73.7344 67.4889 74.3154C67.4702 74.6434 67.4515 74.9807 67.592 75.2806C67.9106 75.9366 68.8103 76.0022 69.5412 75.9741C69.8317 75.9647 70.141 75.9459 70.4034 75.8147C70.8813 75.5711 71.0874 74.9901 71.1718 74.456C71.2655 73.8281 71.2374 73.1534 70.8813 72.6286C70.5252 72.1038 69.7661 71.8227 69.232 72.16" stroke="#00254D" stroke-miterlimit="10"/>
<path d="M82.4353 73.1252C81.5075 74.1279 81.6106 75.8991 82.6414 76.78C82.8476 76.958 83.0912 77.0986 83.363 77.1173C84.0565 77.1548 84.4782 76.377 84.6937 75.7117C84.8905 75.1213 85.0779 74.5028 85.0498 73.875C85.0217 73.2471 84.7406 72.6005 84.197 72.2819C83.6535 71.9632 82.8476 72.1132 82.5664 72.6754" stroke="#00254D" stroke-miterlimit="10"/>
<path d="M97.9357 73.041C96.4551 72.7036 94.8151 74.0624 94.9557 75.5712C95.0588 76.6582 96.0802 77.6141 97.1767 77.5485C98.2731 77.4829 99.1915 76.3302 98.9384 75.2713C98.6948 74.2311 97.6077 73.6407 96.605 73.2659" stroke="#00254D" stroke-miterlimit="10"/>
<path d="M16.1821 46.8393L23.248 46.6238L30.3044 46.4738C32.6566 46.4363 35.0087 46.277 37.3609 46.3989C39.713 46.5113 42.0652 46.6894 44.4173 47.0923V47.2328C42.0652 47.5983 39.7036 47.7296 37.3515 47.8045C34.9993 47.8889 32.6472 47.6827 30.295 47.5983L23.2386 47.3266L16.1821 46.9799V46.8393Z" fill="#00254D"/>
<path d="M15.9946 61.4019L23.276 61.0177L30.5667 60.7085C32.9938 60.6148 35.4303 60.3992 37.8574 60.4648C40.2846 60.521 42.721 60.6429 45.1482 60.999V61.1396C42.721 61.5613 40.2939 61.7487 37.8668 61.8705C35.4397 62.0111 33.0126 61.8611 30.5854 61.833L23.2947 61.7206L16.004 61.5425L15.9946 61.4019Z" fill="#00254D"/>
<path d="M15.9946 74.5215L23.276 74.1373L30.5667 73.828C32.9938 73.7343 35.4303 73.5188 37.8574 73.5844C40.2846 73.6406 42.721 73.7624 45.1482 74.1186V74.2591C42.721 74.6808 40.2939 74.8682 37.8668 74.9901C35.4397 75.1306 33.0126 74.9807 30.5854 74.9526L23.2947 74.8401L16.004 74.6621L15.9946 74.5215Z" fill="#00254D"/>
<path d="M15.9946 88.5782L23.276 88.194L30.5667 87.8847C32.9938 87.791 35.4303 87.5755 37.8574 87.6411C40.2846 87.6973 42.721 87.8191 45.1482 88.1752V88.3158C42.721 88.7375 40.2939 88.9249 37.8668 89.0467C35.4397 89.1873 33.0126 89.0374 30.5854 89.0093L23.2947 88.8968L16.004 88.7188L15.9946 88.5782Z" fill="#00254D"/>
<path d="M13.6894 110.076C12.2087 111.013 10.9998 110.9 9.3599 110.807C8.77889 110.628 9.09751 110.853 10.297 111.463C10.1564 111.322 10.0253 111.163 9.90344 111.003C9.65979 110.694 9.46299 110.366 9.27557 110.019C8.91946 109.363 8.63834 108.661 8.40406 107.948C7.2889 104.565 6.95154 100.976 6.88594 97.4339C6.75475 90.5087 7.6075 83.546 6.24869 76.6863C6.10812 75.9835 4.50567 75.2431 3.9434 74.9339C3.73723 74.8214 2.20974 74.0155 2.30345 74.4841C3.98088 82.9649 2.19101 91.6145 3.24994 100.142C3.70913 103.806 4.51505 107.92 7.46695 110.422C10.2408 112.765 14.261 114.714 17.6721 112.55C17.9251 112.39 16.0321 111.069 15.8822 110.985C15.498 110.732 14.186 109.757 13.6894 110.076Z" fill="#CACFE5"/>
<path d="M59.3448 77.0237C59.3917 79.0666 59.4385 81.1188 59.4854 83.1617C59.5135 84.2019 59.5322 85.2421 59.5603 86.2917C59.5791 87.2101 59.5697 88.1378 59.7478 89.0374C60.3475 92.2142 63.5618 93.0482 66.3263 93.5168C68.6316 93.9104 70.9462 94.2946 73.2515 94.6882C73.7576 94.7725 74.1137 94.1634 73.5046 94.0603C71.1056 93.6574 68.7066 93.2638 66.3076 92.8515C64.6489 92.561 62.7184 92.1955 61.5564 90.8648C60.8536 90.0682 60.6287 89.0468 60.5631 88.0066C60.4787 86.8258 60.4881 85.6357 60.46 84.4456C60.4037 81.9716 60.3475 79.507 60.2913 77.033C60.2725 76.5832 59.3354 76.5832 59.3448 77.0237Z" fill="#CACFE5"/>
<path d="M106.06 72.413C106.295 76.5644 106.857 80.8564 106.501 85.0078C106.21 88.4283 104.636 92.411 100.991 93.4231C99.8191 93.7511 100.381 95.2411 101.468 94.9412C105.217 93.901 107.457 90.4712 108.131 86.7977C108.544 84.5861 108.469 82.3277 108.356 80.088C108.225 77.539 108.075 74.9807 107.935 72.4318C107.878 71.4103 106.004 71.3916 106.06 72.413Z" fill="#CACFE5"/>
<path d="M20.6237 23.8144C21.1578 23.8706 21.6826 23.8894 22.2167 23.8238C22.6572 23.7769 23.2663 23.7207 23.6318 23.4302C24.016 23.1304 24.016 22.54 24.0816 22.0995C24.1847 21.4436 24.2972 20.7876 24.4002 20.1316C24.8032 17.6107 25.2155 15.0899 25.6185 12.5691C25.6653 12.3067 24.9437 11.7726 24.9063 12.0068C24.5314 14.3121 24.1659 16.608 23.7911 18.9133C23.613 20.0098 23.5475 21.1905 23.2476 22.2588C22.9477 23.3365 21.0454 23.224 20.1551 23.121C19.8365 23.0835 20.38 23.7863 20.6237 23.8144Z" fill="#CACFE5"/>
<path d="M29.0294 4.2663C38.9253 3.98516 48.8305 3.69468 58.7264 3.41355C59.2793 3.39481 60.2445 3.24483 60.5163 2.67319C60.7787 2.13904 60.3008 1.85792 59.776 1.86729C49.8801 2.14843 39.9748 2.43891 30.0789 2.72004C29.526 2.73878 28.5608 2.88876 28.2891 3.46039C28.036 3.99455 28.514 4.27567 29.0294 4.2663Z" fill="#CACFE5"/>
<path d="M67.1424 42.3692C67.1518 37.4213 67.358 32.136 69.0166 27.4317C70.3848 23.552 73.7772 18.7259 78.5002 19.485C79.1281 19.5881 79.8309 19.4475 80.4025 19.1476C80.5993 19.0446 81.3584 18.4917 80.7212 18.398C75.4546 17.5546 70.2162 20.5064 67.6204 25.0514C64.6122 30.318 64.4435 37.1964 64.4248 43.1096C64.4248 43.5875 67.1424 43.1939 67.1424 42.3692Z" fill="#CACFE5"/>
<path d="M15.8536 48.0856C23.1912 48.7604 30.5663 48.7604 37.9039 48.0856C38.2037 48.0575 38.9815 47.9638 39.1127 47.6358C39.2439 47.3172 39.0097 47.2422 38.6723 47.2704C31.4659 47.9357 24.2221 47.9357 17.0157 47.2797C16.6596 47.2423 15.9942 47.336 15.7318 47.6265C15.5257 47.8514 15.4226 48.0388 15.8536 48.0856Z" fill="#CACFE5"/>
<path d="M24.5128 62.7514C31.2694 63.0419 38.0353 63.2574 44.7919 63.398C45.1386 63.4074 45.8321 63.2762 45.982 62.9014C46.132 62.5265 45.8508 62.3578 45.4854 62.3578C38.7194 62.2173 31.9628 62.0017 25.2063 61.7112C24.5034 61.6737 23.2946 62.6952 24.5128 62.7514Z" fill="#CACFE5"/>
<path d="M15.6473 75.9272C20.4265 74.9901 25.2527 76.7144 30.0694 76.1896C30.5755 76.1334 30.7629 75.4399 30.1444 75.5149C25.2433 76.0491 20.3703 74.3435 15.4786 75.29C14.907 75.4024 15.085 76.0396 15.6473 75.9272Z" fill="#CACFE5"/>
<path d="M25.7875 89.5622C32.9845 89.7778 40.1909 89.759 47.3879 89.506C47.6409 89.4966 48.3719 89.103 47.7721 89.1218C40.6407 89.3654 33.4999 89.3842 26.3591 89.1686C26.1811 89.1592 25.8437 89.1968 25.7218 89.3373C25.6469 89.4498 25.5625 89.5529 25.7875 89.5622Z" fill="#CACFE5"/>
<path d="M79.662 100.198C78.247 99.7018 76.7569 99.6174 75.2763 99.5612C73.6551 99.505 72.0339 99.4207 70.4127 99.2895C67.114 99.0364 63.8154 98.6335 60.5543 98.0993C60.3668 98.2399 60.1701 98.3711 59.9826 98.5116C66.5237 99.3363 73.0835 100.142 79.6901 99.9735C79.9619 99.9642 80.6741 99.5518 80.0649 99.5612C75.5855 99.5706 71.1061 99.5706 66.6361 99.2801C64.4808 99.1395 62.2973 98.9896 60.1607 98.6241C58.352 98.3148 56.3373 97.4434 56.0187 95.4192C55.7188 95.5035 55.4189 95.5785 55.1097 95.6628C55.6063 97.6776 57.7898 98.6428 59.7015 98.1368C59.7952 98.1087 60.1607 97.9962 60.1044 97.8463C60.0482 97.687 59.7015 97.7713 59.6078 97.7994C58.0241 98.2211 56.3747 96.9186 56.0093 95.4286C55.953 95.1943 55.0628 95.4098 55.1003 95.6722C55.4001 97.5558 57.19 98.5491 58.8956 98.9146C61.0697 99.3925 63.3656 99.5143 65.5866 99.6737C70.2721 100.002 74.9671 100.002 79.662 99.9923C79.7838 99.8517 79.915 99.7112 80.0368 99.58C73.4958 99.7393 67.0016 98.9334 60.5262 98.1181C60.3106 98.09 59.4672 98.4554 59.9545 98.5304C63.1501 99.0552 66.3644 99.4488 69.588 99.7018C71.1811 99.8236 72.7742 99.9173 74.3673 99.9735C75.9042 100.03 77.441 100.086 78.9029 100.592C79.1466 100.658 79.9619 100.302 79.662 100.198Z" fill="#CACFE5"/>
<path d="M5.3486 27.488C3.1745 35.8939 2.41545 44.6465 3.09954 53.3054C3.1464 53.9051 4.08351 53.9051 4.03665 53.3054C3.36193 44.7214 4.10225 36.0719 6.2576 27.7409C6.39817 27.1506 5.49854 26.907 5.3486 27.488Z" fill="#CACFE5"/>
</svg>
