<svg width="141" height="141" viewBox="0 0 141 141" fill="none" xmlns="http://www.w3.org/2000/svg">
<mask id="mask0" mask-type="alpha" maskUnits="userSpaceOnUse" x="0" y="0" width="141" height="141">
<rect x="0.818359" y="0.00256348" width="140" height="140" fill="#C4C4C4"/>
</mask>
<g mask="url(#mask0)">
<path d="M67.2745 62.2198C67.1323 60.6963 67.0713 59.3859 66.6752 58.0553C66.2994 56.7451 65.6798 55.4958 64.7961 54.4597C63.0389 52.3369 60.398 51.1992 57.7572 50.5695C56.3961 50.2444 55.0858 49.7874 53.7857 49.3303L51.8253 48.6599C51.1448 48.4365 50.4947 48.1114 49.9259 47.6544C49.3571 47.1973 48.8899 46.5676 48.7071 45.8362C48.5039 45.1049 48.5953 44.3228 48.8594 43.6423C49.1235 42.9516 49.5298 42.3421 49.9869 41.8038C50.4643 41.2553 50.9213 40.7983 51.3175 40.2396C52.13 39.1629 52.77 37.9542 53.1559 36.6744C53.5622 35.3946 53.6333 34.0335 53.7349 32.6521C53.9076 29.9198 53.8263 27.1571 53.3692 24.4654C52.4348 19.1735 47.4171 14.9583 42.0439 14.9684C39.3726 14.8262 36.7419 15.6896 34.6088 17.2843C33.5525 18.0765 32.5469 19.0313 31.7445 20.0572C31.0233 21.0526 30.5663 22.3527 30.2717 23.6528C29.6623 26.2734 29.4998 29.026 29.6216 31.7279C29.7334 33.0788 29.8451 34.4297 30.16 35.7298C30.4749 37.0198 30.8608 38.3301 31.5718 39.3559C31.7344 39.6302 31.9578 39.8232 32.1508 40.0568C32.3336 40.2802 32.679 40.5748 32.9024 40.8694C33.39 41.4788 33.7556 42.2101 33.9385 42.9617C34.1315 43.7134 34.1721 44.4548 34.1924 45.1658C34.1924 45.8464 34.2635 46.6793 33.7963 47.5426C33.2986 48.4365 32.3336 48.7412 31.6836 48.9342L29.7232 49.5843L25.8127 50.8844C24.4923 51.311 23.2328 51.7579 22.0342 52.3368C20.8458 52.9158 19.7387 53.6166 18.9159 54.5613C17.2197 56.4302 16.7829 59.1726 16.6001 61.844L16.4782 63.6723L15.239 62.3316C13.1263 60.0563 11.6027 57.3443 10.5464 54.5003C9.49004 51.6461 8.87045 48.6498 8.61652 45.6331C8.34227 42.6062 8.53526 39.5489 9.11422 36.5729C9.34784 35.0696 9.82522 33.6171 10.2417 32.1544C10.8003 30.7426 11.298 29.2901 12.0395 27.9595C12.6692 26.568 13.5529 25.3186 14.3655 24.0287C14.8023 23.4091 15.3 22.8301 15.7672 22.2207L16.4782 21.3269C16.7321 21.0425 17.0064 20.7784 17.2705 20.5041L18.8652 18.8688L20.602 17.3859L21.4756 16.6545L22.4202 16.0045C23.0499 15.5779 23.6695 15.1208 24.3094 14.7247C26.93 13.1706 29.7435 11.9314 32.679 11.0884C35.6246 10.3367 38.6616 9.81871 41.7189 9.86949C42.4807 9.81871 43.2425 9.93046 44.0043 9.96094C44.7661 10.0219 45.5279 10.0422 46.2795 10.2047L48.5344 10.5907L50.7385 11.1798C51.48 11.3525 52.191 11.6267 52.902 11.9009C53.6029 12.1853 54.3342 12.4088 55.0147 12.7542L57.0563 13.7699C57.747 14.0848 58.3564 14.552 59.0065 14.9379C60.3269 15.6997 61.4747 16.6951 62.6834 17.6195C63.2725 18.0968 63.7905 18.6555 64.3492 19.1735L65.1719 19.9556C65.436 20.2299 65.6696 20.5244 65.9236 20.8088C67.9956 23.0231 69.5903 25.6436 70.9412 28.3353C72.2921 31.0473 73.125 33.9726 73.7243 36.908C74.283 39.8739 74.3439 42.9008 74.1204 45.887C73.8259 48.8732 73.0539 51.7883 71.9773 54.5714C71.3577 55.9325 70.7686 57.3037 69.9458 58.553C69.2856 59.8329 68.1581 61.0924 67.2745 62.2198ZM67.3456 62.037L68.5136 60.2188C68.9098 59.6703 69.2653 59.0101 69.6005 58.3601C70.3521 57.1006 70.8701 55.7192 71.4288 54.3683C72.3734 51.5953 73.0031 48.731 73.1657 45.8159C73.2977 42.9109 73.1453 39.9857 72.5359 37.1417C71.8858 34.318 71.0022 31.5349 69.6309 28.9854C66.9698 23.8662 63.0084 19.4072 58.0619 16.4514C53.1864 13.3941 47.4273 11.8908 41.7189 11.9009C38.8546 11.8705 36.0105 12.3682 33.2478 13.0893C30.4952 13.8816 27.8848 15.0802 25.4064 16.5124C24.797 16.8882 24.218 17.3148 23.6289 17.7109L22.7452 18.3101L21.9225 19.0008L20.277 20.3823L18.7737 21.9159C18.53 22.1699 18.2659 22.4137 18.0221 22.6879L17.3517 23.5208C16.915 24.0794 16.4376 24.6178 16.0211 25.2069C15.2593 26.4156 14.4061 27.5736 13.8069 28.8737C13.0857 30.1129 12.6185 31.4739 12.07 32.7943C11.6738 34.1656 11.1863 35.5267 10.9628 36.9487C10.3839 39.7521 10.1706 42.657 10.394 45.5214C10.5972 48.3857 11.1558 51.2399 12.1208 53.9417C13.0857 56.6435 14.4975 59.1929 16.4071 61.2752L15.0359 61.7628C15.1476 60.3509 15.3203 58.9289 15.7164 57.517C16.0922 56.1052 16.7931 54.7137 17.8088 53.5862C18.8144 52.4384 20.1145 51.6563 21.4045 51.0367C22.7046 50.4171 24.0657 49.96 25.3759 49.5538L29.3372 48.2739L31.3179 47.634C31.968 47.4512 32.4352 47.2481 32.6282 46.8926C32.8517 46.5269 32.872 45.9073 32.8618 45.2268C32.8516 44.5564 32.811 43.9165 32.6587 43.3172C32.5165 42.7179 32.2625 42.1898 31.8867 41.7124C31.6937 41.4585 31.5007 41.3061 31.2366 41.0014C30.9929 40.6967 30.6983 40.4224 30.5053 40.0974C29.6521 38.8277 29.2763 37.4159 28.9411 36.0243C28.6161 34.6328 28.5044 33.221 28.4028 31.8091C28.3012 28.9956 28.484 26.1719 29.1544 23.4091C29.4896 22.0277 29.9568 20.6463 30.871 19.4071C31.7851 18.2695 32.8212 17.3148 33.9689 16.4514C36.2746 14.745 39.2101 13.8105 42.0744 14.0035C47.8742 14.0847 53.2169 18.6453 54.1412 24.3537C54.5779 27.1266 54.6186 29.93 54.4154 32.7131C54.2935 34.0843 54.2021 35.5063 53.7552 36.8776C53.3286 38.2386 52.6379 39.4981 51.7746 40.6154C51.3581 41.1741 50.8299 41.7022 50.4033 42.1898C49.9666 42.6976 49.5907 43.2461 49.3571 43.8556C49.1235 44.4548 49.0423 45.115 49.2048 45.7245C49.3571 46.3339 49.7431 46.8824 50.2408 47.2887C51.2362 48.1419 52.6481 48.406 53.9279 48.924C55.228 49.4014 56.518 49.8686 57.8486 50.2038C60.5199 50.8844 63.2319 52.0829 65.0297 54.2972C65.9236 55.384 66.5431 56.674 66.919 58.0147C67.2643 59.325 67.4776 60.7876 67.3456 62.037Z" fill="#00254D"/>
<path d="M31.5107 56.9992C31.5818 57.4969 31.6935 57.9844 31.8561 58.4415C31.9881 58.8478 32.3131 59.5283 32.3538 59.3251L33.7758 59.3353L34.5274 59.3556C34.629 59.3556 34.5071 59.3049 34.3243 59.4166C34.1821 59.5385 34.1922 59.5892 34.1922 59.5181C34.2125 59.1118 34.2024 58.5634 34.1008 58.2485C34.0094 57.9133 33.8977 57.7 33.8164 57.5375C33.7555 57.4054 33.6539 57.2327 33.2578 57.1616C32.8718 57.1007 32.3538 57.1617 31.785 57.182L31.6732 57.0093C31.9576 56.5015 32.3436 56.0545 32.953 55.7701C33.2578 55.6178 33.6336 55.5467 34.05 55.5771C34.4665 55.6076 34.8931 55.8006 35.2181 56.0748C35.8682 56.6233 36.1221 57.4258 36.1018 58.0962C36.0713 58.797 35.919 59.2541 35.7869 59.8533C35.726 60.0362 35.6549 60.3409 35.3095 60.6253C34.9337 60.9097 34.5274 60.8589 34.3852 60.8386L33.6234 60.6862L32.8819 60.5135C32.6179 60.4424 32.435 60.4323 32.0389 60.3003C31.8561 60.2292 31.6123 60.0463 31.5107 59.8533C31.4091 59.6603 31.3787 59.508 31.3584 59.3861C31.3076 59.122 31.2669 58.8579 31.2466 58.5837C31.1958 58.0555 31.2263 57.5172 31.3177 57.0093L31.5107 56.9992Z" fill="#00254D"/>
<path d="M39.7781 56.4405C39.7273 57.6594 39.8391 58.8884 40.0829 60.0767C40.1133 60.2291 40.1641 60.412 40.3063 60.4831C40.418 60.5338 40.5501 60.5135 40.6618 60.4831C41.5353 60.2799 42.4089 60.0767 43.2824 59.8838C43.3636 59.8634 43.4449 59.8432 43.5058 59.7822C43.5871 59.701 43.5769 59.5689 43.5668 59.4572C43.4652 58.5836 43.1199 57.7508 42.7745 56.928C42.7034 56.7554 42.6222 56.5725 42.4698 56.4709C42.3378 56.3795 42.1651 56.3592 42.0026 56.3389C41.4033 56.2881 40.7939 56.278 40.1844 56.3085" stroke="#00254D" stroke-width="2" stroke-miterlimit="10"/>
<path d="M48.2195 55.6279C48.1687 56.2577 48.2195 56.8773 48.3719 57.4563C48.5141 58.0251 48.7985 58.604 49.0931 59.0205C49.1642 59.1017 49.2048 59.1017 49.1845 59.0712C49.1743 59.0509 49.2353 59.0509 49.347 59.0205L50.2307 58.7665C50.8299 58.5939 51.4191 58.4313 52.0082 58.2282L51.4292 59.6198C50.8401 58.9291 50.383 58.1571 50.058 57.3039C49.9666 57.1007 49.8853 56.8468 49.8955 56.8062C49.8955 56.7757 49.9463 56.7858 49.9767 56.7655C49.997 56.7351 49.9361 56.6944 49.8345 56.6538C49.3978 56.4811 48.961 56.2882 48.5344 56.0139L48.5547 55.8108C49.022 55.6077 49.479 55.4857 49.9361 55.374C50.058 55.3537 50.2205 55.3334 50.4541 55.374C50.6979 55.4248 50.9417 55.567 51.0839 55.7092C51.3886 56.0139 51.5105 56.1663 51.6527 56.3389C52.2418 57.0296 52.6989 57.8016 53.0341 58.6447L53.5521 59.9752L52.4551 60.0464C51.7847 60.087 51.1245 60.1682 50.4744 60.2393C50.1393 60.2698 49.8345 60.3206 49.479 60.3409C49.286 60.3409 49.0118 60.351 48.6969 60.2088C48.3821 60.0565 48.1992 59.8026 48.1078 59.6096C47.7929 58.8986 47.6914 58.2383 47.671 57.5477C47.6609 56.8671 47.7726 56.1866 48.0062 55.5772L48.2195 55.6279Z" fill="#00254D"/>
<path d="M36.7005 47.8577C37.4217 48.3046 38.1022 48.782 38.8234 49.1375C39.5242 49.5032 40.2555 49.7875 40.8853 49.8079C41.5556 49.818 41.8096 49.4219 42.4596 49.1273C43.0894 48.8328 43.9223 48.2843 44.9685 48.3148L45.0701 48.4874C44.6841 49.3711 44.3692 50.0516 43.6785 50.7525C43.3433 51.0877 42.8558 51.3823 42.287 51.494C41.7182 51.6057 41.1189 51.5448 40.6212 51.4127C39.6055 51.1385 38.864 50.5595 38.2342 49.9602C37.6146 49.3406 37.0763 48.6905 36.5786 48.01L36.7005 47.8577Z" fill="#00254D"/>
<path d="M126.186 121.132C126.044 119.608 125.983 118.298 125.587 116.967C125.211 115.657 124.592 114.408 123.708 113.372C121.951 111.249 119.31 110.111 116.669 109.482C115.308 109.157 113.998 108.699 112.698 108.242L110.737 107.572C110.057 107.349 109.407 107.024 108.838 106.566C108.269 106.109 107.802 105.48 107.609 104.748C107.406 104.017 107.497 103.235 107.761 102.554C108.025 101.864 108.432 101.254 108.889 100.716C109.366 100.167 109.823 99.7103 110.219 99.1517C111.032 98.075 111.672 96.8663 112.058 95.5865C112.464 94.3067 112.535 92.9456 112.637 91.5642C112.809 88.8319 112.728 86.0691 112.271 83.3775C111.337 78.0856 106.319 73.8703 100.946 73.8805C98.2744 73.7383 95.6437 74.6016 93.5107 76.1963C92.4544 76.9886 91.4488 77.9434 90.6464 78.9693C89.9252 79.9647 89.4681 81.2648 89.1736 82.5649C88.5641 85.1855 88.4016 87.9381 88.5235 90.6399C88.6352 91.9908 88.747 93.3417 89.0618 94.6419C89.3767 95.9318 89.7627 97.2421 90.4737 98.268C90.6362 98.5422 90.8597 98.7352 91.0527 98.9688C91.2355 99.1923 91.5808 99.4869 91.8043 99.7814C92.2918 100.391 92.6575 101.122 92.8403 101.874C93.0333 102.625 93.0739 103.367 93.0943 104.078C93.0943 104.758 93.1654 105.591 92.6981 106.455C92.2004 107.349 91.2355 107.653 90.5854 107.846L88.6251 108.496L84.7145 109.796C83.3941 110.223 82.1346 110.67 80.9361 111.249C79.7477 111.828 78.6405 112.529 77.8178 113.473C76.1215 115.342 75.6848 118.085 75.5019 120.756L75.3801 122.584L74.1409 121.244C72.0282 118.968 70.5046 116.256 69.4482 113.412C68.3919 110.558 67.7723 107.562 67.5184 104.545C67.2441 101.518 67.4371 98.461 68.0161 95.4849C68.2497 93.9817 68.7271 92.5291 69.1435 91.0665C69.7022 89.6546 70.1999 88.2022 70.9414 86.8716C71.5711 85.48 72.4548 84.2307 73.2674 82.9407C73.7041 82.3211 74.2018 81.7422 74.6691 81.1328L75.3801 80.2389C75.634 79.9545 75.9082 79.6904 76.1723 79.4162L77.767 77.7808L79.5039 76.2979L80.3774 75.5666L81.322 74.9166C81.9518 74.49 82.5714 74.0329 83.2113 73.6367C85.8318 72.0827 88.6454 70.8435 91.5808 70.0004C94.5264 69.2488 97.5634 68.7308 100.621 68.7816C101.383 68.7308 102.144 68.8425 102.906 68.873C103.668 68.9339 104.43 68.9542 105.181 69.1168L107.436 69.5027L109.64 70.0919C110.382 70.2646 111.093 70.5388 111.804 70.813C112.505 71.0974 113.236 71.3209 113.917 71.6662L115.958 72.682C116.649 72.9968 117.258 73.464 117.908 73.85C119.229 74.6118 120.377 75.6072 121.585 76.5315C122.174 77.0089 122.692 77.5676 123.251 78.0856L124.074 78.8677C124.338 79.1419 124.571 79.4365 124.825 79.7209C126.897 81.9352 128.492 84.5557 129.843 87.2474C131.194 89.9594 132.027 92.8846 132.626 95.8201C133.185 98.786 133.246 101.813 133.022 104.799C132.728 107.785 131.956 110.7 130.879 113.483C130.26 114.845 129.67 116.216 128.848 117.465C128.198 118.745 127.07 120.004 126.186 121.132ZM126.258 120.949L127.426 119.131C127.822 118.582 128.177 117.922 128.512 117.272C129.264 116.013 129.782 114.631 130.341 113.28C131.285 110.507 131.915 107.643 132.078 104.728C132.21 101.823 132.057 98.8978 131.448 96.0537C130.798 93.23 129.914 90.4469 128.543 87.8975C125.882 82.7782 121.92 78.3192 116.974 75.3635C112.098 72.3062 106.339 70.8028 100.631 70.813C97.7666 70.7825 94.9226 71.2802 92.1598 72.0014C89.4072 72.7936 86.7968 73.9922 84.3184 75.4244C83.709 75.8002 83.13 76.2268 82.5409 76.623L81.6572 77.2222L80.8345 77.9129L79.189 79.2943L77.6858 80.828C77.442 81.0819 77.1779 81.3257 76.9341 81.6L76.2637 82.4329C75.827 82.9915 75.3496 83.5299 74.9331 84.119C74.1713 85.3277 73.3181 86.4856 72.7189 87.7857C71.9977 89.0249 71.5305 90.386 70.982 91.7064C70.5858 93.0776 70.0983 94.4387 69.8748 95.8607C69.2959 98.6641 69.0826 101.569 69.306 104.433C69.5092 107.298 70.0678 110.152 71.0328 112.854C71.9977 115.556 73.4096 118.105 75.3191 120.187L73.9479 120.675C74.0596 119.263 74.2323 117.841 74.6284 116.429C75.0042 115.017 75.7051 113.626 76.7208 112.498C77.7264 111.351 79.0265 110.568 80.3165 109.949C81.6166 109.329 82.9777 108.872 84.2879 108.466L88.2493 107.186L90.2299 106.546C90.88 106.363 91.3472 106.16 91.5402 105.805C91.7637 105.439 91.784 104.819 91.7738 104.139C91.7637 103.468 91.723 102.829 91.5707 102.229C91.4285 101.63 91.1745 101.102 90.7987 100.624C90.6057 100.371 90.4127 100.218 90.1487 99.9135C89.9049 99.6087 89.6103 99.3345 89.4173 99.0095C88.5641 97.7398 88.1883 96.3279 87.8531 94.9364C87.5281 93.5449 87.4164 92.133 87.3148 90.7212C87.2132 87.9076 87.3961 85.0839 88.0664 82.3211C88.4016 80.9398 88.8689 79.5584 89.783 78.3192C90.6972 77.1816 91.7332 76.2268 92.8809 75.3635C95.1866 73.6571 98.1221 72.7226 100.986 72.9156C106.786 72.9968 112.129 77.5574 113.053 83.2658C113.49 86.0387 113.531 88.8421 113.327 91.6251C113.206 92.9964 113.114 94.4184 112.667 95.7896C112.241 97.1507 111.55 98.4102 110.687 99.5275C110.27 100.086 109.742 100.614 109.315 101.102C108.879 101.61 108.503 102.158 108.269 102.768C108.036 103.367 107.954 104.027 108.117 104.637C108.269 105.246 108.655 105.794 109.153 106.201C110.148 107.054 111.56 107.318 112.84 107.836C114.14 108.313 115.43 108.781 116.761 109.116C119.432 109.796 122.144 110.995 123.942 113.209C124.836 114.296 125.455 115.586 125.831 116.927C126.176 118.237 126.39 119.7 126.258 120.949Z" fill="#00254D"/>
<path d="M90.4223 115.911C90.4934 116.409 90.6052 116.896 90.7677 117.353C90.8997 117.76 91.2248 118.44 91.2654 118.237L92.6874 118.247L93.439 118.268C93.5406 118.268 93.4187 118.217 93.2359 118.328C93.0937 118.45 93.1038 118.501 93.1038 118.43C93.1242 118.024 93.114 117.475 93.0124 117.16C92.921 116.825 92.8093 116.612 92.728 116.449C92.6671 116.317 92.5655 116.145 92.1694 116.074C91.7834 116.013 91.2654 116.074 90.6966 116.094L90.5849 115.921C90.8693 115.413 91.2552 114.966 91.8647 114.682C92.1694 114.53 92.5452 114.459 92.9616 114.489C93.3781 114.519 93.8047 114.712 94.1297 114.987C94.7798 115.535 95.0337 116.338 95.0134 117.008C94.9829 117.709 94.8306 118.166 94.6985 118.765C94.6376 118.948 94.5665 119.253 94.2211 119.537C93.8453 119.822 93.439 119.771 93.2968 119.75L92.535 119.598L91.7936 119.425C91.5295 119.354 91.3467 119.344 90.9505 119.212C90.7677 119.141 90.5239 118.958 90.4223 118.765C90.3208 118.572 90.2903 118.42 90.27 118.298C90.2192 118.034 90.1786 117.77 90.1583 117.496C90.1075 116.967 90.1379 116.429 90.2293 115.921L90.4223 115.911Z" fill="#00254D"/>
<path d="M98.6907 115.352C98.6399 116.571 98.7517 117.8 98.9955 118.989C99.0259 119.141 99.0767 119.324 99.2189 119.395C99.3306 119.446 99.4627 119.425 99.5744 119.395C100.448 119.192 101.321 118.989 102.195 118.796C102.276 118.775 102.357 118.755 102.418 118.694C102.5 118.613 102.49 118.481 102.479 118.369C102.378 117.496 102.032 116.663 101.687 115.84C101.616 115.667 101.535 115.484 101.382 115.383C101.25 115.291 101.078 115.271 100.915 115.251C100.316 115.2 99.7065 115.19 99.097 115.22" stroke="#00254D" stroke-width="2" stroke-miterlimit="10"/>
<path d="M107.132 114.54C107.081 115.17 107.132 115.789 107.284 116.368C107.426 116.937 107.711 117.516 108.005 117.932C108.076 118.014 108.117 118.014 108.097 117.983C108.086 117.963 108.147 117.963 108.259 117.932L109.143 117.678C109.742 117.506 110.331 117.343 110.92 117.14L110.341 118.532C109.752 117.841 109.295 117.069 108.97 116.216C108.879 116.013 108.797 115.759 108.808 115.718C108.808 115.688 108.858 115.698 108.889 115.677C108.909 115.647 108.848 115.606 108.747 115.566C108.31 115.393 107.873 115.2 107.447 114.926L107.467 114.723C107.934 114.52 108.391 114.398 108.848 114.286C108.97 114.266 109.133 114.245 109.366 114.286C109.61 114.337 109.854 114.479 109.996 114.621C110.301 114.926 110.423 115.078 110.565 115.251C111.154 115.942 111.611 116.713 111.946 117.557L112.464 118.887L111.367 118.958C110.697 118.999 110.037 119.08 109.387 119.151C109.051 119.182 108.747 119.232 108.391 119.253C108.198 119.253 107.924 119.263 107.609 119.121C107.294 118.968 107.111 118.714 107.02 118.521C106.705 117.81 106.603 117.15 106.583 116.46C106.573 115.779 106.685 115.098 106.918 114.489L107.132 114.54Z" fill="#00254D"/>
<path d="M95.6126 106.77C96.3338 107.216 97.0143 107.694 97.7355 108.049C98.4363 108.415 99.1676 108.699 99.7974 108.72C100.468 108.73 100.722 108.334 101.372 108.039C102.001 107.745 102.834 107.196 103.881 107.227L103.982 107.399C103.596 108.283 103.281 108.963 102.591 109.664C102.255 110 101.768 110.294 101.199 110.406C100.63 110.518 100.031 110.457 99.5333 110.325C98.5176 110.05 97.7761 109.471 97.1464 108.872C96.5268 108.253 95.9884 107.602 95.4907 106.922L95.6126 106.77Z" fill="#00254D"/>
<path d="M88.9085 31.3928C90.8485 33.2617 93.4285 34.1556 95.8357 35.3541C98.2633 36.5527 100.478 38.1677 102.479 39.9858C104.48 41.8141 106.308 43.8557 107.801 46.1207C109.264 48.4061 110.513 50.8134 111.386 53.373L111.295 53.4136C109.883 51.1181 108.532 48.8327 106.958 46.6895C105.394 44.5565 103.819 42.4134 101.93 40.5546C100.041 38.6958 97.9383 37.0402 95.6123 35.7705C93.3066 34.4806 90.7165 33.4445 88.8374 31.4537L88.9085 31.3928Z" fill="#00254D"/>
<path d="M96.699 22.688C99.3907 24.6078 102.204 26.3447 104.957 28.1933C107.709 30.0419 110.381 32.053 112.737 34.44C113.916 35.6284 114.992 36.9285 115.988 38.2794C116.963 39.61 117.907 40.9812 118.791 42.3931C120.497 45.2371 122.082 48.2843 122.63 51.5854L122.529 51.6057C121.412 48.4874 119.776 45.6535 117.928 42.9314C117.024 41.5602 116.079 40.2093 115.155 38.8482C114.23 37.4973 113.255 36.1971 112.138 34.9986C109.914 32.6015 107.334 30.5396 104.652 28.6097C101.981 26.6697 99.2383 24.8008 96.6279 22.7693L96.699 22.688Z" fill="#00254D"/>
<path d="M103.646 52.4182C110.198 55.2724 116.668 58.3501 123.443 60.544L122.914 60.8589L123.768 55.3841C124.052 53.5558 124.367 51.7377 124.702 49.9297C125.068 48.1217 125.413 46.3036 125.799 44.4956C126.185 42.6876 126.581 40.8898 127.048 39.092L127.15 39.1123C126.977 40.9609 126.744 42.7892 126.51 44.6175C126.266 46.4458 125.982 48.2741 125.718 50.1024C125.423 51.9205 125.108 53.7489 124.763 55.5569L123.727 61.0011L123.636 61.4683L123.199 61.316C119.816 60.1174 116.515 58.6954 113.265 57.1922C110.025 55.6686 106.825 54.0637 103.616 52.5097L103.646 52.4182Z" fill="#00254D"/>
<path d="M82.6108 16.4414C82.2451 17.0102 82.4584 17.7719 82.885 18.0563C83.1085 18.2189 83.3827 18.29 83.6874 18.3204C83.9922 18.3509 84.307 18.3103 84.6422 18.29L84.114 18.7775C84.0633 18.422 84.114 18.0665 84.175 17.711C84.2359 17.3555 84.3477 16.9898 84.5305 16.6039L84.6321 16.5937C84.8352 16.9492 84.9571 17.3149 85.0383 17.6907C85.1196 18.0665 85.1805 18.4525 85.1501 18.8283L85.1094 19.3667L84.6321 19.3158C84.2766 19.2854 83.9109 19.2041 83.5351 19.1026C83.1694 18.9908 82.7733 18.8181 82.4889 18.5033C82.1943 18.1986 82.0623 17.7618 82.0826 17.3758C82.1029 16.9899 82.2654 16.6141 82.5397 16.3703L82.6108 16.4414Z" fill="#00254D"/>
<path d="M89.5078 19.3869L89.518 20.5754C89.518 20.7684 89.518 20.9918 89.5281 21.1543C89.5586 21.3168 89.5789 21.2864 89.7414 21.327L91.8846 21.5809C91.8237 21.5911 91.7322 21.6825 91.7221 21.713C91.7119 21.7435 91.7119 21.7129 91.7221 21.6621L91.7526 21.3676L91.8033 20.7785L91.8745 20.1894L91.9659 19.6916C91.976 19.6002 91.9963 19.6206 91.9557 19.5393C91.9151 19.4682 91.7526 19.387 91.5799 19.3057C91.265 19.1534 90.7064 18.9502 90.5946 18.4627L90.6861 18.4119C90.9908 18.6455 91.3361 18.5541 91.7526 18.6049C91.9659 18.6252 92.1995 18.6455 92.4737 18.808C92.7581 18.9603 92.9714 19.3667 92.9714 19.6815C92.9714 19.9964 92.9308 20.1589 92.9003 20.3519L92.7784 20.9309L92.6261 21.5098L92.555 21.7942C92.5448 21.8348 92.5347 21.906 92.4839 22.0279C92.4432 22.1497 92.2807 22.3224 92.1182 22.3529C91.8033 22.4138 91.7221 22.3326 91.6307 22.3224L91.3463 22.2513L90.7673 22.1091L89.5891 21.8145C89.4773 21.7739 89.3351 21.713 89.2336 21.5809C89.1218 21.4489 89.1015 21.2762 89.1117 21.1543C89.132 20.9207 89.1726 20.748 89.2031 20.5449L89.3961 19.3667L89.5078 19.3869Z" fill="#00254D"/>
<path d="M45.3548 123.194C44.0343 121.863 42.3076 121.081 40.7129 120.116C39.0979 119.151 37.5235 118.125 36.0507 116.967C33.0747 114.662 30.383 112.001 28.0164 109.065C25.6599 106.119 23.598 102.91 22.0947 99.4462C20.6118 95.9724 19.5249 92.3158 19.1187 88.5779L19.2202 88.5576C20.1953 92.1736 21.404 95.688 23.019 99.0196C24.6137 102.351 26.4319 105.591 28.6664 108.567C30.9112 111.523 33.5013 114.215 36.3758 116.571C37.7978 117.77 39.3214 118.846 40.8856 119.862C42.4295 120.878 44.1562 121.741 45.4462 123.133L45.3548 123.194Z" fill="#00254D"/>
<path d="M54.4659 115.19C51.4492 114.469 48.5747 113.077 46.076 111.198C43.5367 109.339 41.4849 106.983 39.1792 104.921C38.6104 104.383 38.0518 103.865 37.4931 103.275C36.9548 102.686 36.4571 102.087 35.9696 101.478C35.482 100.868 35.0249 100.238 34.5577 99.629C34.1006 99.0094 33.6131 98.4203 33.1662 97.7601C32.2825 96.4498 31.4801 95.0888 30.8706 93.6464C30.2409 92.2143 29.733 90.711 29.4893 89.1671L29.5908 89.1467C30.6066 92.0619 32.1301 94.7637 33.9483 97.1913C34.9031 98.3594 35.868 99.629 36.7923 100.838C37.7166 102.077 38.712 103.184 39.7988 104.291C42.003 106.475 43.9836 108.872 46.3909 110.782C48.7575 112.732 51.5101 114.225 54.4862 115.088L54.4659 115.19Z" fill="#00254D"/>
<path d="M39.3315 93.8293C32.8613 89.9289 25.9544 86.7801 18.7834 84.4846L19.3116 84.2002C18.8647 85.9574 18.5193 87.7349 18.1943 89.5226C17.8591 91.3001 17.5848 93.1284 17.1278 94.9161C16.6605 96.6936 16.2035 98.4406 15.7159 100.208C15.1877 101.975 14.5478 103.692 13.8267 105.378L13.7251 105.348C14.1415 103.56 14.6088 101.803 14.9643 100.025C15.3401 98.2476 15.7261 96.4498 16.1324 94.6824C16.3457 93.7886 16.5183 92.9354 16.6707 92.0314L17.1989 89.3397C17.5747 87.5521 18.0013 85.7543 18.5092 83.9869L18.631 83.5603L19.0373 83.7025C26.2083 86.2012 33.0543 89.5835 39.3721 93.7378L39.3315 93.8293Z" fill="#00254D"/>
<path d="M50.7995 124.453L50.6877 127.236L50.4948 126.982C51.6527 127.104 52.8208 127.084 53.9482 126.881L53.6029 127.175C53.8365 126.129 53.7959 125.073 53.7959 124.027L54.192 124.443C53.3185 124.169 52.4551 123.844 51.6527 123.407L51.6831 123.305C52.6176 123.285 53.4911 123.366 54.3545 123.498L54.6694 123.549L54.7506 123.915C55.0046 125.083 54.7811 126.302 54.4053 127.409L54.3139 127.693L54.0599 127.714C52.8411 127.795 51.6121 127.724 50.4237 127.45L50.2002 127.399L50.2307 127.196L50.7081 124.453H50.7995Z" fill="#00254D"/>
<path d="M57.9802 126.434C58.0208 126.972 57.9903 127.521 57.8989 128.059C57.8481 128.333 57.7872 128.597 57.7059 128.861C57.6754 128.983 57.6043 129.146 57.5942 129.227C57.6145 129.319 57.5637 129.197 57.6247 129.247C58.5896 129.44 59.6866 129.471 60.6921 129.329C60.8039 129.308 60.9765 129.288 61.0375 129.268C61.0578 129.247 60.9461 129.298 60.9054 129.359C60.875 129.42 60.8851 129.41 60.8851 129.369L60.8242 128.587C60.7937 128.059 60.7734 127.531 60.7937 127.003C60.8039 126.759 60.7632 126.586 60.7531 126.566C60.7836 126.515 60.5398 126.444 60.2655 126.414C59.7475 126.342 59.2295 126.231 58.681 126.089L58.6709 125.987C59.199 125.855 59.7475 125.764 60.3062 125.703C60.4484 125.682 60.5703 125.662 60.7429 125.682C60.9054 125.692 61.1492 125.743 61.3422 125.906C61.7383 126.261 61.7485 126.678 61.7993 126.952C61.8399 127.5 61.8298 128.039 61.8196 128.587L61.779 129.41C61.7688 129.501 61.7688 129.633 61.6672 129.806C61.5657 129.989 61.3219 130.111 61.2102 130.111C61.007 130.141 60.9156 130.131 60.7531 130.141C59.6256 130.182 58.549 130.06 57.4418 129.725C57.3606 129.684 57.2387 129.623 57.1676 129.481C57.0965 129.339 57.127 129.197 57.1473 129.105C57.2184 128.933 57.2692 128.851 57.3199 128.719C57.4317 128.486 57.5231 128.232 57.5942 127.988C57.7465 127.49 57.8481 126.962 57.8786 126.434H57.9802Z" fill="#00254D"/>
<path d="M121.747 55.3333C121.392 52.0018 119.096 49.2695 117.217 46.6388C115.267 43.9166 113.276 41.225 111.133 38.6654C106.938 33.668 102.053 29.1887 96.0599 26.4564C95.4301 26.172 94.5363 26.3751 93.9777 26.7306C93.6018 26.9744 93.0737 27.5737 93.7136 27.8682C99.5641 30.5396 104.297 34.9275 108.391 39.803C110.412 42.2102 112.291 44.7292 114.119 47.2787C116.049 49.9602 118.436 52.7026 118.802 56.1053C118.903 57.0804 121.869 56.4405 121.747 55.3333Z" fill="#CACFE5"/>
<path d="M20.2258 89.1062C21.4549 96.2975 24.7255 102.981 28.8798 108.923C32.5567 114.195 37.3712 118.958 43.9531 120.025C45.2431 120.238 47.0003 118.45 45.0399 118.125C38.905 117.13 34.4256 111.879 31.1245 107.013C27.2953 101.356 24.3294 95.0888 23.1714 88.3139C22.9683 87.1458 20.0125 87.867 20.2258 89.1062Z" fill="#CACFE5"/>
<path d="M15.158 53.8809C13.6547 48.5179 12.8827 42.8501 13.6852 37.2941C14.0711 34.6431 14.8126 32.0327 15.9604 29.6051C17.1996 27.0048 18.845 24.6281 20.0131 21.9973C20.3178 21.3067 17.4636 21.5911 17.0878 22.4443C15.9197 25.075 14.2743 27.4518 13.0351 30.052C11.8264 32.6116 11.0646 35.3642 10.6989 38.1676C9.97777 43.7033 10.7091 49.3203 12.2124 54.663C12.446 55.5162 15.3916 54.7239 15.158 53.8809Z" fill="#CACFE5"/>
<path d="M123.088 85.0128C128.664 93.3925 129.903 104.24 126.47 113.687C126.135 114.601 129.06 114.235 129.406 113.29C132.94 103.55 131.549 92.4885 125.82 83.8751C125.312 83.1134 122.448 84.058 123.088 85.0128Z" fill="#CACFE5"/>
<path d="M40.378 16.8274C45.5379 16.4719 49.2351 21.2457 50.1188 25.8673C51.1345 31.1693 49.5297 36.8676 46.5841 41.3063C45.9442 42.261 48.8288 41.8953 49.2859 41.2148C52.5058 36.3495 54.3341 30.0622 52.8816 24.2726C51.5815 19.0822 47.1021 15.0499 41.5969 15.4257C41.0383 15.4663 39.9413 15.6187 39.6366 16.1773C39.342 16.7055 39.8905 16.8579 40.378 16.8274Z" fill="#CACFE5"/>
<path d="M95.9071 100.137C92.992 96.338 90.8996 92.1431 91.184 87.2473C91.4278 82.9508 93.2256 78.9184 96.3439 75.9423C96.8619 75.4446 96.5369 74.7336 95.9579 74.5C95.2266 74.2055 94.4039 74.5508 93.8757 75.0587C90.5035 78.2785 88.4619 82.8087 88.1978 87.4708C87.9032 92.7526 90.0566 97.3335 93.2155 101.447C94.0382 102.504 96.8315 101.346 95.9071 100.137Z" fill="#CACFE5"/>
</g>
</svg>
