<svg width="141" height="141" viewBox="0 0 141 141" fill="none" xmlns="http://www.w3.org/2000/svg">
<mask id="mask0" mask-type="alpha" maskUnits="userSpaceOnUse" x="0" y="0" width="141" height="141">
<rect x="0.444824" y="0.251953" width="140" height="140" fill="#C4C4C4"/>
</mask>
<g mask="url(#mask0)">
<path d="M97.1714 97.2554C97.0206 95.6392 96.9559 94.2492 96.5357 92.8377C96.137 91.4478 95.4798 90.1224 94.5424 89.0234C92.6783 86.7714 89.8768 85.5647 87.0753 84.8966C85.6315 84.5518 84.2416 84.0669 82.8624 83.5821L80.7828 82.8709C80.0608 82.6339 79.3712 82.2891 78.7679 81.8042C78.1645 81.3193 77.6689 80.6513 77.4749 79.8755C77.2594 79.0997 77.3563 78.27 77.6365 77.5481C77.9166 76.8154 78.3476 76.1689 78.8325 75.5978C79.3389 75.016 79.8238 74.5311 80.244 73.9385C81.106 72.7964 81.7848 71.5141 82.1943 70.1565C82.6253 68.7989 82.7007 67.355 82.8084 65.8896C82.9916 62.9912 82.9054 60.0604 82.4206 57.2051C81.4293 51.5913 76.1064 47.1197 70.4065 47.1305C67.5727 46.9797 64.782 47.8955 62.5193 49.5872C61.3987 50.4276 60.332 51.4405 59.4808 52.5287C58.7158 53.5847 58.2309 54.9639 57.9184 56.3431C57.2719 59.123 57.0995 62.043 57.2288 64.9091C57.3473 66.3422 57.4659 67.7753 57.7999 69.1544C58.1339 70.5229 58.5433 71.9128 59.2976 73.0011C59.47 73.292 59.707 73.4967 59.9117 73.7446C60.1057 73.9816 60.472 74.2941 60.7091 74.6066C61.2263 75.253 61.6142 76.0288 61.8081 76.8262C62.0129 77.6235 62.056 78.4101 62.0775 79.1643C62.0775 79.8863 62.1529 80.7698 61.6573 81.6857C61.1293 82.6339 60.1057 82.9571 59.4161 83.1618L57.3366 83.8514L53.1882 85.2306C51.7875 85.6832 50.4514 86.1573 49.18 86.7714C47.9193 87.3856 46.7448 88.1291 45.872 89.1311C44.0726 91.1137 43.6093 94.023 43.4153 96.8568L43.286 98.7963L41.9715 97.374C39.7303 94.9604 38.1141 92.0835 36.9935 89.0665C35.8729 86.0387 35.2156 82.8601 34.9463 79.66C34.6553 76.4491 34.86 73.2058 35.4742 70.0488C35.722 68.4541 36.2284 66.9133 36.6702 65.3617C37.2628 63.864 37.7908 62.3231 38.5774 60.9116C39.2454 59.4355 40.1828 58.1101 41.0448 56.7417C41.5082 56.0845 42.0361 55.4703 42.5318 54.8238L43.286 53.8756C43.5554 53.5739 43.8464 53.2938 44.1265 53.0028L45.8182 51.2681L47.6607 49.6949L48.5873 48.9191L49.5894 48.2295C50.2575 47.777 50.9147 47.2921 51.5935 46.8719C54.3735 45.2233 57.3581 43.9088 60.4721 43.0145C63.5968 42.2171 66.8185 41.6676 70.0618 41.7215C70.8699 41.6676 71.678 41.7861 72.4861 41.8185C73.2942 41.8831 74.1023 41.9047 74.8997 42.0771L77.2917 42.4865L79.6299 43.1115C80.4165 43.2946 81.1707 43.5855 81.9249 43.8765C82.6684 44.1782 83.4442 44.4152 84.1661 44.7816L86.3319 45.8591C87.0646 46.1931 87.711 46.6887 88.4006 47.0982C89.8014 47.9063 91.0189 48.9622 92.3012 49.9428C92.9261 50.4492 93.4756 51.0418 94.0683 51.5913L94.941 52.421C95.2212 52.7119 95.469 53.0244 95.7384 53.3261C97.9364 55.675 99.6281 58.4549 101.061 61.3103C102.494 64.1872 103.378 67.2904 104.013 70.4043C104.606 73.5506 104.671 76.7615 104.434 79.9294C104.121 83.0972 103.302 86.1896 102.16 89.1419C101.503 90.5858 100.878 92.0404 100.005 93.3657C99.2941 94.7233 98.0981 96.0594 97.1714 97.2554ZM97.2361 97.0507L98.4752 95.122C98.8955 94.5402 99.2725 93.8398 99.6389 93.1502C100.436 91.8141 100.986 90.3487 101.578 88.9156C102.58 85.9741 103.248 82.9356 103.421 79.8432C103.561 76.7615 103.399 73.6584 102.753 70.6414C102.063 67.6459 101.126 64.6936 99.6712 61.9891C96.8482 56.5586 92.646 51.8284 87.3986 48.6929C82.2266 45.4496 76.1173 43.8549 70.0618 43.8657C67.0232 43.8334 64.0062 44.3613 61.0754 45.1264C58.1554 45.9668 55.3863 47.2382 52.7572 48.7575C52.1107 49.1562 51.4966 49.6087 50.8716 50.029L49.9341 50.6647L49.0614 51.3974L47.3158 52.8628L45.7212 54.4898C45.4626 54.7591 45.1824 55.0177 44.9238 55.3087L44.2127 56.1922C43.7493 56.7848 43.2429 57.3559 42.8012 57.9808C41.993 59.2631 41.0879 60.4914 40.4522 61.8706C39.6872 63.1851 39.1916 64.629 38.6098 66.0297C38.1895 67.4843 37.6723 68.9282 37.4353 70.4367C36.8211 73.4105 36.5948 76.4922 36.8319 79.5307C37.0474 82.5692 37.64 85.597 38.6636 88.4631C39.6872 91.3292 41.1849 94.0337 43.2106 96.2426L41.756 96.7598C41.8745 95.2621 42.0577 93.7536 42.4779 92.2559C42.8766 90.7582 43.6201 89.282 44.6975 88.086C45.7643 86.8684 47.1435 86.0387 48.5119 85.3815C49.8911 84.7242 51.3349 84.2393 52.7249 83.8083L56.9271 82.4507L59.0282 81.7719C59.7178 81.5779 60.2135 81.3624 60.4182 80.9853C60.6552 80.5974 60.6768 79.9401 60.666 79.2182C60.6552 78.5071 60.6121 77.8282 60.4505 77.1925C60.2996 76.5568 60.0302 75.9965 59.6316 75.4901C59.4269 75.2207 59.2222 75.0591 58.942 74.7358C58.6834 74.4126 58.3709 74.1217 58.1662 73.7769C57.2611 72.43 56.8625 70.9323 56.5069 69.4561C56.1621 67.98 56.0435 66.4823 55.9358 64.9845C55.828 61.9999 56.022 59.0045 56.7332 56.0737C57.0888 54.6191 57.5843 53.1429 58.5541 51.8284C59.5238 50.6216 60.6229 49.6087 61.8405 48.6929C64.2864 46.8827 67.4003 45.8914 70.4389 46.0961C76.5913 46.1823 82.259 51.0202 83.2395 57.0757C83.7028 60.0173 83.7459 62.9912 83.5304 65.9435C83.4011 67.3981 83.3041 68.9066 82.83 70.3612C82.3775 71.8051 81.6448 73.1412 80.7289 74.3264C80.2871 74.919 79.7269 75.4793 79.2743 75.9965C78.811 76.5353 78.4123 77.1171 78.1645 77.7636C77.9166 78.3993 77.8305 79.0997 78.0029 79.7462C78.1645 80.3927 78.5739 80.9745 79.1019 81.4055C80.1578 82.3106 81.6555 82.5908 83.0132 83.1403C84.3924 83.6467 85.7608 84.1424 87.1723 84.4979C90.0061 85.2198 92.883 86.4913 94.7902 88.8402C95.7384 89.9931 96.3957 91.3616 96.7943 92.7838C97.1499 94.1846 97.3762 95.7362 97.2361 97.0507Z" fill="#018403" fill-opacity="0.7"/>
<path d="M59.2328 91.7171C59.3082 92.2451 59.4268 92.7622 59.5992 93.2471C59.7393 93.6781 60.0841 94.4 60.1272 94.1845L61.6357 94.1953L62.433 94.2169C62.5408 94.2169 62.4114 94.163 62.2175 94.2815C62.0666 94.4108 62.0774 94.4647 62.0774 94.3893C62.099 93.9583 62.0882 93.3764 61.9805 93.0424C61.8835 92.6976 61.7649 92.4605 61.6787 92.2881C61.6141 92.1481 61.5064 91.9649 61.0861 91.8895C60.6767 91.8248 60.1272 91.8895 59.5238 91.911L59.4053 91.7278C59.707 91.1891 60.1164 90.715 60.7629 90.4133C61.0862 90.2517 61.4848 90.1763 61.9265 90.2086C62.3683 90.2409 62.8209 90.4456 63.1657 90.7366C63.8553 91.3184 64.1247 92.1696 64.1031 92.8808C64.0708 93.6242 63.9092 94.1091 63.7691 94.7448C63.7044 94.9388 63.629 95.262 63.2627 95.5637C62.864 95.8654 62.433 95.8115 62.2821 95.79L61.474 95.6284L60.6875 95.4452C60.4073 95.3698 60.2134 95.359 59.7931 95.2189C59.5992 95.1543 59.3406 94.9496 59.2328 94.7448C59.1251 94.5401 59.0928 94.3785 59.0712 94.2492C59.0174 93.969 58.9743 93.6889 58.9527 93.398C58.8989 92.8377 58.9311 92.2666 59.0281 91.7278L59.2328 91.7171Z" fill="#018403" fill-opacity="0.7"/>
<path d="M67.9932 91.1244C67.9393 92.4174 68.0579 93.7212 68.3165 94.9819C68.3488 95.1435 68.4027 95.3374 68.5535 95.4129C68.6721 95.4667 68.8121 95.4452 68.9306 95.4129C69.8573 95.1974 70.7839 94.9819 71.7106 94.7771C71.7968 94.7556 71.883 94.734 71.9477 94.6694C72.0339 94.5832 72.0231 94.4431 72.0123 94.3246C71.9046 93.398 71.5382 92.5144 71.1718 91.6416C71.0964 91.4585 71.0102 91.2645 70.8486 91.1568C70.7085 91.0598 70.5253 91.0382 70.3529 91.0167C69.7172 90.9628 69.0707 90.952 68.4242 90.9844" stroke="#49A84B" stroke-width="2" stroke-miterlimit="10"/>
<path d="M76.9467 90.2626C76.8928 90.9306 76.9467 91.5879 77.1084 92.2021C77.2592 92.8055 77.5609 93.4196 77.8734 93.8614C77.9488 93.9476 77.9919 93.9476 77.9703 93.9153C77.9596 93.8937 78.0243 93.8937 78.1428 93.8614L79.0802 93.592C79.7159 93.4089 80.3409 93.2365 80.9658 93.021L80.3516 94.4971C79.7267 93.7644 79.2418 92.9455 78.897 92.0404C78.8 91.8249 78.7138 91.5556 78.7246 91.5125C78.7246 91.4801 78.7785 91.4909 78.8216 91.4694C78.8432 91.437 78.7785 91.3939 78.6707 91.3508C78.2074 91.1677 77.7441 90.963 77.2915 90.672L77.3131 90.4565C77.8087 90.241 78.2936 90.1117 78.7785 89.9932C78.9078 89.9717 79.0802 89.9501 79.328 89.9932C79.5866 90.0471 79.8452 90.1979 79.996 90.3488C80.3193 90.672 80.4486 90.8336 80.5994 91.0168C81.2244 91.7495 81.7092 92.5684 82.0648 93.4627L82.6143 94.8742L81.4506 94.9497C80.7395 94.9928 80.0392 95.079 79.3496 95.1544C78.994 95.1867 78.6707 95.2406 78.2936 95.2621C78.0889 95.2621 77.798 95.2729 77.464 95.1221C77.1299 94.9604 76.936 94.6911 76.839 94.4863C76.505 93.7321 76.3972 93.0317 76.3757 92.299C76.3649 91.5771 76.4834 90.8552 76.7313 90.2087L76.9467 90.2626Z" fill="#018403" fill-opacity="0.7"/>
<path d="M64.7284 82.0197C65.4934 82.4938 66.2153 83.0002 66.9803 83.3773C67.7238 83.7652 68.4996 84.0669 69.1677 84.0884C69.8788 84.0992 70.1482 83.679 70.8378 83.3665C71.5058 83.054 72.3894 82.4722 73.4992 82.5045L73.6069 82.6877C73.1975 83.6251 72.8635 84.347 72.1308 85.0905C71.7752 85.4461 71.258 85.7585 70.6546 85.8771C70.0512 85.9956 69.4155 85.931 68.8875 85.7909C67.81 85.5 67.0235 84.8858 66.3554 84.2501C65.6982 83.5928 65.1271 82.9032 64.5991 82.1813L64.7284 82.0197Z" fill="#018403" fill-opacity="0.7"/>
<path d="M93.8742 58.9398C99.7897 67.8291 101.104 79.3368 97.4623 89.3574C97.1067 90.3272 100.21 89.9393 100.576 88.9372C104.326 78.6041 102.85 66.8702 96.7727 57.733C96.2339 56.9249 93.1954 57.927 93.8742 58.9398Z" fill="#D2EDD2"/>
<path d="M65.0402 74.9729C61.9478 70.9431 59.7282 66.493 60.0299 61.2995C60.2885 56.7417 62.1956 52.4641 65.5035 49.307C66.053 48.7791 65.7082 48.0248 65.094 47.777C64.3182 47.4645 63.4455 47.8309 62.8852 48.3696C59.3079 51.7853 57.1422 56.5909 56.862 61.5366C56.5496 67.1395 58.8339 71.999 62.1849 76.3629C63.0576 77.4942 66.0315 76.2551 65.0402 74.9729Z" fill="#D2EDD2"/>
<path d="M39.0083 86.4913C38.9868 84.444 38.5127 82.3322 37.1766 80.7806C35.862 79.2074 33.8902 78.3778 31.9184 77.9144C30.8948 77.6774 29.9035 77.3326 28.9229 76.9986L27.4576 76.5029C26.9404 76.3413 26.434 76.0827 25.9922 75.7379C25.5504 75.3823 25.184 74.8975 25.0224 74.3156C24.8608 73.7445 24.9255 73.1196 25.1302 72.5916C25.3242 72.0529 25.6366 71.5896 25.9922 71.1693C26.3585 70.7383 26.6818 70.4151 26.9835 69.9949C27.5869 69.1975 28.0502 68.314 28.3303 67.3658C28.6213 66.4391 28.6751 65.4263 28.7506 64.3919C28.8691 62.3555 28.8044 60.2974 28.4596 58.3041C27.7593 54.4359 24.0851 51.3758 20.163 51.3973C18.2127 51.3004 16.3163 51.9469 14.7755 53.1213C14.0105 53.7032 13.267 54.4251 12.7067 55.1578C12.2218 55.8366 11.8878 56.7848 11.6723 57.7438C11.2306 59.6617 11.1228 61.6982 11.209 63.6915C11.3276 65.6526 11.6184 67.7429 12.5666 69.2622C12.6744 69.4561 12.8253 69.5854 12.9546 69.7578C13.0731 69.9087 13.364 70.1673 13.5256 70.4043C13.9027 70.8892 14.1828 71.4818 14.3121 72.0744C14.4522 72.667 14.4738 73.2381 14.4738 73.7769C14.463 74.2833 14.5169 74.9406 14.129 75.6302C13.7088 76.3521 12.933 76.5783 12.4481 76.7076L10.9719 77.1602L8.00884 78.0545C6.0478 78.6256 4.05444 79.2505 2.68603 80.6728C1.27451 82.0736 0.865062 84.2178 0.595689 86.2327L0.444824 86.2219C0.487924 84.1854 0.725012 81.9335 2.16885 80.2095C3.62347 78.5178 5.74611 77.742 7.67482 77.0525L10.6164 76.0073L12.0925 75.4901C12.5774 75.35 12.8791 75.1884 12.9761 74.9729C13.1054 74.7466 13.1162 74.3048 13.0946 73.7984C13.0731 73.3028 13.03 72.8287 12.9222 72.4192C12.8145 71.999 12.6205 71.6434 12.3619 71.3202C12.2218 71.137 12.1033 71.0616 11.8878 70.8245C11.6938 70.5875 11.446 70.372 11.2952 70.1134C10.6164 69.1113 10.3147 68.0338 10.0561 66.9779C9.7975 65.9112 9.7005 64.8445 9.62508 63.767C9.53888 61.6228 9.6897 59.4893 10.2069 57.3774C10.4763 56.3215 10.8319 55.2656 11.5646 54.2743C12.2865 53.3907 13.0623 52.6796 13.9674 52.0223C15.7453 50.7293 18.0188 50.0182 20.2168 50.1798C24.6561 50.2552 28.7398 53.7571 29.4402 58.1425C29.7634 60.2436 29.785 62.3554 29.6233 64.4458C29.5264 65.4802 29.4617 66.5577 29.1169 67.6028C28.7829 68.6372 28.2549 69.607 27.5976 70.4474C26.9188 71.3202 26.1107 71.9344 25.7875 72.8287C25.4103 73.6907 25.6474 74.6712 26.3909 75.2638C27.0912 75.8888 28.1472 76.0935 29.1169 76.4922C30.0867 76.8585 31.0456 77.2141 32.0369 77.4619C34.0518 77.9791 36.0883 78.895 37.4244 80.5758C38.782 82.2352 39.213 84.4225 39.1807 86.4913H39.0083Z" fill="#49A84B"/>
<path d="M12.2651 82.6554C12.319 83.0326 12.4052 83.3881 12.5237 83.7329C12.6207 84.0346 12.8685 84.5518 12.9008 84.3902L13.9676 84.4118L14.5278 84.4225C14.6033 84.4225 14.517 84.3794 14.377 84.4656C14.2692 84.5518 14.28 84.5842 14.2692 84.5411C14.2692 84.2394 14.28 83.8299 14.1938 83.5929C14.1292 83.345 14.0429 83.1834 13.9783 83.0649C13.9352 82.9571 13.8491 82.8386 13.5581 82.7847C13.278 82.7416 12.8793 82.774 12.4483 82.7955L12.3728 82.6662C12.5883 82.2891 12.8685 81.9443 13.3318 81.7396C13.7736 81.5025 14.5279 81.5241 15.0343 81.9658C15.5192 82.3753 15.7131 82.9787 15.7023 83.4851C15.6808 84.0023 15.573 84.3579 15.4652 84.7996C15.4221 84.9397 15.3683 85.166 15.1097 85.3707C14.8296 85.5862 14.5279 85.5431 14.4201 85.5216L13.849 85.403L13.2888 85.2845C13.0948 85.2307 12.9547 85.2307 12.6638 85.1337C12.5237 85.0798 12.3405 84.9505 12.2651 84.7996C12.1897 84.6596 12.1682 84.5411 12.1466 84.4441C12.1035 84.2501 12.0712 84.0454 12.0604 83.8407C12.0281 83.442 12.0388 83.0433 12.1143 82.6554H12.2651Z" fill="#49A84B"/>
<path d="M18.4604 82.2351C18.4281 83.1509 18.5035 84.0668 18.6866 84.9611C18.7082 85.0796 18.7513 85.2089 18.8591 85.2628C18.9453 85.3059 19.0422 85.2844 19.1284 85.2628C19.7857 85.112 20.443 84.9611 21.0895 84.8103C21.1541 84.7995 21.2187 84.7779 21.2511 84.7348C21.3049 84.6702 21.305 84.5732 21.2942 84.487C21.2188 83.8298 20.9602 83.2048 20.7016 82.5906C20.6477 82.4613 20.5938 82.3213 20.4753 82.2458C20.3783 82.1704 20.249 82.1596 20.1197 82.1489C19.6672 82.1058 19.2146 82.1058 18.7621 82.1273" stroke="#49A84B" stroke-width="1.4123" stroke-miterlimit="10"/>
<path d="M24.7854 81.6209C24.7423 82.095 24.7853 82.5584 24.8931 82.9894C25.0008 83.4204 25.2163 83.8513 25.4318 84.1638C25.5611 84.2716 25.421 84.1746 25.6258 84.1746L26.2831 83.9806C26.7356 83.8513 27.1774 83.7113 27.6084 83.5712L27.1774 84.6164C26.7356 84.0992 26.3908 83.5281 26.1538 82.8816C26.0891 82.7307 26.0244 82.5368 26.0352 82.5045C26.0244 82.4829 26.1107 82.4937 26.0676 82.4722C26.046 82.4506 26.0245 82.4291 25.9921 82.3967C25.6797 82.2674 25.3456 82.1166 25.0224 81.9226L25.0332 81.7718C25.378 81.6209 25.7228 81.524 26.0676 81.4485C26.1969 81.4485 26.3369 81.4485 26.477 81.4701C26.6063 81.4593 26.8326 81.6102 26.9295 81.6964C27.1558 81.9226 27.2528 82.0304 27.3606 82.1705C27.8131 82.6877 28.1471 83.2695 28.3949 83.8944L28.7829 84.8642L27.964 84.9396L26.477 85.0797C26.2292 85.1012 26.0029 85.1336 25.7335 85.1443C25.5827 85.1443 25.3887 85.1551 25.1517 85.0474C24.9146 84.9396 24.7853 84.7457 24.7099 84.6056C24.4621 84.0776 24.3974 83.582 24.3759 83.0648C24.3651 82.5584 24.4513 82.0519 24.6345 81.5886L24.7854 81.6209Z" fill="#49A84B"/>
<path d="M16.1551 75.8024C16.6939 76.1365 17.2003 76.492 17.7391 76.7614C18.2563 77.0523 18.8058 77.257 19.2799 77.2678C19.7755 77.2678 19.9694 76.9769 20.4543 76.7614C20.9284 76.5351 21.5533 76.1257 22.3291 76.1472L22.4046 76.2765C22.1136 76.9338 21.8874 77.451 21.3594 77.979C21.1008 78.2268 20.7345 78.4423 20.3142 78.5285C19.8832 78.6147 19.4415 78.5716 19.0644 78.4638C18.3101 78.2483 17.7606 77.8173 17.2757 77.3756C16.8124 76.9122 16.403 76.4274 16.0366 75.9102L16.1551 75.8024Z" fill="#49A84B"/>
<path d="M16.3702 70.8353C14.1829 67.9907 12.6206 64.8444 12.8253 61.1809C13.0085 57.9592 14.3553 54.9423 16.6935 52.7119C17.0813 52.3455 16.8335 51.8068 16.4025 51.6344C15.853 51.4081 15.2389 51.6775 14.8402 52.0546C12.3081 54.4682 10.7888 57.8623 10.5841 61.3533C10.3578 65.3077 11.974 68.7449 14.3445 71.8158C14.9695 72.6024 17.0706 71.7404 16.3702 70.8353Z" fill="#D2EDD2"/>
<path d="M140.271 86.4913C140.249 84.444 139.775 82.3322 138.439 80.7806C137.125 79.2074 135.153 78.3778 133.181 77.9144C132.157 77.6774 131.166 77.3326 130.186 76.9986L128.72 76.5029C128.203 76.3413 127.697 76.0827 127.255 75.7379C126.813 75.3823 126.447 74.8975 126.285 74.3156C126.123 73.7445 126.188 73.1196 126.393 72.5916C126.587 72.0529 126.899 71.5896 127.255 71.1693C127.621 70.7383 127.944 70.4151 128.246 69.9949C128.85 69.1975 129.313 68.314 129.593 67.3658C129.884 66.4391 129.938 65.4263 130.013 64.3919C130.132 62.3555 130.067 60.2974 129.722 58.3041C129.022 54.4359 125.348 51.3758 121.426 51.3973C119.475 51.3004 117.579 51.9469 116.038 53.1213C115.273 53.7032 114.53 54.4251 113.969 55.1578C113.485 55.8366 113.15 56.7848 112.935 57.7438C112.493 59.6617 112.385 61.6982 112.472 63.6915C112.59 65.6526 112.881 67.7429 113.829 69.2622C113.937 69.4561 114.088 69.5854 114.217 69.7578C114.336 69.9087 114.627 70.1673 114.788 70.4043C115.165 70.8892 115.446 71.4818 115.575 72.0744C115.715 72.667 115.736 73.2381 115.736 73.7769C115.726 74.2833 115.78 74.9406 115.392 75.6302C114.971 76.3521 114.196 76.5783 113.711 76.7076L112.235 77.1602L109.271 78.0545C107.31 78.6256 105.317 79.2505 103.949 80.6728C102.537 82.0736 102.128 84.2178 101.858 86.2327L101.708 86.2219C101.751 84.1854 101.988 81.9335 103.431 80.2095C104.886 78.5178 107.009 77.742 108.937 77.0525L111.879 76.0073L113.355 75.4901C113.84 75.35 114.142 75.1884 114.239 74.9729C114.368 74.7466 114.379 74.3048 114.357 73.7984C114.336 73.3028 114.293 72.8287 114.185 72.4192C114.077 71.999 113.883 71.6434 113.625 71.3202C113.485 71.137 113.366 71.0616 113.15 70.8245C112.957 70.5875 112.709 70.372 112.558 70.1134C111.879 69.1113 111.577 68.0338 111.319 66.9779C111.06 65.9112 110.963 64.8445 110.888 63.767C110.802 61.6228 110.952 59.4893 111.47 57.3774C111.739 56.3215 112.095 55.2656 112.827 54.2743C113.549 53.3907 114.325 52.6796 115.23 52.0223C117.008 50.7293 119.281 50.0182 121.479 50.1798C125.919 50.2552 130.002 53.7571 130.703 58.1425C131.026 60.2436 131.048 62.3554 130.886 64.4458C130.789 65.4802 130.724 66.5577 130.38 67.6028C130.046 68.6372 129.518 69.607 128.86 70.4474C128.181 71.3202 127.373 71.9344 127.05 72.8287C126.673 73.6907 126.91 74.6712 127.653 75.2638C128.354 75.8888 129.41 76.0935 130.38 76.4922C131.349 76.8585 132.308 77.2141 133.3 77.4619C135.315 77.9791 137.351 78.895 138.687 80.5758C140.045 82.2352 140.476 84.4225 140.443 86.4913H140.271Z" fill="#49A84B"/>
<path d="M113.528 82.6554C113.582 83.0326 113.668 83.3881 113.787 83.7329C113.884 84.0346 114.131 84.5518 114.164 84.3902L115.231 84.4118L115.791 84.4225C115.866 84.4225 115.78 84.3794 115.64 84.4656C115.532 84.5518 115.543 84.5842 115.532 84.5411C115.532 84.2394 115.543 83.8299 115.457 83.5929C115.392 83.345 115.306 83.1834 115.241 83.0649C115.198 82.9571 115.112 82.8386 114.821 82.7847C114.541 82.7416 114.142 82.774 113.711 82.7955L113.636 82.6662C113.851 82.2891 114.131 81.9443 114.595 81.7396C115.037 81.5025 115.791 81.5241 116.297 81.9658C116.782 82.3753 116.976 82.9787 116.965 83.4851C116.944 84.0023 116.836 84.3579 116.728 84.7996C116.685 84.9397 116.631 85.166 116.373 85.3707C116.093 85.5862 115.791 85.5431 115.683 85.5216L115.112 85.403L114.552 85.2845C114.358 85.2307 114.218 85.2307 113.927 85.1337C113.787 85.0798 113.603 84.9505 113.528 84.7996C113.453 84.6596 113.431 84.5411 113.41 84.4441C113.366 84.2501 113.334 84.0454 113.323 83.8407C113.291 83.442 113.302 83.0433 113.377 82.6554H113.528Z" fill="#49A84B"/>
<path d="M119.724 82.2351C119.691 83.1509 119.767 84.0668 119.95 84.9611C119.971 85.0796 120.014 85.2089 120.122 85.2628C120.208 85.3059 120.305 85.2844 120.392 85.2628C121.049 85.112 121.706 84.9611 122.353 84.8103C122.417 84.7995 122.482 84.7779 122.514 84.7348C122.568 84.6702 122.568 84.5732 122.557 84.487C122.482 83.8298 122.223 83.2048 121.965 82.5906C121.911 82.4613 121.857 82.3213 121.738 82.2458C121.642 82.1704 121.512 82.1596 121.383 82.1489C120.93 82.1058 120.478 82.1058 120.025 82.1273" stroke="#49A84B" stroke-width="1.4123" stroke-miterlimit="10"/>
<path d="M126.048 81.6209C126.005 82.095 126.048 82.5584 126.156 82.9894C126.264 83.4204 126.479 83.8513 126.695 84.1638C126.824 84.2716 126.684 84.1746 126.889 84.1746L127.546 83.9806C127.998 83.8513 128.44 83.7113 128.871 83.5712L128.44 84.6164C127.998 84.0992 127.654 83.5281 127.417 82.8816C127.352 82.7307 127.287 82.5368 127.298 82.5045C127.287 82.4829 127.373 82.4937 127.33 82.4722C127.309 82.4506 127.287 82.4291 127.255 82.3967C126.942 82.2674 126.608 82.1166 126.285 81.9226L126.296 81.7718C126.641 81.6209 126.986 81.524 127.33 81.4485C127.46 81.4485 127.6 81.4485 127.74 81.4701C127.869 81.4593 128.095 81.6102 128.192 81.6964C128.419 81.9226 128.516 82.0304 128.623 82.1705C129.076 82.6877 129.41 83.2695 129.658 83.8944L130.035 84.8642L129.216 84.9396L127.729 85.0797C127.481 85.1012 127.255 85.1336 126.986 85.1443C126.835 85.1443 126.641 85.1551 126.404 85.0474C126.167 84.9396 126.037 84.7457 125.962 84.6056C125.714 84.0776 125.649 83.582 125.628 83.0648C125.617 82.5584 125.703 82.0519 125.887 81.5886L126.048 81.6209Z" fill="#49A84B"/>
<path d="M117.418 75.8024C117.957 76.1365 118.463 76.492 119.002 76.7614C119.519 77.0523 120.068 77.257 120.543 77.2678C121.038 77.2678 121.232 76.9769 121.717 76.7614C122.191 76.5351 122.816 76.1257 123.592 76.1472L123.667 76.2765C123.376 76.9338 123.15 77.451 122.622 77.979C122.364 78.2268 121.997 78.4423 121.577 78.5285C121.146 78.6147 120.704 78.5716 120.327 78.4638C119.573 78.2483 119.023 77.8173 118.538 77.3756C118.075 76.9122 117.666 76.4274 117.299 75.9102L117.418 75.8024Z" fill="#49A84B"/>
<path d="M117.633 70.8353C115.446 67.9907 113.883 64.8444 114.088 61.1809C114.271 57.9592 115.618 54.9423 117.956 52.7119C118.344 52.3455 118.096 51.8068 117.665 51.6344C117.116 51.4081 116.502 51.6775 116.103 52.0546C113.571 54.4682 112.052 57.8623 111.847 61.3533C111.621 65.3077 113.237 68.7449 115.607 71.8158C116.232 72.6024 118.333 71.7404 117.633 70.8353Z" fill="#D2EDD2"/>
</g>
</svg>
