<svg width="163" height="67" viewBox="0 0 163 67" fill="none" xmlns="http://www.w3.org/2000/svg">
<path d="M112.303 64.4053C112.129 62.5429 112.055 60.9413 111.57 59.3148C111.111 57.7131 110.354 56.1859 109.273 54.9195C107.125 52.3246 103.897 50.934 100.669 50.1642C99.0053 49.7668 97.4037 49.2081 95.8145 48.6494L93.4181 47.8299C92.5862 47.5568 91.7916 47.1595 91.0963 46.6008C90.401 46.042 89.8299 45.2722 89.6064 44.3783C89.3581 43.4843 89.4698 42.5283 89.7926 41.6964C90.1155 40.8521 90.6121 40.1072 91.1708 39.4491C91.7544 38.7787 92.3131 38.22 92.7973 37.5371C93.7906 36.221 94.5728 34.7435 95.0446 33.179C95.5412 31.6146 95.6282 29.9509 95.7523 28.2623C95.9634 24.9224 95.8641 21.5452 95.3054 18.255C94.1631 11.7863 88.0295 6.6336 81.4615 6.64602C78.1961 6.47219 74.9804 7.52755 72.373 9.47687C71.0817 10.4453 69.8525 11.6124 68.8717 12.8664C67.9901 14.0832 67.4314 15.6725 67.0713 17.2617C66.3264 20.465 66.1277 23.8298 66.2767 27.1324C66.4133 28.7838 66.5499 30.4351 66.9348 32.0244C67.3197 33.6012 67.7914 35.2029 68.6606 36.4569C68.8592 36.7921 69.1324 37.028 69.3683 37.3136C69.5918 37.5867 70.0139 37.9468 70.2871 38.3069C70.883 39.0518 71.33 39.9458 71.5535 40.8646C71.7894 41.7833 71.8391 42.6897 71.8639 43.5588C71.8639 44.3907 71.9508 45.4088 71.3797 46.4642C70.7713 47.5568 69.5918 47.9293 68.7972 48.1652L66.4009 48.9598L61.6207 50.5491C60.0066 51.0705 58.4671 51.6168 57.002 52.3245C55.5493 53.0322 54.1959 53.889 53.1902 55.0436C51.1168 57.3282 50.5828 60.6805 50.3594 63.9459L50.2104 66.1808L48.6957 64.5419C46.1131 61.7607 44.2507 58.4456 42.9595 54.9692C41.6682 51.4803 40.9108 47.8175 40.6004 44.13C40.2652 40.43 40.501 36.6928 41.2088 33.0549C41.4943 31.2173 42.0779 29.4418 42.5869 27.6539C43.2698 25.9281 43.8782 24.1526 44.7846 22.5261C45.5544 20.8251 46.6345 19.2979 47.6278 17.7211C48.1617 16.9637 48.7701 16.256 49.3412 15.5111L50.2104 14.4184C50.5208 14.0708 50.856 13.748 51.1789 13.4127L53.1282 11.4138L55.2513 9.60103L56.319 8.70708L57.4738 7.91246C58.2436 7.39098 59.0009 6.83225 59.7831 6.34802C62.9865 4.44837 66.4257 2.93362 70.0139 1.90309C73.6146 0.984302 77.327 0.351089 81.0642 0.413169C81.9954 0.351089 82.9266 0.487661 83.8578 0.524909C84.789 0.599405 85.7202 0.624244 86.639 0.8229L89.3953 1.29471L92.0897 2.01485C92.996 2.22592 93.8651 2.56114 94.7342 2.89637C95.5909 3.24402 96.4849 3.51717 97.3167 3.93931L99.8124 5.18092C100.657 5.56581 101.402 6.13696 102.196 6.60877C103.81 7.53997 105.213 8.75674 106.691 9.8866C107.411 10.4701 108.044 11.153 108.727 11.7862L109.733 12.7423C110.056 13.0775 110.341 13.4376 110.652 13.7852C113.184 16.4919 115.134 19.6953 116.785 22.9855C118.436 26.3006 119.454 29.8764 120.187 33.4646C120.87 37.0901 120.944 40.7901 120.671 44.4404C120.311 48.0907 119.368 51.6541 118.052 55.0561C117.294 56.7198 116.574 58.396 115.568 59.9232C114.749 61.4876 113.371 63.0272 112.303 64.4053ZM112.377 64.1694L113.805 61.947C114.289 61.2765 114.724 60.4694 115.146 59.6748C116.065 58.1352 116.698 56.4467 117.381 54.7953C118.536 51.4058 119.306 47.9044 119.504 44.341C119.666 40.7901 119.479 37.2142 118.734 33.7378C117.94 30.2861 116.86 26.8841 115.183 23.7677C111.93 17.51 107.088 12.0594 101.042 8.44633C95.0819 4.70911 88.042 2.87155 81.0642 2.88396C77.5629 2.84672 74.0864 3.4551 70.7092 4.33664C67.3445 5.30508 64.1536 6.77017 61.1241 8.52083C60.3791 8.98022 59.6714 9.5017 58.9513 9.98593L57.871 10.7185L56.8653 11.5627L54.854 13.2513L53.0164 15.1262C52.7184 15.4366 52.3956 15.7345 52.0976 16.0698L51.2781 17.0879C50.7442 17.7708 50.1607 18.4288 49.6516 19.1489C48.7204 20.6264 47.6775 22.0419 46.945 23.6311C46.0634 25.1459 45.4923 26.8096 44.8219 28.4237C44.3376 30.0999 43.7416 31.7636 43.4685 33.5019C42.7608 36.9287 42.5 40.4797 42.7732 43.981C43.0215 47.4823 43.7044 50.9712 44.8839 54.2739C46.0634 57.5765 47.7892 60.6929 50.1235 63.2382L48.4473 63.8342C48.5839 62.1084 48.7949 60.3701 49.2792 58.6443C49.7386 56.9185 50.5953 55.2175 51.8369 53.8393C53.0661 52.4363 54.6554 51.4803 56.2322 50.7229C57.8214 49.9655 59.4851 49.4068 61.0868 48.9101L65.9291 47.3457L68.3502 46.5635C69.1448 46.34 69.716 46.0917 69.9519 45.6571C70.225 45.2102 70.2498 44.4528 70.2374 43.6209C70.225 42.8015 70.1753 42.0192 69.9891 41.2867C69.8153 40.5542 69.5048 39.9085 69.0454 39.325C68.8095 39.0146 68.5737 38.8283 68.2509 38.4558C67.9529 38.0834 67.5928 37.7481 67.3569 37.3508C66.3139 35.7988 65.8546 34.073 65.4448 32.372C65.0475 30.671 64.9109 28.9452 64.7868 27.2193C64.6626 23.7801 64.8862 20.3285 65.7056 16.9513C66.1153 15.2752 66.6864 13.5742 67.8038 12.0594C68.9213 10.6688 70.1878 9.5017 71.5908 8.44633C74.4092 6.36044 77.9974 5.21817 81.4988 5.45407C88.5883 5.5534 95.1191 11.1282 96.249 18.106C96.7829 21.4956 96.8326 24.9224 96.5842 28.3244C96.4353 30.0005 96.3235 31.7388 95.7772 33.4149C95.2557 35.0787 94.4114 36.6183 93.356 37.9841C92.847 38.6669 92.2014 39.3125 91.6799 39.9085C91.146 40.5293 90.6866 41.1998 90.401 41.9447C90.1154 42.6773 90.0162 43.4843 90.2148 44.2293C90.4011 44.9743 90.8728 45.6447 91.4812 46.1414C92.698 47.1843 94.4238 47.5071 95.9882 48.1403C97.5775 48.7239 99.1544 49.295 100.781 49.7048C104.046 50.5366 107.361 52.0017 109.559 54.7084C110.652 56.0369 111.409 57.6138 111.868 59.2527C112.278 60.8668 112.539 62.6547 112.377 64.1694Z" fill="#018403" fill-opacity="0.7"/>
<path d="M68.5861 58.0235C68.673 58.6318 68.8096 59.2278 69.0083 59.7865C69.1697 60.2832 69.567 61.115 69.6166 60.8667L71.3549 60.8791L72.2737 60.904C72.3978 60.904 72.2488 60.8419 72.0253 60.9785C71.8515 61.1274 71.8639 61.1895 71.8639 61.1026C71.8888 60.606 71.8764 59.9355 71.7522 59.5506C71.6405 59.1533 71.5039 58.8802 71.4045 58.6815C71.33 58.5201 71.2059 58.309 70.7217 58.2221C70.2499 58.1476 69.6166 58.2221 68.9213 58.2469L68.7848 58.0359C69.1324 57.4151 69.6042 56.8688 70.3492 56.5211C70.7217 56.3349 71.181 56.248 71.6901 56.2852C72.1991 56.3224 72.7206 56.5584 73.118 56.8936C73.9126 57.5641 74.223 58.5449 74.1981 59.3644C74.1609 60.2211 73.9747 60.7798 73.8132 61.5124C73.7387 61.7358 73.6519 62.1083 73.2297 62.456C72.7703 62.8036 72.2737 62.7415 72.0998 62.7167L71.1686 62.5305L70.2623 62.3194C69.9395 62.2325 69.716 62.2201 69.2317 62.0587C69.0082 61.9842 68.7102 61.7483 68.5861 61.5124C68.4619 61.2764 68.4247 61.0902 68.3999 60.9412C68.3378 60.6184 68.2882 60.2956 68.2633 59.9603C68.2012 59.3147 68.2384 58.6567 68.3502 58.0359L68.5861 58.0235Z" fill="#018403" fill-opacity="0.7"/>
<path d="M78.6807 57.3406C78.6186 58.8305 78.7553 60.3328 79.0532 61.7855C79.0905 61.9717 79.1525 62.1952 79.3264 62.2821C79.4629 62.3442 79.6243 62.3194 79.7609 62.2821C80.8287 62.0338 81.8965 61.7855 82.9642 61.5496C83.0636 61.5248 83.1629 61.4999 83.2374 61.4254C83.3368 61.3261 83.3243 61.1647 83.3119 61.0281C83.1878 59.9604 82.7656 58.9422 82.3434 57.9365C82.2565 57.7255 82.1572 57.502 81.971 57.3778C81.8096 57.2661 81.5985 57.2412 81.3998 57.2164C80.6673 57.1543 79.9223 57.1419 79.1774 57.1792" stroke="#49A84B" stroke-width="2" stroke-miterlimit="10"/>
<path d="M88.9981 56.3474C88.9361 57.1172 88.9982 57.8746 89.1844 58.5823C89.3582 59.2776 89.7059 59.9853 90.066 60.4944C90.1529 60.5937 90.2025 60.5937 90.1777 60.5565C90.1653 60.5316 90.2398 60.5316 90.3764 60.4944L91.4566 60.184C92.1891 59.9729 92.9092 59.7743 93.6294 59.5259L92.9216 61.2269C92.2015 60.3826 91.6428 59.439 91.2454 58.3961C91.1337 58.1478 91.0344 57.8374 91.0468 57.7877C91.0468 57.7505 91.1089 57.7629 91.1586 57.738C91.1834 57.7008 91.1089 57.6511 90.9847 57.6014C90.4509 57.3904 89.9169 57.1545 89.3955 56.8193L89.4203 56.5709C89.9915 56.3226 90.5502 56.1736 91.1089 56.037C91.2579 56.0122 91.4565 55.9874 91.7421 56.037C92.0401 56.0991 92.3381 56.2729 92.5119 56.4468C92.8844 56.8192 93.0334 57.0055 93.2072 57.2166C93.9273 58.0608 94.486 59.0045 94.8958 60.035L95.529 61.6615L94.188 61.7484C93.3686 61.7981 92.5616 61.8974 91.767 61.9843C91.3572 62.0215 90.9847 62.0836 90.5501 62.1085C90.3142 62.1085 89.9791 62.1209 89.5942 61.9471C89.2093 61.7608 88.9858 61.4504 88.874 61.2145C88.4891 60.3454 88.365 59.5384 88.3401 58.6941C88.3277 57.8622 88.4643 57.0303 88.7499 56.2854L88.9981 56.3474Z" fill="#018403" fill-opacity="0.7"/>
<path d="M74.9185 46.8491C75.8001 47.3954 76.6319 47.9789 77.5134 48.4135C78.3701 48.8604 79.2641 49.2081 80.0339 49.2329C80.8534 49.2453 81.1638 48.7611 81.9584 48.4011C82.7282 48.041 83.7463 47.3705 85.0252 47.4078L85.1493 47.6188C84.6775 48.699 84.2926 49.5309 83.4483 50.3876C83.0386 50.7973 82.4426 51.1574 81.7473 51.294C81.052 51.4306 80.3195 51.3561 79.7111 51.1947C78.4695 50.8594 77.5631 50.1517 76.7933 49.4192C76.036 48.6618 75.3779 47.8672 74.7695 47.0353L74.9185 46.8491Z" fill="#018403" fill-opacity="0.7"/>
<path d="M108.503 20.254C115.32 30.4972 116.835 43.7575 112.638 55.3044C112.228 56.4219 115.804 55.9749 116.226 54.8202C120.547 42.9132 118.846 29.3922 111.843 18.8634C111.223 17.9322 107.721 19.0869 108.503 20.254Z" fill="#D2EDD2"/>
<path d="M75.2779 38.729C71.7145 34.0855 69.1568 28.9576 69.5045 22.9731C69.8025 17.7211 72.0001 12.792 75.8118 9.1541C76.445 8.54571 76.0477 7.67659 75.34 7.39102C74.446 7.03096 73.4403 7.45309 72.7947 8.07389C68.6726 12.0098 66.177 17.5473 65.8542 23.2463C65.4941 29.7026 68.1263 35.3022 71.9877 40.3307C72.9934 41.6344 76.4202 40.2065 75.2779 38.729Z" fill="#D2EDD2"/>
<path d="M45.2812 52.0017C45.2564 49.6427 44.7101 47.2091 43.1705 45.4212C41.6557 43.6085 39.3836 42.6525 37.1115 42.1186C35.9319 41.8454 34.7896 41.4481 33.6598 41.0632L31.9712 40.4921C31.3752 40.3058 30.7917 40.0079 30.2826 39.6105C29.7736 39.2008 29.3514 38.6421 29.1652 37.9716C28.9789 37.3136 29.0535 36.5935 29.2894 35.9851C29.5129 35.3643 29.8729 34.8304 30.2826 34.3461C30.7048 33.8495 31.0772 33.477 31.4249 32.9928C32.1202 32.074 32.6541 31.0559 32.9769 29.9633C33.3121 28.8955 33.3742 27.7284 33.4611 26.5365C33.5977 24.1898 33.5232 21.8184 33.1259 19.5214C32.3188 15.0641 28.085 11.5379 23.5656 11.5627C21.3183 11.451 19.1331 12.196 17.3576 13.5493C16.4761 14.2198 15.6193 15.0517 14.9737 15.8959C14.415 16.6781 14.0301 17.7708 13.7818 18.8758C13.2727 21.0858 13.1486 23.4325 13.2479 25.7294C13.3845 27.9891 13.7196 30.3978 14.8123 32.1485C14.9364 32.372 15.1103 32.521 15.2593 32.7196C15.3959 32.8935 15.7311 33.1915 15.9173 33.4646C16.3519 34.0233 16.6747 34.7062 16.8236 35.3891C16.9851 36.072 17.0099 36.73 17.0099 37.3508C16.9975 37.9344 17.0596 38.6917 16.6126 39.4864C16.1284 40.3182 15.2344 40.579 14.6757 40.728L12.9747 41.2494L9.56031 42.28C7.30059 42.938 5.00363 43.6582 3.42679 45.2971C1.80029 46.9112 1.32848 49.3819 1.01808 51.7037L0.844238 51.6913C0.893902 49.3447 1.1671 46.7497 2.83085 44.7632C4.50701 42.8139 6.95295 41.9199 9.17541 41.1253L12.565 39.9209L14.266 39.325C14.8247 39.1636 15.1723 38.9773 15.2841 38.729C15.4331 38.4683 15.4455 37.9592 15.4207 37.3757C15.3959 36.8045 15.3462 36.2582 15.222 35.7864C15.0978 35.3022 14.8743 34.8924 14.5764 34.52C14.4149 34.3089 14.2784 34.222 14.03 33.9488C13.8066 33.6757 13.521 33.4274 13.3472 33.1294C12.565 31.9747 12.2174 30.7331 11.9194 29.5163C11.6214 28.2871 11.5096 27.0579 11.4227 25.8163C11.3234 23.3456 11.4972 20.8872 12.0931 18.4536C12.4035 17.2369 12.8133 16.0201 13.6576 14.8778C14.4895 13.8597 15.3835 13.0403 16.4264 12.2829C18.475 10.793 21.0948 9.97351 23.6277 10.1597C28.7431 10.2467 33.4487 14.2819 34.2558 19.3352C34.6283 21.7563 34.6531 24.1898 34.4668 26.5985C34.3551 27.7905 34.2806 29.0321 33.8833 30.2364C33.4984 31.4284 32.89 32.5458 32.1326 33.5143C31.3504 34.52 30.4192 35.2277 30.0467 36.2582C29.6122 37.2515 29.8853 38.3814 30.742 39.0642C31.5491 39.7844 32.7659 40.0203 33.8833 40.4797C35.0008 40.9018 36.1057 41.3115 37.248 41.5971C39.5698 42.1931 41.9164 43.2484 43.456 45.1853C45.0204 47.0974 45.5171 49.6178 45.4798 52.0017H45.2812Z" fill="#49A84B"/>
<path d="M14.4647 47.5817C14.5268 48.0163 14.6261 48.426 14.7627 48.8233C14.8744 49.171 15.1599 49.7669 15.1972 49.5807L16.4264 49.6055L17.072 49.6179C17.1589 49.6179 17.0596 49.5683 16.8982 49.6676C16.774 49.7669 16.7865 49.8042 16.7741 49.7545C16.7741 49.4069 16.7865 48.935 16.6871 48.6619C16.6126 48.3763 16.5133 48.1901 16.4388 48.0535C16.3891 47.9294 16.2899 47.7928 15.9546 47.7307C15.6318 47.681 15.1724 47.7183 14.6757 47.7431L14.5888 47.5941C14.8371 47.1595 15.16 46.7622 15.6939 46.5263C16.2029 46.2532 17.0721 46.278 17.6556 46.7871C18.2143 47.2589 18.4378 47.9542 18.4254 48.5377C18.4006 49.1337 18.2764 49.5434 18.1522 50.0525C18.1026 50.2139 18.0405 50.4746 17.7425 50.7105C17.4197 50.9589 17.0721 50.9092 16.9479 50.8844L16.2898 50.7478L15.6442 50.6112C15.4207 50.5491 15.2593 50.5491 14.9241 50.4374C14.7627 50.3753 14.5516 50.2263 14.4647 50.0525C14.3778 49.8911 14.353 49.7545 14.3281 49.6428C14.2785 49.4193 14.2412 49.1834 14.2288 48.9475C14.1915 48.4881 14.2039 48.0287 14.2909 47.5817H14.4647Z" fill="#49A84B"/>
<path d="M21.6036 47.0973C21.5664 48.1527 21.6532 49.208 21.8643 50.2386C21.8891 50.3752 21.9388 50.5241 22.063 50.5862C22.1623 50.6359 22.2741 50.6111 22.3734 50.5862C23.1308 50.4124 23.8881 50.2386 24.6331 50.0648C24.7076 50.0523 24.7821 50.0275 24.8193 49.9778C24.8814 49.9033 24.8814 49.7916 24.869 49.6923C24.7821 48.9349 24.4841 48.2148 24.1862 47.5071C24.1241 47.3581 24.062 47.1966 23.9254 47.1097C23.8136 47.0228 23.6646 47.0104 23.5156 46.998C22.9942 46.9483 22.4727 46.9483 21.9512 46.9732" stroke="#49A84B" stroke-width="1.4123" stroke-miterlimit="10"/>
<path d="M28.8918 46.3896C28.8421 46.9359 28.8918 47.4698 29.0159 47.9664C29.1401 48.463 29.3884 48.9597 29.6367 49.3197C29.7857 49.4439 29.6243 49.3322 29.8602 49.3322L30.6176 49.1087C31.1391 48.9597 31.6481 48.7983 32.1448 48.6369L31.6481 49.8412C31.1391 49.2452 30.7418 48.5872 30.4687 47.8422C30.3942 47.6684 30.3196 47.4449 30.332 47.4077C30.3196 47.3829 30.419 47.3953 30.3693 47.3704C30.3445 47.3456 30.3196 47.3208 30.2824 47.2835C29.9223 47.1345 29.5374 46.9607 29.1649 46.7372L29.1773 46.5634C29.5747 46.3896 29.972 46.2778 30.3693 46.1909C30.5183 46.1909 30.6797 46.1909 30.8411 46.2157C30.9901 46.2033 31.2508 46.3772 31.3626 46.4765C31.6233 46.7372 31.7351 46.8614 31.8592 47.0228C32.3807 47.6188 32.7656 48.2892 33.0511 49.0093L33.4982 50.1268L32.5545 50.2137L30.8411 50.3751C30.5556 50.3999 30.2948 50.4372 29.9844 50.4496C29.8106 50.4496 29.587 50.462 29.3139 50.3379C29.0407 50.2137 28.8918 49.9902 28.8049 49.8288C28.5193 49.2204 28.4448 48.6493 28.42 48.0533C28.4076 47.4698 28.5069 46.8862 28.718 46.3523L28.8918 46.3896Z" fill="#49A84B"/>
<path d="M18.9471 39.6849C19.5679 40.0698 20.1515 40.4796 20.7723 40.79C21.3683 41.1252 22.0015 41.3611 22.5478 41.3735C23.1189 41.3735 23.3424 41.0383 23.9011 40.79C24.4474 40.5292 25.1675 40.0574 26.0615 40.0822L26.1484 40.2312C25.8131 40.9886 25.5524 41.5846 24.9441 42.193C24.6461 42.4785 24.2239 42.7269 23.7397 42.8262C23.243 42.9255 22.734 42.8759 22.2994 42.7517C21.4303 42.5034 20.7971 42.0067 20.2383 41.4977C19.7045 40.9638 19.2327 40.4051 18.8105 39.8091L18.9471 39.6849Z" fill="#49A84B"/>
<path d="M19.1951 33.9612C16.6747 30.6834 14.8744 27.0579 15.1103 22.8365C15.3214 19.1241 16.8733 15.6476 19.5676 13.0775C20.0146 12.6553 19.729 12.0345 19.2323 11.8359C18.5991 11.5751 17.8915 11.8855 17.4321 12.3201C14.5143 15.1013 12.7636 19.0123 12.5277 23.0351C12.267 27.5918 14.1294 31.5525 16.8609 35.0911C17.581 35.9975 20.0022 35.0042 19.1951 33.9612Z" fill="#D2EDD2"/>
<path d="M161.967 52.0017C161.942 49.6427 161.396 47.2091 159.856 45.4212C158.341 43.6085 156.069 42.6525 153.797 42.1186C152.617 41.8454 151.475 41.4481 150.345 41.0632L148.657 40.4921C148.061 40.3058 147.477 40.0079 146.968 39.6105C146.459 39.2008 146.037 38.6421 145.851 37.9716C145.664 37.3136 145.739 36.5935 145.975 35.9851C146.198 35.3643 146.558 34.8304 146.968 34.3461C147.39 33.8495 147.763 33.477 148.11 32.9928C148.806 32.074 149.34 31.0559 149.662 29.9633C149.998 28.8955 150.06 27.7284 150.147 26.5365C150.283 24.1898 150.209 21.8184 149.811 19.5214C149.004 15.0641 144.771 11.5379 140.251 11.5627C138.004 11.451 135.819 12.196 134.043 13.5493C133.162 14.2198 132.305 15.0517 131.659 15.8959C131.1 16.6781 130.716 17.7708 130.467 18.8758C129.958 21.0858 129.834 23.4325 129.933 25.7294C130.07 27.9891 130.405 30.3978 131.498 32.1485C131.622 32.372 131.796 32.521 131.945 32.7196C132.081 32.8935 132.417 33.1915 132.603 33.4646C133.037 34.0233 133.36 34.7062 133.509 35.3891C133.671 36.072 133.695 36.73 133.695 37.3508C133.683 37.9344 133.745 38.6917 133.298 39.4864C132.814 40.3182 131.92 40.579 131.361 40.728L129.66 41.2494L126.246 42.28C123.986 42.938 121.689 43.6582 120.112 45.2971C118.486 46.9112 118.014 49.3819 117.704 51.7037L117.53 51.6913C117.579 49.3447 117.853 46.7497 119.516 44.7632C121.192 42.8139 123.638 41.9199 125.861 41.1253L129.251 39.9209L130.951 39.325C131.51 39.1636 131.858 38.9773 131.97 38.729C132.119 38.4683 132.131 37.9592 132.106 37.3757C132.081 36.8045 132.032 36.2582 131.907 35.7864C131.783 35.3022 131.56 34.8924 131.262 34.52C131.1 34.3089 130.964 34.222 130.716 33.9488C130.492 33.6757 130.207 33.4274 130.033 33.1294C129.251 31.9747 128.903 30.7331 128.605 29.5163C128.307 28.2871 128.195 27.0579 128.108 25.8163C128.009 23.3456 128.183 20.8872 128.779 18.4536C129.089 17.2369 129.499 16.0201 130.343 14.8778C131.175 13.8597 132.069 13.0403 133.112 12.2829C135.161 10.793 137.78 9.97351 140.313 10.1597C145.429 10.2467 150.134 14.2819 150.941 19.3352C151.314 21.7563 151.339 24.1898 151.152 26.5985C151.041 27.7905 150.966 29.0321 150.569 30.2364C150.184 31.4284 149.575 32.5458 148.818 33.5143C148.036 34.52 147.105 35.2277 146.732 36.2582C146.298 37.2515 146.571 38.3814 147.428 39.0642C148.235 39.7844 149.451 40.0203 150.569 40.4797C151.686 40.9018 152.791 41.3115 153.934 41.5971C156.255 42.1931 158.602 43.2484 160.142 45.1853C161.706 47.0974 162.203 49.6178 162.165 52.0017H161.967Z" fill="#49A84B"/>
<path d="M131.151 47.5817C131.213 48.0163 131.312 48.426 131.449 48.8233C131.56 49.171 131.846 49.7669 131.883 49.5807L133.112 49.6055L133.758 49.6179C133.845 49.6179 133.746 49.5683 133.584 49.6676C133.46 49.7669 133.473 49.8042 133.46 49.7545C133.46 49.4069 133.473 48.935 133.373 48.6619C133.299 48.3763 133.199 48.1901 133.125 48.0535C133.075 47.9294 132.976 47.7928 132.641 47.7307C132.318 47.681 131.858 47.7183 131.362 47.7431L131.275 47.5941C131.523 47.1595 131.846 46.7622 132.38 46.5263C132.889 46.2532 133.758 46.278 134.342 46.7871C134.9 47.2589 135.124 47.9542 135.111 48.5377C135.087 49.1337 134.962 49.5434 134.838 50.0525C134.789 50.2139 134.727 50.4746 134.429 50.7105C134.106 50.9589 133.758 50.9092 133.634 50.8844L132.976 50.7478L132.33 50.6112C132.107 50.5491 131.945 50.5491 131.61 50.4374C131.449 50.3753 131.238 50.2263 131.151 50.0525C131.064 49.8911 131.039 49.7545 131.014 49.6428C130.965 49.4193 130.927 49.1834 130.915 48.9475C130.878 48.4881 130.89 48.0287 130.977 47.5817H131.151Z" fill="#49A84B"/>
<path d="M138.29 47.0973C138.252 48.1527 138.339 49.208 138.55 50.2386C138.575 50.3752 138.625 50.5241 138.749 50.5862C138.848 50.6359 138.96 50.6111 139.059 50.5862C139.817 50.4124 140.574 50.2386 141.319 50.0648C141.394 50.0523 141.468 50.0275 141.505 49.9778C141.567 49.9033 141.567 49.7916 141.555 49.6923C141.468 48.9349 141.17 48.2148 140.872 47.5071C140.81 47.3581 140.748 47.1966 140.611 47.1097C140.5 47.0228 140.351 47.0104 140.202 46.998C139.68 46.9483 139.159 46.9483 138.637 46.9732" stroke="#49A84B" stroke-width="1.4123" stroke-miterlimit="10"/>
<path d="M145.578 46.3896C145.528 46.9359 145.578 47.4698 145.702 47.9664C145.826 48.463 146.074 48.9597 146.323 49.3197C146.472 49.4439 146.31 49.3322 146.546 49.3322L147.303 49.1087C147.825 48.9597 148.334 48.7983 148.831 48.6369L148.334 49.8412C147.825 49.2452 147.428 48.5872 147.154 47.8422C147.08 47.6684 147.005 47.4449 147.018 47.4077C147.005 47.3829 147.105 47.3953 147.055 47.3704C147.03 47.3456 147.005 47.3208 146.968 47.2835C146.608 47.1345 146.223 46.9607 145.851 46.7372L145.863 46.5634C146.26 46.3896 146.658 46.2778 147.055 46.1909C147.204 46.1909 147.365 46.1909 147.527 46.2157C147.676 46.2033 147.937 46.3772 148.048 46.4765C148.309 46.7372 148.421 46.8614 148.545 47.0228C149.066 47.6188 149.451 48.2892 149.737 49.0093L150.172 50.1268L149.228 50.2137L147.514 50.3751C147.229 50.3999 146.968 50.4372 146.658 50.4496C146.484 50.4496 146.26 50.462 145.987 50.3379C145.714 50.2137 145.565 49.9902 145.478 49.8288C145.193 49.2204 145.118 48.6493 145.093 48.0533C145.081 47.4698 145.18 46.8862 145.391 46.3523L145.578 46.3896Z" fill="#49A84B"/>
<path d="M135.633 39.6849C136.253 40.0698 136.837 40.4796 137.458 40.79C138.054 41.1252 138.687 41.3611 139.233 41.3735C139.804 41.3735 140.028 41.0383 140.587 40.79C141.133 40.5292 141.853 40.0574 142.747 40.0822L142.834 40.2312C142.499 40.9886 142.238 41.5846 141.63 42.193C141.332 42.4785 140.91 42.7269 140.425 42.8262C139.929 42.9255 139.42 42.8759 138.985 42.7517C138.116 42.5034 137.483 42.0067 136.924 41.4977C136.39 40.9638 135.918 40.4051 135.496 39.8091L135.633 39.6849Z" fill="#49A84B"/>
<path d="M135.88 33.9612C133.36 30.6834 131.559 27.0579 131.795 22.8365C132.006 19.1241 133.558 15.6476 136.253 13.0775C136.7 12.6553 136.414 12.0345 135.917 11.8359C135.284 11.5751 134.577 11.8855 134.117 12.3201C131.199 15.1013 129.449 19.0123 129.213 23.0351C128.952 27.5918 130.814 31.5525 133.546 35.0911C134.266 35.9975 136.687 35.0042 135.88 33.9612Z" fill="#D2EDD2"/>
</svg>
