<svg width="89" height="119" viewBox="0 0 89 119" fill="none" xmlns="http://www.w3.org/2000/svg">
<path d="M3.63306 114.258C2.75515 112.337 3.36908 109.458 3.39977 107.45C3.48572 100.961 3.21559 76.0659 2.87793 69.5889C3.63306 68.2137 3.60851 65.5186 4.86092 66.372C6.65973 69.5644 5.47485 93.9926 6.08878 97.6823C6.70271 101.366 7.33506 106.345 6.70271 110.575C6.37119 111.269 6.13176 112.656 5.47485 113.031C4.72586 113.245 4.46187 114.191 3.63306 114.258Z" fill="#CACFE5"/>
<path d="M6.41357 0.798168C7.53706 0.0982885 8.82018 0.0369015 10.0603 0.0369015C32.3214 0.0123444 54.5763 0.0184784 76.8374 0.0123391C78.7529 0.0123391 80.6622 5.82905e-05 82.4548 0.835002C83.0381 1.10513 83.7318 1.20949 84.0633 1.8664C82.9521 2.1795 82.1172 1.25247 81.0858 1.19722C80.4903 1.03146 79.9009 0.90867 79.2747 0.90867C55.7858 0.91481 32.303 0.908676 8.81404 0.914816C8.636 0.914816 8.4641 0.927087 8.2922 0.945504C7.93612 1.01918 7.61687 1.22792 7.24238 1.2402C6.95997 1.2402 6.72054 1.14197 6.51794 0.95165C6.48111 0.908675 6.44427 0.853421 6.41357 0.798168Z" fill="#00254D"/>
<path d="M1.62543 6.59983C1.7605 5.55001 2.5586 4.77644 2.77348 3.76346L2.7612 3.75734C3.87241 2.42511 5.21078 1.43668 6.94206 1.06832C7.2613 1.16041 7.48846 0.95168 7.74017 0.822755C8.14536 0.577184 8.59967 0.693817 9.02328 0.693817C31.3089 0.687677 53.6007 0.687677 75.8863 0.693817C76.4511 0.822742 76.2056 1.08673 75.9538 1.27091C75.4259 1.66383 74.8181 1.81117 74.1612 1.79275C69.0778 1.62699 63.9884 1.7375 58.905 1.73136C52.9008 1.72522 46.8966 1.76205 40.8923 1.73136C33.0893 1.69452 25.2801 1.69452 17.4771 1.74978C15.0643 1.76819 12.6516 1.74364 10.245 1.73136C8.43391 1.72522 6.76402 1.98307 5.24148 2.98378C5.12483 3.10656 4.98977 3.2048 4.84856 3.29689C3.105 5.00975 2.31303 6.99887 2.31917 9.52212C2.33145 22.8075 2.3069 36.0868 2.32531 49.3723C2.33145 56.0334 2.135 62.7007 2.36829 69.3618C2.52177 73.6961 2.01221 78.0243 2.34987 82.3341C2.7612 87.6323 2.43582 92.9305 2.59544 98.2288C2.64455 99.7697 2.16569 101.298 2.35601 102.809C2.69981 105.608 2.50335 108.408 2.60158 111.207C2.62614 111.907 2.54633 112.607 2.60158 113.307C2.62614 113.442 2.66297 113.583 2.71823 113.706C3.23393 114.694 4.14254 115.351 4.81172 116.217C5.29673 116.843 5.79401 116.591 6.22376 116.088C6.90522 115.29 7.58668 114.473 8.42777 113.841C9.52056 113.018 10.5949 113.479 10.8896 114.836C10.7668 114.903 10.6563 114.897 10.5458 114.805C9.83367 114.093 9.18904 114.056 8.50758 114.897C7.86295 115.695 7.12624 116.426 6.4325 117.187C5.75104 117.924 5.27831 117.672 4.53546 117.076C2.27006 115.253 1.49037 113.061 1.63771 110.133C1.871 105.375 1.66841 100.592 1.64999 95.8221C1.66227 88.105 1.68068 80.3941 1.67455 72.677C1.66841 59.8336 1.64999 46.9963 1.62543 34.153C1.62543 33.4654 1.79733 32.7471 1.44739 32.0902C1.45353 25.0361 1.45353 17.9821 1.45967 10.928C1.45353 9.47301 1.386 8.03028 1.62543 6.59983Z" fill="#CACFE5"/>
<path d="M62.208 117.887C60.9249 117.383 60.2557 116.205 59.384 115.265C58.0886 113.866 57.929 113.841 56.6397 115.185C56.0074 115.849 55.3382 116.481 54.7427 117.175C54.1656 117.85 53.699 117.967 53.0973 117.181C52.6246 116.561 52.0291 116.033 51.4766 115.474C49.8067 113.78 50.1812 113.872 48.3148 115.087C48.2903 113.945 49.4936 113.172 50.6171 113.614C50.9854 113.761 51.2924 114.007 51.5809 114.277C51.8511 114.535 52.1028 114.805 52.3176 115.112C52.5202 115.406 52.8395 115.578 53.0912 115.824C53.6928 116.413 54.2331 116.297 54.7856 115.726C55.3075 115.192 55.8109 114.645 56.3512 114.129C57.3703 113.147 58.6104 113.135 59.6234 114.123C60.1268 114.614 60.6487 115.087 61.0723 115.646C61.723 116.512 62.3308 116.407 63 115.677C63.442 115.192 63.9086 114.725 64.3752 114.258C65.5417 113.098 66.616 113.104 67.7948 114.277C68.157 114.639 68.4394 115.1 69.0104 115.351C69.3112 114.891 69.2375 114.4 69.2375 113.945C69.2437 107.72 69.2498 101.489 69.2375 95.2635C69.2191 86.8035 69.3296 78.3436 69.2252 69.8898C69.1147 60.644 69.3665 51.3982 69.2375 42.1524C69.1761 37.726 69.3419 33.2996 69.2252 28.8793C69.1516 25.9877 69.1639 23.1145 69.4954 20.2413C69.4831 20.0203 69.4831 19.7993 69.4954 19.5783C69.5568 19.0135 69.4647 18.4364 69.6489 17.8777C69.7041 17.7426 69.8023 17.6383 69.9313 17.5707C70.0049 17.5769 70.0725 17.5891 70.1461 17.5953C70.1953 17.6505 70.2382 17.7058 70.2873 17.7549C70.4838 18.154 70.4654 18.5898 70.4777 19.0135C70.4777 19.5844 70.5268 20.1554 70.3794 20.7141C70.318 20.843 70.2444 20.9658 70.1584 21.0824C70.14 23.71 70.1093 26.3438 70.1093 28.9714C70.1032 57.869 70.1032 86.7667 70.1032 115.664C70.1032 116.266 70.1032 116.868 70.1032 117.721C68.7955 116.935 68.0219 115.941 67.2116 115.026C66.3889 114.093 65.7443 113.97 64.897 114.995C64.056 116.02 63.1044 116.935 62.208 117.887Z" fill="#CACFE5"/>
<path d="M10.5396 114.793C10.6562 114.78 10.779 114.768 10.8956 114.756C11.4482 114.866 11.7429 115.327 12.1051 115.677C13.3207 116.855 13.3145 116.862 14.616 115.867C14.9721 115.652 15.2484 115.351 15.4633 114.995C17.0595 113.086 17.8883 113.037 19.6257 114.743C21.6946 116.769 21.6946 116.769 23.739 114.756C25.5071 113.012 26.1518 113.043 27.7418 114.909C28.3067 115.572 28.9513 116.168 29.5038 116.849C29.7126 117.058 30.0257 117.138 30.1791 117.414C29.6082 118.261 29.2091 117.586 28.8531 117.224C28.055 116.419 27.2937 115.572 26.5385 114.725C25.9369 114.05 25.3844 114.056 24.7827 114.719C23.9907 115.597 23.1435 116.419 22.3822 117.322C21.8358 117.967 21.4307 117.887 20.9027 117.31C20.08 116.401 19.2082 115.542 18.361 114.657C17.8392 114.111 17.3419 113.976 16.8876 114.731C15.8991 115.677 14.8616 116.579 14.0696 117.703C13.5662 117.991 13.2224 117.758 12.8541 117.396C12.2217 116.769 11.706 116.02 10.9325 115.548C10.7974 115.296 10.6685 115.044 10.5396 114.793Z" fill="#CACFE5"/>
<path d="M43.8082 115.284C44.1459 115.67 44.4897 116.051 44.8274 116.438C45.7237 117.457 46.1841 117.445 47.0437 116.334C47.3813 115.891 47.5839 115.314 48.2654 115.284C47.8663 116.229 46.9577 116.776 46.4113 117.604C46.3192 117.684 46.2271 117.758 46.1289 117.838C44.9501 118.01 44.6432 116.825 43.8696 116.364C43.7039 116.266 43.6793 115.984 43.5442 115.812C43.3662 115.646 43.1882 115.48 43.0101 115.314C42.0033 113.958 41.8314 113.933 40.8798 114.977C40.0694 115.769 39.2406 116.53 38.4671 117.359C37.9943 117.868 37.6137 118.04 37.1041 117.42C36.3613 116.518 35.3422 115.861 34.7773 114.799C34.8694 114.707 34.9738 114.664 35.1027 114.67C35.8026 114.977 36.2446 115.591 36.7481 116.112C37.3743 116.769 37.8654 116.702 38.4978 116.1C39.3695 115.271 40.0387 114.209 41.2113 113.73C41.5306 113.663 41.8498 113.663 42.1691 113.724C42.9242 114.019 43.5074 114.504 43.8082 115.284Z" fill="#CACFE5"/>
<path d="M35.1087 114.762C34.9982 114.774 34.8877 114.78 34.771 114.793C34.0589 114.037 33.3958 114.019 32.7144 114.866C32.2294 115.474 31.6768 116.027 31.1611 116.604C30.8296 116.874 30.5042 117.144 30.1727 117.408C29.8719 117.365 29.5219 117.445 29.3193 117.113C30.3814 116.149 31.2471 114.977 32.3583 114.062C33.3529 113.239 34.3413 113.258 35.035 114.05C35.2192 114.271 35.3051 114.504 35.1087 114.762Z" fill="#CACFE5"/>
<path d="M88.2569 13.2241C88.2569 14.2555 88.2569 15.2869 88.2569 16.3245C88.6314 16.8095 88.7173 17.2761 88.1648 17.6997C87.5754 17.4541 87.6491 16.9016 87.6859 16.4595C87.8456 14.2187 87.3667 12.0208 87.293 9.78611C87.1457 5.27987 83.9225 2.0936 79.0418 1.68841C78.6489 1.65771 78.2498 1.6884 77.8815 1.50422C77.4149 0.945541 77.9859 1.0008 78.256 0.878016C79.3242 0.699976 80.3433 1.20339 81.4054 1.11744C83.2534 2.06903 85.1197 2.92854 86.3783 4.75191C87.5202 6.40952 87.9929 8.17149 88.0297 10.1422C88.0482 11.1675 87.7657 12.2296 88.2569 13.2241Z" fill="#00254D"/>
<path d="M70.0103 17.6567C70.219 14.2371 70.0594 10.8175 70.0901 7.39791C70.0103 5.1141 71.1276 3.53016 73.0124 2.38825C73.4483 2.11198 73.8903 1.84186 74.3262 1.56559C74.9462 1.32616 75.5602 1.08059 76.1802 0.841156C76.874 0.853435 77.5616 0.865712 78.2553 0.87799C78.0834 1.03147 77.9177 1.18495 77.7519 1.33844C77.5493 1.65154 77.2116 1.76818 76.8985 1.9278C74.0192 3.44421 72.644 5.92448 72.6256 9.08007C72.6133 11.5788 72.2143 14.0468 72.3125 16.5455C72.3309 16.9813 72.2941 17.4295 71.9503 17.7672C71.3363 18.068 70.7286 18.1233 70.1576 17.669L70.0778 17.6935L70.0103 17.6567Z" fill="#CACFE5"/>
<path d="M12.8786 1.68224C11.6323 1.44895 10.3737 1.22178 9.11518 1.28932C7.86276 1.33843 6.62876 1.77432 5.67717 2.59084C4.71945 3.39509 4.01343 4.46948 3.47931 5.59911C2.95133 6.74102 2.58297 7.95659 2.29442 9.17831C1.73575 11.6402 1.56999 14.1757 1.54543 16.7112C1.52701 19.2467 1.59454 21.7884 1.6498 24.3301C1.76644 29.4073 1.98746 34.4845 2.33126 39.5555C2.50316 42.0911 2.7119 44.6204 2.95133 47.1437C3.06797 48.4084 3.21532 49.6608 3.31355 50.95C3.40564 52.2332 3.42405 53.5224 3.40563 54.7994C3.37494 57.3656 3.18462 59.9073 3.025 62.4428C2.94519 63.7075 2.87152 64.9722 2.82854 66.2369C2.79171 67.4893 2.77943 68.7663 2.76101 70.0371C2.73031 72.5726 2.64436 75.1327 2.66892 77.6498L2.6505 81.4378C2.65664 82.6963 2.76715 83.9549 2.85924 85.2196C3.03728 87.749 3.26443 90.3029 3.24602 92.8814C3.22146 95.4538 3.03114 98.0016 2.79785 100.531L2.12867 108.131L1.76644 111.932C1.69277 112.564 1.66822 113.196 1.55157 113.841C1.48404 114.16 1.39195 114.479 1.22619 114.768C1.06657 115.057 0.814856 115.308 0.501752 115.437L0.452637 115.327C1.01745 115.05 1.22619 114.4 1.29986 113.798C1.37967 113.184 1.37353 112.539 1.41036 111.907L1.56999 108.095L1.94448 100.476C2.06113 97.934 2.23303 95.4047 2.19006 92.8875C2.15936 90.3766 1.87695 87.8656 1.63752 85.3239C1.53315 84.0531 1.42265 82.77 1.40423 81.4869L1.39809 77.6498C1.39195 76.3667 1.41036 75.0897 1.45334 73.8251L1.55157 70.0125C1.58841 68.7417 1.6191 67.477 1.68049 66.1878C1.74189 64.9108 1.83398 63.6338 1.93834 62.363C2.1348 59.8275 2.3681 57.2981 2.43563 54.7748C2.46633 53.5163 2.46633 52.2577 2.39265 50.9992C2.31284 49.759 2.17778 48.4759 2.07955 47.2112C1.86467 44.6757 1.69277 42.134 1.55157 39.5924C1.26302 34.509 1.10954 29.4195 1.04815 24.3301C1.02973 21.7823 1.00517 19.2406 1.06657 16.6928C1.1341 14.145 1.34283 11.5788 1.94448 9.08622C2.25759 7.84609 2.6505 6.61823 3.20918 5.4579C3.77399 4.30985 4.51685 3.21706 5.52983 2.3944C6.52439 1.55332 7.83206 1.12356 9.11518 1.099C10.4044 1.05602 11.6691 1.30773 12.9093 1.55945L12.8786 1.68224Z" fill="#00254D"/>
<path d="M3.06809 114.252L5.57292 117.887L5.4133 117.881C6.12546 116.966 6.94812 116.125 7.8506 115.394C8.3049 115.026 8.76535 114.688 9.28105 114.375C9.54504 114.215 9.9134 114.13 10.2388 114.222C10.5703 114.308 10.8343 114.522 11.043 114.743C11.4482 115.198 11.7368 115.707 12.0867 116.131C12.4244 116.573 12.8787 116.849 13.3391 116.714C13.5663 116.647 13.7996 116.499 14.039 116.34L14.7634 115.867L16.2123 114.915C16.4579 114.756 16.7219 114.59 17.0288 114.479C17.3297 114.363 17.7103 114.314 18.0664 114.424C18.4163 114.535 18.6742 114.75 18.9013 114.94C19.1223 115.13 19.3372 115.302 19.5644 115.474C20.0125 115.818 20.473 116.137 20.9641 116.419C21.2036 116.561 21.4553 116.696 21.707 116.825C21.971 116.966 22.1797 117.064 22.3148 117.021C22.4621 116.99 22.6279 116.806 22.7507 116.579C22.8734 116.358 22.9778 116.076 23.1129 115.806C23.3769 115.271 23.7391 114.756 24.2302 114.381C24.4819 114.197 24.7521 114.044 25.0652 113.964C25.3721 113.89 25.6914 113.89 25.9922 113.964C26.5816 114.093 27.1525 114.547 27.2201 115.161L27.1587 115.173C27.0175 114.614 26.4772 114.277 25.9492 114.215C25.6791 114.185 25.409 114.203 25.1573 114.283C24.9117 114.363 24.6784 114.516 24.4819 114.688C24.0767 115.044 23.7943 115.523 23.5672 116.027C23.4505 116.272 23.3707 116.542 23.2295 116.831C23.0883 117.101 22.898 117.439 22.4744 117.574C22.2718 117.635 22.0446 117.617 21.8789 117.561C21.707 117.506 21.5719 117.439 21.443 117.377C21.1729 117.254 20.915 117.113 20.6572 116.966C20.1476 116.671 19.6503 116.346 19.1837 115.984C18.711 115.64 18.2935 115.142 17.8945 115.007C17.4954 114.86 16.992 115.1 16.5193 115.394L15.0458 116.303L14.3091 116.757C14.0636 116.904 13.8057 117.082 13.4742 117.168C13.1427 117.267 12.7682 117.199 12.4735 117.04C12.1727 116.88 11.9639 116.634 11.7736 116.401C11.3991 115.928 11.129 115.419 10.7729 115.001C10.4291 114.584 9.92567 114.387 9.45909 114.676C8.98022 114.952 8.50136 115.29 8.05319 115.634C7.14458 116.327 6.31577 117.125 5.5852 118.01L5.49925 118.114L5.42557 118.003L3.03125 114.295L3.06809 114.252Z" fill="#00254D"/>
<path d="M29.5649 117.42C30.4674 116.37 31.4988 115.437 32.6407 114.651C33.2055 114.271 33.7949 113.835 34.5439 113.761C34.9123 113.724 35.2929 113.829 35.606 114.025C35.9191 114.222 36.177 114.479 36.4041 114.75C36.8646 115.29 37.2022 115.891 37.7486 116.241C38.0187 116.419 38.3134 116.554 38.6143 116.579C38.9089 116.604 39.1852 116.493 39.3755 116.272C39.5658 116.051 39.6764 115.732 39.8298 115.413C39.971 115.093 40.2166 114.719 40.6034 114.553C41.3708 114.222 42.2119 114.51 42.7644 115.014C43.3231 115.517 43.6608 116.162 44.0291 116.72C44.2133 117.003 44.3975 117.218 44.6246 117.273C44.8456 117.34 45.0974 117.248 45.3245 117.07C45.5455 116.892 45.742 116.647 45.8586 116.376C45.9753 116.125 46.0489 115.775 46.1349 115.449C46.2208 115.112 46.3068 114.762 46.4726 114.412C46.6322 114.062 46.8962 113.724 47.2461 113.509C47.9583 113.086 48.7932 113.123 49.4931 113.38C50.193 113.651 50.7639 114.117 51.2612 114.602C52.2558 115.566 53.2319 116.536 54.1896 117.531L54.1467 117.574C53.0723 116.708 52.0163 115.812 50.9727 114.921C50.4447 114.492 49.9167 114.08 49.3089 113.878C48.7257 113.681 48.0381 113.706 47.5715 114.025C47.0865 114.32 46.8962 114.94 46.7427 115.603C46.6567 115.941 46.5892 116.278 46.4173 116.647C46.2454 117.003 46.006 117.31 45.6867 117.555C45.3736 117.788 44.9132 117.973 44.4527 117.825C43.9984 117.684 43.7406 117.303 43.5625 117.015C43.1942 116.419 42.8872 115.812 42.4268 115.376C41.997 114.952 41.3033 114.731 40.7814 114.958C40.5236 115.063 40.3455 115.302 40.2043 115.597C40.057 115.885 39.9403 116.241 39.6702 116.542C39.4062 116.849 38.9703 117.003 38.5774 116.954C38.1845 116.911 37.8468 116.739 37.546 116.53C37.2513 116.315 36.9873 116.057 36.7786 115.769C36.5699 115.486 36.3734 115.204 36.1647 114.946C35.7595 114.418 35.2131 113.964 34.5562 114.013C33.9054 114.056 33.3099 114.449 32.739 114.811C31.5909 115.56 30.5349 116.456 29.6079 117.469L29.5649 117.42Z" fill="#00254D"/>
<path d="M55.6821 115.578C56.1733 115.056 56.7074 114.541 57.3766 114.24C57.7081 114.093 58.0826 114.001 58.4571 114.062C58.8316 114.111 59.1692 114.301 59.4455 114.541C59.9981 115.014 60.5015 115.529 60.9742 116.076C61.2136 116.34 61.4346 116.653 61.6557 116.898C61.8828 117.168 62.2143 117.033 62.509 116.843C63.0984 116.475 63.4913 115.861 63.9886 115.327C64.2342 115.056 64.5288 114.805 64.8726 114.639C65.2164 114.467 65.6094 114.4 65.99 114.418C66.7513 114.461 67.4634 114.817 68.0221 115.302C68.5869 115.793 69.0228 116.383 69.4464 116.96L69.1333 117.052C69.3236 113.798 69.6613 110.556 69.6613 107.315L69.5017 97.5534C69.4464 94.2996 69.4526 91.0457 69.4648 87.7858C69.471 84.5319 69.5201 81.272 69.5938 78.0182H69.6552C69.7964 81.272 69.9069 84.5258 69.9744 87.7796C70.0481 91.0335 70.1156 94.2873 70.1217 97.5472L70.134 107.315C70.0849 110.587 69.7104 113.829 69.4771 117.07L69.4403 117.549L69.1579 117.156C68.7404 116.573 68.3229 115.996 67.8011 115.529C67.2854 115.063 66.6469 114.737 65.9654 114.688C65.2778 114.621 64.6394 114.964 64.1666 115.48C63.6755 115.984 63.2642 116.61 62.6134 117.009C62.4476 117.101 62.288 117.193 62.0793 117.23C61.8705 117.273 61.6372 117.162 61.5083 117.021C61.2566 116.726 61.0663 116.45 60.8269 116.174C60.3664 115.627 59.8753 115.106 59.3412 114.633C59.0772 114.4 58.7702 114.222 58.4264 114.166C58.0826 114.105 57.7265 114.179 57.4073 114.32C56.7565 114.602 56.2162 115.099 55.719 115.609L55.6821 115.578Z" fill="#00254D"/>
<path d="M70.2931 76.2562C69.7651 71.5289 69.2372 66.8017 68.9241 62.0499C68.6048 57.2981 68.5741 52.5217 68.8749 47.7699C69.1512 43.0119 69.6239 38.2785 70.0169 33.5451C70.4282 28.8179 70.6185 24.0722 70.3668 19.3204L70.4282 19.3143C71.036 24.0415 70.9316 28.8424 70.6308 33.5881C70.3177 38.3399 69.7099 43.061 69.3661 47.8006C69.0039 52.534 68.9732 57.2858 69.231 62.0314C69.4582 66.7771 69.9063 71.5167 70.3545 76.25L70.2931 76.2562Z" fill="#00254D"/>
<path d="M54.755 24.8089C54.5954 27.5471 53.8464 28.6828 51.4643 28.7565C49.6103 28.8179 49.4138 29.6713 49.6103 31.071C49.7822 32.2743 49.3279 32.8453 48.0877 32.7163C47.7623 29.5853 48.0263 26.4481 47.9465 23.3109C47.9342 22.9365 47.9711 22.6356 48.4622 22.476C50.7645 21.7025 53.7113 22.7707 54.755 24.8089Z" fill="#CACFE5"/>
<path d="M63.1776 22.5067C63.3679 23.5013 63.1224 24.1459 61.9498 23.931C60.3167 23.6363 60.108 24.4958 60.1755 25.8526C60.2676 27.7374 60.2001 29.6283 60.2001 31.5192C60.2001 32.0901 60.2615 32.6611 59.3774 32.6672C58.4811 32.6734 58.5609 32.0901 58.5609 31.5253C58.5547 29.9536 58.5547 28.3758 58.5547 26.8042C58.5547 23.888 58.5547 23.888 55.6877 23.9801C55.3316 22.8566 55.6324 22.3839 56.9155 22.4514C58.9968 22.5497 61.0903 22.4944 63.1776 22.5067Z" fill="#CACFE5"/>
<path d="M45.1658 32.7164C43.8582 32.8637 43.4346 32.2989 43.5144 30.9912C43.6126 29.438 43.4714 27.8725 43.4346 26.3069C43.4714 25.3062 43.5267 24.3117 43.5389 23.311C43.5451 22.6663 43.8213 22.4453 44.4537 22.4392C45.1167 22.4269 45.3193 22.7093 45.3071 23.3294C45.2518 26.4604 45.215 29.5915 45.1658 32.7164Z" fill="#CACFE5"/>
<path d="M35.7969 24.4038C35.318 22.783 35.9934 22.1997 37.565 22.4699C38.885 22.697 40.3031 21.9603 41.5494 22.8874C41.4819 23.2434 41.4143 23.5995 41.3468 23.9556C40.3645 23.9433 39.3761 23.9494 38.3938 23.9065C37.7492 23.8758 37.3194 24.0661 37.2581 24.766C36.7055 24.8949 36.3003 24.4529 35.7969 24.4038Z" fill="#CACFE5"/>
<path d="M17.207 32.5015C15.9362 32.8391 15.1688 32.6488 14.7574 31.6236C14.6654 31.3903 14.5364 31.157 14.3645 30.9851C13.548 30.1747 13.5664 28.1426 11.8843 28.689C10.6687 29.088 11.5589 30.5615 11.3931 31.5376C11.2887 32.1515 11.2765 32.6488 10.4784 32.6549C9.67411 32.6611 9.58202 32.1945 9.58816 31.5499C9.60658 28.8363 9.60044 26.1227 9.60044 23.4092C9.60044 22.9487 9.5943 22.4699 10.2328 22.4822C11.6141 22.5067 13.0262 22.2734 14.3768 22.6786C16.4887 23.3048 17.2623 25.9386 15.5617 27.3076C14.34 28.2961 14.868 28.8609 15.4266 29.702C15.9976 30.5737 16.5563 31.4762 17.207 32.5015Z" fill="#CACFE5"/>
<path d="M18.6742 27.5655C18.6742 27.3138 18.6742 27.0621 18.6742 26.8042C18.6681 22.0033 18.6681 22.0033 23.4752 22.4637C23.8926 22.5006 24.4022 22.3532 24.4329 23.047C24.4636 23.7284 24.1014 23.9188 23.4997 23.9003C22.9963 23.8819 22.4867 23.931 21.9833 23.8942C20.9888 23.8205 20.3564 23.9187 20.3748 25.251C20.3871 26.5341 20.9212 26.6446 21.971 26.6753C22.7262 26.6998 24.1075 26.0736 24.1628 27.2278C24.2364 28.7811 22.7078 28.0014 21.9526 28.0014C20.6818 28.0014 20.3748 28.4496 20.3687 29.6406C20.3626 30.8623 20.7064 31.2552 21.9649 31.2675C22.763 31.2736 24.3531 30.4509 24.3285 31.9858C24.304 33.2934 22.7937 32.5874 21.9895 32.612C18.6742 32.7164 18.6742 32.6611 18.6742 29.2599C18.6742 28.7012 18.6742 28.1364 18.6742 27.5655Z" fill="#CACFE5"/>
<path d="M30.4436 32.7041C30.1919 32.747 29.9464 32.79 29.6946 32.833C26.5943 31.6174 25.3357 28.7442 26.4531 25.429C27.3249 22.8566 29.9832 21.6349 32.8134 22.5435C33.2063 22.6725 33.9123 22.6234 33.6729 23.4522C33.4642 24.1705 33.0958 24.2012 32.4082 24.0538C29.8358 23.489 28.6878 24.0845 28.1291 26.1166C27.4108 28.7074 28.1905 30.4448 30.4498 31.3043C31.2479 31.777 31.3031 32.2436 30.4436 32.7041Z" fill="#CACFE5"/>
<path d="M30.4434 32.7041C30.7687 32.2375 30.8854 31.7771 30.4495 31.3105C31.1985 31.0956 32.0641 31.4946 32.7395 30.8746C34.0287 31.2184 33.8077 31.8569 32.9605 32.4278C32.2115 32.9435 31.309 32.8207 30.4434 32.7041Z" fill="#A7ADC4"/>
<path d="M35.7968 24.4037C36.4353 23.9187 36.7975 24.5142 37.2518 24.7721C37.5158 25.429 36.8773 26.4604 38.0745 26.7244C38.4306 26.9577 38.9892 27.1418 38.8542 27.6514C38.7007 28.2346 38.1543 28.0013 37.7368 27.9277C37.4851 27.8847 37.0861 27.5532 37.3071 28.2101C37.2948 28.7135 37.2825 29.2169 37.2764 29.7203C36.4107 29.8308 36.3064 28.9591 35.8152 28.5846C35.5574 27.1971 35.6495 25.8035 35.7968 24.4037Z" fill="#8E94A5"/>
<path d="M35.8154 28.5907C36.6381 28.5355 36.7977 29.3336 37.2766 29.7265C37.2827 30.1133 37.295 30.5001 37.3012 30.8807C36.8775 31.8384 37.5222 31.863 38.1914 31.9244C39.2596 32.0288 40.4076 31.6051 41.3838 32.3787C40.0945 33.1645 38.6518 32.4646 37.3134 32.8023C36.0549 32.8514 35.5392 32.2436 35.6742 30.9974C35.7602 30.1992 35.7725 29.395 35.8154 28.5907Z" fill="#A7ADC4"/>
<path d="M41.3774 32.3787C40.1802 32.3848 38.983 32.4094 37.7859 32.3787C37.307 32.3664 36.6133 32.6365 36.4045 32.1024C36.1406 31.4455 36.865 31.1999 37.3009 30.8807C38.2709 31.5253 39.3575 31.1324 40.3828 31.1754C41.2791 31.2122 41.7089 31.4271 41.3774 32.3787Z" fill="#CACFE5"/>
<path d="M37.3068 28.2163C36.785 27.9646 36.3982 27.6023 36.2324 26.9884C37.2884 26.5218 37.5462 28.2777 38.6083 27.6392C38.4364 27.3445 38.2522 27.0375 38.0681 26.7306C38.5776 26.7306 39.0872 26.7306 39.5968 26.7306C40.0142 27.1787 40.6466 27.3445 41.0456 27.8234C39.8607 28.511 38.5285 27.8418 37.3068 28.2163Z" fill="#A7ADC4"/>
<path d="M41.046 27.8172C40.2909 27.8172 39.6401 27.676 39.5972 26.7244C40.3646 26.7121 41.4881 26.2332 41.046 27.8172Z" fill="#8E94A5"/>
<path d="M87.0476 17.3988C85.9426 17.0182 84.7884 16.8401 83.6281 16.8033C82.4677 16.7603 81.3135 16.8463 80.1594 16.9875C79.0052 17.1287 77.8571 17.3558 76.6907 17.4602C75.5242 17.5646 74.3577 17.6444 73.179 17.626L73.1729 17.5646C74.3086 17.2515 75.4628 17.0366 76.617 16.8524C77.7712 16.6682 78.9376 16.5762 80.1164 16.4963C81.289 16.4165 82.4739 16.392 83.6526 16.4963C84.8252 16.613 85.9917 16.877 87.0722 17.3374L87.0476 17.3988Z" fill="#00254D"/>
<path d="M77.1572 2.63381C76.1135 2.67678 75.3277 3.45648 74.6953 4.21776C74.0507 5.00972 73.3631 5.78327 73.2526 6.75941C73.1237 7.7417 73.1114 8.78538 73.007 9.79222C72.9026 10.8052 72.8106 11.8243 72.6571 12.8496H72.5957C72.4176 11.8243 72.3747 10.7868 72.3931 9.75539C72.4238 8.71171 72.565 7.70487 72.7737 6.66733C72.8781 6.13935 73.1237 5.61751 73.4429 5.1939C73.7622 4.76415 74.1121 4.39578 74.4682 4.01515C74.8304 3.64065 75.2233 3.28458 75.6653 3.00831C76.1135 2.73205 76.6292 2.55399 77.1572 2.57241V2.63381Z" fill="#00254D"/>
<path d="M12.6572 47.4261L31.3882 47.2112C34.507 47.1805 37.6319 47.1068 40.7568 47.1498C43.8755 47.2051 47.0004 47.2481 50.1253 47.4261V47.4875C47.0004 47.6655 43.8817 47.7085 40.7568 47.7637C37.6319 47.8067 34.5131 47.733 31.3882 47.7023L12.6572 47.4875V47.4261Z" fill="#00254D"/>
<path d="M12.6572 55.0879L31.3882 54.873C34.507 54.8423 37.6319 54.7687 40.7568 54.8116C43.8755 54.8669 47.0004 54.9099 50.1253 55.0879V55.1493C47.0004 55.3273 43.8817 55.3703 40.7568 55.4256C37.6319 55.4685 34.5131 55.3949 31.3882 55.3642L12.6572 55.1493V55.0879Z" fill="#00254D"/>
<path d="M12.6572 63.155L31.3882 62.9401C34.507 62.9094 37.6319 62.8357 40.7568 62.8787C43.8755 62.9339 47.0004 62.9769 50.1253 63.155V63.2163C47.0004 63.3944 43.8817 63.4374 40.7568 63.4926C37.6319 63.5356 34.5131 63.4619 31.3882 63.4312L12.6572 63.2163V63.155Z" fill="#00254D"/>
<path d="M12.6572 71.6272L31.3882 71.4123C34.507 71.3816 37.6319 71.3079 40.7568 71.3509C43.8755 71.4062 47.0004 71.4491 50.1253 71.6272V71.6886C47.0004 71.8666 43.8817 71.9096 40.7568 71.9648C37.6319 72.0078 34.5131 71.9341 31.3882 71.9034L12.6572 71.6886V71.6272Z" fill="#00254D"/>
<path d="M12.6572 79.2951L31.3882 79.0803C34.507 79.0496 37.6319 78.9759 40.7568 79.0189C43.8755 79.0741 47.0004 79.1171 50.1253 79.2951V79.3565C47.0004 79.5346 43.8817 79.5775 40.7568 79.6328C37.6319 79.6758 34.5131 79.6021 31.3882 79.5714L12.6572 79.3565V79.2951Z" fill="#00254D"/>
<path d="M12.6572 87.3622L31.3882 87.1473C34.507 87.1166 37.6319 87.0429 40.7568 87.0859C43.8755 87.1412 47.0004 87.1841 50.1253 87.3622V87.4236C47.0004 87.6016 43.8817 87.6446 40.7568 87.6998C37.6319 87.7428 34.5131 87.6691 31.3882 87.6384L12.6572 87.4236V87.3622Z" fill="#00254D"/>
<path d="M62.2695 113.276C62.6133 111.956 64.0499 111.029 65.4129 111.287C65.7444 111.324 66.0759 111.373 66.389 111.312C66.7021 111.256 66.9661 111.054 67.138 110.784C67.4757 110.231 67.5125 109.543 67.58 108.887C67.801 106.228 67.5125 103.564 67.3774 100.893C67.1994 98.2226 67.0459 95.5581 66.9047 92.8875C66.8003 90.2169 66.6837 87.5464 66.6591 84.8696H66.7021C66.96 87.5341 67.1319 90.2047 67.316 92.8691C67.4634 95.5397 67.5984 98.2103 67.7028 100.881C67.801 103.545 68.0527 106.228 67.7888 108.911C67.7089 109.568 67.666 110.274 67.2853 110.876C67.095 111.17 66.7819 111.397 66.432 111.453C66.082 111.514 65.7444 111.453 65.4129 111.41C64.1113 111.134 62.6931 111.999 62.3248 113.288L62.2695 113.276Z" fill="#00254D"/>
</svg>
