<svg width="141" height="141" viewBox="0 0 141 141" fill="none" xmlns="http://www.w3.org/2000/svg">
<mask id="mask0" mask-type="alpha" maskUnits="userSpaceOnUse" x="0" y="0" width="141" height="141">
<rect x="0.18457" y="0.265625" width="140" height="140" fill="#C4C4C4"/>
</mask>
<g mask="url(#mask0)">
<path d="M29.3118 125.461C28.4339 123.539 29.0478 120.66 29.0785 118.652C29.1644 112.163 28.8943 87.2684 28.5566 80.7915C29.3118 79.4163 29.2872 76.7211 30.5396 77.5745C32.3384 80.7669 31.1536 105.195 31.7675 108.885C32.3814 112.568 33.0138 117.547 32.3814 121.777C32.0499 122.471 31.8105 123.859 31.1536 124.233C30.4046 124.448 30.1406 125.393 29.3118 125.461Z" fill="#CACFE5"/>
<path d="M32.0923 12.0007C33.2158 11.3008 34.4989 11.2394 35.739 11.2394C58.0001 11.2149 80.255 11.221 102.516 11.2149C104.432 11.2149 106.341 11.2026 108.134 12.0375C108.717 12.3076 109.411 12.412 109.742 13.0689C108.631 13.382 107.796 12.455 106.764 12.3997C106.169 12.234 105.58 12.1112 104.953 12.1112C81.4645 12.1173 57.9817 12.1112 34.4928 12.1173C34.3147 12.1173 34.1428 12.1296 33.9709 12.148C33.6148 12.2217 33.2956 12.4304 32.9211 12.4427C32.6387 12.4427 32.3992 12.3445 32.1967 12.1542C32.1598 12.1112 32.123 12.0559 32.0923 12.0007Z" fill="#00254D"/>
<path d="M27.3041 17.8023C27.4392 16.7525 28.2373 15.979 28.4522 14.966L28.4399 14.9599C29.5511 13.6276 30.8895 12.6392 32.6208 12.2708C32.94 12.3629 33.1672 12.1542 33.4189 12.0253C33.8241 11.7797 34.2784 11.8963 34.702 11.8963C56.9876 11.8902 79.2794 11.8902 101.565 11.8963C102.13 12.0253 101.884 12.2892 101.633 12.4734C101.105 12.8663 100.497 13.0137 99.8399 12.9953C94.7565 12.8295 89.6671 12.94 84.5837 12.9339C78.5795 12.9277 72.5753 12.9646 66.5711 12.9339C58.768 12.897 50.9588 12.897 43.1558 12.9523C40.7431 12.9707 38.3303 12.9462 35.9237 12.9339C34.1126 12.9277 32.4427 13.1856 30.9202 14.1863C30.8035 14.3091 30.6685 14.4073 30.5273 14.4994C28.7837 16.2123 27.9917 18.2014 27.9979 20.7246C28.0102 34.0101 27.9856 47.2893 28.004 60.5748C28.0102 67.2359 27.8137 73.9032 28.047 80.5643C28.2005 84.8986 27.6909 89.2269 28.0286 93.5366C28.4399 98.8348 28.1145 104.133 28.2742 109.431C28.3233 110.972 27.8444 112.501 28.0347 114.011C28.3785 116.811 28.1821 119.61 28.2803 122.41C28.3048 123.11 28.225 123.809 28.2803 124.509C28.3048 124.644 28.3417 124.786 28.3969 124.908C28.9126 125.897 29.8213 126.554 30.4904 127.419C30.9754 128.046 31.4727 127.794 31.9025 127.29C32.5839 126.492 33.2654 125.676 34.1065 125.043C35.1993 124.221 36.2736 124.681 36.5683 126.038C36.4455 126.106 36.335 126.099 36.2245 126.007C35.5124 125.295 34.8678 125.258 34.1863 126.099C33.5417 126.898 32.8049 127.628 32.1112 128.389C31.4297 129.126 30.957 128.874 30.2142 128.279C27.9488 126.456 27.1691 124.264 27.3164 121.335C27.5497 116.577 27.3471 111.795 27.3287 107.025C27.341 99.3076 27.3594 91.5966 27.3533 83.8795C27.3471 71.0361 27.3287 58.1989 27.3041 45.3555C27.3041 44.6679 27.476 43.9496 27.1261 43.2927C27.1322 36.2386 27.1322 29.1846 27.1384 22.1305C27.1322 20.6755 27.0647 19.2328 27.3041 17.8023Z" fill="#CACFE5"/>
<path d="M87.8868 129.089C86.6036 128.586 85.9345 127.407 85.0627 126.468C83.7673 125.068 83.6077 125.043 82.3184 126.388C81.6861 127.051 81.0169 127.683 80.4214 128.377C79.8443 129.052 79.3777 129.169 78.776 128.383C78.3033 127.763 77.7078 127.235 77.1553 126.677C75.4854 124.982 75.8599 125.074 73.9935 126.29C73.969 125.148 75.1723 124.374 76.2958 124.816C76.6641 124.964 76.9711 125.209 77.2596 125.479C77.5298 125.737 77.7815 126.007 77.9964 126.314C78.199 126.609 78.5182 126.781 78.7699 127.026C79.3716 127.616 79.9118 127.499 80.4644 126.928C80.9862 126.394 81.4896 125.848 82.0299 125.332C83.049 124.35 84.2891 124.337 85.3021 125.326C85.8055 125.817 86.3274 126.29 86.751 126.848C87.4017 127.714 88.0095 127.61 88.6787 126.879C89.1207 126.394 89.5873 125.928 90.0539 125.461C91.2204 124.301 92.2948 124.307 93.4735 125.479C93.8357 125.842 94.1181 126.302 94.6891 126.554C94.9899 126.093 94.9162 125.602 94.9162 125.148C94.9224 118.923 94.9285 112.691 94.9162 106.466C94.8978 98.006 95.0083 89.5461 94.904 81.0923C94.7934 71.8465 95.0452 62.6007 94.9162 53.355C94.8548 48.9285 95.0206 44.5021 94.904 40.0818C94.8303 37.1902 94.8426 34.317 95.1741 31.4438C95.1618 31.2228 95.1618 31.0018 95.1741 30.7808C95.2355 30.216 95.1434 29.6389 95.3276 29.0802C95.3828 28.9452 95.4811 28.8408 95.61 28.7733C95.6837 28.7794 95.7512 28.7917 95.8249 28.7978C95.874 28.8531 95.9169 28.9083 95.9661 28.9574C96.1625 29.3565 96.1441 29.7924 96.1564 30.216C96.1564 30.7869 96.2055 31.3579 96.0581 31.9166C95.9968 32.0455 95.9231 32.1683 95.8371 32.2849C95.8187 34.9125 95.788 37.5463 95.788 40.1739C95.7819 69.0715 95.7819 97.9692 95.7819 126.867C95.7819 127.468 95.7819 128.07 95.7819 128.924C94.4742 128.138 93.7007 127.143 92.8903 126.228C92.0676 125.295 91.423 125.172 90.5758 126.198C89.7347 127.223 88.7831 128.138 87.8868 129.089Z" fill="#CACFE5"/>
<path d="M36.2183 125.995C36.3349 125.983 36.4577 125.971 36.5743 125.958C37.1269 126.069 37.4216 126.529 37.7838 126.879C38.9994 128.058 38.9932 128.064 40.2948 127.069C40.6508 126.855 40.9271 126.554 41.142 126.198C42.7382 124.288 43.567 124.239 45.3044 125.946C47.3734 127.972 47.3734 127.972 49.4177 125.958C51.1859 124.215 51.8305 124.245 53.4206 126.112C53.9854 126.775 54.63 127.37 55.1825 128.052C55.3913 128.26 55.7044 128.34 55.8579 128.617C55.2869 129.464 54.8878 128.788 54.5318 128.426C53.7337 127.622 52.9724 126.775 52.2173 125.928C51.6156 125.252 51.0631 125.258 50.4614 125.921C49.6694 126.799 48.8222 127.622 48.061 128.524C47.5146 129.169 47.1094 129.089 46.5814 128.512C45.7587 127.604 44.8869 126.744 44.0397 125.86C43.5179 125.314 43.0206 125.179 42.5663 125.934C41.5779 126.879 40.5403 127.782 39.7484 128.905C39.2449 129.194 38.9011 128.96 38.5328 128.598C37.9004 127.972 37.3847 127.223 36.6112 126.75C36.4761 126.499 36.3472 126.247 36.2183 125.995Z" fill="#CACFE5"/>
<path d="M69.487 126.486C69.8246 126.873 70.1684 127.254 70.5061 127.64C71.4024 128.66 71.8629 128.647 72.7224 127.536C73.06 127.094 73.2626 126.517 73.9441 126.486C73.545 127.432 72.6364 127.978 72.09 128.807C71.9979 128.887 71.9058 128.96 71.8076 129.04C70.6289 129.212 70.3219 128.027 69.5483 127.567C69.3826 127.468 69.358 127.186 69.223 127.014C69.0449 126.848 68.8669 126.683 68.6888 126.517C67.682 125.16 67.5101 125.136 66.5585 126.179C65.7481 126.971 64.9193 127.732 64.1458 128.561C63.673 129.071 63.2924 129.243 62.7828 128.623C62.04 127.72 61.0209 127.063 60.4561 126.001C60.5481 125.909 60.6525 125.866 60.7814 125.872C61.4813 126.179 61.9233 126.793 62.4268 127.315C63.053 127.972 63.5441 127.904 64.1765 127.303C65.0482 126.474 65.7174 125.412 66.89 124.933C67.2093 124.865 67.5285 124.865 67.8478 124.927C68.6029 125.222 69.1861 125.707 69.487 126.486Z" fill="#CACFE5"/>
<path d="M60.7874 125.964C60.6769 125.977 60.5664 125.983 60.4497 125.995C59.7376 125.24 59.0745 125.222 58.3931 126.069C57.9081 126.677 57.3555 127.229 56.8398 127.806C56.5083 128.076 56.1829 128.346 55.8514 128.61C55.5506 128.567 55.2006 128.647 54.998 128.316C56.0601 127.352 56.9258 126.179 58.037 125.264C59.0316 124.442 60.02 124.46 60.7137 125.252C60.8979 125.473 60.9839 125.707 60.7874 125.964Z" fill="#CACFE5"/>
<path d="M113.936 24.4266C113.936 25.458 113.936 26.4894 113.936 27.527C114.31 28.012 114.396 28.4786 113.844 28.9022C113.254 28.6566 113.328 28.1041 113.365 27.6621C113.524 25.4212 113.045 23.2233 112.972 20.9886C112.824 16.4824 109.601 13.2961 104.721 12.8909C104.328 12.8602 103.929 12.8909 103.56 12.7067C103.094 12.1481 103.665 12.2033 103.935 12.0805C105.003 11.9025 106.022 12.4059 107.084 12.32C108.932 13.2715 110.798 14.1311 112.057 15.9544C113.199 17.612 113.672 19.374 113.708 21.3447C113.727 22.37 113.444 23.4321 113.936 24.4266Z" fill="#00254D"/>
<path d="M95.689 28.8592C95.8977 25.4396 95.7381 22.02 95.7688 18.6004C95.689 16.3166 96.8063 14.7327 98.6911 13.5908C99.127 13.3145 99.569 13.0444 100.005 12.7681C100.625 12.5287 101.239 12.2831 101.859 12.0437C102.553 12.0559 103.24 12.0682 103.934 12.0805C103.762 12.234 103.596 12.3875 103.431 12.541C103.228 12.8541 102.89 12.9707 102.577 13.1303C99.6979 14.6467 98.3227 17.127 98.3043 20.2826C98.292 22.7813 97.893 25.2493 97.9912 27.748C98.0096 28.1839 97.9728 28.632 97.629 28.9697C97.0151 29.2705 96.4073 29.3258 95.8363 28.8715L95.7565 28.896L95.689 28.8592Z" fill="#CACFE5"/>
<path d="M38.5573 12.8848C37.311 12.6515 36.0524 12.4243 34.7939 12.4918C33.5415 12.5409 32.3075 12.9768 31.3559 13.7934C30.3982 14.5976 29.6921 15.672 29.158 16.8016C28.63 17.9435 28.2617 19.1591 27.9731 20.3808C27.4145 22.8427 27.2487 25.3782 27.2241 27.9137C27.2057 30.4493 27.2733 32.9909 27.3285 35.5326C27.4452 40.6098 27.6662 45.687 28.01 50.758C28.1819 53.2936 28.3906 55.8229 28.63 58.3462C28.7467 59.6109 28.894 60.8633 28.9923 62.1526C29.0843 63.4357 29.1028 64.7249 29.0843 66.0019C29.0536 68.5681 28.8633 71.1098 28.7037 73.6453C28.6239 74.91 28.5502 76.1747 28.5073 77.4394C28.4704 78.6918 28.4581 79.9688 28.4397 81.2396C28.409 83.7751 28.3231 86.3352 28.3476 88.8523L28.3292 92.6403C28.3354 93.8988 28.4459 95.1574 28.5379 96.4221C28.716 98.9515 28.9431 101.505 28.9247 104.084C28.9002 106.656 28.7098 109.204 28.4766 111.733L27.8074 119.334L27.4452 123.134C27.3715 123.766 27.3469 124.399 27.2303 125.043C27.1627 125.363 27.0707 125.682 26.9049 125.97C26.7453 126.259 26.4936 126.511 26.1805 126.64L26.1313 126.529C26.6962 126.253 26.9049 125.602 26.9786 125C27.0584 124.387 27.0522 123.742 27.0891 123.11L27.2487 119.297L27.6232 111.678C27.7398 109.137 27.9117 106.607 27.8688 104.09C27.8381 101.579 27.5557 99.0681 27.3162 96.5265C27.2119 95.2556 27.1014 93.9725 27.0829 92.6894L27.0768 88.8523C27.0707 87.5692 27.0891 86.2923 27.1321 85.0276L27.2303 81.215C27.2671 79.9442 27.2978 78.6795 27.3592 77.3903C27.4206 76.1133 27.5127 74.8363 27.6171 73.5655C27.8135 71.03 28.0468 68.5006 28.1143 65.9773C28.145 64.7188 28.145 63.4602 28.0714 62.2017C27.9916 60.9615 27.8565 59.6784 27.7583 58.4137C27.5434 55.8782 27.3715 53.3365 27.2303 50.7949C26.9417 45.7115 26.7883 40.6221 26.7269 35.5326C26.7084 32.9848 26.6839 30.4431 26.7453 27.8953C26.8128 25.3475 27.0215 22.7813 27.6232 20.2887C27.9363 19.0486 28.3292 17.8207 28.8879 16.6604C29.4527 15.5124 30.1956 14.4196 31.2085 13.5969C32.2031 12.7558 33.5108 12.3261 34.7939 12.3015C36.0831 12.2585 37.3478 12.5102 38.588 12.762L38.5573 12.8848Z" fill="#00254D"/>
<path d="M28.7468 125.455L31.2516 129.089L31.092 129.083C31.8042 128.168 32.6268 127.327 33.5293 126.597C33.9836 126.228 34.4441 125.891 34.9598 125.578C35.2237 125.418 35.5921 125.332 35.9175 125.424C36.249 125.51 36.513 125.725 36.7217 125.946C37.1269 126.4 37.4155 126.91 37.7654 127.333C38.1031 127.775 38.5574 128.052 39.0178 127.917C39.245 127.849 39.4783 127.702 39.7177 127.542L40.4421 127.069L41.891 126.118C42.1366 125.958 42.4006 125.792 42.7075 125.682C43.0084 125.565 43.389 125.516 43.7451 125.627C44.095 125.737 44.3529 125.952 44.58 126.142C44.801 126.333 45.0159 126.505 45.2431 126.677C45.6912 127.02 46.1517 127.34 46.6428 127.622C46.8823 127.763 47.134 127.898 47.3857 128.027C47.6497 128.168 47.8584 128.267 47.9935 128.224C48.1408 128.193 48.3066 128.009 48.4294 127.782C48.5522 127.561 48.6565 127.278 48.7916 127.008C49.0556 126.474 49.4178 125.958 49.9089 125.584C50.1607 125.4 50.4308 125.246 50.7439 125.166C51.0508 125.093 51.3701 125.093 51.6709 125.166C52.2603 125.295 52.8312 125.749 52.8988 126.363L52.8374 126.376C52.6962 125.817 52.1559 125.479 51.6279 125.418C51.3578 125.387 51.0877 125.406 50.836 125.486C50.5904 125.565 50.3571 125.719 50.1606 125.891C49.7555 126.247 49.473 126.726 49.2459 127.229C49.1292 127.475 49.0494 127.745 48.9082 128.033C48.767 128.303 48.5767 128.641 48.1531 128.776C47.9505 128.838 47.7234 128.819 47.5576 128.764C47.3857 128.709 47.2506 128.641 47.1217 128.58C46.8516 128.457 46.5937 128.316 46.3359 128.168C45.8263 127.874 45.329 127.548 44.8624 127.186C44.3897 126.842 43.9722 126.345 43.5732 126.21C43.1741 126.063 42.6707 126.302 42.198 126.597L40.7246 127.505L39.9878 127.96C39.7423 128.107 39.4844 128.285 39.1529 128.371C38.8214 128.469 38.4469 128.402 38.1522 128.242C37.8514 128.082 37.6426 127.837 37.4523 127.604C37.0778 127.131 36.8077 126.621 36.4516 126.204C36.1078 125.786 35.6044 125.59 35.1378 125.878C34.6589 126.155 34.1801 126.492 33.7319 126.836C32.8233 127.53 31.9945 128.328 31.2639 129.212L31.178 129.316L31.1043 129.206L28.71 125.498L28.7468 125.455Z" fill="#00254D"/>
<path d="M55.2437 128.623C56.1461 127.573 57.1775 126.64 58.3194 125.854C58.8843 125.473 59.4736 125.037 60.2226 124.964C60.591 124.927 60.9716 125.031 61.2847 125.228C61.5978 125.424 61.8557 125.682 62.0828 125.952C62.5433 126.492 62.8809 127.094 63.4273 127.444C63.6975 127.622 63.9921 127.757 64.293 127.782C64.5877 127.806 64.8639 127.696 65.0542 127.475C65.2446 127.254 65.3551 126.934 65.5085 126.615C65.6498 126.296 65.8953 125.921 66.2821 125.756C67.0495 125.424 67.8906 125.713 68.4431 126.216C69.0018 126.719 69.3395 127.364 69.7078 127.923C69.892 128.205 70.0762 128.42 70.3033 128.475C70.5244 128.543 70.7761 128.451 71.0032 128.273C71.2242 128.095 71.4207 127.849 71.5373 127.579C71.654 127.327 71.7276 126.977 71.8136 126.652C71.8995 126.314 71.9855 125.964 72.1513 125.614C72.3109 125.264 72.5749 124.927 72.9248 124.712C73.637 124.288 74.4719 124.325 75.1718 124.583C75.8717 124.853 76.4426 125.32 76.9399 125.805C77.9345 126.769 78.9106 127.739 79.8684 128.733L79.8254 128.776C78.751 127.91 77.695 127.014 76.6514 126.124C76.1234 125.694 75.5954 125.283 74.9876 125.08C74.4044 124.884 73.7168 124.908 73.2502 125.228C72.7652 125.522 72.5749 126.142 72.4214 126.805C72.3354 127.143 72.2679 127.481 72.096 127.849C71.9241 128.205 71.6847 128.512 71.3654 128.758C71.0523 128.991 70.5919 129.175 70.1314 129.028C69.6771 128.887 69.4193 128.506 69.2412 128.217C68.8729 127.622 68.5659 127.014 68.1055 126.578C67.6757 126.155 66.982 125.934 66.4601 126.161C66.2023 126.265 66.0242 126.505 65.883 126.799C65.7357 127.088 65.6191 127.444 65.3489 127.745C65.0849 128.052 64.649 128.205 64.2561 128.156C63.8632 128.113 63.5256 127.941 63.2247 127.732C62.93 127.518 62.6661 127.26 62.4573 126.971C62.2486 126.689 62.0521 126.406 61.8434 126.149C61.4382 125.621 60.8918 125.166 60.2349 125.215C59.5841 125.258 58.9886 125.651 58.4177 126.013C57.2696 126.762 56.2137 127.659 55.2866 128.672L55.2437 128.623Z" fill="#00254D"/>
<path d="M81.3608 126.781C81.852 126.259 82.3861 125.743 83.0553 125.442C83.3868 125.295 83.7613 125.203 84.1358 125.264C84.5103 125.314 84.848 125.504 85.1242 125.743C85.6768 126.216 86.1802 126.732 86.6529 127.278C86.8923 127.542 87.1134 127.855 87.3344 128.101C87.5615 128.371 87.893 128.236 88.1877 128.046C88.7771 127.677 89.17 127.063 89.6673 126.529C89.9129 126.259 90.2076 126.007 90.5514 125.842C90.8952 125.67 91.2881 125.602 91.6687 125.621C92.43 125.664 93.1421 126.02 93.7008 126.505C94.2656 126.996 94.7015 127.585 95.1251 128.162L94.812 128.254C95.0023 125 95.34 121.759 95.34 118.517L95.1804 108.756C95.1251 105.502 95.1313 102.248 95.1435 98.9883C95.1497 95.7345 95.1988 92.4745 95.2725 89.2207H95.3339C95.4751 92.4745 95.5856 95.7283 95.6531 98.9821C95.7268 102.236 95.7943 105.49 95.8005 108.75L95.8127 118.517C95.7636 121.79 95.3891 125.031 95.1558 128.273L95.119 128.752L94.8366 128.359C94.4191 127.775 94.0016 127.198 93.4798 126.732C92.9641 126.265 92.3256 125.94 91.6442 125.891C90.9566 125.823 90.3181 126.167 89.8453 126.683C89.3542 127.186 88.9429 127.812 88.2921 128.211C88.1263 128.303 87.9667 128.395 87.758 128.432C87.5492 128.475 87.316 128.365 87.187 128.224C86.9353 127.929 86.745 127.653 86.5056 127.376C86.0451 126.83 85.554 126.308 85.0199 125.835C84.7559 125.602 84.4489 125.424 84.1051 125.369C83.7613 125.307 83.4052 125.381 83.086 125.522C82.4352 125.805 81.895 126.302 81.3977 126.812L81.3608 126.781Z" fill="#00254D"/>
<path d="M95.9718 87.4587C95.4439 82.7315 94.9159 78.0042 94.6028 73.2524C94.2835 68.5006 94.2528 63.7242 94.5537 58.9724C94.8299 54.2145 95.3027 49.4811 95.6956 44.7477C96.1069 40.0204 96.2972 35.2747 96.0455 30.5229L96.1069 30.5168C96.7147 35.244 96.6103 40.045 96.3095 44.7906C95.9964 49.5424 95.3886 54.2636 95.0448 59.0031C94.6826 63.7365 94.6519 68.4883 94.9097 73.234C95.1369 77.9796 95.5851 82.7192 96.0332 87.4526L95.9718 87.4587Z" fill="#00254D"/>
<path d="M80.4337 36.0115C80.2741 38.7496 79.5251 39.8854 77.1431 39.959C75.289 40.0204 75.0925 40.8738 75.289 42.2735C75.4609 43.4768 75.0066 44.0478 73.7664 43.9189C73.4411 40.7878 73.705 37.6506 73.6252 34.5135C73.613 34.139 73.6498 33.8382 74.1409 33.6785C76.4432 32.905 79.39 33.9732 80.4337 36.0115Z" fill="#CACFE5"/>
<path d="M88.8563 33.7092C89.0467 34.7038 88.8011 35.3484 87.6285 35.1335C85.9954 34.8388 85.7867 35.6983 85.8542 37.0551C85.9463 38.9399 85.8788 40.8308 85.8788 42.7217C85.8788 43.2926 85.9402 43.8636 85.0561 43.8697C84.1598 43.8759 84.2396 43.2926 84.2396 42.7278C84.2335 41.1562 84.2335 39.5784 84.2335 38.0067C84.2335 35.0905 84.2334 35.0906 81.3664 35.1826C81.0103 34.0592 81.3111 33.5864 82.5943 33.6539C84.6755 33.7522 86.769 33.6969 88.8563 33.7092Z" fill="#CACFE5"/>
<path d="M70.8446 43.9189C69.5369 44.0662 69.1133 43.5014 69.1931 42.1937C69.2913 40.6405 69.1501 39.075 69.1133 37.5095C69.1501 36.5088 69.2054 35.5142 69.2176 34.5135C69.2238 33.8689 69.5001 33.6478 70.1324 33.6417C70.7954 33.6294 70.998 33.9118 70.9858 34.5319C70.9305 37.663 70.8937 40.794 70.8446 43.9189Z" fill="#CACFE5"/>
<path d="M61.4756 35.6063C60.9967 33.9855 61.6721 33.4022 63.2437 33.6724C64.5637 33.8995 65.9818 33.1628 67.2281 34.0899C67.1606 34.4459 67.0931 34.802 67.0255 35.1581C66.0432 35.1458 65.0548 35.1519 64.0725 35.109C63.4279 35.0783 62.9982 35.2686 62.9368 35.9685C62.3842 36.0974 61.979 35.6554 61.4756 35.6063Z" fill="#CACFE5"/>
<path d="M42.8857 43.704C41.6149 44.0416 40.8475 43.8513 40.4362 42.8261C40.3441 42.5928 40.2151 42.3595 40.0432 42.1876C39.2267 41.3772 39.2451 39.3451 37.563 39.8915C36.3474 40.2905 37.2376 41.764 37.0718 42.7401C36.9675 43.3541 36.9552 43.8513 36.1571 43.8575C35.3528 43.8636 35.2607 43.397 35.2669 42.7524C35.2853 40.0388 35.2792 37.3253 35.2792 34.6117C35.2792 34.1512 35.273 33.6724 35.9115 33.6847C37.2928 33.7092 38.7049 33.4759 40.0555 33.8811C42.1674 34.5073 42.941 37.1411 41.2404 38.5101C40.0187 39.4986 40.5467 40.0634 41.1053 40.9045C41.6763 41.7762 42.235 42.6787 42.8857 43.704Z" fill="#CACFE5"/>
<path d="M44.353 38.768C44.353 38.5163 44.353 38.2646 44.353 38.0067C44.3468 33.2058 44.3468 33.2058 49.1539 33.6663C49.5714 33.7031 50.0809 33.5557 50.1116 34.2495C50.1423 34.9309 49.7801 35.1213 49.1784 35.1028C48.675 35.0844 48.1655 35.1335 47.662 35.0967C46.6675 35.023 46.0351 35.1213 46.0535 36.4535C46.0658 37.7366 46.5999 37.8471 47.6498 37.8778C48.4049 37.9024 49.7862 37.2761 49.8415 38.4303C49.9152 39.9836 48.3865 39.2039 47.6313 39.2039C46.3605 39.2039 46.0535 39.6521 46.0474 40.8431C46.0413 42.0648 46.3851 42.4577 47.6436 42.47C48.4417 42.4761 50.0318 41.6535 50.0072 43.1883C49.9827 44.496 48.4724 43.7899 47.6682 43.8145C44.353 43.9189 44.353 43.8636 44.353 40.4624C44.353 39.9038 44.353 39.339 44.353 38.768Z" fill="#CACFE5"/>
<path d="M56.1223 43.9066C55.8706 43.9496 55.6251 43.9925 55.3734 44.0355C52.273 42.8199 51.0145 39.9467 52.1318 36.6315C53.0036 34.0592 55.6619 32.8374 58.4921 33.7461C58.885 33.875 59.591 33.8259 59.3516 34.6547C59.1429 35.373 58.7745 35.4037 58.0869 35.2563C55.5146 34.6915 54.3665 35.287 53.8078 37.3191C53.0895 39.9099 53.8692 41.6473 56.1285 42.5068C56.9266 42.9796 56.9818 43.4461 56.1223 43.9066Z" fill="#CACFE5"/>
<path d="M56.1221 43.9066C56.4475 43.44 56.5641 42.9796 56.1282 42.513C56.8772 42.2981 57.7428 42.6972 58.4182 42.0771C59.7074 42.4209 59.4864 43.0594 58.6392 43.6303C57.8902 44.146 56.9877 44.0232 56.1221 43.9066Z" fill="#A7ADC4"/>
<path d="M61.4755 35.6062C62.114 35.1212 62.4762 35.7167 62.9305 35.9746C63.1945 36.6315 62.556 37.6629 63.7532 37.9269C64.1093 38.1602 64.6679 38.3444 64.5329 38.8539C64.3794 39.4371 63.833 39.2039 63.4155 39.1302C63.1638 39.0872 62.7648 38.7557 62.9858 39.4126C62.9735 39.916 62.9612 40.4194 62.9551 40.9228C62.0894 41.0334 61.9851 40.1616 61.4939 39.7871C61.2361 38.3996 61.3282 37.006 61.4755 35.6062Z" fill="#8E94A5"/>
<path d="M61.4942 39.7933C62.3168 39.738 62.4764 40.5361 62.9553 40.929C62.9614 41.3158 62.9737 41.7026 62.9799 42.0832C62.5563 43.0409 63.2009 43.0655 63.8701 43.1269C64.9383 43.2313 66.0863 42.8077 67.0625 43.5812C65.7732 44.367 64.3305 43.6672 62.9921 44.0048C61.7336 44.0539 61.2179 43.4461 61.353 42.1999C61.4389 41.4018 61.4512 40.5975 61.4942 39.7933Z" fill="#A7ADC4"/>
<path d="M67.0561 43.5812C65.8589 43.5873 64.6618 43.6119 63.4646 43.5812C62.9857 43.5689 62.292 43.8391 62.0833 43.3049C61.8193 42.648 62.5437 42.4025 62.9796 42.0832C63.9496 42.7278 65.0363 42.3349 66.0615 42.3779C66.9579 42.4147 67.3876 42.6296 67.0561 43.5812Z" fill="#CACFE5"/>
<path d="M62.9855 39.4188C62.4637 39.1671 62.0769 38.8049 61.9111 38.1909C62.9671 37.7243 63.2249 39.4802 64.287 38.8417C64.1151 38.547 63.931 38.24 63.7468 37.9331C64.2563 37.9331 64.7659 37.9331 65.2755 37.9331C65.6929 38.3812 66.3253 38.547 66.7243 39.0259C65.5395 39.7135 64.2072 39.0443 62.9855 39.4188Z" fill="#A7ADC4"/>
<path d="M66.7248 39.0197C65.9696 39.0197 65.3189 38.8785 65.2759 37.9269C66.0433 37.9146 67.1668 37.4357 66.7248 39.0197Z" fill="#8E94A5"/>
<path d="M112.726 28.6013C111.621 28.2207 110.467 28.0427 109.307 28.0058C108.146 27.9628 106.992 28.0488 105.838 28.19C104.684 28.3312 103.536 28.5583 102.369 28.6627C101.203 28.7671 100.036 28.8469 98.8577 28.8285L98.8516 28.7671C99.9873 28.454 101.142 28.2391 102.296 28.0549C103.45 27.8707 104.616 27.7787 105.795 27.6989C106.968 27.619 108.153 27.5945 109.331 27.6989C110.504 27.8155 111.67 28.0795 112.751 28.5399L112.726 28.6013Z" fill="#00254D"/>
<path d="M102.836 13.8363C101.792 13.8793 101.006 14.659 100.374 15.4203C99.7294 16.2122 99.0418 16.9858 98.9313 17.9619C98.8024 18.9442 98.7901 19.9879 98.6857 20.9947C98.5814 22.0077 98.4893 23.0269 98.3358 24.0521H98.2744C98.0964 23.0269 98.0534 21.9893 98.0718 20.9579C98.1025 19.9142 98.2437 18.9074 98.4524 17.8698C98.5568 17.3419 98.8024 16.82 99.1216 16.3964C99.4409 15.9667 99.7908 15.5983 100.147 15.2177C100.509 14.8432 100.902 14.4871 101.344 14.2108C101.792 13.9346 102.308 13.7565 102.836 13.7749V13.8363Z" fill="#00254D"/>
<path d="M38.3359 58.6286L57.0669 58.4137C60.1857 58.383 63.3106 58.3094 66.4355 58.3523C69.5542 58.4076 72.6791 58.4506 75.804 58.6286V58.69C72.6791 58.868 69.5604 58.911 66.4355 58.9663C63.3106 59.0092 60.1918 58.9356 57.0669 58.9049L38.3359 58.69V58.6286Z" fill="#00254D"/>
<path d="M38.3359 66.2904L57.0669 66.0755C60.1857 66.0448 63.3106 65.9712 66.4355 66.0142C69.5542 66.0694 72.6791 66.1124 75.804 66.2904V66.3518C72.6791 66.5298 69.5604 66.5728 66.4355 66.6281C63.3106 66.6711 60.1918 66.5974 57.0669 66.5667L38.3359 66.3518V66.2904Z" fill="#00254D"/>
<path d="M38.3359 74.3575L57.0669 74.1426C60.1857 74.1119 63.3106 74.0382 66.4355 74.0812C69.5542 74.1365 72.6791 74.1794 75.804 74.3575V74.4189C72.6791 74.5969 69.5604 74.6399 66.4355 74.6951C63.3106 74.7381 60.1918 74.6644 57.0669 74.6337L38.3359 74.4189V74.3575Z" fill="#00254D"/>
<path d="M38.3359 82.8297L57.0669 82.6148C60.1857 82.5841 63.3106 82.5104 66.4355 82.5534C69.5542 82.6087 72.6791 82.6516 75.804 82.8297V82.8911C72.6791 83.0691 69.5604 83.1121 66.4355 83.1673C63.3106 83.2103 60.1918 83.1367 57.0669 83.106L38.3359 82.8911V82.8297Z" fill="#00254D"/>
<path d="M38.3359 90.4976L57.0669 90.2828C60.1857 90.2521 63.3106 90.1784 66.4355 90.2214C69.5542 90.2766 72.6791 90.3196 75.804 90.4976V90.559C72.6791 90.7371 69.5604 90.7801 66.4355 90.8353C63.3106 90.8783 60.1918 90.8046 57.0669 90.7739L38.3359 90.559V90.4976Z" fill="#00254D"/>
<path d="M38.3359 98.5647L57.0669 98.3498C60.1857 98.3191 63.3106 98.2454 66.4355 98.2884C69.5542 98.3437 72.6791 98.3866 75.804 98.5647V98.6261C72.6791 98.8041 69.5604 98.8471 66.4355 98.9023C63.3106 98.9453 60.1918 98.8717 57.0669 98.841L38.3359 98.6261V98.5647Z" fill="#00254D"/>
<path d="M87.9482 124.479C88.292 123.159 89.7286 122.232 91.0916 122.49C91.4231 122.526 91.7546 122.575 92.0677 122.514C92.3808 122.459 92.6448 122.256 92.8167 121.986C93.1544 121.434 93.1912 120.746 93.2587 120.089C93.4797 117.431 93.1912 114.766 93.0561 112.096C92.8781 109.425 92.7246 106.761 92.5834 104.09C92.479 101.419 92.3624 98.7489 92.3378 96.0721H92.3808C92.6387 98.7366 92.8106 101.407 92.9947 104.072C93.1421 106.742 93.2772 109.413 93.3815 112.083C93.4797 114.748 93.7315 117.431 93.4675 120.114C93.3877 120.771 93.3447 121.477 92.964 122.078C92.7737 122.373 92.4606 122.6 92.1107 122.655C91.7607 122.717 91.4231 122.655 91.0916 122.612C89.79 122.336 88.3719 123.202 88.0035 124.491L87.9482 124.479Z" fill="#00254D"/>
</g>
</svg>
