<svg width="741" height="325" viewBox="0 0 741 325" fill="none" xmlns="http://www.w3.org/2000/svg">
<path d="M573.692 6.36254L585.939 7.17654L598.171 8.11993C602.247 8.44517 606.348 8.56022 610.39 9.17655C614.434 9.77672 618.467 10.4739 622.469 11.5773L622.441 11.8198C618.3 12.0606 614.207 11.881 610.125 11.6042C606.041 11.3437 602.014 10.598 597.962 10.0625L585.814 8.39132L573.664 6.60516L573.692 6.36254Z" fill="#018403" fill-opacity="0.7"/>
<path d="M567.825 37.6521L580.092 37.2336L592.357 36.9454C596.445 36.8602 600.536 36.5634 604.62 36.7712C608.704 36.9627 612.787 37.2518 616.879 37.9482L616.876 38.1924C612.779 38.8473 608.689 39.0792 604.6 39.2132C600.511 39.3636 596.429 39.0255 592.344 38.8991L580.09 38.4548L567.821 37.8963L567.825 37.6521Z" fill="#018403" fill-opacity="0.7"/>
<path d="M568.314 66.4938L580.306 63.8759L592.319 61.3865C596.325 60.5674 600.296 59.5396 604.351 59.0095C608.403 58.4634 612.471 58.0136 616.622 57.9626L616.662 58.2034C612.75 59.5845 608.768 60.5482 604.77 61.4154C600.775 62.2988 596.699 62.7004 592.657 63.3107L580.523 65.0775L568.354 66.7347L568.314 66.4938Z" fill="#018403" fill-opacity="0.7"/>
<path d="M611.95 12.2354C603.773 11.9761 595.648 10.9653 587.657 9.21326C587.263 9.12151 586.503 9.13378 586.168 9.42304C585.906 9.64655 585.773 9.85422 586.24 9.96563C594.376 11.7464 602.649 12.7756 610.973 13.0532C611.313 13.0636 612.199 13.0669 612.392 12.7173C612.586 12.3572 612.334 12.2404 611.95 12.2354Z" fill="#D2EDD2"/>
<path d="M606.479 39.658C598.318 40.2201 590.132 40.0293 582.005 39.0876C581.604 39.0359 580.85 39.1243 580.545 39.4457C580.307 39.6944 580.195 39.9143 580.671 39.9784C588.945 40.9341 597.28 41.1284 605.589 40.5697C605.929 40.5458 606.81 40.4604 606.967 40.0932C607.124 39.7154 606.862 39.6245 606.479 39.658Z" fill="#D2EDD2"/>
<path d="M606.699 61.5149C598.772 63.5357 590.685 64.8203 582.521 65.3555C582.117 65.3768 581.391 65.5994 581.15 65.9703C580.959 66.2579 580.89 66.4942 581.369 66.4718C589.68 65.9238 597.914 64.6159 605.987 62.5718C606.317 62.4873 607.169 62.2447 607.257 61.8552C607.344 61.4553 607.069 61.4132 606.699 61.5149Z" fill="#D2EDD2"/>
<path d="M640.141 7.08122C640.189 7.61655 640.22 8.16767 640.267 8.703C643.778 10.923 647.683 9.67918 650.801 8.59277C656.107 6.76635 658.406 7.96297 660.799 13.0171C664.137 20.0551 668.687 26.4948 670.136 34.3673C670.403 35.8159 671.049 37.4534 673.206 37.0282C671.521 28.337 676.323 21.0156 678.323 13.1116C679.252 9.42725 682.795 10.986 686.164 10.12C675.82 3.34964 665.365 1.60198 654.296 2.32625C649.132 2.56242 644.66 4.89266 640.141 7.08122Z" fill="#D6EFD6"/>
<path d="M725.227 247.869C725.148 249.16 724.912 250.373 723.621 251.065C721.18 255.506 720.834 260.638 718.897 265.236C718.582 268.794 716.535 271.518 714.378 274.1C712.615 276.21 711.623 278.32 712.662 281.028C719.637 273.408 725.227 265.078 726.423 254.466C726.691 252.136 727.384 249.743 725.227 247.869Z" fill="#D6EFD6"/>
<path d="M679.85 300.757C679 303.15 675.489 305.496 679.724 307.984C687.55 304.551 691.14 295.986 698.776 292.333C698.555 292.018 698.335 291.688 698.115 291.373C695.391 289.814 692.887 290.617 690.447 292.05C687.408 293.939 684.621 296.191 681.787 298.379C680.968 299.025 680.338 299.844 679.85 300.757Z" fill="#D6EFD6"/>
<path d="M711.12 282.587C708.774 282.241 706.695 283.138 704.601 284.036C701.862 282.209 699.516 283.642 697.138 284.917C696.587 285.453 696.304 286.098 696.272 286.854C696.414 289.389 700.854 288.838 700.035 292.066C705.247 290.68 708.065 286.492 711.12 282.587Z" fill="#D6EFD6"/>
<path d="M726.77 175.521C724.834 173.978 725.243 171.79 725.243 169.743C725.259 145.858 721.385 122.335 718.85 98.6856C718.646 96.7175 718.441 94.6077 715.717 96.8435C712.757 99.9453 714.048 103.63 714.237 107.219C715.638 136.033 720.614 164.563 721.433 193.423C721.543 197.076 721.37 200.713 720.803 204.319C720.693 207.688 717.953 210.097 717.418 213.325C717.071 217.639 718.913 218.143 721.543 215.262C725.117 211.341 726.865 206.539 726.817 201.107C726.739 192.589 726.77 184.055 726.77 175.521Z" fill="#D6EFD6"/>
<path d="M715.765 208.601C718.064 208.853 720.095 208.019 722.079 207.027C724.189 205.2 723.543 202.697 723.606 200.43C724.11 181.079 721.276 161.98 719.386 142.803C717.891 127.515 716.914 112.179 715.718 96.8591C712.411 90.9862 714.395 83.8065 711.057 77.9336C709.609 75.0365 709.215 71.6829 707.247 69.0062C705.846 67.0223 703.862 66.0146 701.594 65.4005C695.548 64.7078 689.912 62.1886 683.283 64.3141C677.489 66.172 676.119 59.6222 673.568 55.8906C672.797 55.5599 672.073 55.623 671.38 56.111C669.427 58.5358 669.711 61.3384 669.931 64.1567C670.23 66.1248 670.892 67.9355 672.01 69.5888C672.466 70.2028 673.049 70.6909 673.71 71.0688C675.757 71.8875 677.93 72.2654 680.071 72.7378C683.645 72.785 687.093 71.8088 690.636 71.6041C691.313 71.4939 691.99 71.3207 692.651 71.116C695.375 70.1555 697.91 70.2815 700.114 72.4071C704.523 75.871 706.161 80.4528 705.877 85.9478C705.704 89.2543 705.751 92.6079 706.696 95.8672C709.121 110.683 710.522 125.609 711.955 140.536C712.317 144.393 711.923 148.33 713.592 151.982C717.261 157.068 716.033 162.957 716.206 168.625C716.316 169.349 716.521 170.058 716.773 170.75C718.961 177.174 719.922 183.819 720.063 190.589C720.126 193.801 719.749 196.84 716.836 198.887C715.671 199.816 714.379 200.54 713.183 201.437C710.254 205.169 712.884 206.932 715.765 208.601Z" fill="#D6EFD6"/>
<path d="M701.72 66.8019C703.247 67.8883 704.759 68.9905 706.286 70.0769C707.688 71.8246 708.79 73.8557 710.963 74.8319C711.514 74.8319 712.065 74.8161 712.616 74.8161C712.332 69.1479 707.294 66.4713 704.696 62.2359C703.657 61.6848 702.618 61.1494 701.579 60.5983C699.847 59.7796 698.792 60.7873 697.815 62.0154C697.359 63.0861 697.343 64.141 697.831 65.2116C698.855 66.4082 700.618 65.8257 701.72 66.8019Z" fill="#D6EFD6"/>
<path d="M717.323 169.223C716.661 179.709 720.487 190.211 717.323 200.697C719.496 199.579 721.716 198.036 721.794 195.58C722.062 186.527 722.582 177.363 717.323 169.223Z" fill="#D6EFD6"/>
<path d="M715.747 153.478C716.456 158.705 714.126 164.232 717.322 169.223C717.779 163.87 720.329 158.328 715.747 153.478Z" fill="#D6EFD6"/>
<path d="M670.103 65.3534C670.623 65.3376 671.126 65.3376 671.646 65.3376C671.662 62.1886 671.693 59.0554 671.709 55.9064L671.63 55.8906C666.686 58.2996 667.757 61.7005 670.056 65.3219L670.103 65.3534Z" fill="#D6EFD6"/>
<path d="M670.072 65.3216C670.592 62.1726 668.892 58.6615 671.647 55.8904C671.332 49.5137 672.796 42.9323 669.002 35.7368C666.105 46.7111 669.695 58.1262 662.263 66.9119C662.735 68.6911 659.98 70.7537 661.759 71.8086C663.318 72.7218 665.727 71.7771 667.018 69.7775C667.978 68.266 669.049 66.8017 670.072 65.3216Z" fill="#D6EFD6"/>
<path d="M629.167 33.8476C630.096 34.0208 631.198 35.1072 631.907 33.9421C632.678 32.651 632.001 31.4859 630.741 30.6986C630.238 30.6986 629.734 30.6986 629.23 30.7144C629.198 31.7535 629.183 32.8084 629.167 33.8476Z" fill="#D6EFD6"/>
<path d="M679.551 252.656C679.551 251.081 679.567 249.507 679.567 247.932C675.945 247.491 673.851 249.759 671.993 252.309C666.687 259.631 661.649 267.11 651.698 268.968C647.888 269.676 649.147 272.762 649.966 275.266C655.666 283.815 665.176 285.201 673.946 287.987C674.654 288.302 675.41 288.476 676.166 288.57C678.386 288.413 680.621 287.862 682.826 288.759L683.566 288.79L684.306 288.775C685.439 286.838 685.093 285.515 682.763 284.933C679.614 284.146 676.481 283.296 673.332 282.461C669.191 279.989 664.735 278.005 660.783 275.045C662.247 272.51 664.136 270.857 666.278 269.408C669.71 266.653 672.702 263.425 676.15 260.654C678.527 258.78 680.779 256.293 679.551 252.656Z" fill="#D6EFD6"/>
<path d="M687.423 218.017C687.423 224.835 687.423 231.652 687.423 238.485C686.872 238.832 686.699 239.178 686.888 239.54C687.077 239.887 687.25 240.06 687.439 240.06C688.478 240.863 687.927 242.453 689.013 243.225C692.965 234.833 687.329 226.551 688.73 218.174C688.746 218.08 688.384 217.812 688.179 217.797C687.911 217.749 687.659 217.922 687.423 218.017Z" fill="#D6EFD6"/>
<path d="M688.998 243.209C688.951 241.918 688.683 240.737 687.424 240.044C687.801 242.689 686.384 245.681 688.951 247.901C688.967 246.846 688.982 245.807 688.998 244.752C688.982 244.232 688.982 243.728 688.998 243.209Z" fill="#D6EFD6"/>
<path d="M707.97 40.9801C707.12 32.7927 703.609 24.9989 698.633 18.4647C697.39 16.8272 696.067 15.2527 694.666 13.7254C693.249 12.1982 691.69 10.8284 690.052 9.56884C688.431 8.29349 686.62 7.19134 684.841 6.21515C683.062 5.20747 681.251 4.19976 679.377 3.33378C677.504 2.46781 675.535 1.71207 673.457 1.28695C671.363 0.830349 669.269 0.83032 667.206 0.814575C663.065 0.877555 658.909 1.38142 654.894 2.46783C650.879 3.53849 646.958 5.16024 643.463 7.50625C639.873 9.80502 637.086 13.2059 635.055 16.843C632.977 20.4959 631.528 24.4164 630.284 28.3684C629.056 32.3204 628.143 36.477 628.159 40.7597C628.159 49.325 631.875 57.5281 637.401 63.8418C643.022 70.1555 650.391 74.5956 658.153 77.4297C662.058 78.8153 666.041 79.9647 670.151 80.5787C674.244 81.1298 678.559 81.0668 682.4 79.4766L682.322 79.2562C678.417 80.4686 674.276 80.3268 670.324 79.5238C666.372 78.7366 662.483 77.4298 658.751 75.9025C651.304 72.8165 644.313 68.4079 639.196 62.2988C636.614 59.2758 634.473 55.8906 632.977 52.222C631.465 48.5849 630.536 44.6802 630.489 40.7439C630.395 36.8077 631.182 32.8556 632.3 28.9823C633.449 25.1091 634.787 21.2831 636.708 17.7719C638.614 14.2765 641.133 11.1276 644.439 8.939C647.714 6.67172 651.446 5.06577 655.319 3.96362C659.192 2.86147 663.223 2.29465 667.254 2.18443C669.269 2.18443 671.3 2.15291 673.237 2.54653C675.189 2.92441 677.079 3.61721 678.921 4.43595C680.763 5.25469 682.558 6.19938 684.368 7.17557C686.195 8.13601 687.911 9.12798 689.533 10.3561C691.155 11.5685 692.713 12.8752 694.115 14.3238C695.516 15.8038 696.854 17.3311 698.114 18.9214C703.152 25.2823 706.774 32.9029 707.781 41.0273L707.97 40.9801Z" fill="#00254D"/>
<path d="M711.103 41.7358C717.102 57.4651 723.116 73.2258 727.431 89.4747C728.533 93.5211 729.477 97.599 730.359 101.708C730.8 103.771 731.225 105.818 731.571 107.865C731.902 109.912 732.17 112.006 732.469 114.1C733.681 122.429 734.862 130.758 735.492 139.087C735.649 141.197 735.712 143.165 735.712 145.369L736.106 151.715C736.374 155.919 736.626 160.107 736.799 164.295C736.893 166.389 736.972 168.483 736.988 170.546L736.925 176.812C736.909 181 736.783 185.189 736.61 189.377C736.106 206.129 734.043 222.803 730.564 239.288L730.863 239.367C736.09 223.291 738.672 206.413 739.743 189.534C740.153 181.079 740.467 172.64 739.885 164.122C739.601 159.902 739.255 155.698 738.877 151.494L738.342 145.228C738.295 143.212 738.169 140.977 737.964 138.882C737.177 130.427 735.823 122.098 734.453 113.785C734.106 111.707 733.807 109.628 733.429 107.534C733.036 105.44 732.563 103.377 732.091 101.315C731.131 97.2054 730.091 93.096 728.911 89.0495C724.156 72.8164 717.747 57.1974 711.355 41.6256L711.103 41.7358Z" fill="#00254D"/>
<path d="M730.659 239.304C728.738 248.452 725.242 257.222 720.818 265.409C716.362 273.534 710.851 281.375 703.215 286.602C699.452 289.279 694.854 290.097 690.273 290.066C687.99 290.066 685.691 289.877 683.424 289.483C681.172 289.105 678.92 288.57 676.811 287.751C672.512 286.051 668.214 284.146 664.041 282.115C659.869 280.052 655.775 277.816 651.996 275.045L651.902 275.171C655.429 278.273 659.428 280.824 663.538 283.091C667.679 285.358 671.898 287.326 676.244 289.216C680.731 290.948 685.518 291.688 690.288 291.625C692.682 291.577 695.075 291.325 697.405 290.727C699.783 290.16 701.971 289.011 703.923 287.657C711.733 282.083 717.149 274.037 721.511 265.787C725.793 257.442 729.084 248.546 730.816 239.335L730.659 239.304Z" fill="#00254D"/>
<path d="M650.548 272.4C648.564 272.18 646.911 270.779 645.935 269.094C644.927 267.409 644.628 265.394 644.628 263.426C644.628 261.442 644.911 259.458 645.132 257.458C645.384 255.474 645.651 253.475 645.998 251.507C647.304 243.618 649.43 235.809 653.114 228.787C654.957 225.276 657.208 222.016 659.79 219.025C662.357 216.033 665.144 213.231 668.245 210.853C671.3 208.444 674.764 206.46 678.543 205.752C682.29 204.98 686.336 205.736 689.737 207.909L689.879 207.72C689.06 207.122 688.257 206.476 687.391 205.925L685.99 205.248C685.518 205.012 685.061 204.776 684.541 204.665C683.534 204.398 682.51 204.083 681.455 204.067C680.936 204.035 680.4 203.957 679.881 203.973L678.306 204.099C674.055 204.539 670.229 206.586 666.86 208.932C663.506 211.373 660.562 214.301 657.995 217.513C655.429 220.71 653.209 224.205 651.445 227.905C647.84 235.274 645.919 243.288 644.848 251.302C644.581 253.302 644.392 255.317 644.218 257.332C644.077 259.348 643.872 261.363 643.951 263.41C644.03 265.441 644.423 267.567 645.572 269.314C646.675 271.03 648.47 272.463 650.564 272.605L650.548 272.4Z" fill="#00254D"/>
<path d="M689.722 207.862C692.273 214.396 692.745 221.575 691.753 228.424C690.73 235.289 688.321 241.981 684.463 247.712C680.574 253.443 675.583 258.371 670.245 262.764C667.569 264.953 664.75 267 661.696 268.621C660.169 269.44 658.594 270.18 656.988 270.81C655.382 271.471 653.713 271.991 651.997 272.306L652.013 272.463C659.098 271.849 665.632 268.259 671.206 263.992C676.795 259.647 681.66 254.356 685.502 248.389C689.344 242.39 691.643 235.525 692.525 228.519C693.328 221.512 692.635 214.27 689.864 207.783L689.722 207.862Z" fill="#00254D"/>
<path d="M679.489 70.124C683.283 69.0848 687.156 68.3921 691.077 68.0614C694.95 67.7937 699.044 67.4789 702.586 69.1636C706.129 70.7853 708.806 73.8714 710.679 77.2565C712.584 80.6575 713.702 84.4362 714.521 88.2623C715.34 92.0883 715.796 95.9931 716.237 99.8978L717.465 111.628C718.221 119.453 718.882 127.294 719.402 135.135C719.922 142.976 720.331 150.833 720.599 158.69C720.914 166.546 721.15 174.403 721.228 182.26C721.339 190.085 721.024 197.958 719.182 205.547C718.741 207.405 718.095 209.294 716.489 210.144C714.899 210.979 712.836 211.042 710.916 211.309C707.026 211.766 703.09 211.908 699.154 211.782L699.138 211.939C703.059 212.27 707.026 212.301 710.963 212.034C711.955 211.971 712.931 211.876 713.923 211.75C714.915 211.624 715.938 211.435 716.899 210.947C717.875 210.459 718.646 209.609 719.134 208.68C719.638 207.751 719.953 206.775 720.221 205.814C722.315 198.131 722.724 190.117 722.771 182.244C722.693 174.356 722.457 166.483 722.126 158.611C721.748 150.738 721.244 142.882 720.63 135.025C720.032 127.168 719.292 119.327 718.457 111.502L717.103 99.7719C716.631 95.8671 716.127 91.9466 715.261 88.0733C714.395 84.2158 713.199 80.374 711.199 76.9259C709.247 73.4934 706.444 70.3602 702.76 68.7228C699.044 67.0223 694.903 67.4159 691.03 67.7308C687.109 68.1087 683.22 68.8644 679.426 69.9508L679.489 70.124Z" fill="#00254D"/>
<path d="M677.975 85.507C680.479 84.5623 683.313 83.7593 685.832 84.8457C688.304 85.9164 689.989 88.3253 690.76 90.8603C691.548 93.4425 691.563 96.1821 691.579 98.906C691.626 101.646 691.658 104.385 691.8 107.109C692.366 118.036 693.783 128.9 695.405 139.717C697.011 150.534 698.649 161.319 699.94 172.136C700.318 174.828 700.538 177.552 700.821 180.26C701.042 182.968 701.247 185.692 701.404 188.4C701.53 191.124 701.672 193.848 701.656 196.572C701.687 197.942 701.672 199.28 701.75 200.682C701.829 201.374 701.971 202.083 702.302 202.713C702.616 203.343 703.246 203.894 703.986 203.909L704.002 203.752C703.341 203.689 702.837 203.185 702.585 202.587C702.333 201.988 702.239 201.311 702.207 200.65C702.207 199.343 702.333 197.926 702.38 196.572C702.538 193.833 702.506 191.093 702.506 188.353C702.427 182.874 702.05 177.395 701.514 171.947C700.412 161.036 698.413 150.282 696.649 139.512C694.87 128.743 693.295 117.942 692.587 107.062C692.398 104.338 692.319 101.614 692.225 98.8902C692.162 96.1663 692.099 93.3637 691.233 90.7185C690.367 88.1049 688.588 85.633 685.974 84.5623C684.667 84.027 683.234 83.9796 681.88 84.1843C680.51 84.4048 679.219 84.8614 677.944 85.3652L677.975 85.507Z" fill="#00254D"/>
<path d="M654.643 24.7939C655.383 24.2272 656.957 24.1162 657.386 25.297C657.843 27.0145 656.501 28.1954 654.81 27.4708C653.844 26.8267 653.903 25.3607 654.643 24.7939Z" stroke="#00254D" stroke-miterlimit="10"/>
<path d="M643.56 27.8046C644.3 27.2378 645.874 27.1268 646.304 28.3076C646.76 30.0252 645.418 31.206 643.728 30.4814C642.762 29.8373 642.82 28.3714 643.56 27.8046Z" stroke="#00254D" stroke-miterlimit="10"/>
<path d="M640.17 38.8615C640.91 38.2947 642.484 38.1837 642.914 39.3645C643.37 41.0821 642.028 42.2629 640.338 41.5383C639.372 40.8942 639.43 39.4283 640.17 38.8615Z" stroke="#00254D" stroke-miterlimit="10"/>
<path d="M646.423 49.4004C647.163 48.8336 648.738 48.7226 649.167 49.9034C649.624 51.621 648.282 52.8018 646.591 52.0772C645.625 51.4331 645.683 49.9672 646.423 49.4004Z" stroke="#00254D" stroke-miterlimit="10"/>
<path d="M658.319 47.7473C659.059 47.1805 660.634 47.0695 661.063 48.2504C661.52 49.9679 660.178 51.1487 658.487 50.4241C657.521 49.78 657.579 48.3141 658.319 47.7473Z" stroke="#00254D" stroke-miterlimit="10"/>
<path d="M660.014 35.8234C660.754 35.2566 662.329 35.1456 662.758 36.3264C663.215 38.044 661.872 39.2248 660.182 38.5002C659.216 37.8561 659.274 36.3902 660.014 35.8234Z" stroke="#00254D" stroke-miterlimit="10"/>
<path d="M649.814 39.1296C650.554 38.5629 652.128 38.4519 652.557 39.6327C653.014 41.3502 651.672 42.531 649.981 41.8065C649.015 41.1624 649.074 39.6964 649.814 39.1296Z" stroke="#00254D" stroke-miterlimit="10"/>
<path d="M675.475 226.304C676.117 225.821 678.293 226.761 676.89 229.526C676.199 230.088 675.375 229.065 675.233 228.451C675.091 227.837 674.938 226.708 675.475 226.304Z" stroke="#00254D" stroke-miterlimit="10"/>
<path d="M674.374 237.576C674.72 237.025 676.889 236.47 677.22 237.021C677.55 237.572 677.471 238.281 677.361 238.91C677.345 239.036 677.314 239.178 677.22 239.272C677.094 239.43 676.857 239.446 676.668 239.446C676.117 239.461 675.683 239.493 675.179 239.272C674.66 239.052 674.343 238.143 674.374 237.576Z" stroke="#00254D" stroke-miterlimit="10"/>
<path d="M669.812 244.902C670.778 244.902 670.717 246.421 670.576 247.019C670.434 247.618 670.41 248.153 669.812 248.247C669.702 248.263 669.158 248.295 669.064 248.247C668.938 248.184 668.875 248.027 668.828 247.901C668.513 247.035 667.584 245.198 669.812 244.902Z" stroke="#00254D" stroke-miterlimit="10"/>
<path d="M660.607 250.131C661.473 250.756 661.675 251.542 660.882 252.475C660.526 252.894 659.097 252.723 658.376 252.226C657.951 251.943 657.584 251.505 657.573 250.997C657.561 250.335 658.187 249.791 658.837 249.661C659.487 249.531 659.982 249.829 660.607 250.131Z" stroke="#00254D" stroke-miterlimit="10"/>
<path d="M657.574 239.696C657.905 240.83 657.885 241.634 657.24 242.626C656.799 243.288 655.98 243.854 655.256 243.555C654.311 243.177 654.343 241.792 654.815 240.894C654.988 240.564 655.193 240.249 655.476 240.013C656.201 239.399 656.881 239.066 657.574 239.696Z" stroke="#00254D" stroke-miterlimit="10"/>
<path d="M661.976 228.249C662.593 228.249 662.844 228.665 663.127 229.232C663.395 229.799 663.08 230.539 662.544 230.87C662.009 231.2 661.301 231.185 660.702 230.996C660.072 230.791 659.443 230.271 659.537 229.626C659.632 229.059 660.151 228.706 660.702 228.517C661.377 228.286 661.197 228.256 661.976 228.249Z" stroke="#00254D" stroke-miterlimit="10"/>
<path d="M667.301 236.013C667.826 236.315 667.49 237.351 666.86 237.871C666.718 237.997 666.242 238.326 665.758 238.391C664.94 238.501 664.499 237.241 665.002 236.596C665.506 235.95 666.482 235.856 667.301 236.013Z" stroke="#00254D" stroke-miterlimit="10"/>
<path d="M659.806 7.56935C665.049 10.4979 669.001 15.3159 671.473 20.6692C673.992 26.054 675.095 31.9899 675.409 37.91C675.693 43.8459 675.299 49.8132 674.307 55.6231C673.347 61.4645 671.426 67.117 668.497 72.36L668.623 72.4545C672.339 67.6838 674.591 61.8581 675.85 55.9223C677.063 49.9549 677.126 43.8459 676.653 37.8313C676.181 31.8167 674.906 25.7705 672.182 20.3385C669.458 14.9537 665.254 10.1987 659.869 7.44336L659.806 7.56935Z" fill="#00254D"/>
<path d="M692.179 295.703C678.244 304.599 662.326 309.936 646.172 313.038C629.97 316.187 613.469 317.415 597 318.344C564.046 320.139 530.965 319.683 498.074 316.959C481.636 315.589 465.23 313.699 448.934 311.228C444.856 310.645 440.778 309.968 436.716 309.275L430.623 308.252L424.545 307.118C420.483 306.378 416.436 305.607 412.406 304.741C408.375 303.89 404.297 303.182 400.376 302.064C392.488 299.907 384.899 296.726 377.767 292.727C374.193 290.712 370.713 288.586 367.643 285.973C364.557 283.375 361.801 280.367 359.487 277.061C354.826 270.479 351.819 262.654 351.252 254.656C350.984 250.672 351.362 246.61 352.716 242.926C354.055 239.257 356.464 235.982 359.77 234.014L359.628 234.093C363.864 232.298 368.65 231.652 372.886 233.164C377.168 234.597 380.396 238.155 382.097 242.406C383.026 244.563 383.734 246.783 384.175 249.051C384.6 251.318 384.757 253.648 384.757 256.026C384.773 258.387 384.679 260.828 384.6 263.205C384.505 265.488 384.049 267.787 383.451 270.039C382.175 274.51 380.286 278.982 377.405 282.446C374.382 285.894 370.524 288.807 366.478 291.074C365.454 291.625 364.415 292.129 363.36 292.57C362.352 292.979 361.156 293.31 360.022 293.672C357.755 294.412 355.44 295.01 353.126 295.624C348.497 296.805 343.789 297.703 339.065 298.395C320.14 301.088 300.711 299.812 282.273 294.648C273.015 292.16 263.852 289.027 254.452 286.539C245.068 283.989 235.526 282.052 225.922 280.619C206.697 277.738 187.173 277.092 167.807 278.21C148.441 279.344 129.185 282.147 110.275 286.288C91.3652 290.491 72.7546 295.923 54.4746 302.284C36.2261 308.724 18.3398 316.093 0.752686 324.091L0.878662 324.375C36.3679 309.165 73.0065 296.412 110.763 288.555C129.625 284.666 148.756 281.989 167.965 281.029C187.173 280.052 206.461 280.95 225.465 283.721C234.96 285.122 244.391 287.043 253.649 289.547C262.923 292.003 272.07 295.12 281.47 297.655C290.839 300.253 300.553 301.954 310.284 302.568C320.03 303.182 329.839 302.757 339.506 301.308C344.324 300.568 349.127 299.639 353.85 298.395C356.212 297.75 358.558 297.136 360.888 296.364C362.053 295.986 363.187 295.656 364.431 295.168C365.611 294.68 366.745 294.113 367.847 293.514C372.193 291.042 376.161 288.035 379.499 284.193C381.183 282.225 382.427 279.99 383.482 277.738C384.537 275.471 385.371 273.125 386.033 270.716C386.663 268.307 387.135 265.835 387.245 263.284C387.308 260.844 387.387 258.45 387.355 255.978C387.34 253.522 387.151 251.019 386.678 248.547C386.19 246.075 385.403 243.666 384.411 241.399C382.553 236.738 378.711 232.471 373.704 230.834C368.729 229.086 363.297 229.905 358.715 231.873L358.636 231.904L358.574 231.952C354.747 234.25 352.024 238.029 350.559 242.091C349.079 246.185 348.701 250.531 349.001 254.766C349.646 263.253 352.842 271.393 357.739 278.257C360.179 281.706 363.061 284.823 366.304 287.531C369.532 290.271 373.153 292.444 376.775 294.475C384.065 298.521 391.827 301.733 399.873 303.89C403.903 305.008 407.997 305.701 412.028 306.536C416.074 307.37 420.136 308.142 424.214 308.866L430.308 309.984L436.433 310.991C440.51 311.668 444.588 312.33 448.682 312.896C465.041 315.29 481.479 317.148 497.964 318.391C530.934 320.911 564.062 321.194 597.047 319.194C613.532 318.155 630.049 316.833 646.282 313.574C662.468 310.346 678.417 304.914 692.336 295.908L692.179 295.703Z" fill="#00254D"/>
<path d="M260.277 296.443C227.811 286.885 193.219 283.658 159.462 285.232C151.148 285.626 143.04 287.373 135.057 289.625C133.341 290.113 131.058 289.956 129.531 289.011C128.271 288.224 128.239 287.059 129.798 286.618C137.529 284.429 145.417 282.666 153.447 282.004C161.997 281.312 170.625 281.39 179.19 281.548C197.234 281.863 215.231 283.374 233.007 286.476C243.036 288.224 252.971 290.522 262.733 293.404C263.678 293.687 266.04 294.38 265.237 295.797C264.497 297.057 261.348 296.758 260.277 296.443Z" fill="#D6EFD6"/>
<path d="M377.049 269.546C378.277 268.223 378.529 266.224 378.875 264.523C379.253 262.665 379.521 260.792 379.631 258.918C379.867 255.076 379.489 251.171 378.198 247.534C377.112 244.496 375.333 241.709 372.987 239.473C371.822 238.355 370.53 237.379 369.113 236.623C368.405 236.245 367.681 235.915 366.925 235.663C366.61 235.552 366.279 235.458 365.949 235.379C365.697 235.316 365.429 235.253 365.177 235.222C364.799 235.127 364.831 235.19 365.256 235.426C364.516 235.993 363.225 235.915 362.343 235.852C362.17 235.836 360.139 235.489 360.706 235.08C363.713 232.797 368.909 234.104 372.058 235.489C375.758 237.095 378.844 239.992 380.938 243.409C383.331 247.33 384.37 251.896 384.433 256.462C384.465 258.871 384.229 261.28 383.788 263.657C383.41 265.751 383.111 268.318 381.615 269.939C381.032 270.569 379.458 270.428 378.702 270.365C378.45 270.317 376.561 270.081 377.049 269.546Z" fill="#D6EFD6"/>
<path d="M575.051 322.265C563.652 322.942 552.252 322.438 540.853 322.139C532.004 321.903 523.124 322.233 514.291 321.792C509.505 321.556 504.765 320.895 499.995 320.438C494.578 319.919 489.178 319.698 483.793 318.943C475.118 317.73 466.442 317.683 457.719 317.085C446.635 316.329 435.488 314.691 425.033 310.802C424.655 310.661 422.844 309.936 423.096 309.291C423.348 308.661 425.253 309.417 425.537 309.527C442.982 316.014 461.671 314.329 479.81 316.644C484.612 317.258 489.398 317.699 494.232 318.045C499.286 318.407 504.293 319.179 509.347 319.509C517.582 320.06 525.832 319.73 534.083 319.887C546.568 320.155 559.054 320.832 571.54 320.092C572.579 320.029 573.76 320.501 574.626 321.052C574.925 321.288 576.09 322.202 575.051 322.265Z" fill="#D6EFD6"/>
<path d="M695.375 294.632C661.838 309.668 625.372 318.139 588.639 319.414" stroke="#00254D" stroke-miterlimit="10"/>
</svg>
