<svg width="79" height="107" viewBox="0 0 79 107" fill="none" xmlns="http://www.w3.org/2000/svg">
<path d="M5.25732 0.963557L30.9779 0.634911L56.7156 0.358154H57.0616L57.3383 0.643542C58.1513 1.49109 58.9988 2.31271 59.9069 3.09107C60.7804 3.89537 61.7145 4.65641 62.6485 5.41748C64.5252 6.93096 66.4365 8.45312 68.2613 10.105C70.0862 11.7482 71.8072 13.573 73.1563 15.6659C73.8655 16.6864 74.3844 17.854 74.912 18.9004C75.4482 19.9296 76.1574 20.9933 77.3509 21.2009L77.3335 21.3739C76.7022 21.3566 76.0709 21.0798 75.5952 20.656C75.1109 20.2409 74.7217 19.7307 74.3671 19.2204C73.6666 18.174 73.1131 17.1534 72.3607 16.228C70.9164 14.3513 69.1348 12.7514 67.284 11.2293C65.4333 9.70714 63.4701 8.30608 61.5588 6.78395C60.5988 6.02288 59.6388 5.26182 58.7135 4.43157C57.7881 3.60996 56.9145 2.71919 56.067 1.80246L56.6897 2.08784L30.9865 1.63813L5.26598 1.13651L5.25732 0.963557Z" fill="#018403" fill-opacity="0.7"/>
<path d="M74.9725 23.389C69.5585 23.5101 64.1446 23.6052 58.7306 23.683H58.4193L58.3933 23.3717C58.1252 20.509 57.7361 17.6464 57.5718 14.7579C57.5026 13.3136 57.4507 11.8693 57.4507 10.4163C57.4593 8.97203 57.5112 7.51908 57.6756 6.08344H57.762C57.8571 7.52773 57.9437 8.96335 58.0647 10.3903C58.1772 11.826 58.2982 13.253 58.4366 14.6887C58.7047 17.5513 58.8777 20.4312 59.0593 23.3111L58.722 22.9998C64.1359 23.0776 69.5499 23.1728 74.9638 23.2939V23.389H74.9725Z" fill="#018403" fill-opacity="0.7"/>
<path d="M78.3452 29.2871L78.6047 48.4434L78.8036 67.5997C78.8728 73.9823 79.0198 80.3735 78.9333 86.7561C78.8122 93.1386 78.7171 99.5298 78.3538 105.912H78.2241C77.8523 99.5298 77.7571 93.1386 77.6447 86.7561C77.5582 80.3735 77.7052 73.9823 77.7744 67.5997L77.9646 48.4434L78.2241 29.2871H78.3452Z" fill="#018403" fill-opacity="0.7"/>
<path d="M2.39497 25.4559C1.72039 37.8751 1.31395 50.3029 1.19287 62.7307C1.11504 68.949 1.10636 75.1586 1.1669 81.3768L1.30531 90.6999L1.41774 95.3613C1.46098 96.9181 1.47827 98.4489 1.78962 99.8758C2.09231 101.303 2.75825 102.566 3.84795 103.396C4.93766 104.235 6.35597 104.641 7.81756 104.831C9.2878 105.03 10.8099 105.013 12.3667 105.013L17.0282 105.004L35.6656 104.935C48.0934 104.944 60.5212 104.71 72.9664 104.641L72.975 104.814C60.5731 105.878 48.1366 106.362 35.6915 106.665L26.3598 106.769L17.0282 106.717L12.358 106.639C10.8099 106.613 9.20996 106.604 7.60135 106.362C6.00139 106.12 4.32358 105.636 2.94848 104.546C1.55608 103.465 0.734508 101.77 0.44046 100.161C0.111819 98.5354 0.120455 96.9354 0.103158 95.3873L0.0599264 90.7171L0.0512695 81.3855C0.0772149 75.1672 0.172363 68.9403 0.336683 62.7221C0.69127 50.2856 1.32256 37.8578 2.23064 25.4559H2.39497Z" fill="#018403" fill-opacity="0.7"/>
<path d="M66.8517 43.6784L60.3394 43.9983L53.8272 44.2491C51.6564 44.327 49.4856 44.5172 47.3149 44.4394C45.1441 44.3702 42.9734 44.2491 40.7939 43.9118V43.7821C42.9647 43.4016 45.1355 43.2459 47.3063 43.1421C49.477 43.0297 51.6478 43.1767 53.8185 43.2113L60.3308 43.3497L66.8517 43.5486V43.6784Z" fill="#018403" fill-opacity="0.7"/>
<path d="M67.0163 57.1093L60.2878 57.2736L53.5593 57.3774C51.3194 57.4034 49.0794 57.5417 46.8394 57.412C44.5995 57.2909 42.3596 57.1266 40.1196 56.7374V56.6077C42.3596 56.2791 44.6081 56.1753 46.8481 56.1147C49.0967 56.0542 51.3367 56.2531 53.5766 56.3396L60.3051 56.625L67.025 56.9796L67.0163 57.1093Z" fill="#018403" fill-opacity="0.7"/>
<path d="M67.0163 69.2171L60.2878 69.3814L53.5593 69.4852C51.3194 69.5112 49.0794 69.6495 46.8394 69.5198C44.5995 69.3987 42.3596 69.2344 40.1196 68.8452V68.7155C42.3596 68.3868 44.6081 68.2831 46.8481 68.2225C49.0967 68.162 51.3367 68.3609 53.5766 68.4474L60.3051 68.7328L67.025 69.0874L67.0163 69.2171Z" fill="#018403" fill-opacity="0.7"/>
<path d="M67.0163 82.1898L60.2878 82.3541L53.5593 82.4579C51.3194 82.4838 49.0794 82.6222 46.8394 82.4924C44.5995 82.3714 42.3596 82.2071 40.1196 81.8179V81.6881C42.3596 81.3595 44.6081 81.2557 46.8481 81.1952C49.0967 81.1346 51.3367 81.3336 53.5766 81.42L60.3051 81.7055L67.025 82.06L67.0163 82.1898Z" fill="#018403" fill-opacity="0.7"/>
<path d="M13.7241 101.035C12.3577 101.9 11.242 101.796 9.72853 101.709C9.19233 101.545 9.48637 101.753 10.5934 102.315C10.4636 102.185 10.3425 102.038 10.2301 101.891C10.0052 101.606 9.82364 101.303 9.65067 100.983C9.32203 100.378 9.06258 99.7289 8.84637 99.0716C7.8172 95.9495 7.50586 92.6371 7.44533 89.368C7.32425 82.9768 8.11126 76.5511 6.85724 70.2204C6.72751 69.5718 5.24861 68.8885 4.7297 68.6031C4.53943 68.4993 3.12974 67.7556 3.21622 68.188C4.76429 76.0148 3.11245 83.9974 4.08972 91.8674C4.5135 95.249 5.25726 99.0457 7.98152 101.355C10.5415 103.517 14.2517 105.316 17.3997 103.318C17.6332 103.171 15.8862 101.952 15.7478 101.874C15.3932 101.649 14.1911 100.741 13.7241 101.035Z" fill="#D2EDD2"/>
<path d="M62.692 21.6506C62.1471 21.7111 61.6023 21.7112 61.0574 21.6247C60.9104 21.5987 60.6336 21.5728 60.5039 21.5036C60.2358 21.3566 60.2618 21.0279 60.2185 20.7598C60.0629 19.7826 59.9071 18.8053 59.7428 17.828C59.4228 15.8389 59.1029 13.8497 58.7829 11.8605C58.7483 11.6443 58.0823 11.1514 58.1342 11.4541C58.5407 13.9794 58.9472 16.5134 59.3537 19.0388C59.5007 19.9382 59.4401 21.2268 60.2445 21.8322C61.0228 22.4203 62.3028 22.403 63.2195 22.2906C63.4184 22.2733 62.9428 21.616 62.692 21.6506Z" fill="#D2EDD2"/>
<path d="M33.3651 5.41739C24.2323 5.15794 15.091 4.88986 5.95819 4.63041C5.45658 4.61311 4.54846 4.80336 4.30631 5.31362C4.0555 5.82387 4.51385 6.04013 4.98951 6.05742C14.1223 6.31688 23.2637 6.58495 32.3965 6.84441C32.8981 6.86171 33.8062 6.67146 34.0483 6.1612C34.2905 5.64229 33.8321 5.42604 33.3651 5.41739Z" fill="#D2EDD2"/>
<path d="M66.964 43.9464C60.3133 44.5604 53.6281 44.5604 46.9774 43.9464C46.6488 43.9118 46.0347 43.9983 45.7926 44.2664C45.6023 44.4739 45.5158 44.6556 45.9049 44.6988C52.6767 45.3215 59.483 45.3215 66.2548 44.7075C66.5315 44.6815 67.2493 44.595 67.3704 44.2923C67.4915 43.981 67.2753 43.9118 66.964 43.9464Z" fill="#D2EDD2"/>
<path d="M59.1548 57.2649C52.9193 57.533 46.6751 57.7319 40.4396 57.8616C40.1109 57.8703 39.4882 57.9654 39.3412 58.32C39.2028 58.6573 39.4623 58.8302 39.7996 58.8216C46.0437 58.6919 52.2793 58.4929 58.5148 58.2248C58.8435 58.2075 59.4662 58.1211 59.6132 57.7665C59.7516 57.4379 59.5007 57.2476 59.1548 57.2649Z" fill="#D2EDD2"/>
<path d="M67.5522 69.7792C63.081 68.9057 58.6097 70.4884 54.1298 70.0041C53.7147 69.9608 53.2823 70.5662 53.8444 70.6267C58.3243 71.1111 62.8042 69.537 67.2668 70.4019C67.6906 70.4884 68.1057 69.8916 67.5522 69.7792Z" fill="#D2EDD2"/>
<path d="M57.8828 82.6136C51.3013 82.8125 44.7112 82.7952 38.121 82.5703C37.9567 82.5617 37.6454 82.5963 37.533 82.726C37.4551 82.8211 37.3773 82.9163 37.5848 82.9249C44.2269 83.1498 50.8776 83.1671 57.5196 82.9682C57.7617 82.9595 58.4363 82.5963 57.8828 82.6136Z" fill="#D2EDD2"/>
<path d="M5.65538 19.6355C3.64894 27.3932 2.94845 35.4709 3.57978 43.4621C3.62303 44.0156 4.48787 44.0156 4.44463 43.4621C3.82194 35.5401 4.50516 27.5575 6.49431 19.8691C6.63268 19.3242 5.79376 19.0907 5.65538 19.6355Z" fill="#D2EDD2"/>
<path d="M30.2342 44.7159C30.1131 40.2793 27.1381 36.1194 22.8657 34.7789C18.3772 33.3692 12.6519 35.6697 12.2454 40.8501C11.8216 46.2813 17.5383 49.0056 21.6117 50.8909C24.0246 52.0066 26.5413 53.3212 27.9251 55.6995C29.3175 58.0865 28.6862 60.8367 26.7143 62.6874C24.6646 64.6074 21.2658 65.5501 18.4983 65.1177C17.1837 64.9101 15.947 64.3133 15.2465 63.1458C14.4335 61.8053 14.4508 60.1102 14.4508 58.5967C14.4508 57.5849 12.8767 57.5849 12.8854 58.5967C12.894 60.9837 13.0757 63.6301 15.0302 65.282C16.6821 66.6744 18.9999 66.9338 21.0755 66.6917C25.5035 66.1641 30.658 63.0939 30.2688 58C29.8623 52.5774 24.1284 50.4412 19.9771 48.4262C17.6247 47.2759 15.134 45.7192 14.1481 43.1506C13.1795 40.6339 14.4335 37.9096 16.7599 36.6729C22.3036 33.7238 28.5131 39.1204 28.6688 44.7246C28.6948 45.7278 30.2601 45.7278 30.2342 44.7159Z" fill="#018403" fill-opacity="0.7"/>
<path d="M20.7036 30.991C20.7209 44.2231 21.136 57.4467 21.9576 70.6528C22.0182 71.6561 23.5922 71.6647 23.523 70.6528C22.7101 57.4467 22.2949 44.2231 22.269 30.991C22.269 29.9878 20.7036 29.9878 20.7036 30.991Z" fill="#018403" fill-opacity="0.7"/>
</svg>
