<svg width="141" height="141" viewBox="0 0 141 141" fill="none" xmlns="http://www.w3.org/2000/svg">
<mask id="mask0" mask-type="alpha" maskUnits="userSpaceOnUse" x="0" y="0" width="141" height="141">
<rect x="0.932617" y="0.251953" width="140" height="140" fill="#C4C4C4"/>
</mask>
<g mask="url(#mask0)">
<path d="M36.6846 17.652L62.4051 17.3234L88.1429 17.0466H88.4888L88.7656 17.332C89.5785 18.1796 90.4261 19.0012 91.3341 19.7795C92.2076 20.5839 93.1417 21.3449 94.0757 22.106C95.9525 23.6194 97.8638 25.1416 99.6886 26.7935C101.513 28.4367 103.234 30.2615 104.584 32.3544C105.293 33.3749 105.812 34.5425 106.339 35.5889C106.875 36.6181 107.585 37.6818 108.778 37.8894L108.761 38.0624C108.129 38.0451 107.498 37.7683 107.022 37.3445C106.538 36.9294 106.149 36.4192 105.794 35.9089C105.094 34.8624 104.54 33.8419 103.788 32.9165C102.344 31.0398 100.562 29.4399 98.7113 27.9177C96.8605 26.3956 94.8973 24.9946 92.986 23.4724C92.026 22.7114 91.0661 21.9503 90.1407 21.12C89.2153 20.2984 88.3418 19.4077 87.4942 18.4909L88.1169 18.7763L62.4137 18.3266L36.6932 17.825L36.6846 17.652Z" fill="#018403" fill-opacity="0.7"/>
<path d="M106.4 40.0775C100.986 40.1986 95.5718 40.2937 90.1579 40.3715H89.8466L89.8206 40.0602C89.5525 37.1975 89.1633 34.3349 88.999 31.4463C88.9298 30.002 88.8779 28.5577 88.8779 27.1048C88.8866 25.6605 88.9385 24.2076 89.1028 22.7719H89.1893C89.2844 24.2162 89.3709 25.6518 89.492 27.0788C89.6044 28.5145 89.7255 29.9415 89.8639 31.3771C90.132 34.2398 90.3049 37.1197 90.4865 39.9996L90.1492 39.6883C95.5632 39.7661 100.977 39.8613 106.391 39.9824V40.0775H106.4Z" fill="#018403" fill-opacity="0.7"/>
<path d="M109.772 45.9756L110.032 65.1319L110.231 84.2882C110.3 90.6708 110.447 97.062 110.361 103.445C110.239 109.827 110.144 116.218 109.781 122.601H109.651C109.28 116.218 109.184 109.827 109.072 103.445C108.985 97.062 109.132 90.6708 109.202 84.2882L109.392 65.1319L109.651 45.9756H109.772Z" fill="#018403" fill-opacity="0.7"/>
<path d="M33.8222 42.1444C33.1476 54.5636 32.7412 66.9914 32.6201 79.4192C32.5423 85.6375 32.5336 91.847 32.5941 98.0653L32.7326 107.388L32.845 112.05C32.8882 113.607 32.9055 115.137 33.2169 116.564C33.5196 117.991 34.1855 119.254 35.2752 120.084C36.3649 120.923 37.7832 121.33 39.2448 121.52C40.715 121.719 42.2372 121.702 43.7939 121.702L48.4554 121.693L67.0928 121.624C79.5207 121.632 91.9485 121.399 104.394 121.33L104.402 121.503C92.0004 122.566 79.5639 123.051 67.1188 123.353L57.7871 123.457L48.4554 123.405L43.7852 123.327C42.2372 123.301 40.6372 123.293 39.0286 123.051C37.4286 122.809 35.7508 122.324 34.3757 121.234C32.9833 120.153 32.1618 118.458 31.8677 116.85C31.5391 115.224 31.5477 113.624 31.5304 112.076L31.4872 107.406L31.4785 98.0739C31.5045 91.8557 31.5996 85.6288 31.7639 79.4106C32.1185 66.9741 32.7498 54.5463 33.6579 42.1444H33.8222Z" fill="#018403" fill-opacity="0.7"/>
<path d="M98.279 60.3668L91.7667 60.6868L85.2544 60.9376C83.0837 61.0154 80.9129 61.2057 78.7421 61.1279C76.5713 61.0587 74.4006 60.9376 72.2212 60.6003V60.4706C74.392 60.0901 76.5627 59.9344 78.7335 59.8306C80.9043 59.7182 83.075 59.8652 85.2458 59.8998L91.7581 60.0382L98.279 60.2371V60.3668Z" fill="#018403" fill-opacity="0.7"/>
<path d="M98.4435 73.7978L91.715 73.9621L84.9866 74.0659C82.7466 74.0918 80.5066 74.2302 78.2667 74.1005C76.0267 73.9794 73.7868 73.8151 71.5469 73.4259V73.2962C73.7868 72.9675 76.0354 72.8637 78.2753 72.8032C80.5239 72.7427 82.7639 72.9416 85.0039 73.0281L91.7323 73.3135L98.4522 73.6681L98.4435 73.7978Z" fill="#018403" fill-opacity="0.7"/>
<path d="M98.4435 85.9056L91.715 86.0699L84.9866 86.1737C82.7466 86.1996 80.5066 86.338 78.2667 86.2083C76.0267 86.0872 73.7868 85.9229 71.5469 85.5337V85.404C73.7868 85.0753 76.0354 84.9715 78.2753 84.911C80.5239 84.8505 82.7639 85.0494 85.0039 85.1359L91.7323 85.4213L98.4522 85.7758L98.4435 85.9056Z" fill="#018403" fill-opacity="0.7"/>
<path d="M98.4435 98.8782L91.715 99.0426L84.9866 99.1463C82.7466 99.1723 80.5066 99.3106 78.2667 99.1809C76.0267 99.0598 73.7868 98.8955 71.5469 98.5064V98.3766C73.7868 98.048 76.0354 97.9442 78.2753 97.8836C80.5239 97.8231 82.7639 98.022 85.0039 98.1085L91.7323 98.3939L98.4522 98.7485L98.4435 98.8782Z" fill="#018403" fill-opacity="0.7"/>
<path d="M45.1514 117.723C43.7849 118.588 42.6693 118.484 41.1558 118.398C40.6196 118.234 40.9136 118.441 42.0206 119.003C41.8909 118.874 41.7698 118.727 41.6573 118.579C41.4325 118.294 41.2509 117.991 41.0779 117.671C40.7493 117.066 40.4898 116.417 40.2736 115.76C39.2445 112.638 38.9331 109.326 38.8726 106.057C38.7515 99.6653 39.5385 93.2395 38.2845 86.9089C38.1548 86.2602 36.6759 85.577 36.1569 85.2916C35.9667 85.1878 34.557 84.444 34.6435 84.8765C36.1915 92.7033 34.5397 100.686 35.517 108.556C35.9407 111.937 36.6845 115.734 39.4088 118.043C41.9687 120.205 45.6789 122.004 48.8269 120.006C49.0605 119.859 47.3134 118.64 47.1751 118.562C46.8205 118.337 45.6184 117.429 45.1514 117.723Z" fill="#D2EDD2"/>
<path d="M94.1192 38.3391C93.5744 38.3996 93.0295 38.3996 92.4847 38.3132C92.3376 38.2872 92.0609 38.2613 91.9311 38.1921C91.663 38.045 91.689 37.7164 91.6458 37.4483C91.4901 36.471 91.3344 35.4938 91.1701 34.5165C90.8501 32.5273 90.5301 30.5382 90.2101 28.549C90.1755 28.3328 89.5096 27.8399 89.5615 28.1426C89.968 30.6679 90.3745 33.2019 90.7809 35.7272C90.928 36.6267 90.8674 37.9153 91.6717 38.5207C92.4501 39.1088 93.73 39.0915 94.6468 38.9791C94.8457 38.9618 94.37 38.3045 94.1192 38.3391Z" fill="#D2EDD2"/>
<path d="M64.7923 22.1059C55.6596 21.8464 46.5182 21.5783 37.3854 21.3189C36.8838 21.3016 35.9757 21.4918 35.7336 22.0021C35.4827 22.5124 35.9411 22.7286 36.4168 22.7459C45.5495 23.0054 54.6909 23.2734 63.8237 23.5329C64.3253 23.5502 65.2334 23.3599 65.4756 22.8497C65.7177 22.3308 65.2593 22.1145 64.7923 22.1059Z" fill="#D2EDD2"/>
<path d="M98.3912 60.6349C91.7405 61.2489 85.0553 61.2489 78.4046 60.6349C78.076 60.6003 77.462 60.6868 77.2198 60.9549C77.0295 61.1624 76.943 61.344 77.3322 61.3873C84.1039 62.01 90.9103 62.01 97.682 61.3959C97.9588 61.37 98.6766 61.2835 98.7976 60.9808C98.9187 60.6694 98.7025 60.6003 98.3912 60.6349Z" fill="#D2EDD2"/>
<path d="M90.582 73.9534C84.3465 74.2215 78.1024 74.4204 71.8668 74.5501C71.5382 74.5588 70.9155 74.6539 70.7685 75.0085C70.6301 75.3458 70.8895 75.5187 71.2268 75.5101C77.471 75.3803 83.7065 75.1814 89.9421 74.9133C90.2707 74.896 90.8934 74.8096 91.0404 74.455C91.1788 74.1263 90.928 73.9361 90.582 73.9534Z" fill="#D2EDD2"/>
<path d="M98.9795 86.4677C94.5082 85.5942 90.0369 87.1769 85.557 86.6926C85.1419 86.6493 84.7095 87.2547 85.2717 87.3152C89.7516 87.7995 94.2314 86.2255 98.694 87.0904C99.1178 87.1768 99.533 86.5801 98.9795 86.4677Z" fill="#D2EDD2"/>
<path d="M89.31 99.302C82.7286 99.501 76.1384 99.4837 69.5483 99.2588C69.384 99.2502 69.0726 99.2848 68.9602 99.4145C68.8824 99.5096 68.8045 99.6047 69.0121 99.6134C75.6541 99.8382 82.3048 99.8556 88.9468 99.6567C89.189 99.648 89.8635 99.2848 89.31 99.302Z" fill="#D2EDD2"/>
<path d="M37.0826 36.324C35.0762 44.0817 34.3757 52.1594 35.007 60.1505C35.0503 60.7041 35.9151 60.7041 35.8719 60.1505C35.2492 52.2286 35.9324 44.246 37.9216 36.5575C38.0599 36.0127 37.221 35.7792 37.0826 36.324Z" fill="#D2EDD2"/>
<path d="M61.6614 61.4044C61.5403 56.9678 58.5653 52.8079 54.293 51.4673C49.8044 50.0577 44.0791 52.3582 43.6727 57.5386C43.2489 62.9698 48.9655 65.6941 53.0389 67.5794C55.4519 68.6951 57.9686 70.0096 59.3523 72.388C60.7447 74.7749 60.1134 77.5252 58.1416 79.3759C56.0919 81.2959 52.693 82.2386 49.9255 81.8061C48.611 81.5986 47.3742 81.0018 46.6737 79.8343C45.8607 78.4938 45.878 76.7987 45.878 75.2852C45.878 74.2733 44.304 74.2733 44.3126 75.2852C44.3213 77.6722 44.5029 80.3186 46.4575 81.9705C48.1093 83.3629 50.4271 83.6223 52.5027 83.3802C56.9308 82.8526 62.0852 79.7824 61.6961 74.6885C61.2896 69.2659 55.5556 67.1297 51.4044 65.1146C49.052 63.9644 46.5612 62.4076 45.5753 59.839C44.6067 57.3223 45.8607 54.5981 48.1872 53.3614C53.7308 50.4122 59.9404 55.8089 60.0961 61.4131C60.122 62.4163 61.6874 62.4163 61.6614 61.4044Z" fill="#018403" fill-opacity="0.7"/>
<path d="M52.1309 47.6795C52.1482 60.9116 52.5633 74.1351 53.3849 87.3413C53.4454 88.3445 55.0195 88.3532 54.9503 87.3413C54.1373 74.1351 53.7222 60.9116 53.6962 47.6795C53.6962 46.6763 52.1309 46.6763 52.1309 47.6795Z" fill="#018403" fill-opacity="0.7"/>
</g>
</svg>
