<svg width="116" height="106" viewBox="0 0 116 106" fill="none" xmlns="http://www.w3.org/2000/svg">
<path d="M9.78662 50.0016L11.8405 86.2044L12.3348 95.2551C12.4286 96.7551 12.4626 98.3061 12.616 99.7378C12.7098 100.454 12.8717 101.136 13.1871 101.715C13.4939 102.295 13.9711 102.755 14.5506 103.087C15.7267 103.752 17.2181 103.88 18.6839 103.948L23.2093 104.076C26.2262 104.144 29.2431 104.221 32.2685 104.255C44.3446 104.417 56.4207 104.187 68.4883 103.99C80.5644 103.837 92.632 103.351 104.717 102.976L104.725 103.147C92.7002 104.502 80.6156 105.235 68.5309 105.695C56.4378 106.121 44.3276 105.968 32.2344 105.618C29.209 105.542 26.1921 105.431 23.1667 105.311L18.6328 105.124C17.1158 105.03 15.4795 104.902 13.9966 104.05C13.2722 103.624 12.6246 102.985 12.2326 102.226C11.8405 101.468 11.6701 100.65 11.5763 99.8657C11.4315 98.2976 11.4314 96.8232 11.3547 95.2977L10.9883 86.2385L9.61621 50.0016H9.78662Z" fill="#018403" fill-opacity="0.7"/>
<path d="M106.66 51.1265L107 63.1345L107.256 75.1424C107.333 79.1479 107.546 83.1448 107.427 87.1503C107.316 91.1558 107.128 95.1528 106.66 99.1583H106.489C106.02 95.1528 105.833 91.1558 105.722 87.1503C105.603 83.1448 105.816 79.1479 105.893 75.1424L106.148 63.1345L106.489 51.1265H106.66Z" fill="#018403" fill-opacity="0.7"/>
<path d="M113.895 31.9258C107.605 22.3297 102.228 12.1029 97.9665 1.41592L98.4097 1.72273C91.9242 1.62046 85.4302 1.60341 78.9447 1.66307C72.4592 1.72273 65.9738 1.90168 59.4883 2.10622L20.5754 3.2397L20.5669 3.06925C27.0183 2.27667 33.4953 1.6801 39.9807 1.25399C46.4662 0.810829 52.9602 0.47846 59.4542 0.376192C65.9567 0.25688 72.4507 0.282439 78.9533 0.342095C85.4473 0.401752 91.9498 0.538126 98.4352 0.759706L98.7591 0.768211L98.8699 1.0665C102.918 11.762 107.972 22.0996 114.04 31.8406L113.895 31.9258Z" fill="#018403" fill-opacity="0.7"/>
<path d="M17.0052 5.85602C15.7439 8.01216 14.4996 10.1683 13.2639 12.3415C12.0111 14.4977 10.7669 16.6538 9.54816 18.827C8.31243 20.9916 7.22155 23.2416 5.84945 25.321C4.48589 27.409 3.07971 29.4628 1.4349 31.3974L1.29004 31.3122C2.1167 28.9174 3.21609 26.659 4.38364 24.4517C5.54268 22.2359 7.01704 20.2076 8.38061 18.1196C9.7527 16.0317 11.1418 13.9522 12.5395 11.8898C13.9627 9.83595 15.403 7.79912 16.8603 5.77081L17.0052 5.85602Z" fill="#018403" fill-opacity="0.7"/>
<path d="M5.20189 33.2552L31.1267 32.5137L57.0516 31.8575C65.6932 31.636 74.3264 31.3121 82.968 31.2866C91.6096 31.3121 100.26 31.3036 108.91 31.653V31.8234C100.277 32.4456 91.6351 32.7013 82.9935 32.991C74.3519 33.2382 65.7018 33.1785 57.0601 33.2211L31.1267 33.366L5.19336 33.4256L5.20189 33.2552Z" fill="#018403" fill-opacity="0.7"/>
<path d="M88.7799 36.4767C89.4702 39.5618 91.2854 42.323 93.7313 44.1808C96.1602 46.0643 99.2623 46.9762 102.279 46.8313C103.788 46.7461 105.245 46.3966 106.643 45.8001C108.049 45.2206 109.429 44.5217 110.691 43.7291C111.952 42.9366 113.086 41.9565 113.929 40.7378C114.756 39.5191 115.327 38.0618 115.318 36.4767L115.489 36.4511C115.983 38.0192 115.727 39.8174 114.977 41.3344C114.245 42.8854 113.009 44.1467 111.662 45.1439C110.299 46.141 108.799 46.8313 107.239 47.3852C105.671 47.9136 103.975 48.2119 102.313 48.2034C98.9811 48.1863 95.6915 46.9932 93.2029 44.8456C90.74 42.6809 89.0952 39.6725 88.6265 36.5107L88.7799 36.4767Z" fill="#018403" fill-opacity="0.7"/>
<path d="M58.8582 36.971C59.3781 38.4112 59.9235 39.8515 60.6224 41.198C61.3042 42.5445 62.1819 43.7973 63.2813 44.7604C63.8353 45.2547 64.4318 45.6211 65.1051 45.9535C65.7784 46.2858 66.4687 46.5926 67.159 46.8227C68.5396 47.2915 70.0055 47.4023 71.4542 47.2744C72.9116 47.121 74.3859 46.7801 75.7665 46.2944C76.4654 46.0557 77.096 45.8001 77.6585 45.4336C78.238 45.0757 78.7749 44.641 79.2692 44.1467C80.2748 43.1582 81.0589 41.9309 81.7322 40.6015C82.3969 39.272 82.9764 37.8402 83.6071 36.4255L83.769 36.4681C83.59 38.0107 83.3429 39.5447 82.8486 41.0531C82.3713 42.5616 81.6213 44.0445 80.5219 45.3058C79.968 45.9279 79.3289 46.4989 78.5959 46.9421C77.8545 47.3937 77.0363 47.6835 76.2693 47.8966C74.7097 48.3056 73.1587 48.5528 71.548 48.621C69.9373 48.6806 68.2839 48.459 66.784 47.8539C66.034 47.5557 65.3267 47.1977 64.6534 46.8142C63.9631 46.4222 63.2728 45.9535 62.7103 45.3825C61.5769 44.232 60.7758 42.8428 60.1707 41.4111C59.5571 39.9793 59.1224 38.4964 58.7134 37.0221L58.8582 36.971Z" fill="#018403" fill-opacity="0.7"/>
<path d="M30.8621 37.0391C31.5695 39.9197 33.2398 42.5104 35.4727 44.3427C37.6799 46.2091 40.5009 47.2574 43.3388 47.3852C44.7535 47.4449 46.1767 47.2744 47.5147 46.8739C48.8612 46.4903 50.1311 45.9194 51.2219 45.1438C53.4122 43.5672 54.9121 40.9509 55.2018 37.9851L55.3723 37.9766C56.0456 40.9764 54.7842 44.4024 52.2702 46.4904C51.0003 47.5471 49.4663 48.1607 47.9323 48.5101C46.3812 48.834 44.7961 48.9107 43.2365 48.7488C40.1344 48.4334 37.1431 47.1125 34.9102 44.9819C32.6944 42.8598 31.186 40.039 30.7002 37.0732L30.8621 37.0391Z" fill="#018403" fill-opacity="0.7"/>
<path d="M0.420485 36.6472C0.829556 38.1726 1.54543 39.5959 2.33801 40.9594C2.73003 41.6412 3.14763 42.323 3.56522 42.9963C3.98281 43.6696 4.40897 44.3087 4.93735 44.8286C6.01969 45.8768 7.35764 46.712 8.78087 47.1978C10.1871 47.7006 11.7041 47.675 13.2977 47.6324C16.451 47.7688 19.2378 46.5756 21.5814 44.7434C23.9165 42.8855 25.621 40.2436 26.763 37.2608L26.9334 37.2949C26.7119 40.5163 25.2119 43.7463 22.6893 46.0388C21.4365 47.1893 19.9025 48.0245 18.2747 48.5188C17.4566 48.7574 16.6129 48.9193 15.7692 48.9875C15.3431 49.0216 14.917 49.0386 14.4994 49.0216L13.3062 48.9875C11.7296 48.9534 9.99104 48.8937 8.40589 48.2375C6.83778 47.6069 5.46571 46.6438 4.32372 45.4166C3.76125 44.7689 3.35217 44.0445 2.98571 43.3372C2.61925 42.6298 2.2443 41.9225 1.89488 41.2066C1.19605 39.7663 0.573893 38.2664 0.26709 36.6898L0.420485 36.6472Z" fill="#018403" fill-opacity="0.7"/>
<path d="M27.0951 102.473C26.5752 96.1157 26.2173 89.741 26.0639 83.3578C25.8934 76.9746 25.9531 70.5829 26.2343 64.1997L26.2429 64.0292L26.3536 63.8929C27.7342 62.1373 29.7199 61.055 31.7056 60.3135C33.6999 59.5721 35.8219 59.163 37.9525 59.0607C40.0831 58.9755 42.2307 59.1886 44.3016 59.6828C46.381 60.1601 48.3753 60.9442 50.2757 61.8987L50.6933 62.1117L50.7104 62.606C50.8297 66.0661 50.9575 69.5261 51.0257 72.9862L51.1194 78.1763L51.1536 83.3664C51.1791 86.8264 51.2047 90.2865 51.1621 93.7551C51.145 97.2151 51.0939 100.684 50.9916 104.144H50.8212C50.5485 100.692 50.3269 97.2321 50.1394 93.7721C49.9263 90.312 49.7815 86.8605 49.6451 83.4004L49.4235 78.2104L49.2701 73.0203C49.1678 69.5602 49.1253 66.1001 49.0826 62.6401L49.5173 63.3389C47.7447 62.4015 45.8868 61.6089 43.9437 61.1146C42.0091 60.5948 40.0064 60.3391 38.0036 60.3902C36.0009 60.4413 34.0152 60.7908 32.1147 61.447C30.2313 62.1032 28.4331 63.0662 27.2058 64.5661L27.3252 64.2593C26.9161 70.6084 26.7456 76.9832 26.7286 83.3493C26.7201 89.724 26.9076 96.0987 27.2655 102.465L27.0951 102.473Z" fill="#018403" fill-opacity="0.7"/>
<path d="M63.3155 62.3077C62.7871 68.8273 62.6848 75.3724 63.0087 81.892L62.6508 81.5255C71.1816 81.9943 79.738 82.0369 88.2603 81.5767L87.6041 82.2073C87.8683 78.5172 88.1154 74.8355 88.1154 71.1709C88.124 69.3386 88.0558 67.5149 87.9109 65.6996C87.8513 64.7877 87.7575 63.8844 87.6382 62.9895C87.5871 62.5378 87.5104 62.0947 87.4337 61.643C87.3655 61.1913 87.2802 60.7226 87.2035 60.6118C87.1609 60.5521 87.195 60.5692 87.1268 60.5266C87.0586 60.4925 86.8968 60.4669 86.6837 60.4584L85.3031 60.3987L82.5419 60.322C80.701 60.2794 78.8517 60.2879 77.0108 60.2709C75.1615 60.2624 73.3207 60.288 71.4713 60.3306C69.622 60.3476 67.7727 60.4243 65.9148 60.4755L65.8978 60.305C67.7301 59.9982 69.5709 59.7766 71.4202 59.5636C73.2695 59.3761 75.1189 59.2227 76.9768 59.0948C78.8346 58.9585 80.6925 58.9073 82.5503 58.8647L85.3372 58.8306H86.7348C86.9905 58.8391 87.2973 58.8392 87.6637 58.9585C88.0387 59.0608 88.4478 59.3846 88.6523 59.7255C88.8654 60.0579 88.9421 60.3732 89.0017 60.6374C89.0614 60.9101 89.087 61.1146 89.1381 61.3533C89.2233 61.822 89.3001 62.2822 89.3597 62.7509C89.4961 63.6884 89.6068 64.6258 89.6835 65.5633C89.8369 67.4382 89.854 69.3216 89.8199 71.1965C89.7262 74.9378 89.3597 78.645 88.9932 82.3352L88.9336 82.9488L88.337 82.9658C79.7551 83.213 71.1646 83.017 62.6167 82.3011L62.2673 82.2755L62.2587 81.9346C62.1309 75.3724 62.4377 68.8103 63.1621 62.3077H63.3155Z" fill="#018403" fill-opacity="0.7"/>
<path d="M12.9569 99.4139C12.1558 97.6583 12.7183 95.0334 12.7438 93.2011C12.8205 87.2781 12.5734 64.5662 12.2666 58.6517C12.9569 57.3989 12.9313 54.9359 14.0733 55.7115C15.7096 58.6261 14.6358 80.912 15.1897 84.2783C15.7522 87.6361 16.3317 92.187 15.7522 96.0391C15.4539 96.6697 15.2323 97.9395 14.6358 98.2804C13.954 98.4935 13.7154 99.3542 12.9569 99.4139Z" fill="#D2EDD2"/>
<path d="M95.9555 5.84749C94.1914 6.62302 91.5665 6.02645 89.7427 5.97532C83.8197 5.81339 47.4721 5.7367 41.5576 5.95828C40.3133 5.25093 37.8589 5.2424 38.6515 4.10893C41.5832 2.50674 77.4962 3.9044 80.871 3.39306C84.2373 2.88172 88.7968 2.37039 92.6403 3.00104C93.271 3.30784 94.5323 3.54645 94.8646 4.15153C95.0521 4.83332 95.9129 5.089 95.9555 5.84749Z" fill="#D2EDD2"/>
<path d="M63.4602 69.9439C63.5199 71.8273 63.5796 73.7193 63.6307 75.6027C63.6648 76.5827 63.6903 77.5543 63.7244 78.5343C63.7415 79.0201 63.75 79.5144 63.767 80.0002C63.7756 80.307 63.7755 80.6053 63.963 80.8695C64.3636 81.449 65.3692 81.4319 65.9913 81.5342C66.9032 81.6791 67.8237 81.7899 68.7356 81.8751C70.5764 82.037 72.4172 82.0711 74.258 82.0029C74.7438 81.9859 74.3688 81.2359 73.9512 81.253C72.2723 81.3211 70.5934 81.287 68.923 81.1507C68.1049 81.0825 67.2867 80.9888 66.4771 80.878C66.068 80.8183 65.6675 80.7587 65.2584 80.682C65.1476 80.6649 64.6704 80.6223 64.6022 80.5626C64.4914 80.4604 64.5255 80.2047 64.517 80.0769C64.4062 76.7276 64.3125 73.3698 64.2102 70.0206C64.2102 69.5859 63.4432 69.4155 63.4602 69.9439Z" fill="#D2EDD2"/>
<path d="M87.1436 68.9892C87.3225 67.2166 87.1862 65.3331 86.5555 63.6543C86.2402 62.8191 85.7033 62.035 84.817 61.7708C83.9988 61.5237 83.121 61.4299 82.2858 61.268C81.9194 61.1998 82.0472 61.8731 82.0984 62.035C82.2177 62.3674 82.4648 62.7679 82.8313 62.8361C83.513 62.964 84.2034 63.0833 84.8852 63.2196C85.1153 63.2622 85.3368 63.3389 85.5414 63.4583C85.5499 63.4583 85.6266 63.5605 85.5925 63.5094C85.5328 63.4327 85.6266 63.5776 85.6351 63.6031C85.6947 63.7395 85.601 63.5179 85.6521 63.6628C85.6777 63.7395 85.7033 63.8162 85.7289 63.8929C86.1294 65.1627 86.2317 66.5518 86.1039 67.8728C86.0612 68.2734 86.2231 68.6824 86.5044 68.9807C86.6407 69.1341 87.1009 69.3983 87.1436 68.9892Z" fill="#D2EDD2"/>
<path d="M39.5974 63.518C41.8388 62.9641 46.2363 63.1089 46.688 66.0321C46.867 67.2082 46.6795 68.4524 46.6283 69.6285C46.5687 71.0943 46.5261 72.5687 46.5175 74.0431C46.4664 79.8553 46.8329 85.6675 47.5743 91.4371C47.6851 92.2979 49.381 92.0933 49.2702 91.2326C48.401 84.4914 48.0601 77.6906 48.2731 70.8983C48.3498 68.5717 49.2276 65.052 47.0289 63.4072C44.8216 61.7624 41.5661 61.6942 39.0094 62.3249C37.91 62.5891 38.66 63.7481 39.5974 63.518Z" fill="#D2EDD2"/>
<path d="M35.4474 102.277C33.5639 102.38 31.6805 102.26 29.8226 101.937C29.4732 101.877 28.9363 101.962 28.6806 102.226C28.4079 102.508 28.834 102.644 29.0471 102.678C31.0413 103.019 33.0696 103.138 35.0894 103.036C35.3792 103.019 35.9672 102.968 36.0951 102.644C36.2144 102.32 35.6178 102.269 35.4474 102.277Z" fill="#D2EDD2"/>
<path d="M84.0155 102.874C89.4016 102.277 94.7878 101.689 100.174 101.093C100.489 101.059 101.086 100.88 101.214 100.547C101.35 100.207 101.026 100.147 100.745 100.181C95.3587 100.778 89.9726 101.366 84.5865 101.962C84.2712 101.996 83.6747 102.175 83.5468 102.508C83.4105 102.848 83.7343 102.908 84.0155 102.874Z" fill="#D2EDD2"/>
<path d="M102.143 100.411C102.97 99.4906 103.225 98.3146 103.336 97.1129C103.49 95.4937 103.558 93.8659 103.626 92.2382C103.779 88.8633 103.83 85.4885 103.796 82.1136C103.788 81.5512 102.1 81.3978 102.109 81.875C102.143 85.1305 102.1 88.3861 101.956 91.6416C101.887 93.2097 101.802 94.7778 101.691 96.3374C101.598 97.6413 101.461 98.9708 100.541 99.9849C100.208 100.351 101.785 100.803 102.143 100.411Z" fill="#D2EDD2"/>
<path d="M86.9814 33.4939C88.4216 35.8546 89.7767 38.309 91.3533 40.576C92.5891 42.3571 94.2594 43.7633 96.2622 44.5985C100.285 46.2859 105.04 45.7831 108.441 42.9878C108.637 42.8258 107.196 42.3401 106.83 42.6469C103.608 45.2973 99.2194 45.8087 95.7167 43.3968C94.1486 42.3145 93.0919 40.8401 92.1033 39.238C90.9357 37.346 89.7852 35.4455 88.6347 33.5536C88.3961 33.1615 86.8194 33.2297 86.9814 33.4939Z" fill="#D2EDD2"/>
<path d="M58.9005 33.2638C59.0028 36.7068 60.3067 40.0305 62.8208 42.4338C65.1559 44.6581 68.4966 45.9961 71.6925 45.0586C71.9567 44.9819 70.9681 43.7206 70.5846 43.8399C68.0535 44.5814 65.0536 43.9507 63.1276 42.1099C61.0652 40.1498 60.2556 37.0732 60.1704 34.3205C60.1618 34.0052 59.7442 33.6643 59.5227 33.4853C59.4545 33.4257 58.892 33.0081 58.9005 33.2638Z" fill="#D2EDD2"/>
<path d="M30.7513 35.3006C31.6205 38.8799 33.2653 42.6212 35.805 45.3399C38.4213 48.1522 42.12 47.104 45.5119 47.4619C45.8699 47.496 46.3301 47.2147 46.5857 47.0017C46.7306 46.8824 47.0459 46.5671 46.6795 46.5244C44.9835 46.3455 43.2791 46.5415 41.5831 46.4307C39.7168 46.3029 38.2083 45.6126 36.9896 44.1723C34.663 41.4281 33.1034 37.9681 32.2597 34.4995C32.1916 34.2182 30.6405 34.8318 30.7513 35.3006Z" fill="#D2EDD2"/>
<path d="M0.684738 35.8887C0.787006 37.5676 1.48585 39.0931 2.3466 40.5163C3.17326 41.8798 4.10221 43.2434 5.29534 44.3172C7.76681 46.533 11.1246 46.7631 14.2864 46.8313C15.3943 46.8569 15.2153 45.5189 14.2267 45.5018C11.5422 45.4422 8.56789 45.3996 6.45436 43.5076C5.44021 42.5957 4.67319 41.4367 3.9488 40.2862C3.13918 38.9908 2.45741 37.6016 2.36366 36.0591C2.31253 35.2239 0.633604 34.9683 0.684738 35.8887Z" fill="#D2EDD2"/>
<path d="M8.00581 31.2184C18.8291 31.0735 29.6439 30.9201 40.4673 30.7753C40.8337 30.7667 42.1717 30.6559 42.1462 30.0849C42.1206 29.5054 40.7315 29.531 40.4161 29.5395C29.5928 29.6844 18.778 29.8378 7.95467 29.9827C7.58821 29.9912 6.25019 30.102 6.27575 30.673C6.30132 31.2525 7.69048 31.2184 8.00581 31.2184Z" fill="#D2EDD2"/>
<path d="M102.91 20.3354C103.949 23.2245 105.313 25.9857 106.975 28.568C107.188 28.9089 107.955 29.7952 108.364 29.2072C108.765 28.6362 108.236 27.5623 107.929 27.0851C107.733 26.7783 107.537 26.4715 107.35 26.1647C107.282 26.0454 107.214 25.9346 107.145 25.8153C107.103 25.7386 107.052 25.6619 107.009 25.5767C107.12 25.7727 107.128 25.7897 107.035 25.6193C106.719 25.0483 106.404 24.4688 106.114 23.8807C105.824 23.2927 105.552 22.6961 105.287 22.091C105.211 21.9121 105.219 21.9206 105.304 22.1336C105.27 22.0484 105.236 21.9632 105.202 21.878C105.151 21.7501 105.1 21.6223 105.049 21.503C104.912 21.1621 104.793 20.8297 104.665 20.4888C104.52 20.0798 104.299 19.6707 104.018 19.3468C103.847 19.1508 103.54 18.8611 103.251 18.8525C102.526 18.8184 102.782 19.986 102.91 20.3354Z" fill="#D2EDD2"/>
</svg>
