<svg width="141" height="141" viewBox="0 0 141 141" fill="none" xmlns="http://www.w3.org/2000/svg">
<mask id="mask0" mask-type="alpha" maskUnits="userSpaceOnUse" x="0" y="0" width="141" height="141">
<rect x="0.713379" y="0.251953" width="140" height="140" fill="#C4C4C4"/>
</mask>
<g mask="url(#mask0)">
<path d="M22.4951 67.1308L24.549 103.334L25.0433 112.384C25.1371 113.884 25.1711 115.435 25.3245 116.867C25.4183 117.583 25.5802 118.265 25.8956 118.844C26.2024 119.424 26.6796 119.884 27.2591 120.216C28.4352 120.881 29.9266 121.009 31.3924 121.077L35.9178 121.205C38.9346 121.273 41.9516 121.35 44.977 121.384C57.0531 121.546 69.1292 121.316 81.1968 121.12C93.2729 120.966 105.341 120.48 117.425 120.105L117.434 120.276C105.409 121.631 93.3241 122.364 81.2394 122.824C69.1463 123.25 57.0361 123.097 44.9429 122.747C41.9175 122.671 38.9006 122.56 35.8751 122.441L31.3413 122.253C29.8243 122.159 28.188 122.032 26.7051 121.179C25.9807 120.753 25.3331 120.114 24.9411 119.356C24.549 118.597 24.3786 117.779 24.2848 116.995C24.1399 115.427 24.1399 113.952 24.0632 112.427L23.6968 103.368L22.3247 67.1308H22.4951Z" fill="#018403" fill-opacity="0.7"/>
<path d="M119.368 68.2557L119.709 80.2636L119.965 92.2715C120.041 96.277 120.254 100.274 120.135 104.279C120.024 108.285 119.837 112.282 119.368 116.287H119.198C118.729 112.282 118.541 108.285 118.431 104.279C118.311 100.274 118.524 96.277 118.601 92.2715L118.857 80.2636L119.198 68.2557H119.368Z" fill="#018403" fill-opacity="0.7"/>
<path d="M126.603 49.055C120.314 39.4588 114.936 29.232 110.675 18.5451L111.118 18.8519C104.633 18.7496 98.1387 18.7326 91.6532 18.7922C85.1677 18.8519 78.6822 19.0308 72.1968 19.2354L33.2839 20.3689L33.2754 20.1984C39.7268 19.4058 46.2038 18.8093 52.6892 18.3831C59.1747 17.94 65.6687 17.6076 72.1627 17.5053C78.6652 17.386 85.1592 17.4116 91.6618 17.4712C98.1558 17.5309 104.658 17.6673 111.144 17.8889L111.468 17.8974L111.578 18.1956C115.626 28.8911 120.68 39.2287 126.748 48.9697L126.603 49.055Z" fill="#018403" fill-opacity="0.7"/>
<path d="M29.7137 22.9852C28.4524 25.1413 27.2081 27.2975 25.9724 29.4707C24.7196 31.6268 23.4753 33.7829 22.2567 35.9561C21.0209 38.1208 19.93 40.3707 18.558 42.4501C17.1944 44.5381 15.7882 46.592 14.1434 48.5265L13.9985 48.4413C14.8252 46.0466 15.9246 43.7881 17.0921 41.5809C18.2512 39.3651 19.7255 37.3368 21.0891 35.2488C22.4612 33.1608 23.8503 31.0814 25.248 29.019C26.6712 26.9651 28.1115 24.9283 29.5688 22.9L29.7137 22.9852Z" fill="#018403" fill-opacity="0.7"/>
<path d="M17.9104 50.3844L43.8352 49.6429L69.7601 48.9867C78.4017 48.7651 87.0349 48.4413 95.6765 48.4157C104.318 48.4413 112.968 48.4327 121.618 48.7822V48.9526C112.985 49.5747 104.344 49.8304 95.702 50.1202C87.0604 50.3673 78.4103 50.3077 69.7686 50.3503L43.8352 50.4951L17.9019 50.5548L17.9104 50.3844Z" fill="#018403" fill-opacity="0.7"/>
<path d="M101.488 53.6058C102.179 56.6909 103.994 59.4521 106.44 61.31C108.869 63.1934 111.971 64.1053 114.988 63.9604C116.496 63.8752 117.953 63.5258 119.351 62.9292C120.757 62.3497 122.138 61.6509 123.399 60.8583C124.661 60.0657 125.794 59.0857 126.638 57.867C127.464 56.6483 128.035 55.191 128.027 53.6058L128.197 53.5803C128.692 55.1484 128.436 56.9466 127.686 58.4635C126.953 60.0146 125.717 61.2759 124.371 62.273C123.007 63.2701 121.507 63.9604 119.948 64.5144C118.38 65.0428 116.684 65.341 115.022 65.3325C111.69 65.3155 108.4 64.1223 105.911 61.9747C103.448 59.81 101.804 56.8017 101.335 53.6399L101.488 53.6058Z" fill="#018403" fill-opacity="0.7"/>
<path d="M71.5667 54.1001C72.0866 55.5404 72.632 56.9806 73.3309 58.3272C74.0126 59.6737 74.8904 60.9265 75.9898 61.8895C76.5438 62.3838 77.1403 62.7503 77.8136 63.0826C78.4869 63.415 79.1772 63.7218 79.8675 63.9519C81.2481 64.4206 82.7139 64.5314 84.1627 64.4036C85.6201 64.2502 87.0944 63.9093 88.475 63.4235C89.1739 63.1849 89.8045 62.9292 90.367 62.5627C90.9465 62.2048 91.4834 61.7702 91.9777 61.2759C92.9833 60.2873 93.7674 59.0601 94.4406 57.7306C95.1054 56.4011 95.6849 54.9694 96.3156 53.5547L96.4775 53.5973C96.2985 55.1398 96.0514 56.6738 95.5571 58.1823C95.0798 59.6907 94.3298 61.1736 93.2304 62.4349C92.6765 63.057 92.0374 63.6281 91.3044 64.0712C90.563 64.5229 89.7448 64.8127 88.9778 65.0257C87.4182 65.4348 85.8672 65.6819 84.2565 65.7501C82.6458 65.8098 80.9924 65.5882 79.4925 64.9831C78.7425 64.6848 78.0352 64.3269 77.3619 63.9434C76.6716 63.5514 75.9813 63.0826 75.4188 62.5116C74.2854 61.3611 73.4843 59.972 72.8792 58.5402C72.2656 57.1085 71.8309 55.6256 71.4219 54.1512L71.5667 54.1001Z" fill="#018403" fill-opacity="0.7"/>
<path d="M43.5706 54.1683C44.278 57.0488 45.9483 59.6396 48.1812 61.4719C50.3884 63.3383 53.2094 64.3865 56.0473 64.5143C57.462 64.574 58.8852 64.4036 60.2232 64.003C61.5697 63.6195 62.8396 63.0485 63.9304 62.273C66.1207 60.6963 67.6206 58.08 67.9103 55.1142L68.0808 55.1057C68.7541 58.1056 67.4927 61.5315 64.9787 63.6195C63.7088 64.6763 62.1748 65.2899 60.6408 65.6393C59.0897 65.9631 57.5046 66.0398 55.945 65.8779C52.8429 65.5626 49.8516 64.2416 47.6187 62.111C45.4029 59.989 43.8945 57.1681 43.4087 54.2023L43.5706 54.1683Z" fill="#018403" fill-opacity="0.7"/>
<path d="M13.129 53.7763C13.5381 55.3018 14.2539 56.725 15.0465 58.0886C15.4385 58.7704 15.8561 59.4522 16.2737 60.1254C16.6913 60.7987 17.1175 61.4379 17.6458 61.9577C18.7282 63.006 20.0661 63.8412 21.4894 64.3269C22.8955 64.8297 24.4126 64.8042 26.0062 64.7616C29.1595 64.8979 31.9463 63.7048 34.2899 61.8725C36.625 60.0146 38.3295 57.3727 39.4715 54.3899L39.6419 54.424C39.4204 57.6454 37.9204 60.8754 35.3978 63.1679C34.145 64.3184 32.611 65.1536 30.9832 65.6479C30.1651 65.8865 29.3214 66.0484 28.4777 66.1166C28.0516 66.1507 27.6255 66.1678 27.2079 66.1507L26.0147 66.1166C24.4381 66.0825 22.6995 66.0229 21.1144 65.3667C19.5463 64.736 18.1742 63.773 17.0322 62.5458C16.4697 61.8981 16.0607 61.1737 15.6942 60.4663C15.3277 59.759 14.9528 59.0516 14.6034 58.3357C13.9045 56.8955 13.2824 55.3956 12.9756 53.8189L13.129 53.7763Z" fill="#018403" fill-opacity="0.7"/>
<path d="M39.8036 119.603C39.2837 113.245 38.9258 106.87 38.7724 100.487C38.6019 94.1038 38.6616 87.712 38.9428 81.3288L38.9514 81.1584L39.0621 81.022C40.4427 79.2664 42.4284 78.1841 44.4141 77.4427C46.4084 76.7012 48.5304 76.2922 50.661 76.1899C52.7916 76.1047 54.9392 76.3177 57.0101 76.812C59.0895 77.2892 61.0838 78.0733 62.9842 79.0278L63.4018 79.2409L63.4189 79.7352C63.5382 83.1952 63.666 86.6553 63.7342 90.1153L63.8279 95.3054L63.8621 100.496C63.8876 103.956 63.9132 107.416 63.8706 110.884C63.8535 114.344 63.8024 117.813 63.7001 121.273H63.5297C63.257 117.821 63.0354 114.361 62.8479 110.901C62.6348 107.441 62.49 103.99 62.3536 100.53L62.132 95.3395L61.9786 90.1494C61.8763 86.6894 61.8338 83.2293 61.7911 79.7692L62.2258 80.4681C60.4531 79.5306 58.5953 78.7381 56.6522 78.2438C54.7176 77.7239 52.7149 77.4682 50.7121 77.5194C48.7094 77.5705 46.7237 77.9199 44.8232 78.5761C42.9398 79.2323 41.1415 80.1954 39.9143 81.6953L40.0337 81.3885C39.6246 87.7376 39.4541 94.1123 39.4371 100.478C39.4286 106.853 39.6161 113.228 39.974 119.594L39.8036 119.603Z" fill="#018403" fill-opacity="0.7"/>
<path d="M76.024 79.4369C75.4956 85.9565 75.3933 92.5016 75.7172 99.0212L75.3593 98.6547C83.8901 99.1234 92.4465 99.166 100.969 98.7058L100.313 99.3365C100.577 95.6463 100.824 91.9647 100.824 88.3001C100.832 86.4678 100.764 84.644 100.619 82.8288C100.56 81.9169 100.466 81.0135 100.347 80.1187C100.296 79.667 100.219 79.2238 100.142 78.7722C100.074 78.3205 99.9887 77.8517 99.912 77.7409C99.8694 77.6813 99.9035 77.6983 99.8353 77.6557C99.7671 77.6216 99.6052 77.5961 99.3922 77.5875L98.0116 77.5279L95.2504 77.4512C93.4095 77.4086 91.5602 77.4171 89.7193 77.4001C87.87 77.3915 86.0292 77.4171 84.1798 77.4597C82.3305 77.4768 80.4812 77.5535 78.6233 77.6046L78.6063 77.4341C80.4386 77.1273 82.2794 76.9058 84.1287 76.6927C85.978 76.5052 87.8274 76.3518 89.6853 76.224C91.5431 76.0876 93.401 76.0365 95.2588 75.9939L98.0457 75.9598H99.4433C99.699 75.9683 100.006 75.9683 100.372 76.0876C100.747 76.1899 101.156 76.5137 101.361 76.8546C101.574 77.187 101.651 77.5023 101.71 77.7665C101.77 78.0392 101.795 78.2438 101.847 78.4824C101.932 78.9511 102.009 79.4113 102.068 79.88C102.205 80.8175 102.315 81.755 102.392 82.6924C102.545 84.5673 102.562 86.4508 102.528 88.3257C102.435 92.067 102.068 95.7742 101.702 99.4643L101.642 100.078L101.046 100.095C92.4636 100.342 83.8731 100.146 75.3252 99.4302L74.9757 99.4047L74.9672 99.0638C74.8394 92.5016 75.1462 85.9394 75.8706 79.4369H76.024Z" fill="#018403" fill-opacity="0.7"/>
<path d="M25.6654 116.543C24.8643 114.787 25.4268 112.163 25.4523 110.33C25.529 104.407 25.2819 81.6953 24.9751 75.7808C25.6654 74.5281 25.6398 72.0651 26.7818 72.8406C28.4181 75.7553 27.3443 98.0411 27.8982 101.407C28.4607 104.765 29.0402 109.316 28.4607 113.168C28.1624 113.799 27.9408 115.069 27.3443 115.41C26.6625 115.623 26.4239 116.483 25.6654 116.543Z" fill="#D2EDD2"/>
<path d="M108.664 22.9766C106.9 23.7522 104.275 23.1556 102.451 23.1045C96.5282 22.9425 60.1806 22.8659 54.2661 23.0874C53.0218 22.3801 50.5674 22.3715 51.36 21.2381C54.2917 19.6359 90.2047 21.0335 93.5795 20.5222C96.9458 20.0109 101.505 19.4995 105.349 20.1302C105.979 20.437 107.241 20.6756 107.573 21.2807C107.761 21.9625 108.621 22.2182 108.664 22.9766Z" fill="#D2EDD2"/>
<path d="M76.1687 87.073C76.2284 88.9564 76.2881 90.8484 76.3392 92.7318C76.3733 93.7119 76.3988 94.6834 76.4329 95.6635C76.45 96.1493 76.4585 96.6436 76.4755 97.1293C76.484 97.4361 76.484 97.7344 76.6715 97.9986C77.0721 98.5781 78.0777 98.5611 78.6998 98.6634C79.6117 98.8082 80.5322 98.919 81.444 99.0042C83.2849 99.1662 85.1257 99.2002 86.9665 99.1321C87.4523 99.115 87.0773 98.3651 86.6597 98.3821C84.9808 98.4503 83.3019 98.4162 81.6315 98.2798C80.8134 98.2117 79.9952 98.1179 79.1856 98.0071C78.7765 97.9475 78.376 97.8878 77.9669 97.8111C77.8561 97.7941 77.3789 97.7515 77.3107 97.6918C77.1999 97.5895 77.234 97.3339 77.2255 97.206C77.1147 93.8568 77.021 90.499 76.9187 87.1497C76.9187 86.7151 76.1517 86.5446 76.1687 87.073Z" fill="#D2EDD2"/>
<path d="M99.852 86.1184C100.031 84.3457 99.8947 82.4623 99.264 80.7834C98.9487 79.9482 98.4118 79.1642 97.5255 78.9C96.7073 78.6528 95.8295 78.5591 94.9943 78.3972C94.6279 78.329 94.7557 79.0022 94.8069 79.1642C94.9262 79.4965 95.1733 79.8971 95.5398 79.9653C96.2215 80.0931 96.9119 80.2124 97.5937 80.3488C97.8238 80.3914 98.0453 80.4681 98.2498 80.5874C98.2584 80.5874 98.3351 80.6897 98.301 80.6385C98.2413 80.5618 98.3351 80.7067 98.3436 80.7323C98.4032 80.8686 98.3095 80.6471 98.3606 80.7919C98.3862 80.8686 98.4118 80.9453 98.4374 81.022C98.8379 82.2919 98.9402 83.681 98.8124 85.002C98.7697 85.4025 98.9316 85.8116 99.2129 86.1098C99.3492 86.2632 99.8094 86.5274 99.852 86.1184Z" fill="#D2EDD2"/>
<path d="M52.3059 80.6472C54.5473 80.0932 58.9448 80.2381 59.3965 83.1612C59.5755 84.3373 59.388 85.5816 59.3368 86.7577C59.2772 88.2235 59.2346 89.6979 59.226 91.1722C59.1749 96.9844 59.5414 102.797 60.2828 108.566C60.3936 109.427 62.0895 109.222 61.9787 108.362C61.1094 101.621 60.7686 94.8198 60.9816 88.0275C61.0583 85.7009 61.9361 82.1812 59.7374 80.5364C57.5301 78.8916 54.2746 78.8234 51.7179 79.454C50.6185 79.7182 51.3685 80.8773 52.3059 80.6472Z" fill="#D2EDD2"/>
<path d="M48.1559 119.407C46.2724 119.509 44.389 119.39 42.5311 119.066C42.1817 119.006 41.6448 119.091 41.3891 119.355C41.1164 119.637 41.5425 119.773 41.7556 119.807C43.7498 120.148 45.7781 120.267 47.7979 120.165C48.0876 120.148 48.6757 120.097 48.8036 119.773C48.9229 119.449 48.3263 119.398 48.1559 119.407Z" fill="#D2EDD2"/>
<path d="M96.724 120.003C102.11 119.407 107.496 118.819 112.882 118.222C113.198 118.188 113.794 118.009 113.922 117.677C114.058 117.336 113.735 117.276 113.453 117.31C108.067 117.907 102.681 118.495 97.295 119.091C96.9797 119.125 96.3832 119.304 96.2553 119.637C96.119 119.978 96.4428 120.037 96.724 120.003Z" fill="#D2EDD2"/>
<path d="M114.852 117.54C115.678 116.62 115.934 115.444 116.045 114.242C116.198 112.623 116.266 110.995 116.334 109.367C116.488 105.992 116.539 102.618 116.505 99.2428C116.496 98.6803 114.809 98.5269 114.817 99.0042C114.852 102.26 114.809 105.515 114.664 108.771C114.596 110.339 114.511 111.907 114.4 113.467C114.306 114.77 114.17 116.1 113.249 117.114C112.917 117.481 114.494 117.932 114.852 117.54Z" fill="#D2EDD2"/>
<path d="M99.6899 50.6231C101.13 52.9838 102.485 55.4382 104.062 57.7051C105.298 59.4863 106.968 60.8925 108.971 61.7276C112.993 63.4151 117.749 62.9122 121.149 60.1169C121.345 59.955 119.905 59.4692 119.538 59.776C116.317 62.4265 111.928 62.9378 108.425 60.526C106.857 59.4437 105.8 57.9693 104.812 56.3671C103.644 54.4751 102.494 52.5747 101.343 50.6827C101.105 50.2907 99.5279 50.3589 99.6899 50.6231Z" fill="#D2EDD2"/>
<path d="M71.609 50.3929C71.7113 53.8359 73.0152 57.1596 75.5293 59.5629C77.8644 61.7872 81.2051 63.1252 84.401 62.1878C84.6652 62.1111 83.6766 60.8498 83.2931 60.9691C80.762 61.7105 77.7621 61.0799 75.8361 59.2391C73.7737 57.2789 72.9641 54.2024 72.8789 51.4497C72.8703 51.1344 72.4527 50.7935 72.2311 50.6145C72.163 50.5548 71.6005 50.1372 71.609 50.3929Z" fill="#D2EDD2"/>
<path d="M43.4598 52.4297C44.329 56.0091 45.9738 59.7504 48.5135 62.469C51.1298 65.2814 54.8285 64.2331 58.2204 64.5911C58.5783 64.6251 59.0386 64.3439 59.2942 64.1308C59.4391 64.0115 59.7544 63.6962 59.388 63.6536C57.692 63.4746 55.9876 63.6707 54.2916 63.5599C52.4253 63.432 50.9168 62.7417 49.6981 61.3015C47.3715 58.5573 45.8119 55.0972 44.9682 51.6286C44.9001 51.3474 43.349 51.961 43.4598 52.4297Z" fill="#D2EDD2"/>
<path d="M13.3932 53.0178C13.4955 54.6967 14.1943 56.2222 15.0551 57.6454C15.8818 59.009 16.8107 60.3726 18.0038 61.4464C20.4753 63.6622 23.8331 63.8923 26.9949 63.9605C28.1028 63.986 27.9238 62.648 26.9352 62.631C24.2507 62.5713 21.2764 62.5287 19.1629 60.6368C18.1487 59.7249 17.3817 58.5658 16.6573 57.4153C15.8477 56.1199 15.1659 54.7308 15.0722 53.1882C15.021 52.3531 13.3421 52.0974 13.3932 53.0178Z" fill="#D2EDD2"/>
<path d="M20.7143 48.3476C31.5376 48.2027 42.3524 48.0493 53.1758 47.9044C53.5422 47.8959 54.8802 47.7851 54.8547 47.2141C54.8291 46.6346 53.4399 46.6601 53.1246 46.6687C42.3013 46.8135 31.4865 46.967 20.6632 47.1118C20.2967 47.1204 18.9587 47.2311 18.9842 47.8021C19.0098 48.3817 20.399 48.3476 20.7143 48.3476Z" fill="#D2EDD2"/>
<path d="M115.618 37.4646C116.658 40.3537 118.022 43.1149 119.683 45.6971C119.896 46.038 120.663 46.9244 121.073 46.3363C121.473 45.7653 120.945 44.6915 120.638 44.2142C120.442 43.9074 120.246 43.6006 120.058 43.2938C119.99 43.1745 119.922 43.0637 119.854 42.9444C119.811 42.8677 119.76 42.791 119.717 42.7058C119.828 42.9018 119.837 42.9189 119.743 42.7484C119.428 42.1774 119.112 41.5979 118.823 41.0099C118.533 40.4218 118.26 39.8253 117.996 39.2202C117.919 39.0412 117.928 39.0497 118.013 39.2628C117.979 39.1776 117.945 39.0923 117.911 39.0071C117.86 38.8793 117.808 38.7515 117.757 38.6321C117.621 38.2912 117.502 37.9589 117.374 37.618C117.229 37.2089 117.007 36.7998 116.726 36.476C116.556 36.28 116.249 35.9902 115.959 35.9817C115.235 35.9476 115.49 37.1152 115.618 37.4646Z" fill="#D2EDD2"/>
</g>
</svg>
