<svg width="108" height="131" viewBox="0 0 108 131" fill="none" xmlns="http://www.w3.org/2000/svg">
<path d="M43.1053 65.0307C43.5832 66.7285 43.8913 68.4704 44.0108 70.2436C44.0611 71.124 44.0234 72.0483 43.7152 72.9098C43.4134 73.7713 42.9166 74.5322 42.3821 75.2428C42.118 75.6012 41.8351 75.9408 41.5647 76.2866C41.2943 76.6387 40.9862 76.9909 40.634 77.2864C40.2819 77.5883 39.8983 77.8398 39.4896 78.0473C39.0745 78.2422 38.6721 78.456 38.1627 78.5252C37.2384 78.6384 36.3517 78.5881 35.4588 78.5252C35.0124 78.4875 34.5659 78.4372 34.1194 78.3617C33.893 78.324 33.673 78.28 33.4466 78.2234C33.3334 78.1919 33.2202 78.1605 33.0944 78.1165C32.975 78.0662 32.8555 78.0284 32.692 77.8901L33.2831 77.5883C33.3208 78.0096 33.1636 78.3428 33.0064 78.6195C32.8429 78.8962 32.648 79.1352 32.4342 79.3615C32.0129 79.7954 31.535 80.1979 30.9627 80.4557C29.8937 80.9525 28.7744 81.2983 27.6237 81.5121C27.0452 81.6127 26.4667 81.7008 25.8567 81.7008C25.2656 81.7008 24.6745 81.6567 24.0897 81.5687C22.9201 81.3863 21.7882 81.0405 20.713 80.5374C19.6377 80.0281 18.663 79.349 17.7638 78.5944C16.8646 77.8335 16.0471 76.9217 15.456 75.8464C14.8649 74.7711 14.5631 73.5387 14.4939 72.3439C14.4059 71.1491 14.5316 69.9858 14.4876 68.9231L15.2548 69.5331C14.1669 69.7406 13.035 69.5645 12.0729 69.1243C11.0983 68.6904 10.2557 68.0302 9.58281 67.2253C8.23713 65.5715 7.74665 63.4964 7.65233 61.5344C7.60203 60.5409 7.64604 59.5662 7.76552 58.5916C7.87871 57.6169 8.07364 56.6359 8.44465 55.7053C8.80936 54.7746 9.40045 53.9068 10.1928 53.2906C10.9725 52.6744 11.966 52.2845 12.9533 52.3662V52.492C12.0101 52.536 11.1423 52.9825 10.482 53.6176C9.81548 54.2527 9.36901 55.0639 9.08604 55.9316C8.80307 56.8057 8.68989 57.7301 8.64587 58.6607C8.60814 59.5977 8.60185 60.5409 8.6836 61.459C8.8408 63.2889 9.39417 65.1124 10.5512 66.4078C11.6705 67.7346 13.4249 68.5458 15.0347 68.2628L15.7893 68.1308L15.8019 68.8791C15.8207 70.0927 15.6887 71.1994 15.7264 72.281C15.7578 73.3563 15.9779 74.3938 16.4495 75.3371C16.9212 76.2803 17.6129 77.1229 18.4303 77.8524C19.2541 78.5755 20.1533 79.2358 21.128 79.7137C22.1089 80.1979 23.1654 80.5374 24.2406 80.7261C24.7814 80.8204 25.3285 80.8707 25.8756 80.877C26.3975 80.8833 26.9571 80.8141 27.4979 80.7198C28.5858 80.5312 29.6548 80.2105 30.6609 79.7577C31.1325 79.5565 31.5475 79.2232 31.9248 78.8459C32.2833 78.4875 32.6228 77.9907 32.5977 77.6637L32.5222 76.5947L33.1951 77.3619C33.2265 77.3996 33.4654 77.4939 33.6478 77.5442C33.8427 77.6008 34.0503 77.6449 34.2578 77.6826C34.6791 77.7643 35.1067 77.8209 35.5343 77.8649C36.3895 77.9467 37.2761 78.0033 38.0999 77.9278C38.4709 77.8964 38.8733 77.714 39.2569 77.5442C39.6342 77.3682 39.9989 77.1481 40.3196 76.884C40.6466 76.6262 40.9359 76.3243 41.2125 75.9848C41.5018 75.6389 41.7848 75.3182 42.0551 74.9724C42.5959 74.2932 43.0927 73.5764 43.3945 72.7841C43.709 71.9917 43.7718 71.1177 43.7467 70.2499C43.6838 68.5081 43.426 66.76 43.0047 65.0621L43.1053 65.0307Z" fill="#00254D"/>
<path d="M6.78428 56.2838C6.04227 56.4535 5.24995 56.0762 4.72803 55.4852C4.20611 54.8815 3.96715 54.0955 3.86026 53.3534C3.75336 52.6177 3.62759 51.838 3.85397 51.1023C4.06777 50.3791 4.43248 49.6811 5.04244 49.1844L5.15563 49.2347C5.18078 50.0081 5.12419 50.6684 5.08646 51.3286C5.0613 51.9763 4.86008 52.6114 4.85379 53.278C4.85379 53.9257 4.93554 54.5734 5.23109 55.1204C5.52034 55.6612 6.08 56.1203 6.76541 56.158L6.78428 56.2838Z" fill="#00254D"/>
<path d="M3.40136 49.5994C1.79157 48.0902 0.779172 45.9648 0.458473 43.7514C0.15035 41.5316 0.489914 39.1924 1.52118 37.1424C2.54616 35.1114 4.15594 33.3129 6.18075 32.2313C8.18669 31.1498 10.4945 30.6153 12.7079 30.8668L12.7142 30.9926C10.5699 31.439 8.57656 32.1999 6.81586 33.3192C5.08031 34.4385 3.45166 35.8031 2.40782 37.6203C1.37026 39.4188 0.917512 41.5693 1.08729 43.6822C1.23192 45.795 2.03053 47.9079 3.49568 49.5114L3.40136 49.5994Z" fill="#00254D"/>
<path d="M13.5321 29.9802C12.8844 27.0184 12.702 23.8995 13.3246 20.8749C13.9534 17.8502 15.45 14.9954 17.676 12.7631C18.2545 12.2097 18.8771 11.7318 19.5247 11.2916C20.1787 10.8577 20.8578 10.4364 21.6502 10.1534C23.1593 9.65039 24.6308 9.31082 26.1777 9.07816C29.3532 8.69458 32.3779 9.31711 35.3459 9.93965L35.3396 10.0654C33.8116 10.1597 32.2835 10.1157 30.7869 10.1094C30.0386 10.1031 29.2966 10.1283 28.5546 10.1597L27.4416 10.2289C27.0706 10.2478 26.7499 10.2855 26.3789 10.3484C24.9389 10.6062 23.436 10.9143 22.0652 11.3419C20.7698 11.7758 19.4493 12.587 18.3677 13.5051C16.2297 15.4796 14.664 18.1395 13.9471 21.0258C13.1862 23.9121 13.1862 26.987 13.6704 29.9676L13.5321 29.9802Z" fill="#00254D"/>
<path d="M36.5654 8.31726C36.9427 7.38031 37.5212 6.53141 38.2255 5.80826C38.9298 5.08512 39.7598 4.49402 40.6213 3.98468C42.3632 2.96599 44.2748 2.29944 46.1864 1.71463C48.1106 1.1424 50.0977 0.758823 52.1036 0.62677C54.1158 0.482141 56.1281 0.639347 58.1214 0.84057C60.1148 1.05437 62.1207 1.40651 64.0198 2.11708C65.9062 2.78992 67.7864 3.51935 69.566 4.49402C71.333 5.46241 73.0056 6.70119 74.2821 8.30468C75.5712 9.88302 76.483 11.8387 76.6276 13.9201L76.2504 13.6371C77.7092 13.2787 79.2435 13.2787 80.7087 13.5742C82.1739 13.8698 83.5761 14.4608 84.8275 15.2783C86.0788 16.0958 87.1856 17.1396 88.0533 18.3595C88.9211 19.5795 89.5436 20.9943 89.8078 22.4846L89.4179 22.1702C91.7131 22.0633 94.0146 22.5223 96.1148 23.4153C98.2214 24.3082 100.133 25.6224 101.755 27.2259C105.05 30.4329 106.918 34.885 107.465 39.381C107.61 40.5066 107.673 41.6448 107.66 42.783C107.654 43.9211 107.572 45.053 107.421 46.1786C107.119 48.4298 106.604 50.6558 105.673 52.7749C104.736 54.8626 103.271 56.8749 101.114 57.9942C100.058 58.5538 98.8816 58.8871 97.668 58.9311C96.4544 58.9877 95.203 58.6922 94.134 58.0445L95.0333 57.3591C95.9702 60.4403 95.6306 63.8108 94.3038 66.6908C92.9896 69.6022 90.6818 71.9854 87.9842 73.5952C85.2802 75.2113 82.1739 76.142 79.0172 76.2237C77.4388 76.274 75.8542 76.0665 74.3262 75.6389C73.5716 75.4188 72.7981 75.1484 72.0813 74.702C71.3707 74.2681 70.679 73.6015 70.3772 72.7023L71.1946 73.023C67.7487 74.8654 63.4287 74.79 60.0708 72.8595C56.7129 70.9165 54.5434 67.2064 54.4302 63.3832L55.166 63.4146C54.8138 65.8733 53.3487 68.049 51.393 69.4639C50.4121 70.1681 49.2928 70.6964 48.1106 70.9542C46.9284 71.212 45.6833 71.1931 44.5263 70.8473L44.4508 70.8221L44.4257 70.753C43.8912 69.1998 43.6334 67.5523 43.6648 65.9236H43.7906C43.822 67.5397 44.1364 69.1495 44.715 70.6523L44.6143 70.558C45.7274 70.8473 46.9095 70.8221 48.0163 70.5329C49.123 70.2499 50.1606 69.7154 51.0661 69.0174C52.8708 67.6277 54.1787 65.5526 54.4365 63.3203L55.1723 63.3517C55.3546 66.9109 57.4926 70.2876 60.5613 71.998C63.6299 73.7147 67.6041 73.7084 70.6476 72.0169L71.2387 71.6899L71.465 72.3376C71.66 72.8909 72.119 73.3563 72.6975 73.7021C73.276 74.0543 73.9489 74.2806 74.6594 74.4819C76.068 74.8592 77.5269 75.0164 78.992 74.9724C81.916 74.8843 84.8212 74.004 87.3239 72.4885C89.8203 70.973 91.952 68.8099 93.1594 66.1688C94.3793 63.5467 94.7 60.478 93.8888 57.7175L93.4361 56.1643L94.788 57.0258C96.467 58.1011 98.781 57.9313 100.605 56.9818C102.46 56.0511 103.818 54.2715 104.705 52.3285C105.597 50.3666 106.119 48.2097 106.427 46.0466C106.585 44.965 106.673 43.8708 106.685 42.7767C106.71 41.6825 106.654 40.5884 106.522 39.5005C106.025 35.1742 104.271 30.9171 101.158 27.8422C98.1019 24.7609 93.8259 22.7487 89.4619 22.9311L89.1286 22.9436L89.072 22.6167C88.613 19.8561 86.8083 17.4037 84.4628 15.8568C82.1236 14.2974 79.1555 13.5931 76.4138 14.2408L76.0554 14.3288L76.0303 13.9641C75.9108 12.0336 75.0807 10.1849 73.8671 8.65682C72.6598 7.10992 71.0689 5.8963 69.3459 4.92791C67.6166 3.95952 65.7616 3.21752 63.894 2.52581C62.0453 1.80895 60.0834 1.44424 58.1026 1.21157C56.1218 0.991487 54.1284 0.815416 52.1476 0.934893C50.1606 1.04179 48.1923 1.40651 46.2744 1.9473C44.3628 2.50695 42.4638 3.15463 40.7345 4.14188C39.0115 5.11027 37.4584 6.50625 36.7038 8.36127L36.5654 8.31726Z" fill="#00254D"/>
<path d="M44.5644 73.8782C45.212 75.9596 45.7214 78.0913 46.0735 80.2419C46.2496 81.3172 46.3942 82.3987 46.4886 83.4929C46.5137 84.04 46.5011 84.587 46.5389 85.1278C46.5577 85.3982 46.5892 85.6686 46.6521 85.9264C46.7149 86.178 46.8093 86.4546 47.0231 86.5867L47.0608 86.6118L47.0482 86.6496C46.3439 88.4606 46.7401 90.4225 46.6143 92.3278C46.5766 94.2394 46.5011 96.1574 46.4194 98.069C46.2433 101.892 45.9604 105.715 45.451 109.514C44.9605 113.312 44.2311 117.085 43.225 120.788C42.9546 121.706 42.7031 122.637 42.4012 123.543C42.112 124.454 41.8164 125.372 41.4265 126.259C41.043 127.146 40.5776 128.007 39.9614 128.768C39.3514 129.529 38.5465 130.17 37.6096 130.522L37.597 130.177C39.0182 130.585 40.6342 130.277 41.8101 129.384L41.9673 129.265L42.0805 129.428C42.7659 130.397 44.1556 130.787 45.2624 130.378C45.5453 130.283 45.778 130.12 46.0421 129.931C46.2999 129.749 46.6143 129.548 46.9853 129.504C47.35 129.46 47.6896 129.529 47.9977 129.592L48.9284 129.768C51.4059 130.202 53.9715 130.397 56.4554 130.265C56.7509 130.227 57.0087 130.145 57.2288 129.969C57.4552 129.799 57.7004 129.535 58.0589 129.397C58.7694 129.133 59.4611 129.34 60.0648 129.435C61.3036 129.661 62.5612 129.793 63.8189 129.818C66.3342 129.887 68.862 129.554 71.2767 128.85L71.2264 129.321C68.5288 127.907 66.265 125.775 64.498 123.322C62.731 120.864 61.4294 118.091 60.5616 115.204C59.6812 112.318 59.2033 109.325 58.9141 106.338C58.6311 103.345 58.5242 100.352 58.4425 97.3584C58.367 94.3652 58.367 91.3594 58.5556 88.3662C58.7569 85.3731 59.1593 82.3799 59.851 79.4496C60.1843 77.9844 60.6433 76.5444 61.1212 75.1296C61.3539 74.4504 61.5111 73.7021 61.1024 73.1802C60.9137 72.9224 60.6245 72.74 60.3415 72.7652C60.0585 72.7841 59.7881 73.023 59.5115 73.2682C57.2917 75.2239 55.5687 77.7455 54.5626 80.5374L54.4997 80.7135L54.3425 80.6066C53.5565 80.0721 52.9717 79.2986 52.5441 78.4812C52.1102 77.6574 51.8084 76.7834 51.5191 75.9156L49.8024 70.6964L49.8842 70.753C48.4819 70.8221 47.0797 70.9982 45.7025 71.2749C45.3567 71.3441 45.0108 71.4195 44.6713 71.5075C44.5015 71.5516 44.338 71.6019 44.1745 71.671C44.0236 71.7402 43.8601 71.8282 43.7972 71.9729C43.7406 72.1175 43.8098 72.2936 43.879 72.4445C43.9544 72.6017 44.0424 72.7526 44.1242 72.9098C44.3128 73.2116 44.4638 73.5324 44.5644 73.8782ZM44.5078 73.8908C44.4009 73.5575 44.25 73.2368 44.0802 72.9287C43.9984 72.7715 43.9041 72.6206 43.8286 72.4634C43.7595 72.3062 43.6652 72.1175 43.7406 71.9226C43.8224 71.7339 43.9984 71.6396 44.1556 71.5641C44.3191 71.4887 44.4889 71.4384 44.6587 71.3881C44.9983 71.2937 45.3441 71.2183 45.69 71.1428C47.0734 70.8473 48.4756 70.6523 49.8842 70.5643L49.9471 70.558L49.9659 70.6146L51.7455 75.815C52.0411 76.6765 52.3555 77.5379 52.7831 78.3303C53.2107 79.1226 53.7766 79.8457 54.5186 80.3362L54.2985 80.4117C55.2858 77.5631 57.0087 74.9661 59.2536 72.9413C59.524 72.7023 59.8322 72.3753 60.3163 72.325C60.7942 72.2873 61.2093 72.564 61.4608 72.8972C61.7312 73.2305 61.8318 73.6896 61.8067 74.092C61.7941 74.5007 61.6809 74.8843 61.5677 75.249C61.1087 76.6702 60.6748 78.085 60.3604 79.5439C59.7064 82.4428 59.3542 85.4108 59.1908 88.3788C59.0021 91.3532 59.0021 94.3338 59.0776 97.3207C59.2473 103.276 59.4611 109.3 61.1464 115.009C61.9827 117.852 63.2467 120.568 64.957 122.977C66.6674 125.379 68.862 127.46 71.4716 128.85L72.0313 129.145L71.4213 129.321C68.9501 130.026 66.3719 130.353 63.8063 130.277C62.5235 130.246 61.247 130.101 59.9831 129.868C59.3605 129.755 58.738 129.598 58.2287 129.799C57.9834 129.887 57.7822 130.101 57.4992 130.315C57.2163 130.535 56.8452 130.655 56.512 130.692C53.9149 130.824 51.3808 130.617 48.8529 130.164L47.9097 129.982C47.6016 129.919 47.306 129.862 47.0356 129.894C46.5011 129.944 46.0672 130.516 45.3944 130.743C44.1053 131.202 42.5647 130.768 41.7598 129.642L42.0365 129.686C40.7537 130.654 39.0307 130.975 37.4901 130.529L36.9619 130.378L37.4775 130.183C38.339 129.862 39.0936 129.271 39.6784 128.548C40.2695 127.825 40.7223 126.988 41.1058 126.121C41.4894 125.253 41.785 124.347 42.0805 123.442C42.3886 122.536 42.6465 121.618 42.9169 120.7C43.9355 117.022 44.7027 113.268 45.2183 109.482C45.7528 105.697 46.0672 101.88 46.2748 98.0627C46.3754 96.1511 46.4445 94.2394 46.4886 92.3278C46.5263 91.372 46.52 90.4162 46.4948 89.4604C46.4697 88.4983 46.6269 87.5299 46.9476 86.6244L46.9728 86.681C46.7086 86.5112 46.6269 86.2157 46.5577 85.9579C46.4948 85.6875 46.4634 85.4171 46.4445 85.1404C46.4068 84.5933 46.4194 84.0462 46.3942 83.5055C46.2999 82.4239 46.1616 81.3423 45.9855 80.267C45.6459 78.1039 45.1429 75.9785 44.5078 73.8908Z" fill="#00254D"/>
<path d="M82.9971 73.0545C82.8839 73.0733 82.7645 73.0985 82.6513 73.1173C81.9093 73.1991 81.2301 73.5261 80.5007 73.6644C79.2934 73.9285 78.7337 74.2744 77.4949 74.3687C76.8787 74.4127 76.2373 74.9975 74.9796 74.3687C74.6212 74.1675 74.3508 73.7399 73.9358 73.677C71.8355 72.4822 70.1189 70.6587 69.0562 68.3697C69.1065 68.1937 69.2008 68.0553 69.358 67.961C69.9428 67.9359 70.3578 68.3194 70.8231 68.5773C74.2062 71.495 80.6893 71.5767 83.7832 69.3381C88.4616 65.9425 90.6939 61.3961 90.7002 55.5041C90.7002 54.8438 90.1657 53.4352 90.1028 52.775C90.0777 52.3348 89.9016 51.9072 90.0085 51.4607C90.9203 50.1528 91.5302 51.2155 92.0647 51.8003C93.6871 53.5673 93.8317 53.5799 95.3157 51.5488C96.391 50.0836 97.0764 48.4361 97.5795 46.7068C97.743 46.2352 97.8373 45.7447 97.9631 45.2606C98.1266 44.7889 98.158 44.267 98.4661 43.8457C100.283 44.2482 100.126 42.4623 100.868 41.67C101.057 41.3053 101.252 40.9468 101.673 40.7959C102.069 40.8399 102.459 40.6702 102.855 40.7833C103.352 41.0789 103.572 41.5379 103.648 42.0913C103.66 44.2293 102.717 46.1409 102.208 48.1531C102.252 48.7379 101.988 49.1907 101.598 49.5868C101 49.7629 100.969 50.4232 100.573 50.7753C100.283 51.5173 99.4597 51.9135 99.2962 52.731C98.7617 53.2529 98.2335 53.7811 97.699 54.303C97.4663 54.3722 97.2399 54.4791 97.0135 54.5734C96.2715 54.8752 95.4729 55.0702 94.9322 55.7304C94.8127 55.8436 94.6743 55.9254 94.5234 55.982C94.1398 56.1077 93.7625 55.9757 93.3915 55.9757C93.14 56.8623 93.5802 57.6546 93.706 58.4847C93.5991 59.6417 93.926 60.8176 93.5173 61.9495C93.8569 64.1881 92.3288 65.6407 91.285 67.3007C90.5052 67.961 89.757 68.6464 89.1659 69.4828L89.1722 69.4702C88.5999 69.7029 88.0403 69.9544 87.707 70.514L87.5875 70.5769H87.4492C86.8707 70.8913 86.2984 71.212 85.6948 71.4635C84.871 72.1427 83.7203 72.237 82.9971 73.0545Z" fill="#CACFE5"/>
<path d="M38.5716 128.579C38.7414 129.63 39.5652 129.284 40.1437 129.24C41.4642 129.133 42.703 128.649 43.9732 128.284C44.6838 128.076 45.3566 127.102 46.3502 128.416C46.8784 129.12 48.3813 128.139 49.1987 127.447C49.9093 126.844 50.3495 126.661 50.8525 127.586C50.9909 127.837 51.2361 128.07 51.4876 128.221C52.2862 128.711 53.0974 129.755 54.0218 129.139C54.6946 128.693 53.8143 127.749 53.7325 127.007C53.6445 126.19 53.2106 125.416 53.5376 124.442C55.1285 126.209 56.7572 127.863 59.4548 127.781C59.2724 126.404 57.9079 125.718 58.0588 124.215C59.153 125.171 60.0207 126.215 61.2218 126.819C61.6494 127.039 62.0833 127.297 62.5423 127.385C63.0454 127.485 63.7182 127.705 64.0578 127.202C64.3848 126.712 63.7811 126.309 63.517 125.982C61.6934 123.712 60.1339 121.329 59.5806 118.405C60.1151 117.889 60.7313 117.751 61.423 118.021C61.8695 118.411 61.8695 118.99 62.0455 119.493C61.7626 120.298 62.2782 120.795 62.7435 121.304C63.3849 122.228 63.6679 123.373 64.5483 124.14C64.9381 125.203 65.6235 126.014 66.6171 126.555C67.4597 127.347 68.5476 127.781 69.4468 128.485L69.3713 128.435C69.4279 128.837 70.2894 128.649 70.0127 129.221C69.78 129.699 69.233 129.592 68.7865 129.617C67.5792 129.648 66.4347 129.384 65.699 128.925C65.699 128.925 66.1014 129.045 66.0763 129.46C66.0511 129.831 65.6487 129.793 65.3594 129.793C64.6426 129.787 63.9257 129.837 63.2089 129.755C62.6052 129.548 61.9827 129.642 61.3664 129.617C59.7378 129.214 58.0211 129.755 56.4113 129.145C56.405 129.145 56.2604 129.032 56.3296 129.164C57.2539 130.963 55.3297 129.956 55.0027 130.51C53.8646 130.522 52.7264 130.516 51.5882 130.516C50.1231 130.566 48.7837 129.497 47.2682 130.026C47.067 130.585 46.6206 130.378 46.237 130.346C45.1051 130.246 43.7657 131.359 42.8854 129.774C42.6275 129.925 42.3697 130.076 42.1622 130.296C41.9295 130.29 41.7032 130.283 41.4705 130.277C40.5902 130.019 39.6972 130.214 38.8043 130.177C38.3704 130.158 37.7542 130.384 37.5215 129.862C37.2826 129.315 38.0686 129.164 38.1881 128.705C38.3138 128.686 38.4396 128.636 38.5716 128.579Z" fill="#CACFE5"/>
<path d="M58.2155 114.896C57.4987 113.029 57.354 111.029 57.1906 109.092C56.5303 101.194 56.4548 93.3025 57.7502 85.4233C58.2155 82.5936 58.4734 79.7325 59.2217 76.9531C59.4669 76.0476 59.1965 75.4251 58.3036 75.1044C58.0143 75.0918 57.8382 74.9283 57.7251 74.6768C57.6747 74.048 57.8005 73.4946 58.379 73.1299C60.4856 72.6897 61.0704 73.2556 60.6239 75.1798C60.5233 75.6137 60.1083 76.0162 60.385 76.5192C60.3787 76.6387 60.3724 76.7519 60.3661 76.8714C59.4983 78.4246 59.6618 80.2419 59.1085 81.8768C59.1651 82.5056 58.9764 83.147 59.2405 83.7633C59.3223 84.4047 59.2908 85.0272 58.9953 85.6183C58.945 85.5868 58.8569 85.5428 58.8632 85.5177C58.901 85.3667 58.8255 85.3102 58.8129 85.3856C58.618 86.5175 58.9135 87.6745 58.618 88.8127C58.5614 94.5475 58.5174 100.27 58.6431 105.992C58.8632 106.866 58.6494 107.784 58.9198 108.652C58.9701 109.174 58.8381 109.74 59.2468 110.193C59.2657 110.432 59.2845 110.664 59.3034 110.903C59.1147 112.173 59.7247 113.349 59.7121 114.594C59.2782 115.035 58.8192 115.311 58.2155 114.896Z" fill="#CACFE5"/>
<path d="M58.8444 115.525C59.3034 115.412 59.7625 115.292 60.2215 115.179C60.668 114.796 59.8505 116.5 60.6931 115.468C61.127 116.273 61.3031 117.147 61.41 118.047C60.8377 118.386 60.2152 118.48 59.5675 118.43C58.8507 117.575 58.8129 116.556 58.8444 115.525Z" fill="#CACFE5"/>
<path d="M74.9858 13.9515C73.5835 10.1094 70.8859 6.78921 67.5154 4.48773C63.95 2.06048 59.8627 1.27445 55.6055 1.55742C52.7633 1.74607 49.9461 2.22397 47.1919 2.95969C46.1795 3.23009 47.8207 5.85227 48.6948 5.61961C51.449 4.88388 54.2599 4.39969 57.1084 4.21733C59.6551 4.04755 62.1767 4.18589 64.5977 5.05367C68.5027 6.46223 71.6908 9.43026 73.1182 13.3478C73.332 13.9263 73.9294 14.8067 74.5834 14.945C75.2625 15.0897 75.1367 14.3728 74.9858 13.9515Z" fill="#CACFE5"/>
<path d="M12.2809 31.5522C9.33168 32.4891 6.61517 34.4951 5.09342 37.2179C3.5591 39.9658 3.39561 43.33 4.59037 46.2289C4.91735 47.0212 7.77849 45.7321 7.42635 44.8644C5.60906 40.4563 7.33203 34.5202 12.0608 33.0111C12.5198 32.8664 13.6014 32.3697 13.614 31.7723C13.6202 31.156 12.5764 31.4579 12.2809 31.5522Z" fill="#CACFE5"/>
<path d="M16.7074 29.3136C15.9969 26.9492 16.7703 24.195 17.5186 21.9312C18.2543 19.6989 19.4994 17.7685 21.3984 16.3536C25.2154 13.505 30.5541 13.0083 35.113 13.8257C35.7544 13.9389 36.1129 13.5365 35.9116 12.9139C35.6978 12.26 34.9244 11.5746 34.239 11.4488C29.1078 10.5244 23.3163 11.0652 19.0341 14.2785C16.9401 15.8505 15.6321 18.0703 14.8524 20.5416C14.0224 23.1763 13.4187 26.05 14.2362 28.7603C14.4374 29.4331 15.2234 30.0934 15.9088 30.2254C16.5817 30.3512 16.8961 29.9424 16.7074 29.3136Z" fill="#CACFE5"/>
<path d="M34.8049 77.387C37.7478 78.5378 40.1373 76.3495 41.3132 73.809C42.64 70.9542 42.9921 67.6969 42.3822 64.6157C42.2942 64.1755 41.7156 63.7856 41.3761 63.5529C41.2943 63.4964 40.4454 62.9933 40.5083 63.3203C41.0805 66.2129 40.8101 69.2249 39.6468 71.9414C39.15 73.111 38.4961 74.2555 37.5214 75.0918C36.5404 75.9407 35.0313 76.5255 33.7548 76.0225C33.3712 75.8716 33.2517 76.0036 33.4969 76.3495C33.7862 76.7519 34.3333 77.1984 34.8049 77.387Z" fill="#CACFE5"/>
<path d="M43.9037 72.0986C45.6581 76.5318 46.7963 81.2228 47.2805 85.983C47.532 88.36 47.6578 90.7621 47.5131 93.1579C47.3559 95.5474 47.0478 97.9306 46.4441 100.245L46.3813 100.232C46.6265 97.8615 46.8403 95.4971 46.8843 93.1264C46.9472 90.7621 46.9598 88.3914 46.7774 86.0207C46.4064 81.292 45.4255 76.6073 43.8408 72.1112L43.9037 72.0986Z" fill="#00254D"/>
</svg>
