<svg width="141" height="141" viewBox="0 0 141 141" fill="none" xmlns="http://www.w3.org/2000/svg">
<mask id="mask0" mask-type="alpha" maskUnits="userSpaceOnUse" x="0" y="0" width="141" height="141">
<rect x="0.318359" y="0.210693" width="140" height="140" fill="#C4C4C4"/>
</mask>
<g mask="url(#mask0)">
<path d="M59.418 69.4946C59.8959 71.1924 60.2041 72.9342 60.3235 74.7075C60.3738 75.5878 60.3361 76.5122 60.028 77.3737C59.7262 78.2352 59.2294 78.9961 58.6949 79.7066C58.4308 80.0651 58.1478 80.4046 57.8774 80.7505C57.607 81.1026 57.2989 81.4547 56.9468 81.7503C56.5946 82.0521 56.211 82.3037 55.8023 82.5112C55.3873 82.7061 54.9848 82.9199 54.4755 82.9891C53.5511 83.1023 52.6645 83.052 51.7716 82.9891C51.3251 82.9513 50.8786 82.901 50.4322 82.8256C50.2058 82.7879 49.9857 82.7438 49.7593 82.6872C49.6461 82.6558 49.533 82.6244 49.4072 82.5803C49.2877 82.53 49.1682 82.4923 49.0047 82.354L49.5958 82.0521C49.6336 82.4734 49.4764 82.8067 49.3192 83.0834C49.1557 83.3601 48.9607 83.599 48.7469 83.8254C48.3256 84.2593 47.8477 84.6617 47.2755 84.9195C46.2065 85.4163 45.0872 85.7622 43.9364 85.976C43.3579 86.0766 42.7794 86.1646 42.1695 86.1646C41.5784 86.1646 40.9873 86.1206 40.4025 86.0326C39.2329 85.8502 38.101 85.5044 37.0257 85.0013C35.9504 84.492 34.9757 83.8128 34.0765 83.0582C33.1773 82.2974 32.3598 81.3856 31.7687 80.3103C31.1777 79.235 30.8758 78.0025 30.8067 76.8078C30.7186 75.613 30.8444 74.4497 30.8004 73.387L31.5675 73.9969C30.4797 74.2044 29.3478 74.0284 28.3857 73.5882C27.411 73.1543 26.5684 72.494 25.8956 71.6891C24.5499 70.0353 24.0594 67.9602 23.9651 65.9983C23.9148 65.0048 23.9588 64.0301 24.0783 63.0554C24.1915 62.0808 24.3864 61.0998 24.7574 60.1691C25.1221 59.2385 25.7132 58.3707 26.5055 57.7545C27.2853 57.1382 28.2788 56.7484 29.266 56.8301V56.9559C28.3228 56.9999 27.455 57.4463 26.7948 58.0815C26.1282 58.7166 25.6818 59.5277 25.3988 60.3955C25.1158 61.2696 25.0026 62.1939 24.9586 63.1246C24.9209 64.0615 24.9146 65.0048 24.9963 65.9229C25.1535 67.7527 25.7069 69.5763 26.8639 70.8717C27.9832 72.1985 29.7377 73.0097 31.3474 72.7267L32.102 72.5947L32.1146 73.343C32.1335 74.5566 32.0014 75.6633 32.0391 76.7449C32.0706 77.8202 32.2907 78.8577 32.7623 79.8009C33.2339 80.7442 33.9256 81.5868 34.7431 82.3162C35.5668 83.0394 36.466 83.6996 37.4407 84.1775C38.4217 84.6617 39.4781 85.0013 40.5534 85.1899C41.0942 85.2843 41.6412 85.3346 42.1883 85.3409C42.7102 85.3472 43.2699 85.278 43.8107 85.1837C44.8985 84.995 45.9675 84.6743 46.9737 84.2216C47.4453 84.0203 47.8603 83.6871 48.2376 83.3098C48.596 82.9513 48.9356 82.4546 48.9104 82.1276L48.835 81.0586L49.5078 81.8257C49.5392 81.8635 49.7782 81.9578 49.9606 82.0081C50.1555 82.0647 50.363 82.1087 50.5705 82.1465C50.9918 82.2282 51.4194 82.2848 51.847 82.3288C52.7022 82.4106 53.5889 82.4672 54.4126 82.3917C54.7836 82.3603 55.1861 82.1779 55.5696 82.0081C55.9469 81.832 56.3116 81.612 56.6323 81.3478C56.9593 81.09 57.2486 80.7882 57.5253 80.4486C57.8145 80.1028 58.0975 79.7821 58.3679 79.4362C58.9087 78.7571 59.4054 78.0402 59.7073 77.2479C60.0217 76.4556 60.0846 75.5816 60.0594 74.7138C59.9965 72.9719 59.7387 71.2238 59.3174 69.526L59.418 69.4946Z" fill="#00254D"/>
<path d="M23.097 60.7476C22.355 60.9174 21.5627 60.5401 21.0408 59.949C20.5189 59.3453 20.2799 58.5593 20.173 57.8173C20.0661 57.0816 19.9403 56.3019 20.1667 55.5661C20.3805 54.843 20.7452 54.145 21.3552 53.6482L21.4684 53.6985C21.4935 54.472 21.4369 55.1322 21.3992 55.7925C21.374 56.4402 21.1728 57.0753 21.1665 57.7419C21.1665 58.3895 21.2483 59.0372 21.5438 59.5843C21.8331 60.1251 22.3927 60.5841 23.0782 60.6219L23.097 60.7476Z" fill="#00254D"/>
<path d="M19.7141 54.0633C18.1043 52.5541 17.0919 50.4287 16.7712 48.2152C16.4631 45.9955 16.8027 43.6563 17.8339 41.6063C18.8589 39.5752 20.4687 37.7768 22.4935 36.6952C24.4994 35.6136 26.8072 35.0791 29.0207 35.3307L29.0269 35.4564C26.8827 35.9029 24.8893 36.6638 23.1286 37.7831C21.3931 38.9024 19.7644 40.2669 18.7206 42.0842C17.683 43.8826 17.2303 46.0332 17.4 48.1461C17.5447 50.2589 18.3433 52.3717 19.8084 53.9752L19.7141 54.0633Z" fill="#00254D"/>
<path d="M29.8448 34.4441C29.1971 31.4823 29.0148 28.3633 29.6373 25.3387C30.2661 22.3141 31.7627 19.4592 33.9888 17.2269C34.5673 16.6736 35.1898 16.1957 35.8375 15.7555C36.4915 15.3216 37.1706 14.9003 37.9629 14.6173C39.4721 14.1143 40.9435 13.7747 42.4904 13.542C45.666 13.1584 48.6906 13.781 51.6586 14.4035L51.6523 14.5293C50.1243 14.6236 48.5963 14.5796 47.0997 14.5733C46.3514 14.567 45.6094 14.5922 44.8674 14.6236L43.7543 14.6928C43.3833 14.7116 43.0626 14.7494 42.6916 14.8122C41.2516 15.0701 39.7488 15.3782 38.3779 15.8058C37.0826 16.2397 35.762 17.0508 34.6805 17.9689C32.5425 19.9434 30.9767 22.6033 30.2598 25.4896C29.499 28.3759 29.499 31.4509 29.9832 34.4315L29.8448 34.4441Z" fill="#00254D"/>
<path d="M52.8784 12.7811C53.2557 11.8442 53.8342 10.9953 54.5385 10.2721C55.2428 9.54898 56.0728 8.95789 56.9343 8.44854C58.6762 7.42985 60.5878 6.7633 62.4994 6.1785C64.4236 5.60627 66.4107 5.22269 68.4166 5.09064C70.4288 4.94601 72.4411 5.10321 74.4344 5.30444C76.4278 5.51824 78.4337 5.87038 80.3328 6.58095C82.2192 7.25378 84.0994 7.98322 85.879 8.95789C87.646 9.92628 89.3186 11.1651 90.5951 12.7685C91.8842 14.3469 92.796 16.3025 92.9406 18.3839L92.5633 18.101C94.0222 17.7425 95.5565 17.7425 97.0217 18.0381C98.4868 18.3336 99.8891 18.9247 101.14 19.7422C102.392 20.5596 103.499 21.6035 104.366 22.8234C105.234 24.0433 105.857 25.4582 106.121 26.9485L105.731 26.6341C108.026 26.5272 110.328 26.9862 112.428 27.8791C114.534 28.7721 116.446 30.0863 118.068 31.6898C121.363 34.8968 123.231 39.3488 123.778 43.8449C123.923 44.9705 123.986 46.1087 123.973 47.2468C123.967 48.385 123.885 49.5169 123.734 50.6425C123.432 52.8937 122.917 55.1197 121.986 57.2388C121.049 59.3265 119.584 61.3387 117.427 62.458C116.371 63.0177 115.195 63.351 113.981 63.395C112.767 63.4516 111.516 63.156 110.447 62.5083L111.346 61.8229C112.283 64.9041 111.944 68.2746 110.617 71.1546C109.303 74.0661 106.995 76.4493 104.297 78.0591C101.593 79.6752 98.4868 80.6058 95.3302 80.6876C93.7518 80.7379 92.1672 80.5304 90.6392 80.1028C89.8846 79.8827 89.1111 79.6123 88.3943 79.1658C87.6837 78.7319 86.992 78.0654 86.6902 77.1662L87.5076 77.4869C84.0617 79.3293 79.7417 79.2539 76.3838 77.3234C73.0259 75.3803 70.8564 71.6703 70.7432 67.847L71.479 67.8785C71.1268 70.3372 69.6617 72.5129 67.706 73.9277C66.7251 74.632 65.6058 75.1602 64.4236 75.418C63.2414 75.6759 61.9963 75.657 60.8393 75.3111L60.7638 75.286L60.7387 75.2168C60.2042 73.6636 59.9464 72.0161 59.9778 70.3875H60.1036C60.135 72.0035 60.4494 73.6133 61.0279 75.1162L60.9273 75.0219C62.0403 75.3111 63.2225 75.286 64.3293 74.9967C65.436 74.7138 66.4735 74.1793 67.379 73.4813C69.1838 72.0916 70.4917 70.0165 70.7495 67.7841L71.4852 67.8156C71.6676 71.3747 73.8056 74.7515 76.8742 76.4619C79.9429 78.1786 83.917 78.1723 86.9605 76.4807L87.5516 76.1538L87.778 76.8015C87.9729 77.3548 88.432 77.8201 89.0105 78.166C89.589 78.5181 90.2619 78.7445 90.9724 78.9457C92.381 79.323 93.8399 79.4802 95.305 79.4362C98.229 79.3482 101.134 78.4678 103.637 76.9524C106.133 75.4369 108.265 73.2738 109.472 70.6327C110.692 68.0105 111.013 64.9419 110.202 62.1813L109.749 60.6282L111.101 61.4896C112.78 62.5649 115.094 62.3951 116.918 61.4456C118.773 60.515 120.131 58.7354 121.018 56.7923C121.91 54.8304 122.432 52.6736 122.74 50.5104C122.898 49.4288 122.986 48.3347 122.998 47.2406C123.023 46.1464 122.967 45.0522 122.835 43.9644C122.338 39.6381 120.584 35.381 117.471 32.306C114.415 29.2248 110.139 27.2126 105.775 27.3949L105.442 27.4075L105.385 27.0805C104.926 24.32 103.121 21.8676 100.776 20.3207C98.4365 18.7612 95.4685 18.0569 92.7268 18.7046L92.3684 18.7927L92.3433 18.4279C92.2238 16.4975 91.3937 14.6487 90.1801 13.1207C88.9728 11.5738 87.3819 10.3602 85.6589 9.39178C83.9296 8.42339 82.0746 7.68138 80.207 6.98968C78.3583 6.27282 76.3963 5.90811 74.4156 5.67544C72.4348 5.45535 70.4414 5.27928 68.4606 5.39876C66.4735 5.50566 64.5053 5.87038 62.5874 6.41116C60.6758 6.97081 58.7768 7.6185 57.0475 8.60575C55.3245 9.57414 53.7713 10.9701 53.0168 12.8251L52.8784 12.7811Z" fill="#00254D"/>
<path d="M60.8774 78.3421C61.525 80.4235 62.0344 82.5552 62.3865 84.7057C62.5626 85.781 62.7072 86.8626 62.8015 87.9567C62.8267 88.5038 62.8141 89.0509 62.8519 89.5917C62.8707 89.8621 62.9022 90.1325 62.965 90.3903C63.0279 90.6418 63.1222 90.9185 63.336 91.0506L63.3738 91.0757L63.3612 91.1134C62.6569 92.9244 63.0531 94.8864 62.9273 96.7917C62.8896 98.7033 62.8141 100.621 62.7324 102.533C62.5563 106.356 62.2733 110.179 61.764 113.977C61.2735 117.775 60.5441 121.548 59.538 125.252C59.2676 126.17 59.016 127.101 58.7142 128.006C58.425 128.918 58.1294 129.836 57.7395 130.723C57.356 131.61 56.8906 132.471 56.2744 133.232C55.6644 133.993 54.8595 134.634 53.9226 134.986L53.91 134.64C55.3312 135.049 56.9472 134.741 58.1231 133.848L58.2803 133.729L58.3935 133.892C59.0789 134.861 60.4686 135.25 61.5753 134.842C61.8583 134.747 62.091 134.584 62.3551 134.395C62.6129 134.213 62.9273 134.012 63.2983 133.968C63.663 133.924 64.0026 133.993 64.3107 134.056L65.2414 134.232C67.7189 134.666 70.2845 134.861 72.7684 134.728C73.0639 134.691 73.3217 134.609 73.5418 134.433C73.7682 134.263 74.0134 133.999 74.3719 133.861C75.0824 133.597 75.7741 133.804 76.3778 133.898C77.6166 134.125 78.8742 134.257 80.1319 134.282C82.6472 134.351 85.175 134.018 87.5897 133.314L87.5394 133.785C84.8417 132.37 82.578 130.239 80.811 127.786C79.044 125.328 77.7423 122.555 76.8746 119.668C75.9942 116.782 75.5163 113.789 75.2271 110.802C74.9441 107.809 74.8372 104.815 74.7554 101.822C74.68 98.8291 74.68 95.8233 74.8686 92.8301C75.0699 89.8369 75.4723 86.8437 76.164 83.9134C76.4973 82.4483 76.9563 81.0083 77.4342 79.5934C77.6669 78.9143 77.8241 78.166 77.4154 77.6441C77.2267 77.3863 76.9375 77.2039 76.6545 77.2291C76.3715 77.2479 76.1011 77.4869 75.8244 77.7321C73.6047 79.6878 71.8817 82.2093 70.8756 85.0013L70.8127 85.1774L70.6555 85.0705C69.8695 84.536 69.2847 83.7625 68.8571 82.945C68.4232 82.1213 68.1214 81.2472 67.8321 80.3795L66.1154 75.1602L66.1972 75.2168C64.7949 75.286 63.3926 75.4621 62.0155 75.7388C61.6697 75.8079 61.3238 75.8834 60.9843 75.9714C60.8145 76.0154 60.651 76.0657 60.4875 76.1349C60.3366 76.2041 60.1731 76.2921 60.1102 76.4367C60.0536 76.5814 60.1228 76.7574 60.1919 76.9084C60.2674 77.0656 60.3554 77.2165 60.4372 77.3737C60.6258 77.6755 60.7767 77.9962 60.8774 78.3421ZM60.8208 78.3547C60.7139 78.0214 60.5629 77.7007 60.3932 77.3926C60.3114 77.2354 60.2171 77.0844 60.1416 76.9272C60.0725 76.77 59.9781 76.5814 60.0536 76.3864C60.1353 76.1978 60.3114 76.1035 60.4686 76.028C60.6321 75.9525 60.8019 75.9022 60.9717 75.8519C61.3112 75.7576 61.6571 75.6822 62.0029 75.6067C63.3864 75.3111 64.7886 75.1162 66.1972 75.0282L66.2601 75.0219L66.2789 75.0785L68.0585 80.2788C68.354 81.1403 68.6685 82.0018 69.096 82.7941C69.5236 83.5864 70.0896 84.3096 70.8316 84.8001L70.6115 84.8755C71.5988 82.027 73.3217 79.4299 75.5666 77.4051C75.837 77.1662 76.1451 76.8392 76.6293 76.7889C77.1072 76.7512 77.5223 77.0278 77.7738 77.3611C78.0442 77.6944 78.1448 78.1534 78.1196 78.5559C78.1071 78.9646 77.9939 79.3482 77.8807 79.7129C77.4216 81.134 76.9878 82.5489 76.6733 84.0078C76.0194 86.9066 75.6672 89.8747 75.5037 92.8427C75.3151 95.817 75.3151 98.7976 75.3906 101.785C75.5603 107.739 75.7741 113.764 77.4594 119.473C78.2957 122.316 79.5596 125.032 81.27 127.44C82.9804 129.843 85.175 131.924 87.7846 133.314L88.3443 133.609L87.7343 133.785C85.263 134.49 82.6849 134.817 80.1193 134.741C78.8365 134.71 77.56 134.565 76.2961 134.332C75.6735 134.219 75.051 134.062 74.5416 134.263C74.2964 134.351 74.0952 134.565 73.8122 134.779C73.5292 134.999 73.1582 135.118 72.825 135.156C70.2279 135.288 67.6938 135.081 65.1659 134.628L64.2227 134.446C63.9146 134.383 63.619 134.326 63.3486 134.357C62.8141 134.408 62.3802 134.98 61.7074 135.206C60.4183 135.665 58.8777 135.232 58.0728 134.106L58.3495 134.15C57.0667 135.118 55.3437 135.439 53.8031 134.993L53.2749 134.842L53.7905 134.647C54.652 134.326 55.4066 133.735 55.9914 133.012C56.5825 132.289 57.0353 131.452 57.4188 130.585C57.8024 129.717 58.098 128.811 58.3935 127.906C58.7016 127 58.9594 126.082 59.2298 125.164C60.2485 121.486 61.0157 117.731 61.5313 113.946C62.0658 110.16 62.3802 106.343 62.5877 102.527C62.6884 100.615 62.7575 98.7033 62.8015 96.7917C62.8393 95.8359 62.833 94.8801 62.8078 93.9243C62.7827 92.9622 62.9399 91.9938 63.2606 91.0883L63.2857 91.1449C63.0216 90.9751 62.9399 90.6795 62.8707 90.4217C62.8078 90.1513 62.7764 89.8809 62.7575 89.6043C62.7198 89.0572 62.7324 88.5101 62.7072 87.9693C62.6129 86.8878 62.4746 85.8062 62.2985 84.7309C61.9589 82.5678 61.4559 80.4423 60.8208 78.3547Z" fill="#00254D"/>
<path d="M99.3101 77.5183C99.1969 77.5372 99.0774 77.5623 98.9643 77.5812C98.2222 77.663 97.5431 77.99 96.8137 78.1283C95.6064 78.3924 95.0467 78.7382 93.8079 78.8326C93.1917 78.8766 92.5503 79.4614 91.2926 78.8326C90.9342 78.6313 90.6638 78.2037 90.2488 78.1409C88.1485 76.9461 86.4318 75.1225 85.3691 72.8336C85.4194 72.6575 85.5138 72.5192 85.671 72.4249C86.2558 72.3997 86.6708 72.7833 87.1361 73.0411C90.5192 75.9588 97.0023 76.0406 100.096 73.802C104.775 70.4064 107.007 65.86 107.013 59.9679C107.013 59.3077 106.479 57.8991 106.416 57.2388C106.391 56.7987 106.215 56.3711 106.321 55.9246C107.233 54.6167 107.843 55.6794 108.378 56.2642C110 58.0312 110.145 58.0437 111.629 56.0126C112.704 54.5475 113.389 52.9 113.892 51.1707C114.056 50.6991 114.15 50.2086 114.276 49.7244C114.44 49.2528 114.471 48.7309 114.779 48.3096C116.596 48.712 116.439 46.9262 117.181 46.1339C117.37 45.7691 117.565 45.4107 117.986 45.2598C118.382 45.3038 118.772 45.134 119.168 45.2472C119.665 45.5428 119.885 46.0018 119.961 46.5552C119.973 48.6932 119.03 50.6048 118.521 52.617C118.565 53.2018 118.301 53.6546 117.911 54.0507C117.313 54.2268 117.282 54.887 116.886 55.2392C116.596 55.9812 115.773 56.3774 115.609 57.1948C115.075 57.7167 114.546 58.245 114.012 58.7669C113.779 58.836 113.553 58.9429 113.327 59.0373C112.585 59.3391 111.786 59.534 111.245 60.1943C111.126 60.3075 110.987 60.3892 110.836 60.4458C110.453 60.5716 110.076 60.4395 109.705 60.4395C109.453 61.3262 109.893 62.1185 110.019 62.9485C109.912 64.1056 110.239 65.2815 109.83 66.4133C110.17 68.6519 108.642 70.1045 107.598 71.7646C106.818 72.4249 106.07 73.1103 105.479 73.9466L105.485 73.9341C104.913 74.1667 104.353 74.4182 104.02 74.9779L103.901 75.0408H103.762C103.184 75.3552 102.611 75.6759 102.008 75.9274C101.184 76.6065 100.033 76.7009 99.3101 77.5183Z" fill="#CACFE5"/>
<path d="M54.8841 133.043C55.0539 134.093 55.8777 133.748 56.4562 133.703C57.7767 133.597 59.0155 133.112 60.2857 132.748C60.9963 132.54 61.6691 131.566 62.6627 132.88C63.1909 133.584 64.6938 132.603 65.5112 131.911C66.2218 131.308 66.662 131.125 67.165 132.05C67.3034 132.301 67.5486 132.534 67.8001 132.685C68.5987 133.175 69.4099 134.219 70.3343 133.603C71.0071 133.156 70.1268 132.213 70.045 131.471C69.957 130.654 69.5231 129.88 69.8501 128.906C71.441 130.673 73.0697 132.326 75.7673 132.245C75.5849 130.868 74.2204 130.182 74.3713 128.679C75.4655 129.635 76.3332 130.679 77.5343 131.283C77.9619 131.503 78.3958 131.76 78.8548 131.848C79.3579 131.949 80.0307 132.169 80.3703 131.666C80.6973 131.176 80.0936 130.773 79.8295 130.446C78.0059 128.176 76.4464 125.793 75.8931 122.869C76.4276 122.353 77.0438 122.215 77.7355 122.485C78.182 122.875 78.182 123.454 78.358 123.957C78.0751 124.762 78.5907 125.258 79.056 125.768C79.6974 126.692 79.9804 127.837 80.8608 128.604C81.2506 129.666 81.936 130.478 82.9296 131.018C83.7722 131.811 84.8601 132.245 85.7593 132.949L85.6838 132.899C85.7404 133.301 86.6019 133.112 86.3252 133.685C86.0925 134.163 85.5455 134.056 85.099 134.081C83.8917 134.112 82.7472 133.848 82.0115 133.389C82.0115 133.389 82.4139 133.509 82.3888 133.924C82.3636 134.295 81.9612 134.257 81.6719 134.257C80.9551 134.251 80.2382 134.301 79.5214 134.219C78.9177 134.012 78.2952 134.106 77.6789 134.081C76.0503 133.678 74.3336 134.219 72.7238 133.609C72.7175 133.609 72.5729 133.496 72.6421 133.628C73.5664 135.426 71.6422 134.42 71.3152 134.974C70.1771 134.986 69.0389 134.98 67.9007 134.98C66.4356 135.03 65.0962 133.961 63.5807 134.49C63.3795 135.049 62.9331 134.842 62.5495 134.81C61.4176 134.71 60.0782 135.823 59.1979 134.238C58.94 134.389 58.6822 134.54 58.4747 134.76C58.242 134.754 58.0157 134.747 57.783 134.741C56.9027 134.483 56.0097 134.678 55.1168 134.64C54.6829 134.622 54.0667 134.848 53.834 134.326C53.5951 133.779 54.3811 133.628 54.5006 133.169C54.6263 133.15 54.7521 133.1 54.8841 133.043Z" fill="#CACFE5"/>
<path d="M74.528 119.36C73.8112 117.492 73.6665 115.493 73.5031 113.556C72.8428 105.658 72.7673 97.7663 74.0627 89.8872C74.528 87.0575 74.7859 84.1964 75.5342 81.417C75.7794 80.5115 75.509 79.8889 74.6161 79.5682C74.3268 79.5557 74.1507 79.3922 74.0376 79.1407C73.9872 78.5118 74.113 77.9585 74.6915 77.5937C76.7981 77.1536 77.3829 77.7195 76.9364 79.6437C76.8358 80.0776 76.4208 80.48 76.6975 80.9831C76.6912 81.1026 76.6849 81.2158 76.6786 81.3352C75.8108 82.8884 75.9743 84.7057 75.421 86.3407C75.4776 86.9695 75.2889 87.6109 75.553 88.2271C75.6348 88.8685 75.6033 89.4911 75.3078 90.0821C75.2575 90.0507 75.1694 90.0067 75.1757 89.9815C75.2135 89.8306 75.138 89.774 75.1254 89.8495C74.9305 90.9814 75.226 92.1384 74.9305 93.2766C74.8739 99.0114 74.8299 104.734 74.9556 110.456C75.1757 111.33 74.9619 112.248 75.2323 113.116C75.2826 113.638 75.1506 114.204 75.5593 114.656C75.5782 114.895 75.597 115.128 75.6159 115.367C75.4272 116.637 76.0372 117.813 76.0246 119.058C75.5907 119.498 75.1317 119.775 74.528 119.36Z" fill="#CACFE5"/>
<path d="M75.1574 119.989C75.6164 119.876 76.0754 119.756 76.5345 119.643C76.981 119.259 76.1635 120.964 77.0061 119.932C77.44 120.737 77.6161 121.611 77.723 122.51C77.1507 122.85 76.5282 122.944 75.8805 122.894C75.1637 122.039 75.1259 121.02 75.1574 119.989Z" fill="#CACFE5"/>
<path d="M91.2983 18.4154C89.896 14.5733 87.1984 11.2531 83.8279 8.95159C80.2625 6.52434 76.1752 5.73832 71.918 6.02129C69.0758 6.20993 66.2586 6.68784 63.5044 7.42356C62.492 7.69395 64.1332 10.3161 65.0073 10.0835C67.7615 9.34775 70.5724 8.86356 73.4209 8.6812C75.9676 8.51142 78.4892 8.64976 80.9102 9.51753C84.8152 10.9261 88.0033 13.8941 89.4307 17.8117C89.6445 18.3902 90.2419 19.2706 90.8959 19.4089C91.575 19.5535 91.4492 18.8367 91.2983 18.4154Z" fill="#CACFE5"/>
<path d="M28.5934 36.0161C25.6442 36.953 22.9277 38.959 21.4059 41.6818C19.8716 44.4297 19.7081 47.7939 20.9029 50.6928C21.2299 51.4851 24.091 50.196 23.7389 49.3282C21.9216 44.9202 23.6445 38.9841 28.3733 37.4749C28.8323 37.3303 29.9139 36.8335 29.9265 36.2362C29.9327 35.6199 28.8889 35.9217 28.5934 36.0161Z" fill="#CACFE5"/>
<path d="M33.0202 33.7775C32.3096 31.4131 33.083 28.6589 33.8313 26.3951C34.5671 24.1628 35.8121 22.2323 37.7112 20.8175C41.5281 17.9689 46.8668 17.4721 51.4258 18.2896C52.0672 18.4028 52.4256 18.0003 52.2244 17.3778C52.0106 16.7238 51.2371 16.0384 50.5517 15.9127C45.4205 14.9883 39.6291 15.5291 35.3468 18.7424C33.2528 20.3144 31.9449 22.5342 31.1651 25.0054C30.3351 27.6402 29.7314 30.5139 30.5489 33.2241C30.7501 33.897 31.5362 34.5572 32.2216 34.6893C32.8944 34.815 33.2088 34.4063 33.0202 33.7775Z" fill="#CACFE5"/>
<path d="M51.1179 81.8509C54.0608 83.0016 56.4503 80.8133 57.6262 78.2729C58.953 75.418 59.3051 72.1608 58.6952 69.0795C58.6071 68.6394 58.0286 68.2495 57.6891 68.0168C57.6073 67.9602 56.7584 67.4572 56.8213 67.7842C57.3935 70.6767 57.1231 73.6888 55.9598 76.4053C55.463 77.5749 54.8091 78.7194 53.8344 79.5557C52.8534 80.4046 51.3442 80.9894 50.0677 80.4863C49.6842 80.3354 49.5647 80.4675 49.8099 80.8133C50.0992 81.2158 50.6463 81.6622 51.1179 81.8509Z" fill="#CACFE5"/>
<path d="M60.2167 76.5625C61.9711 80.9957 63.1093 85.6867 63.5935 90.4469C63.845 92.8238 63.9708 95.2259 63.8261 97.6217C63.6689 100.011 63.3608 102.394 62.7571 104.709L62.6942 104.696C62.9395 102.325 63.1533 99.9609 63.1973 97.5903C63.2602 95.2259 63.2728 92.8553 63.0904 90.4846C62.7194 85.7559 61.7384 81.0712 60.1538 76.5751L60.2167 76.5625Z" fill="#00254D"/>
</g>
</svg>
