<svg width="173" height="172" viewBox="0 0 173 172" fill="none" xmlns="http://www.w3.org/2000/svg">
<mask id="mask0" mask-type="alpha" maskUnits="userSpaceOnUse" x="0" y="0" width="173" height="172">
<rect x="0.18457" width="172" height="172" fill="#C4C4C4"/>
</mask>
<g mask="url(#mask0)">
<path d="M30.8435 46.5599C27.5841 48.9447 24.6382 51.709 22.0142 54.7539C19.3489 57.7493 16.9971 61.017 14.8104 64.3754C12.632 67.7339 10.7423 71.3234 8.65461 74.7148C6.64119 78.1476 4.85881 81.7536 2.82063 85.2936L2.63086 85.2193C3.61282 81.2585 5.00734 77.4132 6.83922 73.7329C8.72062 70.0774 11.0724 66.7767 13.4406 63.443C15.8336 60.1505 18.3917 56.9489 21.255 54.0443C24.1184 51.1397 27.2953 48.5486 30.7197 46.3867L30.8435 46.5599Z" fill="#AA6C00" fill-opacity="0.7"/>
<path d="M2.82845 87.7031C4.23949 91.4082 5.85683 95.0306 7.72997 98.5129C9.59487 102.003 11.7568 105.321 14.3148 108.332C16.8481 111.369 19.563 114.249 22.4016 117.005C25.2484 119.753 28.186 122.393 31.3712 124.72C37.7333 129.374 44.5575 133.484 51.7365 136.669C53.5436 137.453 55.3425 138.138 57.2486 138.691C59.13 139.285 61.0279 139.796 62.9423 140.267C66.7628 141.207 70.6494 141.9 74.5525 142.363C78.4638 142.8 82.3834 143.031 86.3112 142.891L89.2488 142.775L90.7176 142.709L92.1782 142.561C94.1339 142.363 96.0812 142.198 98.0121 141.843C105.76 140.654 113.352 138.484 120.589 135.431C124.211 133.921 127.743 132.196 131.151 130.241C134.559 128.302 137.794 126.049 140.905 123.656C144.007 121.238 146.928 118.581 149.734 115.8C152.573 113.044 155.271 110.14 158.019 107.268L158.176 107.408C155.667 110.486 153.092 113.515 150.411 116.452C147.704 119.373 144.865 122.179 141.812 124.77C135.698 129.944 128.717 134.078 121.398 137.329C106.718 143.823 90.206 146.043 74.3379 143.996C70.3688 143.477 66.4328 142.717 62.571 141.711C60.6401 141.207 58.7174 140.663 56.8195 140.036C54.9134 139.458 53.0154 138.707 51.1918 137.89C47.5363 136.248 44.0458 134.309 40.6296 132.254C37.2299 130.175 33.9127 127.955 30.7441 125.537C27.5589 123.128 24.6213 120.396 21.8157 117.591C19.0101 114.769 16.3283 111.823 13.8363 108.72C11.303 105.642 9.16577 102.234 7.3669 98.7027C5.55152 95.1627 3.9837 91.5072 2.63867 87.7691L2.82845 87.7031Z" fill="#AA6C00" fill-opacity="0.7"/>
<path d="M169.539 86.4571C165.075 76.5467 159.34 67.1975 152.153 59.0943C145.015 50.9664 136.4 44.1422 126.779 39.2984C117.116 34.4877 106.735 31.1787 96.0907 29.7677C90.7683 29.0085 85.3717 28.86 79.975 29.0828L75.9317 29.3386L71.8884 29.7512L67.8533 30.2628C66.5165 30.4856 65.1714 30.6919 63.8264 30.8899L63.7852 30.6919C65.1054 30.3453 66.4257 30.007 67.746 29.6769L71.7481 28.8187L75.7997 28.1503L79.876 27.647C85.3304 27.1106 90.8591 27.1519 96.3382 27.713C97.708 27.8863 99.0778 28.0348 100.431 28.2906L102.469 28.6372C103.146 28.761 103.814 28.926 104.491 29.0663L106.504 29.5284L108.493 30.0812C109.822 30.4278 111.134 30.8569 112.437 31.2942C117.652 33.0601 122.686 35.2468 127.546 37.8131C137.275 42.9457 145.882 50.0504 152.945 58.4012C160 66.7767 165.529 76.3239 169.737 86.358L169.539 86.4571Z" fill="#AA6C00" fill-opacity="0.7"/>
<path d="M70.9549 58.4672C66.5567 58.5167 62.1586 58.1784 57.8264 57.4522C57.9337 62.3042 57.7521 67.1562 57.29 71.9918" stroke="#AA6C00" stroke-opacity="0.7" stroke-miterlimit="10"/>
<path d="M98.0703 58.3187C102.634 58.5002 107.197 58.6735 111.76 58.855C112.032 58.8633 112.329 58.888 112.527 59.0778C112.717 59.2676 112.75 59.5647 112.775 59.8287C113.039 63.3852 113.295 66.9417 113.559 70.4982" stroke="#AA6C00" stroke-opacity="0.7" stroke-miterlimit="10"/>
<path d="M98.292 114.199C103.788 114.199 109.283 114.191 114.771 114.191C114.259 109.471 114.251 104.702 114.738 99.9817" stroke="#AA6C00" stroke-opacity="0.7" stroke-miterlimit="10"/>
<path d="M56.9687 99.9899C56.8779 104.388 56.779 108.794 56.6882 113.193C56.6799 113.432 56.6964 113.704 56.878 113.861C57.0182 113.977 57.2163 113.977 57.4061 113.977C61.928 113.919 66.45 114.109 70.9471 114.538" stroke="#AA6C00" stroke-opacity="0.7" stroke-miterlimit="10"/>
<path d="M63.4292 85.9042C58.7009 85.6071 53.9562 85.4916 49.2197 85.5659" stroke="#AA6C00" stroke-opacity="0.7" stroke-miterlimit="10"/>
<path d="M106.256 85.9124C111.355 86.0444 116.447 86.3085 121.53 86.7046" stroke="#AA6C00" stroke-opacity="0.7" stroke-miterlimit="10"/>
<path d="M84.9014 107.309C85.1324 112.12 85.3552 116.922 85.5862 121.733" stroke="#AA6C00" stroke-opacity="0.7" stroke-miterlimit="10"/>
<path d="M85.4707 65.1181C85.6192 60.0928 85.7595 55.0675 85.908 50.0422" stroke="#AA6C00" stroke-opacity="0.7" stroke-miterlimit="10"/>
<path d="M81.9558 75.3585C79.0347 76.1011 73.7041 78.6592 73.7041 86.0857C73.7041 89.1554 74.2982 92.7284 76.1796 95.1626C78.5974 98.29 82.649 99.4453 86.585 99.0245C91.8579 98.4633 94.0941 94.8161 95.1586 92.6871C95.9838 91.0368 96.8089 87.7361 95.9838 83.6102C94.5397 76.4147 88.615 73.6504 81.9558 75.3585Z" stroke="#AA6C00" stroke-opacity="0.7" stroke-miterlimit="10"/>
<path d="M110.035 33.1922C112.23 33.8606 114.335 34.8508 116.282 36.0721C118.238 37.2851 120.061 38.6961 121.852 40.1072C125.549 42.8302 128.783 46.1887 131.622 49.8112C134.37 53.4997 136.928 57.3533 138.859 61.5699C140.79 65.7783 142.151 70.2342 142.993 74.7727C143.207 75.9114 143.405 77.0502 143.554 78.1889C143.735 79.3194 143.851 80.5159 143.892 81.6711C143.967 83.9981 143.909 86.3003 143.777 88.6026C143.628 90.9048 143.422 93.1988 143.108 95.4928C142.935 96.6398 142.754 97.7785 142.506 98.9255C142.267 100.089 141.92 101.195 141.607 102.3C140.228 106.699 138.537 111.064 136.094 115.016C134.881 116.989 133.512 118.862 132.051 120.636C130.566 122.393 129.023 124.093 127.405 125.719L127.282 125.612C130.145 122.039 132.95 118.424 135.096 114.439C137.266 110.47 138.826 106.203 140.022 101.838C140.319 100.741 140.641 99.6599 140.856 98.5789C141.087 97.4897 141.252 96.3674 141.408 95.2535C141.722 93.0172 141.978 90.7563 142.143 88.487C142.324 86.2261 142.44 83.9568 142.415 81.7041C142.399 80.5736 142.316 79.4927 142.168 78.3539C142.052 77.2234 141.879 76.1095 141.697 74.9872C140.955 70.523 139.692 66.1414 137.885 61.9907C136.078 57.8401 133.611 53.9783 130.97 50.2898C128.247 46.6425 125.169 43.2758 121.547 40.4702C119.789 39.0097 118.015 37.5739 116.109 36.3279C114.211 35.0736 112.156 34.0421 109.994 33.3242L110.035 33.1922Z" fill="#AA6C00" fill-opacity="0.7"/>
<path d="M45.9362 130.62C40.7046 125.678 36.2404 119.901 32.7747 113.564C29.3337 107.21 26.8912 100.279 25.7277 93.108C24.5477 85.9455 24.5725 78.5272 26.1651 71.406C27.7824 64.3177 30.6788 57.4688 35.0357 51.7008L35.1759 51.7916C31.6359 58.0382 29.0779 64.7633 27.7824 71.736C26.4538 78.684 26.0578 85.8547 27.0315 92.9017C28.0134 99.9404 30.2496 106.814 33.5091 113.168C36.7437 119.538 40.9934 125.405 46.0517 130.497L45.9362 130.62Z" fill="#AA6C00" fill-opacity="0.7"/>
<path d="M85.6171 76.6788C87.3005 77.3472 89.0663 78.0486 90.4691 79.2369C92.1195 80.6314 92.6641 82.4551 92.9694 84.5345C93.6048 88.8007 93.1262 93.6362 89.5697 96.549C89.2726 96.7966 89.4542 97.0194 89.7265 97.1349C90.0648 97.2834 90.5929 97.0441 90.8569 96.8296C94.529 93.826 95.2139 88.9327 94.6197 84.4767C94.3309 82.323 93.8276 80.2931 92.1607 78.7913C90.6589 77.4298 88.7445 76.6294 86.8796 75.8949C86.533 75.7547 86.0544 75.8207 85.7491 76.0352C85.5593 76.1672 85.2375 76.5303 85.6171 76.6788Z" fill="#F4D6A0"/>
<path d="M111.414 37.7966C120.664 42.987 128.024 51.4367 131.993 61.2563C134.279 66.917 135.327 72.9655 135.616 79.047C135.921 85.5659 135.608 92.2663 134.609 98.7191C134.056 102.292 133.116 105.758 131.688 109.083C130.302 112.318 128.569 115.396 126.844 118.457C126.506 119.06 127.958 119.018 128.181 118.985C128.858 118.895 129.666 118.614 130.013 117.995C133.206 112.318 136.202 106.641 137.439 100.188C138.677 93.7846 138.999 87.0429 138.875 80.5241C138.76 74.195 137.918 67.8412 135.748 61.8752C133.899 56.8169 131.168 52.0886 127.768 47.9215C123.94 43.2345 119.261 39.3397 113.988 36.3773C113.204 35.94 110.25 37.1365 111.414 37.7966Z" fill="#F4D6A0"/>
<path d="M27.6261 91.6144C30.374 104.091 35.8861 115.908 43.6592 126.057C45.8707 128.945 48.2555 131.685 50.8135 134.268C51.3499 134.804 53.6026 133.938 53.0414 133.368C44.0966 124.291 37.2147 113.292 32.965 101.277C31.7685 97.9022 30.7948 94.4613 30.0274 90.9708C29.8541 90.2447 27.4528 90.8388 27.6261 91.6144Z" fill="#F4D6A0"/>
<path d="M16.6673 65.1923C15.0747 65.9349 14.0102 67.2387 13.1438 68.7323C12.0463 70.6137 11.1304 72.6188 10.1401 74.558C9.10868 76.5879 8.07722 78.6096 7.04575 80.6395C6.12981 82.4467 5.23036 84.295 5.18085 86.358C5.1561 87.637 7.58211 87.3152 7.60686 86.1929C7.64812 84.3445 8.43208 82.7437 9.249 81.1264C10.1814 79.278 11.1304 77.4296 12.0711 75.5812C12.9705 73.8071 13.8699 72.033 14.7776 70.2588C15.4873 68.8726 16.263 67.3625 17.74 66.6694C19.2171 65.9762 17.9051 64.6064 16.6673 65.1923Z" fill="#F4D6A0"/>
<path d="M154.991 98.4386C153.481 103.208 151.847 107.829 148.514 111.658C145.048 115.643 141.104 119.266 137.382 123.021C136.417 123.994 138.76 123.895 139.288 123.359C143.109 119.497 147.16 115.767 150.733 111.674C154.141 107.755 155.833 102.994 157.376 98.1168C157.624 97.3411 155.239 97.6629 154.991 98.4386Z" fill="#F4D6A0"/>
<path d="M76.1451 81.2832C73.4303 85.0543 73.4386 90.3519 76.1782 94.1064C76.4505 94.4777 77.9853 93.9579 77.6717 93.5205C75.0807 89.9723 75.0477 84.8149 77.614 81.2419C77.9853 80.7303 76.4174 80.9119 76.1451 81.2832Z" fill="#F4D6A0"/>
<path d="M42.0669 57.3944C46.6383 47.187 55.8638 39.1416 66.7808 36.468C66.9954 36.4185 67.9773 36.138 67.8783 35.7831C67.7793 35.4283 66.7561 35.6924 66.5828 35.7419C54.8653 38.6052 44.6579 46.7662 39.7069 57.8153C39.5419 58.1783 41.7863 58.0051 42.0669 57.3944Z" fill="#F4D6A0"/>
<path d="M112.379 67.1315C112.263 65.4812 112.148 63.8226 112.024 62.1722C111.974 61.4791 111.958 60.8024 111.405 60.3073C110.918 59.8782 110.308 59.6719 109.697 59.4822C109.301 59.3584 108.723 59.5399 108.426 59.8205C108.137 60.101 108.245 60.3816 108.608 60.4971C109.078 60.6374 109.59 60.8107 109.912 61.1985C110.308 61.6689 110.217 62.5023 110.258 63.0882C110.365 64.5982 110.473 66.1083 110.58 67.6184C110.605 68.0062 111.38 67.9154 111.603 67.8577C111.95 67.7586 112.412 67.5358 112.379 67.1315Z" fill="#F4D6A0"/>
<path d="M58.3302 97.2504C58.5943 98.8677 57.8846 100.419 57.7361 102.02C57.5875 103.588 57.7608 105.164 57.8351 106.732C57.8763 107.598 57.8681 108.464 57.7856 109.331C57.7195 109.975 57.6123 110.684 57.8764 111.303C58.3137 112.318 59.3286 112.45 60.2693 112.145C60.4096 112.103 60.7397 111.955 60.616 111.773C60.5004 111.6 59.9723 111.782 59.8403 111.823C59.8238 111.831 59.3616 111.435 59.2874 111.353C59.1141 111.146 59.0234 110.907 58.9656 110.651C58.8253 110.049 58.9491 109.422 58.9986 108.819C59.1224 107.458 59.0068 106.088 58.9326 104.726C58.85 103.34 58.8253 101.962 59.1059 100.601C59.3617 99.3793 59.733 98.1993 59.5267 96.945C59.4772 96.648 58.2724 96.912 58.3302 97.2504Z" fill="#F4D6A0"/>
<path d="M99.4153 113.209C101.049 113.16 102.683 113.424 104.317 113.49C105.893 113.547 107.469 113.539 109.037 113.44C110.2 113.374 111.694 113.424 112.445 112.367C113.262 111.212 112.61 109.776 112.849 108.506C112.965 107.92 111.743 108.068 111.636 108.596C111.43 109.669 112.049 111.113 111.397 112.062C111.059 112.549 110.283 112.483 109.755 112.524C109.053 112.574 108.36 112.615 107.659 112.632C106.314 112.673 104.961 112.648 103.615 112.566C102.246 112.483 100.884 112.301 99.5143 112.334C98.846 112.359 98.5984 113.234 99.4153 113.209Z" fill="#F4D6A0"/>
<path d="M105.852 87.9423C107.716 88.1239 109.59 88.2229 111.463 88.2477C112.379 88.2559 113.303 88.2559 114.219 88.2311C115.077 88.2064 115.976 88.1239 116.793 88.4622C117.066 88.5695 117.404 88.5199 117.643 88.3632C117.792 88.2641 118.015 87.9753 117.742 87.8598C116.942 87.538 116.125 87.4802 115.275 87.4967C114.301 87.5215 113.336 87.5462 112.362 87.538C110.341 87.5215 108.327 87.4142 106.314 87.2244C105.81 87.1667 105.043 87.8598 105.852 87.9423Z" fill="#F4D6A0"/>
<path d="M52.2571 84.8728C56.2674 84.7985 60.2612 85.0461 64.2303 85.6072C64.4944 85.6402 64.8822 85.5742 65.072 85.3844C65.2288 85.2276 65.237 85.0543 64.973 85.013C60.9214 84.4354 56.8285 84.1879 52.7356 84.2621C52.5046 84.2621 52.059 84.3447 51.9435 84.5757C51.828 84.7985 52.0425 84.8728 52.2571 84.8728Z" fill="#F4D6A0"/>
<path d="M84.8421 63.8225C84.9163 60.266 84.9988 56.7178 85.0731 53.1613C85.0731 53.0128 83.8849 53.1613 83.8766 53.4831C83.8024 57.0396 83.7198 60.5878 83.6456 64.1443C83.6373 64.2929 84.8338 64.1526 84.8421 63.8225Z" fill="#F4D6A0"/>
<path d="M85.7169 106.459C86.6823 110.725 86.7401 115.19 87.0371 119.538C87.0536 119.736 88.2584 119.538 88.2336 119.216C87.9283 114.868 87.8706 110.404 86.9134 106.137C86.8556 105.898 85.6591 106.187 85.7169 106.459Z" fill="#F4D6A0"/>
<path d="M59.9562 64.3095C59.8985 63.4183 59.8655 62.5271 59.8572 61.6442C59.8572 61.2233 59.8077 60.753 59.8738 60.3404C59.882 60.2909 59.981 60.0763 59.8985 60.1424C59.816 60.2084 59.9315 60.1589 59.9893 60.1589C60.1956 60.1671 60.4183 60.1424 60.6246 60.1341C62.4153 60.0516 64.2059 59.9691 65.9883 59.8866C66.2441 59.8783 66.6319 59.8123 66.7804 59.5565C66.9125 59.3254 66.6649 59.1934 66.4586 59.2017C65.3776 59.2512 64.3049 59.3007 63.2239 59.3502C62.176 59.3997 61.1032 59.3832 60.0553 59.4987C59.6344 59.5482 59.1311 59.6968 58.8588 60.0516C58.5782 60.4229 58.6607 60.9675 58.6607 61.4049C58.6607 62.4858 58.6938 63.5586 58.7598 64.6395C58.7845 65.0191 59.9893 64.7716 59.9562 64.3095Z" fill="#F4D6A0"/>
</g>
</svg>
