<svg width="173" height="172" viewBox="0 0 173 172" fill="none" xmlns="http://www.w3.org/2000/svg">
<mask id="mask0" mask-type="alpha" maskUnits="userSpaceOnUse" x="0" y="0" width="173" height="172">
<rect x="0.183594" width="172" height="172" fill="#C4C4C4"/>
</mask>
<g mask="url(#mask0)">
<path d="M119.871 21.3632L84.9702 21.7077C79.1522 21.7601 73.3342 21.8724 67.5237 21.805C61.7057 21.7152 55.8877 21.6478 50.0771 21.3632V21.2659C55.8951 20.9889 61.7131 20.914 67.5237 20.8316C73.3417 20.7642 79.1597 20.8765 84.9702 20.9289L119.871 21.2659V21.3632Z" fill="#AA6C00" fill-opacity="0.7"/>
<path d="M50.9013 23.3925C50.1376 36.9229 51.7699 50.5581 55.6261 63.5119C56.5995 66.7467 57.7451 69.9215 59.2053 72.954C60.6579 75.9791 62.455 78.8394 64.589 81.4152C66.738 83.976 69.2314 86.2448 72.0168 88.0569C74.7948 89.8689 77.8948 91.2017 81.1594 91.7184L81.6012 91.7858L81.6237 92.2201C81.8258 96.3683 81.5189 100.546 80.6203 104.59C79.7443 108.641 78.3365 112.564 76.4047 116.203L76.3074 116.151C77.9696 112.392 79.1752 108.461 79.894 104.44C80.5903 100.427 80.8599 96.3309 80.5454 92.28L81.0097 92.7816C77.5428 92.3174 74.2707 90.9097 71.3879 89.0228C68.4976 87.1209 65.9592 84.7398 63.7953 82.0666C59.4524 76.6979 56.7643 70.2509 54.9148 63.7291C51.1709 50.6479 49.8006 36.9229 50.789 23.3925H50.9013Z" fill="#AA6C00" fill-opacity="0.7"/>
<path d="M120.493 22.8009C121.931 29.4875 122.08 36.4137 121.429 43.2201C121.107 46.627 120.575 50.0115 119.924 53.3735C119.265 56.7205 118.606 60.075 117.76 63.3996C116.914 66.7167 115.881 70.0263 114.405 73.1562C113.657 74.7136 112.833 76.2486 111.852 77.6863C110.871 79.1015 109.838 80.4867 108.73 81.812C106.476 84.4178 103.938 86.8364 100.98 88.6559C99.5048 89.5619 97.9623 90.3556 96.345 90.9471C94.7276 91.5312 93.0653 91.9879 91.3731 92.2725L91.3506 92.1602C94.6452 91.2766 97.7901 89.9288 100.553 87.997C103.339 86.1026 105.75 83.7139 107.869 81.0932C109.988 78.465 111.949 75.702 113.402 72.677C114.9 69.6594 115.985 66.4397 116.891 63.175C117.782 59.9028 118.494 56.5633 119.213 53.2312C119.916 49.8992 120.5 46.5446 120.875 43.1677C121.669 36.4212 121.676 29.5324 120.388 22.8309L120.493 22.8009Z" fill="#AA6C00" fill-opacity="0.7"/>
<path d="M96.8317 115.185C95.0047 112.19 93.5446 108.955 92.4888 105.586C91.9497 103.908 91.4704 102.201 91.2159 100.449C90.9837 98.697 90.834 96.9299 90.9463 95.1627L91.0212 95.1552C91.3357 96.8924 91.5828 98.6146 91.9497 100.314C92.2941 102.014 92.6086 103.729 93.0579 105.413C93.9789 108.775 95.2593 112.04 96.8916 115.14L96.8317 115.185Z" fill="#AA6C00" fill-opacity="0.7"/>
<path d="M98.5309 115.058C99.6017 115.013 100.68 114.938 101.773 115.043C102.851 115.148 103.967 115.41 104.933 115.994C105.412 116.263 105.891 116.638 106.258 117.087C106.633 117.536 106.887 118.053 107.082 118.577C107.449 119.64 107.584 120.741 107.546 121.827L107.471 121.842C107.104 120.816 106.812 119.79 106.386 118.854C105.966 117.911 105.48 117.064 104.604 116.495C103.765 115.911 102.754 115.582 101.713 115.41C100.672 115.215 99.5942 115.185 98.5234 115.133V115.058H98.5309Z" fill="#AA6C00" fill-opacity="0.7"/>
<path d="M76.0679 115.133C74.7726 115.095 73.4772 115.065 72.1968 115.185C70.9388 115.305 69.6285 115.522 68.6326 116.218C67.6292 116.93 66.9329 117.993 66.3039 119.064C65.6899 120.157 65.2181 121.333 64.8737 122.59L64.7988 122.583C64.7389 121.265 65.0759 119.932 65.6375 118.719C66.2215 117.514 67.135 116.436 68.3031 115.717C69.5087 114.99 70.8789 114.863 72.1743 114.818C73.4846 114.803 74.78 114.93 76.0679 115.065V115.133Z" fill="#AA6C00" fill-opacity="0.7"/>
<path d="M123.196 30.9251L142.597 30.7229H142.844L142.852 30.9775C142.964 36.6608 143.054 42.3739 142.462 48.0646C142.17 50.91 141.721 53.7404 141.055 56.5258C140.883 57.2222 140.725 57.9185 140.523 58.6074C140.328 59.2963 140.149 59.9926 139.894 60.6815C139.392 62.0518 138.778 63.3472 138.12 64.6276C137.461 65.908 136.749 67.1585 135.948 68.364C135.551 68.963 135.102 69.577 134.623 70.1161C134.159 70.6702 133.679 71.2093 133.17 71.726C131.156 73.8076 128.827 75.5972 126.304 76.9899C125.046 77.7012 123.758 78.3302 122.448 78.9143C121.137 79.5058 119.789 80.0224 118.412 80.4268C115.649 81.2729 112.788 81.5949 109.951 81.7821L109.936 81.6698C112.743 81.2055 115.544 80.6964 118.187 79.7379C120.815 78.7645 123.369 77.514 125.787 76.0914C128.191 74.6537 130.415 72.939 132.339 70.9173C133.305 69.899 134.256 68.8806 135.012 67.735C135.791 66.5819 136.51 65.3689 137.176 64.1334C137.842 62.8979 138.464 61.625 138.966 60.3371C139.437 59.0567 139.812 57.664 140.171 56.3087C140.883 53.5756 141.362 50.7827 141.691 47.9748C142.365 42.3514 142.35 36.6608 142.343 30.9775L142.597 31.2321L123.196 31.0299V30.9251Z" fill="#AA6C00" fill-opacity="0.7"/>
<path d="M122.994 36.8255C127.322 36.6533 131.657 36.8705 135.978 37.0052L136.165 37.0127L136.18 37.1999C136.562 41.1984 136.487 45.2493 135.895 49.2328C135.296 53.2163 134.166 57.1324 132.518 60.8238L131.874 62.2016C131.635 62.6808 131.365 63.1151 131.073 63.5419C130.497 64.3955 129.86 65.1967 129.164 65.9455C127.786 67.458 126.221 68.7684 124.551 69.9215C122.874 71.0521 121.129 72.1079 119.235 72.8417C117.363 73.598 115.439 74.1746 113.514 74.7062L113.484 74.6163C115.349 73.8825 117.213 73.1562 119.003 72.3101C119.909 71.8908 120.755 71.4116 121.594 70.8799C122.44 70.3708 123.256 69.8092 124.05 69.2251C124.836 68.6261 125.607 68.0121 126.326 67.3457C127.06 66.6943 127.764 66.0054 128.415 65.2791C129.066 64.5528 129.688 63.789 130.25 62.9953C130.527 62.5984 130.789 62.1866 131.006 61.7748L131.665 60.4495C133.364 56.8778 134.57 53.059 135.221 49.1429C135.888 45.2268 136.015 41.2283 135.746 37.2523L135.948 37.447C131.627 37.1924 127.314 36.8705 122.986 36.9304L122.994 36.8255Z" fill="#AA6C00" fill-opacity="0.7"/>
<path d="M48.9696 31.2396L30.2202 31.4418L30.4748 31.2171C29.9057 36.5784 29.9506 42.007 30.6919 47.3383C31.4182 52.6696 32.8634 57.8961 34.8027 62.8979C35.8061 65.3464 37.1464 67.6751 38.8461 69.6893C40.5458 71.741 42.4852 73.553 44.7615 74.9158C47.0378 76.286 49.5162 77.3568 52.0546 78.2179C54.6079 79.064 57.2286 79.7304 59.8643 80.3669L59.8419 80.4792C57.1612 80.0749 54.4881 79.5956 51.8599 78.8543C50.5495 78.4799 49.2466 78.0606 47.9737 77.5515C46.7083 77.0273 45.4653 76.4583 44.2598 75.7694C43.0543 75.0955 41.9086 74.2943 40.8528 73.3958C39.8045 72.4823 38.8461 71.4789 37.9626 70.4306C37.064 69.3898 36.2628 68.2217 35.5814 67.0312C34.8926 65.8331 34.2861 64.5901 33.7919 63.2947C31.9199 58.1581 30.5721 52.8493 29.9132 47.4431C29.2543 42.037 29.2767 36.5484 29.9656 31.1572L29.9956 30.9251H30.2202L48.9696 31.1273V31.2396Z" fill="#AA6C00" fill-opacity="0.7"/>
<path d="M35.9859 37.4545C35.7987 41.3107 35.9336 45.1969 36.585 48.9857C37.2215 52.782 38.4195 56.4585 40.1192 59.8954C40.9728 61.6101 41.9462 63.2574 43.1143 64.7474C44.2824 66.2375 45.6302 67.5553 47.1502 68.701C47.914 69.2625 48.6777 69.8541 49.4789 70.3258C50.2876 70.805 51.1487 71.2169 52.0248 71.6137C53.7694 72.4074 55.5815 73.0963 57.3636 73.8526L57.3336 73.9424C55.4542 73.4707 53.5897 72.9316 51.7552 72.2726C50.8417 71.9357 49.9357 71.5388 49.0596 71.0821C48.1761 70.6029 47.3599 70.0637 46.5662 69.4797C44.9638 68.3266 43.5411 66.9039 42.3655 65.3165C41.1974 63.7216 40.2465 61.9919 39.4303 60.2173C37.783 56.6831 36.6599 52.8943 36.1133 49.0456C35.5741 45.1894 35.5816 41.2882 35.8961 37.432L35.9859 37.4545Z" fill="#AA6C00" fill-opacity="0.7"/>
<path d="M37.8799 37.1849C38.8159 37.125 39.7668 37.0576 40.7102 37.0426L43.5331 36.9977C44.4766 36.9752 45.4201 36.9228 46.356 36.9977C47.292 37.0726 48.2355 37.1774 49.1715 37.402V37.4769C48.228 37.6566 47.2845 37.7165 46.3411 37.7465C45.3976 37.7764 44.4616 37.6716 43.5182 37.6117L40.6953 37.432C39.7518 37.3496 38.8233 37.3047 37.8799 37.2673V37.1849Z" fill="#AA6C00" fill-opacity="0.7"/>
<path d="M64.0118 121.976C63.0908 121.887 62.1623 121.879 61.2339 121.902L58.4484 121.954L52.8775 122.044L53.0947 121.789C53.3717 123.759 53.2968 125.69 53.2818 127.637L53.1995 130.542C53.1845 131.501 53.2144 132.474 53.2219 133.44L53.3118 139.251C53.3417 141.183 53.3342 143.122 53.3118 145.054L53.3043 145.548L52.8326 145.503L47.973 145.024L48.3324 144.664C48.3774 146.791 48.4298 148.91 48.4148 151.044L48.3249 151.051C48.0554 148.94 47.8607 146.821 47.6585 144.709L47.6211 144.327L48.0179 144.35L52.8925 144.612L52.4132 145.054C52.3908 143.114 52.3908 141.175 52.4132 139.243L52.5031 133.433C52.5181 132.459 52.5106 131.501 52.548 130.52L52.6978 127.622C52.7652 125.698 52.87 123.744 52.6529 121.864L52.6229 121.602L52.87 121.61L58.4409 121.699L61.2264 121.737C62.1548 121.752 63.0908 121.782 64.0118 121.902V121.976Z" fill="#AA6C00" fill-opacity="0.7"/>
<path d="M49.3584 150.677L86.962 150.363C93.2292 150.318 99.4965 150.213 105.764 150.273C112.031 150.355 118.298 150.423 124.566 150.677V150.767C118.298 151.022 112.031 151.089 105.764 151.171C99.4965 151.231 93.2292 151.126 86.962 151.081L49.3584 150.767V150.677Z" fill="#AA6C00" fill-opacity="0.7"/>
<path d="M124.701 149.531C124.739 148.745 124.709 147.959 124.634 147.18C124.596 146.791 124.544 146.402 124.454 146.027C124.409 145.84 124.357 145.653 124.282 145.488C124.215 145.323 124.095 145.166 123.99 145.174L124.05 145.159C123.773 145.226 123.638 145.204 123.428 145.218L122.859 145.211C122.477 145.196 122.118 145.189 121.751 145.226C121.025 145.286 120.239 145.428 119.445 145.248L119.288 145.211V145.046C119.235 141.4 119.003 137.761 118.793 134.114C118.689 132.287 118.666 130.46 118.689 128.633C118.711 126.806 118.808 124.972 119.033 123.152H119.108L119.318 128.618C119.4 130.438 119.505 132.257 119.55 134.084C119.632 137.731 119.752 141.385 119.707 145.046L119.55 144.844C120.231 145.024 120.972 144.919 121.729 144.889C122.11 144.867 122.507 144.889 122.874 144.919L123.428 144.941C123.593 144.949 123.84 144.941 123.93 144.934L123.99 144.919C124.319 144.956 124.417 145.218 124.492 145.398C124.574 145.593 124.619 145.788 124.656 145.99C124.731 146.387 124.769 146.783 124.799 147.173C124.844 147.966 124.836 148.753 124.769 149.546L124.701 149.531Z" fill="#AA6C00" fill-opacity="0.7"/>
<path d="M119.497 122.583C116.502 122.583 112.594 122.403 109.321 122.403H107.749" stroke="#AA6C00" stroke-opacity="0.7" stroke-miterlimit="10"/>
<path d="M58.7711 125.915L58.8385 141.737L58.7337 141.632L113.072 141.819L112.765 142.119C112.825 138.105 112.653 134.092 112.406 130.086V130.071V130.056L112.473 126.102L112.833 126.477L99.9015 126.147L86.9701 125.87C82.6572 125.788 78.3442 125.728 74.0387 125.698L61.0999 125.608V125.533C65.4128 125.421 69.7258 125.301 74.0387 125.286C78.3517 125.249 82.6646 125.241 86.9776 125.256C91.2906 125.271 95.6035 125.294 99.9165 125.406L112.855 125.743L113.222 125.75L113.215 126.117L113.117 130.071V130.041C113.335 134.062 113.477 138.098 113.38 142.126L113.372 142.426H113.072L58.7337 141.842H58.6289V141.737L58.6963 125.915H58.7711Z" fill="#AA6C00" fill-opacity="0.7"/>
<path d="M55.0192 145.076L70.5938 144.687L86.1758 144.567C91.3723 144.53 96.5614 144.44 101.758 144.492C106.954 144.56 112.143 144.612 117.34 144.829V144.904C112.143 145.121 106.954 145.174 101.758 145.241C96.5689 145.293 91.3723 145.204 86.1758 145.166L70.5938 145.061L55.0117 145.151L55.0192 145.076Z" fill="#AA6C00" fill-opacity="0.7"/>
<path d="M79.8197 115.058C82.1634 115.282 84.507 115.432 86.8432 115.395C88.0113 115.372 89.1719 115.252 90.34 115.222C91.5081 115.2 92.6762 115.155 93.8742 115.215L93.8817 115.29C92.7361 115.642 91.568 115.844 90.3924 115.971C89.2093 116.099 88.0188 116.054 86.8357 115.994C84.4621 115.896 82.1184 115.567 79.8047 115.125L79.8197 115.058Z" fill="#AA6C00" fill-opacity="0.7"/>
<path d="M107.891 25.1221C108.123 28.1097 108.296 31.1048 108.371 34.0999C108.43 37.095 108.415 40.0976 108.296 43.1002C108.153 46.0953 107.921 49.0904 107.584 52.0781C107.232 55.0582 106.783 58.0308 106.236 60.9885C105.682 63.9387 105.016 66.8739 104.275 69.7866C103.87 71.2318 103.503 72.6844 103.024 74.1295C102.53 75.5672 101.946 76.9674 101.302 78.3377C98.6289 83.8038 94.5031 88.4836 89.5912 91.928L89.5312 91.8531C94.0838 87.9744 97.9774 83.3245 100.426 77.9258C101.047 76.5855 101.602 75.2153 102.073 73.8076C102.545 72.4073 102.942 70.9697 103.354 69.5321C104.155 66.6567 104.866 63.759 105.48 60.8313C106.072 57.9035 106.566 54.9608 106.97 51.9957C107.352 49.0305 107.629 46.0579 107.824 43.0703C108.011 40.0826 108.086 37.095 108.093 34.0999C108.086 31.1048 107.981 28.1172 107.809 25.1221H107.891Z" fill="#AA6C00" fill-opacity="0.7"/>
<path d="M64.2598 26.3127C64.5218 32.228 64.6566 38.1508 65.001 44.0512C65.3455 49.9516 65.9071 55.8444 67.0302 61.6325C68.1908 67.4055 70.0103 73.0439 72.6236 78.2853L73.6719 80.2171L74.196 81.1831L74.7651 82.1265C75.5364 83.377 76.36 84.59 77.2361 85.7581C79.0032 88.0943 81.1747 90.1085 83.5707 91.8382L83.5183 91.9205C82.2379 91.1717 81.0249 90.3032 79.8718 89.3597C78.7262 88.4013 77.6778 87.323 76.7044 86.1849C75.731 85.0467 74.8774 83.8187 74.0538 82.5758L73.4473 81.6398L72.8857 80.6739L71.755 78.7346C68.9621 73.4332 67.3222 67.6152 66.259 61.7822C65.2257 55.9268 64.7614 49.9965 64.5069 44.0811C64.2897 38.1583 64.2822 32.243 64.1475 26.3201L64.2598 26.3127Z" fill="#AA6C00" fill-opacity="0.7"/>
<path d="M87.3367 40.195C88.1079 41.73 88.7818 43.3174 89.3808 44.9348L90.2419 47.3683L90.6687 48.5888C90.7436 48.791 90.7885 49.0081 90.9158 49.1654C91.0356 49.3301 91.2079 49.4649 91.3801 49.5772C91.7245 49.8018 92.1663 49.8467 92.5856 49.9141C93.0124 49.9815 93.4317 50.0339 93.8585 50.0864L96.4193 50.3559C97.2729 50.4458 98.1265 50.5281 98.9876 50.6479C99.4144 50.7078 99.8413 50.7752 100.268 50.8576C100.695 50.9549 101.122 51.0223 101.541 51.2919C101.638 51.3293 101.773 51.509 101.758 51.6663C101.751 51.816 101.691 51.9358 101.631 52.0332C101.511 52.2354 101.361 52.4001 101.204 52.5648C100.897 52.8793 100.568 53.1638 100.238 53.4409C99.5717 53.995 98.8828 54.5116 98.2014 55.0358C97.52 55.5599 96.8386 56.0766 96.2171 56.6531C95.5957 57.2222 94.9892 57.8362 94.7421 58.6C94.6148 58.9968 94.51 59.4011 94.5699 59.768L94.7945 61.0335L95.2962 63.5644C95.4609 64.4105 95.6256 65.2566 95.7604 66.1102C95.8278 66.537 95.8802 66.9713 95.9252 67.4056C95.9326 67.6302 95.9551 67.8474 95.9401 68.0795C95.9401 68.1918 95.9326 68.3116 95.9027 68.4389C95.8952 68.5512 95.8203 68.7159 95.738 68.8507L95.6855 68.9406H95.5582C95.0191 68.9256 94.6373 68.7234 94.2404 68.5437C93.851 68.3565 93.4841 68.1469 93.1172 67.9297C92.3909 67.5104 91.6721 67.0611 90.9458 66.6942C89.4557 65.9529 87.8908 65.3015 86.4157 64.4554L86.6702 64.4704C84.3041 65.4588 82.0952 66.8515 79.8339 68.1544C79.2573 68.4763 78.7182 68.8133 78.0369 69.0753C77.9395 69.1053 77.8572 69.1427 77.67 69.1353C77.6101 69.1278 77.5726 69.1278 77.4902 69.0978C77.4004 69.0529 77.303 68.9705 77.2731 68.8956C77.2357 68.8357 77.2207 68.671 77.2207 68.686V68.6261L77.2132 68.1319C77.2132 67.8024 77.2207 67.4655 77.2432 67.136C77.3105 65.8107 77.5726 64.4928 77.8122 63.2349C77.8646 62.9204 77.917 62.6059 77.9395 62.3064C77.962 62.0219 77.9545 61.6774 77.9694 61.3405C77.9919 60.6741 78.0668 60.0076 78.1641 59.3637C78.239 58.7198 78.4187 58.0534 78.1716 57.6715C78.0518 57.4319 77.8571 57.2072 77.6475 56.9601C77.4453 56.728 77.2207 56.5034 76.9886 56.2937C76.5243 55.8669 76.0152 55.4626 75.5135 55.0508C75.2589 54.8411 75.0043 54.6314 74.7572 54.4068L74.3903 54.0624C74.2705 53.9426 74.1881 53.8752 74.0534 53.7703C73.5667 53.3959 73.0051 53.044 72.4734 52.6622C72.2039 52.4675 71.9343 52.2728 71.6722 52.0407C71.5375 51.9209 71.4102 51.8011 71.2829 51.6139C71.223 51.524 71.1481 51.4042 71.1406 51.202C71.1256 50.9924 71.2904 50.7827 71.4176 50.7153L71.5 50.6704L71.5599 50.6629C73.372 50.4757 75.1391 49.9366 77.041 49.7494C78.0144 49.7045 78.9054 49.7794 79.8264 49.7269C80.7175 49.6745 81.6834 49.5772 82.1926 48.8434C82.7467 48.1395 83.151 47.2934 83.5254 46.4623C83.8923 45.6162 84.2367 44.7551 84.5212 43.879C84.671 43.4372 84.7833 42.9954 84.963 42.5537L85.5621 41.3032C85.7642 40.8839 85.9664 40.4646 86.2509 40.0902C86.3932 39.918 86.5804 39.6933 86.8574 39.7308C87.1045 39.7532 87.2169 40.0003 87.3367 40.195ZM87.2693 40.2324C87.157 40.0453 87.0372 39.8206 86.8275 39.7757C86.6253 39.7458 86.4456 39.9404 86.3183 40.1126C86.0488 40.4795 85.8541 40.9064 85.6594 41.3182L85.0828 42.5761C84.9181 42.9954 84.8133 43.4522 84.671 43.894C84.394 44.785 84.072 45.6536 83.735 46.5147C83.3831 47.3758 83.0162 48.2369 82.4397 49.0081C82.1701 49.405 81.7133 49.727 81.2491 49.8617C80.7849 50.0115 80.3056 50.0714 79.8414 50.1088C78.9129 50.1912 77.9545 50.1538 77.0784 50.2286C75.2963 50.4757 73.5068 51.0598 71.6348 51.2919L71.7771 51.2395C71.7621 51.2619 71.822 51.202 71.8145 51.1496C71.8145 51.1122 71.8145 51.1496 71.8445 51.1871C71.9044 51.2694 72.0092 51.3743 72.1215 51.4716C72.3461 51.6663 72.6082 51.846 72.8778 52.0257C73.4094 52.3851 73.9635 52.7221 74.5176 53.1264C74.6449 53.2237 74.8096 53.366 74.9219 53.4783L75.2664 53.8003C75.4985 54.0099 75.7456 54.2196 76.0002 54.4218C76.5018 54.8336 77.0185 55.2379 77.5127 55.6947C77.7598 55.9193 77.9994 56.1664 78.2241 56.421C78.4412 56.6681 78.6733 56.9377 78.853 57.2821C78.9429 57.4468 79.0177 57.649 79.0402 57.8661C79.0701 58.0758 79.0552 58.2555 79.0402 58.4277C79.0102 58.7797 78.9578 59.0941 78.9129 59.4161C78.8231 60.0526 78.7482 60.689 78.7257 61.318C78.7107 61.6325 78.7182 61.947 78.6958 62.3064C78.6733 62.6509 78.6134 62.9803 78.561 63.3098C78.3214 64.6052 78.0593 65.8481 77.9769 67.1285C77.9545 67.443 77.947 67.765 77.9395 68.087L77.947 68.5662V68.6261C77.947 68.6785 77.9545 68.5587 77.9245 68.5362C77.9021 68.5063 77.8571 68.4314 77.7972 68.4164C77.7523 68.4015 77.7598 68.4014 77.7373 68.4014C77.7149 68.4014 77.7898 68.394 77.8497 68.3715C78.3888 68.1768 78.9728 67.8324 79.5344 67.5254C81.7957 66.26 84.0345 64.8822 86.483 63.8788L86.6178 63.8264L86.7376 63.9013C88.1678 64.7399 89.7103 65.3989 91.2228 66.1626C91.9866 66.5595 92.6979 67.0087 93.4167 67.4355C93.7761 67.6452 94.1356 67.8549 94.5025 68.0421C94.8619 68.2218 95.2587 68.394 95.5657 68.4014L95.386 68.4913C95.416 68.4164 95.4759 68.2218 95.4759 68.0196C95.4908 67.8249 95.4759 67.6152 95.4684 67.4056C95.4309 66.9863 95.386 66.567 95.3187 66.1476C95.1914 65.3015 95.0341 64.4629 94.8769 63.6168L94.3976 61.0784L94.1805 59.798C94.1056 59.3038 94.2404 58.8471 94.3752 58.4352C94.6747 57.5442 95.3486 56.9002 95.9775 56.3237C96.6215 55.7321 97.3179 55.2155 98.0067 54.6988C98.6956 54.1822 99.392 53.6805 100.058 53.1489C100.388 52.8793 100.717 52.6097 101.017 52.3102C101.159 52.1605 101.301 52.0032 101.406 51.846C101.459 51.7636 101.496 51.6813 101.496 51.6139C101.496 51.554 101.489 51.5315 101.399 51.4716C101.092 51.2694 100.65 51.1721 100.246 51.0748C99.8263 50.9849 99.4069 50.91 98.9876 50.8501C98.1415 50.7228 97.2879 50.618 96.4343 50.5206L93.8735 50.2062C93.4467 50.1463 93.0199 50.0864 92.5931 50.019C92.1738 49.9441 91.7245 49.8992 91.3426 49.6446C91.1629 49.5248 90.9907 49.3825 90.8559 49.1953C90.7137 49.0081 90.6762 48.7835 90.6013 48.5888L90.197 47.3683C89.9274 46.5521 89.6429 45.7434 89.3434 44.9348C88.7144 43.3474 88.0405 41.7674 87.2693 40.2324Z" fill="#AA6C00" fill-opacity="0.7"/>
<path d="M117.699 45.0396C115.602 59.0493 113.259 74.0473 103.592 85.0917C103.001 85.7656 104.386 85.9304 104.79 85.4661C112.173 77.0349 115.498 66.0877 117.489 55.2679C118.126 51.831 118.643 48.3717 119.159 44.9123C119.264 44.2235 117.796 44.4256 117.699 45.0396Z" fill="#F4D6A0"/>
<path d="M52.9603 38.0835C52.5185 44.7251 53.2972 51.3818 54.8996 57.8287C56.4196 63.9612 58.5087 70.1536 61.4514 75.762C63.0463 78.7945 65.0231 81.6249 67.5689 83.9386C68.0107 84.3429 69.3735 83.7589 68.9017 83.3246C64.484 79.3037 61.8857 73.8301 59.7891 68.3341C57.4529 62.2091 55.6484 55.852 54.8022 49.3451C54.3081 45.5638 54.1658 41.7525 54.4204 37.9487C54.4653 37.2598 52.9977 37.4919 52.9603 38.0835Z" fill="#F4D6A0"/>
<path d="M71.5532 73.1187C72.7737 76.7503 74.9002 79.9625 77.0791 83.0849C78.9136 85.7057 80.868 88.6034 84.1476 89.442C84.6193 89.5618 85.8473 88.8505 85.0312 88.6408C81.8863 87.8397 79.9919 84.7772 78.2547 82.2762C76.1731 79.2811 74.1664 76.2111 72.9983 72.7293C72.8261 72.2127 71.3884 72.6245 71.5532 73.1187Z" fill="#F4D6A0"/>
<path d="M83.6077 95.3874C85.225 94.107 87.5088 94.2717 89.1861 95.3575C89.4332 95.5147 89.875 95.3724 90.122 95.2826C90.2044 95.2526 90.7734 95.0055 90.5488 94.8558C88.0629 93.2459 84.5661 93.6877 82.2973 95.4848C82.0352 95.6944 82.5294 95.7468 82.6417 95.7318C82.9787 95.7169 83.3381 95.6046 83.6077 95.3874Z" fill="#F4D6A0"/>
<path d="M90.0543 99.9699C89.6275 104.567 91.7915 108.761 93.8806 112.699C94.0079 112.939 94.7042 112.699 94.547 112.4C92.5028 108.543 90.3613 104.403 90.7806 99.895C90.8106 99.5655 90.0768 99.6853 90.0543 99.9699Z" fill="#F4D6A0"/>
<path d="M106.453 121.16C105.786 120 105.697 118.607 104.888 117.514C104.169 116.548 103.098 115.896 101.923 115.657C101.571 115.582 101.196 116.084 101.668 116.181C102.769 116.413 103.742 117.102 104.356 118.038C105.053 119.086 105.157 120.397 105.786 121.49C105.944 121.759 106.64 121.49 106.453 121.16Z" fill="#F4D6A0"/>
<path d="M77.5276 116.952C78.5609 116.548 79.6541 116.338 80.7623 116.338C81.8181 116.338 82.8439 116.54 83.8772 116.743C84.8057 116.922 85.7342 117.087 86.6776 117.087C87.6735 117.087 88.6469 116.795 89.6428 116.832C89.7776 116.84 90.0546 116.802 90.152 116.698C90.2269 116.615 90.2868 116.57 90.1146 116.563C88.9764 116.518 87.8682 116.862 86.7226 116.802C85.5545 116.742 84.4163 116.45 83.2707 116.256C81.1667 115.904 79.1 116.099 77.1083 116.885C76.996 116.93 76.9136 116.982 77.011 117.05C77.1233 117.124 77.4303 116.99 77.5276 116.952Z" fill="#F4D6A0"/>
<path d="M67.5242 120.696C68.3029 119.64 69.0292 118.51 69.9727 117.596C70.3845 117.192 70.8488 116.81 71.3954 116.6C71.8372 116.428 72.3089 116.488 72.7582 116.623C73.0577 116.712 73.4995 116.555 73.769 116.435C73.9113 116.368 74.2557 116.173 73.9487 116.084C72.3763 115.604 70.5268 116.248 69.2614 117.207C67.966 118.195 67.0525 119.663 66.1015 120.966C65.9518 121.168 66.6332 121.093 66.6781 121.085C66.9477 121.025 67.3445 120.936 67.5242 120.696Z" fill="#F4D6A0"/>
<path d="M78.7407 112.108C79.4895 112.018 79.9238 111.494 80.1259 110.797C80.3656 109.966 80.5303 109.105 80.7325 108.259C81.1593 106.447 81.5861 104.635 82.0129 102.823C82.0952 102.463 81.354 102.546 81.2791 102.875C80.9347 104.343 80.5902 105.81 80.2383 107.278C80.0661 107.997 79.9013 108.716 79.7291 109.434C79.6018 109.959 79.4895 111.486 78.7931 111.568C78.3963 111.613 78.254 112.168 78.7407 112.108Z" fill="#F4D6A0"/>
<path d="M49.0969 146.432C49.0894 147.195 49.1044 148.026 49.5237 148.7C49.9655 149.412 50.7592 149.584 51.5454 149.629C53.8217 149.756 56.1204 149.756 58.3967 149.816C63.0092 149.943 67.6142 150.063 72.2266 150.19C74.8399 150.258 77.4606 150.333 80.0738 150.4C80.3359 150.407 80.8451 150.018 80.3584 150.003C71.5153 149.764 62.6647 149.531 53.8217 149.292C53.2077 149.277 52.5937 149.269 51.9872 149.239C51.4181 149.217 50.8266 149.15 50.4073 148.708C49.8082 148.071 49.8083 147.053 49.8157 146.237C49.8232 146.027 49.1044 146.154 49.0969 146.432Z" fill="#F4D6A0"/>
<path d="M123.473 147.405C123.787 146.828 123.361 146.244 122.792 146.057C122.402 145.922 121.968 145.93 121.556 145.907C121.032 145.877 120.5 145.855 119.976 145.832C117.962 145.743 115.94 145.668 113.926 145.615C109.95 145.511 105.974 145.481 101.998 145.518C99.7293 145.54 97.4605 145.593 95.1991 145.66C94.8023 145.675 94.6301 146.177 95.1243 146.154C102.515 145.922 109.913 145.945 117.303 146.222C118.329 146.259 119.355 146.304 120.373 146.349C120.867 146.372 123.368 146.259 122.792 147.33C122.604 147.689 123.331 147.667 123.473 147.405Z" fill="#F4D6A0"/>
<path d="M111.522 144.028C112.428 143.931 113.327 143.841 114.233 143.743C115.041 143.661 115.88 143.631 116.681 143.474C117.385 143.339 117.625 142.92 117.842 142.283C118.096 141.549 118.261 140.793 118.366 140.029C118.793 136.825 118.051 133.582 117.175 130.512C117.1 130.243 116.374 130.438 116.449 130.707C117.235 133.485 117.924 136.383 117.714 139.288C117.662 139.977 117.565 140.658 117.407 141.332C117.325 141.684 117.228 142.029 117.108 142.373C117.056 142.523 117.003 142.748 116.913 142.875C116.756 143.107 116.531 143.084 116.299 143.114C114.734 143.279 113.169 143.444 111.604 143.609C111.245 143.639 111.02 144.08 111.522 144.028Z" fill="#F4D6A0"/>
<path d="M55.0724 123.856C64.5369 123.856 74.0014 123.856 83.466 123.856C86.1466 123.856 88.8197 123.856 91.5003 123.856C91.7474 123.856 92.2791 123.482 91.7924 123.482C82.3278 123.482 72.8633 123.482 63.3988 123.482C60.7181 123.482 58.045 123.482 55.3643 123.482C55.1172 123.482 54.5856 123.856 55.0724 123.856Z" fill="#F4D6A0"/>
<path d="M54.4884 144.08C54.3836 138.786 54.4809 133.493 54.773 128.206C54.7879 127.952 54.0691 128.101 54.0541 128.311C53.7546 133.627 53.6648 138.951 53.7696 144.268C53.7696 144.462 54.4959 144.335 54.4884 144.08Z" fill="#F4D6A0"/>
<path d="M61.1226 127.113C60.6658 127.113 60.1792 127.383 60.0743 127.854C59.9995 128.221 60.239 128.573 60.561 128.738C60.9504 128.94 61.4446 128.918 61.8339 128.715C62.1859 128.528 62.4929 128.206 62.4405 127.78C62.418 127.607 62.3281 127.428 62.2008 127.315C62.0062 127.143 61.7816 127.083 61.527 127.098C61.3847 127.106 61.1451 127.195 61.1226 127.36C61.0926 127.532 61.3323 127.547 61.4446 127.54C61.3472 127.547 61.3922 127.54 61.4146 127.54C61.4745 127.547 61.3921 127.532 61.3921 127.532C61.3921 127.532 61.497 127.57 61.4221 127.532C61.4446 127.54 61.467 127.555 61.497 127.57C61.512 127.577 61.5194 127.585 61.5344 127.592C61.4895 127.562 61.5419 127.6 61.5494 127.607C61.5868 127.645 61.6243 127.69 61.6542 127.735C61.6617 127.75 61.6692 127.757 61.6767 127.772C61.6617 127.742 61.6767 127.772 61.6767 127.78C61.6917 127.809 61.7067 127.847 61.7142 127.877C61.7217 127.907 61.7291 127.929 61.7291 127.959C61.7291 127.974 61.7366 128.042 61.7366 128.004C61.7366 128.064 61.7216 128.124 61.7067 128.176C61.6917 128.214 61.7291 128.131 61.6992 128.191C61.6917 128.206 61.6842 128.214 61.6767 128.229C61.6617 128.251 61.6467 128.274 61.6318 128.304C61.6243 128.319 61.5943 128.341 61.6393 128.296C61.6318 128.304 61.6168 128.319 61.6093 128.326C61.6018 128.334 61.5868 128.349 61.5793 128.356C61.5719 128.364 61.5195 128.393 61.5644 128.371C61.6093 128.349 61.527 128.394 61.512 128.401C61.4745 128.431 61.5793 128.371 61.5344 128.386C61.5194 128.394 61.5045 128.401 61.497 128.408C61.482 128.416 61.467 128.416 61.4596 128.423C61.4146 128.446 61.5344 128.401 61.4895 128.416C61.4745 128.416 61.4595 128.423 61.4446 128.431C61.3772 128.446 61.4446 128.423 61.4671 128.431C61.4521 128.431 61.4296 128.438 61.4146 128.438C61.3997 128.438 61.3547 128.431 61.4071 128.438C61.4596 128.446 61.4146 128.438 61.3996 128.438C61.3847 128.438 61.3697 128.438 61.3547 128.438C61.2798 128.431 61.3997 128.453 61.3248 128.431C61.2873 128.423 61.2574 128.416 61.2274 128.401C61.2799 128.416 61.205 128.393 61.19 128.379C61.1601 128.364 61.1376 128.349 61.1077 128.334C61.1002 128.326 61.0328 128.274 61.0627 128.304C61.0328 128.281 61.0028 128.251 60.9803 128.221C60.9579 128.199 60.9429 128.176 60.9205 128.154C60.913 128.146 60.8755 128.079 60.8905 128.109C60.8605 128.049 60.8381 127.982 60.8306 127.914C60.8306 127.899 60.8306 127.884 60.8231 127.869C60.8231 127.899 60.8231 127.862 60.8231 127.847C60.8231 127.817 60.8306 127.779 60.8381 127.75C60.8381 127.735 60.8456 127.72 60.8531 127.705C60.868 127.645 60.8306 127.735 60.8605 127.682C60.8755 127.652 60.8905 127.622 60.9055 127.6C60.913 127.585 60.9279 127.57 60.9354 127.555C60.9129 127.585 60.9204 127.577 60.9429 127.555C60.9504 127.547 60.9653 127.54 60.9728 127.525C60.9953 127.495 60.9205 127.562 60.9654 127.532C61.0178 127.502 60.9429 127.547 60.9354 127.547C60.9429 127.54 60.9579 127.54 60.9654 127.532C60.9953 127.517 60.9804 127.525 60.9205 127.547C60.9579 127.532 60.9354 127.562 60.883 127.555C60.9054 127.555 60.9879 127.555 60.8755 127.555C61.0403 127.555 61.2574 127.502 61.3547 127.353C61.4071 127.203 61.2499 127.113 61.1226 127.113Z" fill="#AA6C00" fill-opacity="0.7"/>
<path d="M111.441 126.806C111.224 126.694 111.006 126.664 110.767 126.716C110.58 126.761 110.392 126.866 110.258 127.001C110.01 127.233 109.846 127.54 109.868 127.877C109.883 128.184 110.018 128.498 110.318 128.611C110.699 128.76 111.141 128.573 111.336 128.229C111.486 127.952 111.471 127.592 111.418 127.293C111.403 127.218 111.328 127.166 111.261 127.136C111.179 127.106 111.066 127.106 110.984 127.128C110.827 127.173 110.654 127.3 110.692 127.48C110.699 127.525 110.707 127.577 110.714 127.622C110.714 127.63 110.714 127.645 110.714 127.652C110.699 127.585 110.714 127.615 110.714 127.637C110.714 127.667 110.714 127.697 110.714 127.735C110.714 127.839 110.692 127.929 110.677 128.034C110.684 127.967 110.692 127.989 110.684 128.012C110.677 128.027 110.677 128.034 110.669 128.049C110.662 128.064 110.654 128.086 110.647 128.101C110.61 128.169 110.692 128.049 110.647 128.101C110.639 128.109 110.632 128.116 110.624 128.131C110.595 128.169 110.587 128.131 110.647 128.109C110.632 128.116 110.617 128.131 110.602 128.139C110.647 128.094 110.677 128.094 110.647 128.109C110.595 128.139 110.737 128.086 110.692 128.094C110.684 128.094 110.662 128.101 110.654 128.101C110.654 128.101 110.759 128.086 110.707 128.094C110.625 128.094 110.789 128.109 110.714 128.094C110.632 128.086 110.782 128.116 110.722 128.094C110.684 128.079 110.722 128.072 110.752 128.109C110.744 128.101 110.737 128.101 110.729 128.094C110.714 128.086 110.662 128.034 110.699 128.079C110.737 128.116 110.677 128.057 110.669 128.042C110.654 128.027 110.647 128.012 110.639 127.989C110.602 127.929 110.654 128.042 110.632 127.982C110.617 127.937 110.602 127.884 110.587 127.839C110.58 127.817 110.58 127.787 110.58 127.765C110.572 127.727 110.58 127.839 110.58 127.779C110.58 127.772 110.58 127.757 110.58 127.75C110.58 127.697 110.58 127.645 110.595 127.592C110.602 127.562 110.624 127.502 110.595 127.577C110.602 127.555 110.61 127.532 110.617 127.51C110.625 127.48 110.639 127.457 110.654 127.428C110.654 127.428 110.677 127.398 110.677 127.39C110.654 127.428 110.647 127.435 110.662 127.413C110.669 127.405 110.669 127.398 110.677 127.39C110.699 127.36 110.714 127.338 110.737 127.315C110.744 127.3 110.759 127.293 110.767 127.278C110.789 127.255 110.707 127.33 110.759 127.285C110.782 127.263 110.812 127.24 110.834 127.225C110.864 127.203 110.879 127.218 110.812 127.24C110.827 127.233 110.849 127.225 110.864 127.218C110.872 127.21 110.887 127.21 110.902 127.203C110.804 127.248 110.842 127.225 110.879 127.218C110.887 127.218 110.902 127.21 110.917 127.21C110.849 127.218 110.834 127.225 110.872 127.218C110.879 127.218 110.887 127.218 110.887 127.218C110.946 127.21 110.842 127.218 110.849 127.218C110.864 127.21 110.887 127.225 110.902 127.225C110.961 127.233 110.842 127.195 110.879 127.218C110.894 127.225 110.969 127.263 110.887 127.218C111.051 127.308 111.261 127.3 111.403 127.18C111.463 127.128 111.523 127.061 111.531 126.978C111.531 126.926 111.508 126.836 111.441 126.806Z" fill="#AA6C00" fill-opacity="0.7"/>
<path d="M111.462 139.116C111.297 138.981 111.073 138.959 110.87 138.996C110.616 139.041 110.376 139.146 110.197 139.333C110.092 139.438 110.017 139.573 110.009 139.722C110.002 139.917 110.062 140.082 110.174 140.239C110.376 140.524 110.728 140.703 111.073 140.741C111.32 140.763 111.574 140.733 111.799 140.636C111.994 140.546 112.196 140.404 112.248 140.179C112.293 139.97 112.211 139.76 112.076 139.603C111.926 139.43 111.702 139.326 111.499 139.228C111.432 139.198 111.335 139.206 111.267 139.213C111.178 139.228 111.073 139.258 110.99 139.303C110.9 139.356 110.766 139.483 110.915 139.558C111.163 139.678 111.447 139.812 111.522 140.112C111.537 140.172 111.544 140.224 111.529 140.284C111.522 140.314 111.514 140.336 111.499 140.366C111.514 140.336 111.499 140.366 111.492 140.374C111.484 140.389 111.47 140.404 111.462 140.419C111.447 140.449 111.507 140.374 111.469 140.411C111.447 140.434 111.447 140.411 111.492 140.396C111.484 140.396 111.47 140.411 111.462 140.411C111.514 140.366 111.529 140.381 111.484 140.396C111.44 140.411 111.589 140.366 111.522 140.381C111.492 140.389 111.484 140.374 111.567 140.374C111.559 140.374 111.537 140.374 111.529 140.381C111.589 140.374 111.604 140.374 111.567 140.381C111.559 140.381 111.552 140.381 111.544 140.381C111.529 140.381 111.514 140.381 111.499 140.381C111.455 140.381 111.574 140.389 111.514 140.381C111.492 140.374 111.462 140.374 111.44 140.366C111.44 140.366 111.372 140.351 111.417 140.359C111.455 140.366 111.395 140.351 111.395 140.351C111.365 140.344 111.335 140.329 111.305 140.321C111.275 140.306 111.237 140.292 111.207 140.277C111.192 140.269 111.185 140.262 111.17 140.254C111.192 140.269 111.163 140.247 111.163 140.247C111.103 140.209 111.043 140.164 110.99 140.112C110.818 139.947 110.691 139.7 110.773 139.475C110.781 139.46 110.788 139.445 110.788 139.438C110.773 139.468 110.788 139.438 110.796 139.423C110.811 139.4 110.833 139.378 110.848 139.356C110.878 139.318 110.841 139.363 110.841 139.363C110.841 139.356 110.87 139.333 110.878 139.326C110.923 139.288 110.826 139.356 110.863 139.333C110.878 139.326 110.938 139.296 110.878 139.326C110.811 139.356 110.885 139.326 110.885 139.326C110.863 139.333 110.841 139.341 110.826 139.348C110.863 139.341 110.848 139.341 110.773 139.356C110.781 139.356 110.796 139.356 110.803 139.348C110.743 139.348 110.728 139.356 110.751 139.356C110.773 139.356 110.758 139.356 110.713 139.356L110.743 139.363C110.706 139.348 110.698 139.348 110.728 139.356C110.736 139.356 110.736 139.356 110.743 139.363C110.743 139.363 110.796 139.385 110.766 139.371C110.743 139.356 110.796 139.393 110.796 139.393C110.915 139.49 111.14 139.438 111.267 139.386C111.327 139.356 111.582 139.221 111.462 139.116Z" fill="#AA6C00" fill-opacity="0.7"/>
<path d="M61.6011 138.757C61.1817 138.427 60.5303 138.577 60.1784 138.929C59.8714 139.236 59.7815 139.76 59.9537 140.157C60.126 140.554 60.4854 140.838 60.9047 140.898C61.3689 140.973 61.8631 140.726 62.0728 140.299C62.2525 139.932 62.2151 139.468 62.0803 139.093C62.0204 138.929 61.8032 138.899 61.6535 138.944C61.5262 138.981 61.294 139.116 61.3614 139.288C61.4139 139.423 61.4438 139.565 61.4588 139.708C61.4588 139.722 61.4663 139.775 61.4588 139.715C61.4588 139.73 61.4588 139.745 61.4588 139.76C61.4588 139.797 61.4588 139.827 61.4588 139.865C61.4588 139.94 61.4513 140.007 61.4363 140.082C61.4363 140.097 61.4288 140.112 61.4214 140.134C61.4064 140.194 61.4438 140.097 61.4214 140.134C61.4064 140.157 61.3989 140.187 61.3914 140.217C61.3914 140.224 61.3464 140.292 61.3464 140.299C61.339 140.284 61.3914 140.247 61.3539 140.292C61.339 140.307 61.324 140.329 61.309 140.344C61.3015 140.351 61.2866 140.366 61.2791 140.374C61.309 140.322 61.324 140.336 61.2941 140.359C61.2791 140.366 61.2641 140.381 61.2566 140.389C61.2117 140.426 61.2791 140.374 61.2866 140.374C61.2716 140.374 61.2416 140.396 61.2342 140.404C61.1817 140.434 61.2641 140.389 61.2716 140.389C61.2641 140.389 61.2192 140.396 61.2117 140.404C61.2416 140.389 61.3015 140.396 61.2267 140.396C61.2192 140.396 61.1967 140.396 61.1892 140.396C61.2042 140.396 61.2267 140.396 61.2417 140.396C61.2267 140.396 61.2117 140.396 61.2042 140.396C61.1892 140.396 61.0919 140.381 61.1443 140.389C61.1967 140.396 61.1368 140.389 61.1293 140.381C61.1143 140.374 61.0994 140.374 61.0919 140.366C61.0694 140.359 61.0544 140.351 61.032 140.344C60.9796 140.321 61.0844 140.374 61.0245 140.344C60.9646 140.307 60.9047 140.262 60.8523 140.217C60.9047 140.262 60.8373 140.202 60.8223 140.179C60.7924 140.149 60.7699 140.119 60.7474 140.089C60.725 140.059 60.71 140.029 60.6876 140C60.6651 139.955 60.6876 139.992 60.6876 140.007C60.6801 139.985 60.6726 139.97 60.6651 139.947C60.6351 139.872 60.6201 139.797 60.6127 139.715C60.5977 139.64 60.6127 139.76 60.6127 139.685C60.6127 139.67 60.6127 139.655 60.6127 139.633C60.6127 139.595 60.6127 139.55 60.6202 139.513C60.6276 139.475 60.6351 139.43 60.6426 139.393C60.6426 139.408 60.6276 139.445 60.6426 139.393C60.6501 139.371 60.6576 139.348 60.6726 139.326C60.6801 139.303 60.695 139.281 60.7025 139.258C60.74 139.191 60.6651 139.303 60.71 139.243C60.725 139.228 60.7325 139.213 60.7474 139.198C60.7999 139.138 60.7025 139.228 60.7549 139.191C60.7699 139.183 60.7774 139.176 60.7924 139.161C60.8523 139.116 60.725 139.191 60.7849 139.161C60.8073 139.153 60.8223 139.138 60.8448 139.131C60.9122 139.101 60.7624 139.153 60.8373 139.138C60.8523 139.138 60.8672 139.131 60.8822 139.131C60.9571 139.108 60.7924 139.138 60.8822 139.131C60.8972 139.131 60.9271 139.131 60.9346 139.131C60.8747 139.131 60.8673 139.131 60.9047 139.131C60.9122 139.131 60.9196 139.131 60.9271 139.131C60.9346 139.131 60.9421 139.131 60.9496 139.131C60.9871 139.138 60.9796 139.138 60.9271 139.123L60.9871 139.146C61.047 139.168 60.9721 139.138 60.9721 139.138C60.987 139.138 61.032 139.176 61.047 139.191C61.1892 139.296 61.4363 139.251 61.5636 139.146C61.6909 139.026 61.7508 138.869 61.6011 138.757Z" fill="#AA6C00" fill-opacity="0.7"/>
<path d="M61.1594 134.653C62.6494 132.939 64.454 131.516 66.4757 130.475C68.5349 129.412 70.7587 128.708 72.9601 128.012C73.3869 127.877 73.2971 127.502 72.8628 127.637C70.5266 128.378 68.1754 129.127 65.989 130.265C63.8924 131.359 62.0355 132.841 60.4855 134.631C60.3657 134.766 60.5903 134.84 60.6877 134.855C60.8524 134.863 61.0396 134.781 61.1594 134.653Z" fill="#F4D6A0"/>
<path d="M71.6574 132.954C74.7423 131.329 77.9471 129.936 81.2268 128.768C81.3166 128.738 81.5113 128.641 81.4289 128.521C81.354 128.408 81.047 128.506 80.9572 128.536C77.6176 129.726 74.3604 131.149 71.2231 132.804C71.1033 132.864 71.0359 132.946 71.1482 133.043C71.2605 133.126 71.56 133.006 71.6574 132.954Z" fill="#F4D6A0"/>
<path d="M73.1779 136.87C77.6705 134.578 82.2306 132.437 86.873 130.46C87.3372 130.258 86.903 130.108 86.6034 130.235C81.9086 132.242 77.2886 134.399 72.7436 136.72C72.6238 136.78 72.5564 136.862 72.6687 136.952C72.7735 137.034 73.073 136.922 73.1779 136.87Z" fill="#F4D6A0"/>
<path d="M83.5853 136.78C88.9915 134.691 94.2929 132.347 99.4669 129.749C99.8937 129.539 99.2198 129.599 99.0551 129.674C93.9335 132.242 88.692 134.571 83.3383 136.638C82.859 136.825 83.3158 136.885 83.5853 136.78Z" fill="#F4D6A0"/>
<path d="M93.8511 138.09C97.3254 136.315 100.8 134.533 104.274 132.759C104.401 132.691 104.454 132.579 104.341 132.489C104.222 132.392 103.945 132.504 103.832 132.557C100.358 134.331 96.8836 136.113 93.4093 137.888C93.282 137.955 93.2296 138.068 93.3419 138.157C93.4617 138.262 93.7387 138.15 93.8511 138.09Z" fill="#F4D6A0"/>
<path d="M97.4077 139.498C98.9502 139.707 100.403 138.562 101.668 137.851C103.271 136.945 104.881 136.031 106.483 135.125C106.625 135.043 106.55 135.005 106.445 134.975C106.303 134.938 106.056 135.043 105.936 135.11C104.671 135.829 103.405 136.54 102.14 137.259C101.511 137.618 100.875 137.978 100.246 138.33C99.5941 138.704 98.793 139.326 98.0067 139.221C97.842 139.198 97.6473 139.243 97.5051 139.318C97.4527 139.348 97.243 139.475 97.4077 139.498Z" fill="#F4D6A0"/>
<path d="M109.875 135.941C107.696 137.222 105.524 138.502 103.345 139.775C103.226 139.85 103.158 139.992 103.293 140.082C103.435 140.179 103.682 140.097 103.81 140.022C105.989 138.742 108.16 137.461 110.339 136.188C110.459 136.113 110.526 135.971 110.391 135.881C110.249 135.784 110.002 135.866 109.875 135.941Z" fill="#F4D6A0"/>
<path d="M88.4305 45.9905C88.745 46.7393 89.0595 47.4881 89.3814 48.2369C89.6435 48.8509 89.8532 49.6371 90.3549 50.1088C91.2235 50.925 92.5188 50.588 93.5072 51.1346C93.6645 51.2245 93.8816 51.1945 94.0239 51.0897C94.1287 51.0073 94.226 50.8201 94.0688 50.7303C93.5746 50.4607 93.028 50.3634 92.4814 50.281C91.9797 50.2062 91.4181 50.1388 91.0213 49.7943C90.7891 49.5922 90.6469 49.3076 90.5271 49.0306C90.3773 48.6861 90.2351 48.3417 90.0928 48.0048C89.7858 47.271 89.4713 46.5372 89.1643 45.8108C89.022 45.4889 88.3107 45.6985 88.4305 45.9905Z" fill="#F4D6A0"/>
<path d="M89.7554 64.5377C88.9093 64.3505 88.2878 63.9237 87.5989 63.4295C86.9999 63.0027 86.4159 62.9428 85.742 63.2273C83.9599 63.9761 82.2077 64.7848 80.4406 65.5635C79.9839 65.7657 80.3957 66.0577 80.7401 65.908C82.2976 65.2191 83.8476 64.5377 85.405 63.8488C85.7794 63.6841 86.1838 63.3996 86.5956 63.5493C86.9026 63.6617 87.1646 63.9087 87.4192 64.1034C87.9883 64.5302 88.6323 64.8148 89.3212 64.972C89.5832 65.0169 90.1747 64.6276 89.7554 64.5377Z" fill="#F4D6A0"/>
<path d="M83.0684 48.2444C82.9262 48.6113 82.769 48.9707 82.5743 49.3151C82.4769 49.4873 82.3721 49.652 82.2672 49.8168C82.1774 49.9515 82.0801 50.1013 81.9303 50.1687C81.7806 50.2361 81.6008 50.2586 81.4361 50.2885C81.2265 50.3334 81.0243 50.3709 80.8146 50.4158C80.3878 50.5057 79.961 50.588 79.5342 50.6779C79.3995 50.7078 79.1898 50.8426 79.2347 50.9998C79.2796 51.1721 79.5342 51.1571 79.654 51.1271C80.1183 51.0298 80.5825 50.94 81.0467 50.8426C81.481 50.7528 81.9677 50.7078 82.3571 50.4907C82.7315 50.281 82.9636 49.8842 83.1733 49.5248C83.4054 49.1354 83.6001 48.7236 83.7574 48.3042C83.8921 47.9373 83.1658 47.9748 83.0684 48.2444Z" fill="#F4D6A0"/>
<path d="M78.0595 55.837C78.2392 56.1514 78.5388 56.2787 78.8607 56.421C79.018 56.4959 79.1827 56.5633 79.295 56.698C79.4598 56.8927 79.4373 57.1922 79.4523 57.4319C79.5047 58.6449 79.4223 59.8579 79.2276 61.0559C79.1827 61.3255 79.909 61.1982 79.9465 60.9586C80.1411 59.7605 80.2235 58.5475 80.1786 57.3345C80.1636 56.8553 80.1411 56.4659 79.7069 56.2038C79.4148 56.0241 78.9656 55.9568 78.7859 55.6273C78.6511 55.4027 77.9547 55.6498 78.0595 55.837Z" fill="#F4D6A0"/>
<path d="M99.1156 53.029C98.0748 53.7628 97.034 54.4891 96.0007 55.2304C95.0947 55.8819 94.1962 56.6157 93.6196 57.5891C93.0655 58.5325 92.9607 59.491 93.1479 60.5542C93.365 61.8347 93.6196 63.115 93.8592 64.3955C93.9042 64.6201 94.6305 64.4479 94.5855 64.2008C94.3684 63.0327 94.1512 61.8646 93.9341 60.6965C93.717 59.5284 93.7245 58.4876 94.3684 57.4618C94.9524 56.5333 95.836 55.8594 96.7121 55.2304C97.7005 54.5266 98.6963 53.8227 99.6922 53.1264C99.8345 53.029 99.7446 52.9392 99.6323 52.8942C99.475 52.8269 99.2354 52.9392 99.1156 53.029Z" fill="#F4D6A0"/>
<path d="M53.507 23.4299C66.985 23.4898 80.4705 23.2127 93.9335 22.6062C94.1881 22.5912 94.7797 22.5089 94.892 22.2244C94.9968 21.9473 94.8021 21.8425 94.5176 21.8574C81.0471 22.4639 67.569 22.741 54.0911 22.6811C53.5894 22.6736 52.5411 23.4224 53.507 23.4299Z" fill="#F4D6A0"/>
<path d="M106.034 28.4542C106.686 35.882 106.326 43.3698 104.979 50.7004C104.971 50.7528 105.66 50.7153 105.705 50.5057C107.053 43.1751 107.412 35.6799 106.761 28.2595C106.746 28.1472 106.012 28.2745 106.034 28.4542Z" fill="#F4D6A0"/>
<path d="M129.089 36.0019C131.462 35.9495 133.836 36.2714 136.112 36.9378C136.352 37.0052 136.696 37.0502 136.883 37.2224C137.078 37.4021 137.048 37.6791 137.041 37.9262C137.033 38.4803 137.011 39.0344 137.003 39.5885C136.996 40.7117 137.071 41.8348 137.467 42.8906C137.617 43.2875 139.04 42.8457 138.913 42.5013C138.486 41.3631 138.433 40.1576 138.448 38.9595C138.456 38.368 138.561 37.7166 138.471 37.1325C138.381 36.556 137.745 36.4661 137.28 36.3313C134.817 35.605 132.256 35.2905 129.688 35.3429C129.396 35.3504 128.909 35.4553 128.722 35.7024C128.542 35.9644 128.901 36.0019 129.089 36.0019Z" fill="#F4D6A0"/>
<path d="M113.971 75.5448C121.586 75.1629 126.985 69.2925 132.234 64.4629C132.466 64.2457 132.024 64.2607 131.904 64.2682C131.612 64.2832 131.163 64.3955 130.931 64.6051C128.587 66.7616 126.296 69.0079 123.802 70.9922C121.242 73.0289 118.269 74.8334 114.914 74.9982C114.63 75.0131 114.098 75.0506 113.889 75.2752C113.769 75.4175 113.612 75.5672 113.971 75.5448Z" fill="#F4D6A0"/>
<path d="M40.7111 35.2905C39.0787 35.1781 37.4464 35.2306 35.8291 35.5001C35.2675 35.59 34.6685 35.7622 34.4214 36.3313C34.1219 36.9977 34.1218 37.9037 34.032 38.6225C33.6127 41.992 33.6352 45.3915 34.0545 48.7535C34.1443 49.4648 35.5895 49.0979 35.4996 48.3641C35.1552 45.5862 35.1102 42.7857 35.3498 40.0003C35.4097 39.3414 35.4771 38.6899 35.567 38.0385C35.6119 37.709 35.6568 37.3871 35.7167 37.0576C35.7916 36.5859 35.6868 36.6233 36.1585 36.5484C37.5063 36.3537 38.8691 36.3013 40.2319 36.3912C40.5763 36.4136 41.0331 36.2938 41.1679 35.9344C41.2877 35.6199 41.048 35.3129 40.7111 35.2905Z" fill="#F4D6A0"/>
<path d="M61.1145 78.5324C56.7117 78.0307 52.4811 76.1738 48.4752 74.3692C45.1656 72.8791 41.7886 70.9398 40.0889 67.5853C39.8268 67.0611 38.4117 67.5104 38.6438 67.9746C40.4259 71.4939 43.8478 73.5381 47.3296 75.1105C51.5302 77.0049 55.948 78.8918 60.568 79.416C61.167 79.4759 62.088 78.6447 61.1145 78.5324Z" fill="#F4D6A0"/>
</g>
</svg>
