<svg width="173" height="172" viewBox="0 0 173 172" fill="none" xmlns="http://www.w3.org/2000/svg">
<mask id="mask0" mask-type="alpha" maskUnits="userSpaceOnUse" x="0" y="0" width="173" height="172">
<rect x="0.263672" width="172" height="172" fill="#C4C4C4"/>
</mask>
<g mask="url(#mask0)">
<path d="M18.8099 60.6899C17.3211 64.3624 16.1841 68.1702 15.3901 72.0412C14.6862 75.9393 14.2802 79.8825 14.2441 83.8347C14.2712 87.7869 14.5689 91.7391 15.2637 95.6372C16.0036 99.5173 16.9872 103.361 18.4039 107.052C19.8476 110.724 21.5259 114.316 23.6735 117.636C25.821 120.939 28.2483 124.079 31.0004 126.903C33.7615 129.718 36.7392 132.326 39.9696 134.591C43.209 136.829 46.6469 138.787 50.2381 140.429C53.8475 142.008 57.6012 143.253 61.4271 144.156C65.262 145.049 69.1872 145.5 73.1213 145.663L76.0719 145.708C77.0555 145.681 78.039 145.617 79.0226 145.572C80.9897 145.509 82.9296 145.211 84.8606 144.841C88.7136 144.074 92.4944 142.91 96.1488 141.44C97.9806 140.718 99.7762 139.906 101.509 138.976C102.375 138.516 103.223 138.011 104.062 137.496C104.901 136.982 105.759 136.495 106.589 135.953C109.909 133.815 113.086 131.46 116.054 128.861C121.965 123.655 126.927 117.248 129.815 109.849L129.896 109.885C128.516 113.594 126.711 117.185 124.401 120.424C122.091 123.673 119.393 126.623 116.442 129.294C113.492 131.965 110.315 134.383 106.995 136.585C106.165 137.136 105.308 137.641 104.468 138.173C103.629 138.706 102.781 139.229 101.897 139.707C100.146 140.673 98.3325 141.521 96.4917 142.279C92.7922 143.768 88.9572 144.941 85.0411 145.717C83.0831 146.096 81.0889 146.393 79.0857 146.457C78.0932 146.502 77.0916 146.565 76.099 146.592L73.1033 146.547C69.115 146.357 65.1447 145.87 61.2556 144.941C57.3846 143.993 53.5948 142.703 49.9494 141.079C46.331 139.4 42.8661 137.406 39.5997 135.123C36.3513 132.813 33.3555 130.16 30.5854 127.309C27.8242 124.44 25.3969 121.263 23.2404 117.916C21.1018 114.55 19.4235 110.923 17.9888 107.214C16.5902 103.488 15.6337 99.6165 14.9119 95.7094C14.2441 91.7842 13.9824 87.814 13.9824 83.8437C14.0546 79.8735 14.4877 75.9122 15.2276 72.0142C16.0578 68.1341 17.2218 64.3263 18.7377 60.6628L18.8099 60.6899Z" fill="#AA6C00" fill-opacity="0.7"/>
<path d="M38.6709 36.742C42.56 33.5477 47.0175 31.0663 51.7277 29.2887C56.4379 27.5111 61.3917 26.4012 66.3996 25.8418C71.4076 25.2914 76.4787 25.2553 81.4956 25.7876C84.0041 26.0493 86.5036 26.4644 88.9489 27.1051C89.5625 27.2585 90.1851 27.3848 90.7896 27.5562L92.5943 28.1247L94.399 28.6932L96.1676 29.3789C100.887 31.1926 105.362 33.6109 109.495 36.5344C113.628 39.458 117.363 42.9049 120.702 46.7037C122.344 48.6257 123.914 50.6108 125.313 52.7223C126.73 54.8067 127.993 57.0445 128.949 59.3815C130.925 64.0466 132.089 68.9552 133.497 73.7737L133.407 73.8008C131.774 69.0545 130.429 64.1909 128.372 59.6342C127.343 57.3603 126.107 55.2037 124.663 53.1644C123.247 51.1071 121.667 49.1671 120.016 47.2993C116.723 43.5546 113.032 40.1438 108.963 37.2563C104.92 34.3327 100.535 31.8964 95.8878 30.0557L94.1463 29.3699L92.3687 28.7924L90.5821 28.2149C89.9866 28.0345 89.373 27.9081 88.7684 27.7457C86.3592 27.087 83.8959 26.6539 81.4144 26.3742C76.4426 25.8057 71.4166 25.7876 66.4357 26.2929C61.4548 26.7892 56.519 27.8269 51.8089 29.5504C47.1077 31.2648 42.6322 33.674 38.7161 36.8232L38.6709 36.742Z" fill="#AA6C00" fill-opacity="0.7"/>
<path d="M65.7764 80.09C64.1071 82.5985 63.6469 87.2635 64.874 90.0157C68.4834 98.1367 76.6044 96.1966 78.409 95.4297C84.3193 92.9031 85.348 84.1054 81.116 79.1877C76.9202 74.306 69.3857 74.676 65.7764 80.09Z" stroke="#AA6C00" stroke-miterlimit="10"/>
<path d="M62.1678 61.141C60.3 61.9892 57.5117 64.0736 55.9597 65.4091C54.0017 67.0874 46.8281 72.8713 46.8281 84.6017C46.8281 96.3681 53.3791 106.032 59.4608 108.965C65.5425 111.897 73.0589 113.314 77.5074 112.574C88.3354 110.769 91.647 107.458 92.8471 106.258C98.2611 100.844 100.246 96.2327 100.968 88.211C101.239 85.1792 100.607 81.2811 100.066 78.2853C99.398 74.6038 97.3588 68.3597 89.2378 62.9457C82.5154 58.4701 72.0934 56.6294 62.1678 61.141Z" stroke="#AA6C00" stroke-miterlimit="10"/>
<path d="M100.968 59.3364C98.2611 56.6294 92.0169 51.2244 83.8237 49.4107C78.3195 48.1926 65.7771 47.606 58.5584 51.2154C53.0091 53.9855 48.0192 57.2249 44.1211 62.0434C39.2665 68.0439 36.5144 76.0024 36.0001 83.6993C35.0978 97.2343 42.9932 108.243 45.9258 111.672C56.7538 124.304 73.8981 124.304 81.1167 123.402C89.3731 122.373 93.226 120.145 99.1634 115.281C102.349 112.673 105.218 108.92 107.284 105.355C110.524 99.7789 111.589 95.4748 111.796 89.1133C111.895 86.1808 111.796 80.09 110.894 76.4807C108.331 66.2302 102.673 61.0508 100.968 59.3364Z" stroke="#AA6C00" stroke-miterlimit="10"/>
<path d="M123.498 86.5868C123.688 74.3602 120.087 66.9972 113.6 56.6294C112.706 55.2127 108.483 50.5837 107.283 49.4107C105.136 47.2992 99.1623 43.0944 95.553 41.2897C85.5371 36.2818 80.5833 36.354 69.3853 36.7781C58.1874 37.2021 45.0585 43.5816 37.8037 52.1177C33.7071 56.9362 30.4767 62.1607 28.0314 67.9897C25.3425 74.4053 24.9455 78.547 25.171 85.504C25.3786 91.7572 26.0734 97.2343 27.878 102.648C29.2676 106.826 33.2108 113.675 35.999 117.086C44.12 127.011 55.0112 132.885 68.483 134.23C77.5063 135.132 85.6273 134.23 90.139 132.425C97.4028 129.52 104.739 125.847 109.99 119.793C121.721 106.258 123.417 91.5587 123.498 86.5868Z" stroke="#AA6C00" stroke-miterlimit="10"/>
<path d="M74.5195 85.9281L129.075 85.6303L128.84 85.7206L134.913 80.2073L137.944 77.4462C138.973 76.5348 139.921 75.5964 141.039 74.6941C141.608 74.2609 142.267 73.8639 143.016 73.6835C143.755 73.503 144.477 73.503 145.163 73.503H149.269L157.471 73.512H158.283L157.841 74.1888C156.605 76.1017 155.468 78.0868 154.448 80.1261C153.934 81.1457 153.456 82.1834 153.004 83.2301C152.58 84.2859 152.021 85.3236 151.958 86.3703C151.886 87.426 152.472 88.4276 153.077 89.3841L154.908 92.2986L158.545 98.1547L158.473 98.1998L154.583 92.5151L152.652 89.6638C152.021 88.7253 151.308 87.6516 151.353 86.3522C151.416 85.0889 151.958 84.0242 152.364 82.9594C152.806 81.8947 153.275 80.839 153.771 79.7923C154.764 77.7079 155.883 75.6776 157.11 73.7196L157.48 74.3963L149.278 74.4053H145.172C144.486 74.4053 143.837 74.4053 143.241 74.5587C142.655 74.7031 142.104 75.0099 141.59 75.3979C140.561 76.201 139.551 77.1755 138.522 78.0688L135.454 80.7938L129.318 86.2439L129.219 86.3342H129.084L74.5286 86.0364V85.9281H74.5195Z" fill="#AA6C00" fill-opacity="0.7"/>
<path d="M130.977 87.5975C134.136 90.6654 136.788 94.2928 138.747 98.2721L138.512 98.0916C141.598 98.5157 144.711 98.7233 147.815 98.9669L157.145 99.7339V99.8241C155.584 99.9685 154.014 100.023 152.444 100.041C150.874 100.023 149.304 100.014 147.743 99.8963C144.612 99.6797 141.508 99.2105 138.413 98.7233L138.241 98.6962L138.169 98.5428C136.364 94.5725 133.919 90.864 130.905 87.6607L130.977 87.5975Z" fill="#AA6C00" fill-opacity="0.7"/>
<path d="M98.0439 77.347C96.6182 72.9616 94.624 68.5763 91.2583 65.3279C88.0821 62.2599 83.8412 60.4643 79.4017 60.7982C78.5715 60.8613 77.9309 61.7907 79.1491 61.7005C83.363 61.3757 87.4325 63.6044 90.2477 66.6092C93.1984 69.7583 94.985 73.7557 96.3024 77.8162C96.4919 78.3846 98.2244 77.8884 98.0439 77.347Z" fill="#F4D6A0"/>
<path d="M66.6156 80.3156C64.5312 83.5099 64.5312 87.9042 66.7148 91.0534C68.8263 94.1033 72.7424 95.6733 76.3788 95.141C76.7488 95.0868 77.3082 94.8883 77.3443 94.4371C77.3804 94.0221 76.8931 93.8145 76.5412 93.8687C73.3109 94.3469 69.9903 92.849 68.1946 90.115C66.3088 87.2455 66.426 83.3655 68.2758 80.5141C68.5195 80.1442 68.0593 79.8284 67.7435 79.7832C67.3013 79.7201 66.8592 79.9457 66.6156 80.3156Z" fill="#F4D6A0"/>
<path d="M82.9729 48.2558C86.9703 48.319 90.9495 49.4108 94.4145 51.396C97.9968 53.4443 100.767 56.3678 103.176 59.6794C105.676 63.1173 108.157 66.7085 109.871 70.6156C111.532 74.4235 112.533 78.475 112.885 82.6076C112.948 83.4107 114.699 82.9866 114.627 82.1384C114.031 75.0642 111.414 68.7298 107.498 62.8736C105.576 59.9952 103.645 57.0987 101.218 54.6173C98.9803 52.3344 96.3545 50.5117 93.44 49.2033C90.1916 47.7415 86.6815 47.0196 83.1263 46.9655C82.1247 46.9565 81.7909 48.2378 82.9729 48.2558Z" fill="#F4D6A0"/>
<path d="M43.3808 84.2136C41.7927 96.1515 48.3707 107.873 59.2439 112.935C62.5464 114.469 66.0835 115.407 69.6928 115.84C70.514 115.94 71.4885 114.776 70.3154 114.631C62.6637 113.711 55.3187 110.246 50.5544 104.056C46.2142 98.4163 44.211 91.1165 45.1494 84.0603C45.2577 83.2211 43.4801 83.4737 43.3808 84.2136Z" fill="#F4D6A0"/>
<path d="M111.145 113.034C109.62 116.048 107.581 118.746 105.072 121.011C102.275 123.528 98.9275 125.198 95.5709 126.849C88.9207 130.124 81.7471 133.436 74.1405 132.443C73.3825 132.344 72.3268 133.409 73.4998 133.562C81.5667 134.618 89.2365 131.189 96.3018 127.706C99.8028 125.983 103.268 124.232 106.227 121.642C108.943 119.269 111.163 116.364 112.796 113.142C113.202 112.339 111.443 112.448 111.145 113.034Z" fill="#F4D6A0"/>
<path d="M41.8647 50.5116C38.6344 53.2546 35.5935 56.0519 33.5723 59.8327C31.5691 63.5773 29.9901 67.692 28.7358 71.7434C26.0198 80.5502 26.6965 89.4292 28.6185 98.3262C28.7899 99.1292 31.4157 98.4796 31.2352 97.6224C30.3149 93.3543 29.584 89.0141 29.4667 84.6378C29.3494 80.2615 29.963 75.9573 31.2172 71.7705C32.3993 67.8183 33.9332 63.8661 35.792 60.1846C37.732 56.3497 40.7007 53.5705 43.9311 50.8274C44.3642 50.4574 44.2018 50.1416 43.7145 50.0062C43.1641 49.8709 42.2979 50.1506 41.8647 50.5116Z" fill="#F4D6A0"/>
<path d="M101.31 35.0276C111.723 39.9182 118.698 49.7627 123.074 60.1124C123.354 60.7801 125.077 60.2658 124.816 59.6432C120.358 49.122 113.275 39.1061 102.681 34.1252C102.104 33.8545 100.534 34.6666 101.31 35.0276Z" fill="#F4D6A0"/>
<path d="M26.9045 119.919C28.8986 123.222 31.5334 126.046 34.3848 128.626C37.2903 131.252 40.3402 133.941 43.6157 136.098C47.0897 138.381 51.1953 139.707 55.0753 141.142C59.1087 142.631 63.1963 143.966 67.4372 144.715C67.8162 144.778 68.3215 144.67 68.6554 144.49C68.7727 144.426 69.269 144.129 68.872 144.056C64.5678 143.298 60.408 141.936 56.3205 140.411C52.5758 139.012 48.6236 137.731 45.2579 135.52C42.0817 133.436 39.1401 130.837 36.3158 128.311C33.3922 125.694 30.6852 122.843 28.6459 119.468C28.4023 119.035 26.7781 119.702 26.9045 119.919Z" fill="#F4D6A0"/>
<path d="M151.832 89.4021C149.901 88.0757 149.116 85.3596 150.153 83.2392C150.451 82.6256 150.884 82.0932 151.227 81.5157C151.579 80.9292 151.841 80.3156 152.075 79.6749C152.544 78.4207 152.923 77.1214 153.889 76.1378C154.286 75.7318 153.88 75.2625 153.447 75.1903C150.631 74.7121 147.609 74.3963 144.748 74.667C143.602 74.7753 142.583 75.2084 141.888 76.1468C141.301 76.9409 141.022 78.0147 140.264 78.6734C139.379 79.4494 140.742 80.1442 141.437 79.5396C142.131 78.926 142.538 78.1681 142.971 77.365C143.494 76.4085 143.963 76.0386 145.091 75.9934C147.69 75.8852 150.298 76.0927 152.86 76.5258C152.716 76.21 152.562 75.8942 152.418 75.5783C151.371 76.6521 150.92 78.0688 150.406 79.4403C150.135 80.1712 149.819 80.866 149.395 81.5247C148.971 82.1744 148.511 82.806 148.249 83.546C147.374 86.0454 148.313 88.96 150.496 90.4578C151.173 90.918 152.671 89.9796 151.832 89.4021Z" fill="#F4D6A0"/>
<path d="M81.3773 84.3942C82.0902 82.1744 80.6645 79.711 78.5169 78.9802C78.1199 78.8448 77.5695 79.0072 77.2807 79.314C77.01 79.6118 77.1183 79.9456 77.4883 80.072C77.5514 80.09 77.6146 80.1171 77.6778 80.1351C77.8131 80.1893 77.6146 80.099 77.7499 80.1712C77.8492 80.2254 77.9394 80.2705 78.0387 80.3246C78.147 80.3878 78.2553 80.469 78.3636 80.5412C78.4628 80.6224 78.4989 80.6495 78.544 80.6856C78.7154 80.848 78.8779 81.0284 79.0222 81.227C79.1486 81.3984 79.311 81.6601 79.3832 81.7954C79.8163 82.6887 79.9246 83.6091 79.6178 84.5475C79.5726 84.7009 79.708 84.8634 79.8163 84.9356C79.9787 85.0348 80.2223 85.0619 80.4028 85.0438C80.8179 85.0077 81.242 84.8092 81.3773 84.3942Z" fill="#F4D6A0"/>
<path d="M129.778 87.3718L101.996 87.6876C97.3665 87.7327 92.7376 87.841 88.1086 87.7779C83.4796 87.6967 78.8506 87.6335 74.2217 87.3718V87.2816C78.8506 87.0199 83.4796 86.9567 88.1086 86.8755C92.7376 86.8124 97.3665 86.9207 101.996 86.9658L129.778 87.2816V87.3718Z" fill="#AA6C00" fill-opacity="0.7"/>
</g>
</svg>
