<svg width="121" height="40" viewBox="0 0 121 40" fill="none" xmlns="http://www.w3.org/2000/svg">
<g clip-path="url(#clip0)">
<path d="M111.051 0.00013H9.61403C9.24428 0.00013 8.87897 0.00013 8.51019 0.00213C8.2015 0.00413 7.89526 0.00994 7.5836 0.01483C6.90652 0.0227318 6.23104 0.0818063 5.56302 0.19154C4.89594 0.303663 4.24975 0.515046 3.64632 0.81854C3.04362 1.1246 2.49292 1.5223 2.0142 1.9972C1.53296 2.47077 1.13181 3.01815 0.826169 3.61829C0.51969 4.21724 0.307176 4.85907 0.195968 5.52161C0.0837018 6.18332 0.0232906 6.85265 0.0152761 7.52361C0.00591885 7.83021 0.0049307 8.13783 0 8.44447V31.5587C0.0049307 31.8692 0.00591885 32.17 0.0152761 32.4806C0.0232931 33.1516 0.0837043 33.8209 0.195968 34.4825C0.306869 35.1455 0.519395 35.7877 0.826169 36.3868C1.13167 36.985 1.53287 37.5302 2.0142 38.0011C2.49111 38.4781 3.04216 38.8761 3.64632 39.1798C4.24975 39.4841 4.89586 39.6968 5.56302 39.8106C6.23115 39.9195 6.90656 39.9786 7.5836 39.9874C7.89526 39.9942 8.2015 39.9981 8.51019 39.9981C8.87896 40.0001 9.2443 40.0001 9.61403 40.0001H111.051C111.414 40.0001 111.782 40.0001 112.144 39.9981C112.452 39.9981 112.767 39.9942 113.074 39.9874C113.75 39.9791 114.424 39.92 115.091 39.8106C115.76 39.696 116.408 39.4834 117.015 39.1798C117.618 38.8759 118.169 38.478 118.645 38.0011C119.125 37.5284 119.528 36.9836 119.837 36.3868C120.141 35.7872 120.352 35.1451 120.461 34.4825C120.573 33.8208 120.636 33.1516 120.648 32.4806C120.652 32.17 120.652 31.8692 120.652 31.5587C120.66 31.1954 120.66 30.8341 120.66 30.4649V9.53626C120.66 9.17005 120.66 8.80677 120.652 8.44447C120.652 8.13783 120.652 7.83021 120.648 7.52357C120.636 6.85255 120.574 6.18337 120.461 5.52157C120.351 4.85941 120.141 4.21763 119.837 3.61825C119.214 2.41533 118.227 1.43616 117.015 0.81845C116.408 0.515697 115.76 0.30437 115.091 0.19145C114.424 0.0812328 113.75 0.0221378 113.074 0.01469C112.767 0.00981 112.452 0.00395 112.144 0.002C111.782 0 111.414 0 111.051 0V0.00013Z" fill="black"/>
<path d="M8.51509 39.125C8.20787 39.125 7.90808 39.1211 7.60327 39.1143C6.97184 39.1061 6.34189 39.0516 5.71858 38.9512C5.13737 38.8519 4.57433 38.6673 4.04805 38.4033C3.52658 38.1415 3.05097 37.7983 2.63942 37.3867C2.22191 36.98 1.87432 36.5082 1.61042 35.9902C1.3436 35.4688 1.15895 34.9099 1.0629 34.333C0.959165 33.7131 0.903042 33.0863 0.895011 32.458C0.888618 32.2471 0.880249 31.5449 0.880249 31.5449V8.44434C0.880249 8.44434 0.889163 7.75293 0.895061 7.5498C0.902751 6.92248 0.958548 6.29665 1.06197 5.67773C1.1582 5.09925 1.343 4.53875 1.60995 4.01563C1.87289 3.49794 2.21855 3.02586 2.63354 2.61768C3.04807 2.20562 3.5252 1.8606 4.04755 1.59521C4.57263 1.33209 5.1346 1.14873 5.71463 1.05127C6.33999 0.949836 6.97213 0.894996 7.60575 0.88721L8.51558 0.875H112.139L113.06 0.8877C113.688 0.895099 114.314 0.94945 114.934 1.05029C115.52 1.14898 116.088 1.33362 116.619 1.59814C117.665 2.13299 118.517 2.97916 119.054 4.01807C119.317 4.53758 119.499 5.09351 119.594 5.66699C119.698 6.29099 119.757 6.92174 119.769 7.5542C119.772 7.8374 119.772 8.1416 119.772 8.44434C119.78 8.81934 119.78 9.17627 119.78 9.53613V30.4648C119.78 30.8281 119.78 31.1826 119.772 31.54C119.772 31.8652 119.772 32.1631 119.768 32.4697C119.756 33.0909 119.698 33.7104 119.595 34.3232C119.501 34.9043 119.318 35.4675 119.051 35.9932C118.785 36.5056 118.44 36.9733 118.027 37.3789C117.615 37.7927 117.139 38.1379 116.616 38.4014C116.086 38.6674 115.519 38.8527 114.934 38.9512C114.311 39.0522 113.681 39.1067 113.049 39.1143C112.754 39.1211 112.445 39.125 112.144 39.125L111.051 39.127L8.51509 39.125Z" fill="white"/>
<path d="M25.2048 19.8887C25.216 19.0208 25.4485 18.1697 25.8805 17.4148C26.3126 16.6599 26.9301 16.0256 27.6757 15.571C27.2021 14.9001 26.5772 14.348 25.8507 13.9585C25.1242 13.569 24.3162 13.3529 23.4908 13.3272C21.73 13.1439 20.023 14.3722 19.1258 14.3722C18.2111 14.3722 16.8297 13.3454 15.3421 13.3758C14.3798 13.4066 13.4421 13.6841 12.6201 14.1813C11.7982 14.6784 11.1201 15.3782 10.652 16.2125C8.62413 19.6945 10.1367 24.8119 12.0793 27.6265C13.0512 29.0047 14.187 30.5442 15.6733 30.4896C17.1277 30.4298 17.6709 29.5699 19.4265 29.5699C21.1658 29.5699 21.6754 30.4896 23.1918 30.4549C24.7525 30.4298 25.7358 29.0706 26.6736 27.6793C27.3719 26.6973 27.9092 25.6119 28.2657 24.4634C27.359 24.0831 26.5853 23.4465 26.041 22.633C25.4966 21.8195 25.2058 20.865 25.2048 19.8887Z" fill="black"/>
<path d="M22.3405 11.4766C23.1914 10.4635 23.6107 9.16135 23.5092 7.84668C22.2091 7.98209 21.0083 8.59829 20.1458 9.5725C19.7242 10.0484 19.4012 10.6021 19.1955 11.2019C18.9897 11.8017 18.9051 12.4358 18.9466 13.068C19.5968 13.0746 20.2401 12.9349 20.828 12.6592C21.4159 12.3835 21.933 11.9792 22.3405 11.4766Z" fill="black"/>
<path d="M42.6539 27.1397H37.8811L36.7349 30.4961H34.7133L39.234 18.0781H41.3344L45.8551 30.4961H43.7991L42.6539 27.1397ZM38.3754 25.5908H42.1586L40.2936 20.1436H40.2414L38.3754 25.5908Z" fill="black"/>
<path d="M55.6183 25.9695C55.6183 28.7829 54.0999 30.5905 51.8085 30.5905C51.2281 30.6207 50.6508 30.4881 50.1428 30.2079C49.6349 29.9278 49.2167 29.5114 48.9362 29.0065H48.8928V33.4909H47.019V21.4421H48.8328V22.948H48.8672C49.1606 22.4455 49.5859 22.0313 50.0977 21.7495C50.6096 21.4676 51.1889 21.3287 51.774 21.3474C54.0911 21.3474 55.6183 23.1638 55.6183 25.9695ZM53.6923 25.9695C53.6923 24.1365 52.7371 22.9314 51.2798 22.9314C49.848 22.9314 48.885 24.1618 48.885 25.9695C48.885 27.7937 49.848 29.0154 51.2798 29.0154C52.7371 29.0154 53.6922 27.8191 53.6922 25.9695H53.6923Z" fill="black"/>
<path d="M65.6665 25.9695C65.6665 28.7829 64.1476 30.5905 61.8563 30.5905C61.2758 30.6207 60.6986 30.4881 60.1906 30.2079C59.6826 29.9278 59.2644 29.5114 58.9839 29.0065H58.9406V33.4909H57.0667V21.4421H58.8805V22.948H58.915C59.2084 22.4455 59.6336 22.0313 60.1454 21.7495C60.6573 21.4676 61.2366 21.3287 61.8218 21.3474C64.1388 21.3474 65.6665 23.1638 65.6665 25.9695ZM63.74 25.9695C63.74 24.1365 62.7848 22.9314 61.3275 22.9314C59.8958 22.9314 58.9327 24.1618 58.9327 25.9695C58.9327 27.7937 59.8958 29.0154 61.3275 29.0154C62.7848 29.0154 63.74 27.8191 63.74 25.9695Z" fill="black"/>
<path d="M72.3063 27.0362C72.4452 28.2676 73.6514 29.0762 75.2998 29.0762C76.8792 29.0762 78.0156 28.2676 78.0156 27.1572C78.0156 26.1934 77.3302 25.6162 75.7075 25.2207L74.0847 24.833C71.7855 24.2822 70.718 23.2158 70.718 21.4854C70.718 19.3428 72.6008 17.8711 75.2732 17.8711C77.9201 17.8711 79.7339 19.3428 79.7949 21.4854H77.9033C77.7901 20.2461 76.7571 19.4981 75.2476 19.4981C73.7381 19.4981 72.7051 20.2549 72.7051 21.3565C72.7051 22.2344 73.3649 22.751 74.9788 23.1465L76.3583 23.4824C78.9274 24.0849 79.9938 25.1084 79.9938 26.9248C79.9938 29.248 78.1288 30.7031 75.1609 30.7031C72.3841 30.7031 70.5092 29.2822 70.3881 27.0361L72.3063 27.0362Z" fill="black"/>
<path d="M84.0399 19.2998V21.4424H85.7759V22.9141H84.0399V27.9053C84.0399 28.6807 84.3875 29.042 85.1506 29.042C85.3567 29.0384 85.5625 29.0241 85.7671 28.999V30.4619C85.424 30.5255 85.0752 30.5543 84.7262 30.5478C82.878 30.5478 82.1572 29.8593 82.1572 28.1035V22.9141H80.8298V21.4424H82.1572V19.2998H84.0399Z" fill="black"/>
<path d="M86.7803 25.9697C86.7803 23.1211 88.472 21.3311 91.11 21.3311C93.7569 21.3311 95.4407 23.1211 95.4407 25.9697C95.4407 28.8262 93.7657 30.6084 91.11 30.6084C88.4553 30.6084 86.7803 28.8262 86.7803 25.9697ZM93.5314 25.9697C93.5314 24.0156 92.6284 22.8623 91.11 22.8623C89.5916 22.8623 88.6887 24.0244 88.6887 25.9697C88.6887 27.9316 89.5916 29.0762 91.11 29.0762C92.6284 29.0762 93.5313 27.9316 93.5313 25.9697H93.5314Z" fill="black"/>
<path d="M96.9856 21.442H98.7728V22.983H98.8162C98.9371 22.5017 99.2214 22.0764 99.6213 21.7785C100.021 21.4806 100.512 21.3284 101.012 21.3473C101.228 21.3465 101.443 21.3698 101.654 21.4166V23.1549C101.381 23.0723 101.097 23.0343 100.812 23.0426C100.54 23.0316 100.268 23.0792 100.017 23.1821C99.7646 23.285 99.5382 23.4408 99.3526 23.6386C99.1671 23.8365 99.027 24.0719 98.9419 24.3286C98.8568 24.5852 98.8286 24.8571 98.8595 25.1256V30.4957H96.9856L96.9856 21.442Z" fill="black"/>
<path d="M110.294 27.8369C110.042 29.4805 108.428 30.6084 106.363 30.6084C103.707 30.6084 102.059 28.8437 102.059 26.0127C102.059 23.1729 103.716 21.3311 106.284 21.3311C108.81 21.3311 110.398 23.0518 110.398 25.7969V26.4336H103.95V26.5459C103.921 26.8791 103.963 27.2148 104.074 27.5306C104.185 27.8464 104.362 28.1352 104.595 28.3778C104.827 28.6203 105.109 28.8111 105.421 28.9374C105.733 29.0637 106.069 29.1226 106.406 29.1103C106.849 29.1515 107.293 29.0498 107.673 28.8203C108.053 28.5909 108.348 28.246 108.514 27.8369L110.294 27.8369ZM103.959 25.1348H108.523C108.54 24.8352 108.494 24.5354 108.389 24.2541C108.283 23.9729 108.12 23.7164 107.91 23.5006C107.7 23.2849 107.447 23.1145 107.167 23.0003C106.887 22.8861 106.587 22.8305 106.284 22.8369C105.979 22.8351 105.676 22.8933 105.394 23.008C105.112 23.1227 104.855 23.2918 104.639 23.5054C104.423 23.7191 104.251 23.973 104.135 24.2527C104.018 24.5323 103.958 24.8321 103.959 25.1348V25.1348Z" fill="black"/>
<path d="M38.141 8.73138C38.5338 8.70342 38.9281 8.76228 39.2952 8.90371C39.6623 9.04515 39.9933 9.26563 40.2641 9.54925C40.5349 9.83288 40.7389 10.1726 40.8613 10.5438C40.9837 10.9151 41.0215 11.3087 40.972 11.6962C40.972 13.6025 39.9331 14.6982 38.141 14.6982H35.9678V8.73138H38.141ZM36.9022 13.8544H38.0366C38.3173 13.871 38.5983 13.8254 38.8589 13.7208C39.1196 13.6161 39.3535 13.4552 39.5436 13.2496C39.7336 13.0441 39.8751 12.7991 39.9576 12.5324C40.0402 12.2658 40.0617 11.9843 40.0207 11.7084C40.0588 11.4335 40.035 11.1538 39.9512 10.8891C39.8674 10.6244 39.7256 10.3814 39.536 10.1775C39.3463 9.97358 39.1136 9.81378 38.8544 9.70954C38.5951 9.6053 38.3159 9.55922 38.0366 9.57459H36.9022V13.8544Z" fill="black"/>
<path d="M42.0276 12.4448C41.999 12.1489 42.0332 11.8503 42.1278 11.5682C42.2224 11.2862 42.3754 11.0268 42.577 10.8068C42.7786 10.5868 43.0244 10.4111 43.2985 10.2908C43.5726 10.1705 43.869 10.1084 44.1688 10.1084C44.4685 10.1084 44.765 10.1705 45.0391 10.2908C45.3132 10.4111 45.5589 10.5868 45.7605 10.8068C45.9621 11.0268 46.1152 11.2862 46.2098 11.5682C46.3044 11.8503 46.3385 12.1489 46.31 12.4448C46.3391 12.741 46.3054 13.04 46.211 13.3225C46.1166 13.605 45.9637 13.8648 45.762 14.0853C45.5604 14.3057 45.3144 14.4818 45.0401 14.6023C44.7657 14.7229 44.4689 14.7851 44.1688 14.7851C43.8687 14.7851 43.5719 14.7229 43.2975 14.6023C43.0231 14.4818 42.7772 14.3057 42.5756 14.0853C42.3739 13.8648 42.221 13.605 42.1266 13.3225C42.0322 13.04 41.9985 12.741 42.0276 12.4448ZM45.3883 12.4448C45.3883 11.4687 44.9462 10.8979 44.1703 10.8979C43.3914 10.8979 42.9532 11.4687 42.9532 12.4448C42.9532 13.4287 43.3914 13.9951 44.1703 13.9951C44.9462 13.9951 45.3883 13.4248 45.3883 12.4448H45.3883Z" fill="black"/>
<path d="M52.0025 14.6982H51.0729L50.1345 11.3818H50.0636L49.1291 14.6982H48.2085L46.9569 10.1953H47.8658L48.6791 13.6313H48.7461L49.6796 10.1953H50.5392L51.4727 13.6313H51.5436L52.353 10.1953H53.2491L52.0025 14.6982Z" fill="black"/>
<path d="M54.3017 10.1949H55.1643V10.9102H55.2312C55.3448 10.6533 55.5364 10.4379 55.7793 10.2941C56.0222 10.1503 56.3042 10.0852 56.5862 10.1079C56.8071 10.0915 57.0289 10.1245 57.2352 10.2046C57.4415 10.2847 57.627 10.4098 57.778 10.5707C57.9289 10.7315 58.0414 10.924 58.1071 11.1338C58.1729 11.3436 58.1902 11.5654 58.1577 11.7827V14.6977H57.2617V12.0059C57.2617 11.2823 56.9446 10.9224 56.2819 10.9224C56.1319 10.9155 55.9822 10.9408 55.843 10.9966C55.7038 11.0525 55.5784 11.1375 55.4754 11.2459C55.3724 11.3543 55.2943 11.4834 55.2464 11.6246C55.1985 11.7657 55.1819 11.9154 55.1978 12.0635V14.6978H54.3017L54.3017 10.1949Z" fill="black"/>
<path d="M59.5856 8.4375H60.4816V14.6982H59.5856V8.4375Z" fill="black"/>
<path d="M61.7273 12.4449C61.6987 12.1489 61.7329 11.8503 61.8275 11.5683C61.9222 11.2862 62.0752 11.0268 62.2769 10.8068C62.4785 10.5869 62.7242 10.4111 62.9984 10.2908C63.2725 10.1705 63.569 10.1084 63.8687 10.1084C64.1685 10.1084 64.4649 10.1705 64.7391 10.2908C65.0132 10.4111 65.259 10.5869 65.4606 10.8068C65.6622 11.0268 65.8153 11.2862 65.9099 11.5683C66.0045 11.8503 66.0387 12.1489 66.0102 12.4449C66.0392 12.7411 66.0055 13.0401 65.9111 13.3226C65.8167 13.6051 65.6637 13.8649 65.462 14.0853C65.2604 14.3058 65.0144 14.4819 64.74 14.6024C64.4656 14.7229 64.1688 14.7852 63.8687 14.7852C63.5686 14.7852 63.2718 14.7229 62.9974 14.6024C62.723 14.4819 62.4771 14.3058 62.2754 14.0853C62.0737 13.8649 61.9208 13.6051 61.8264 13.3226C61.732 13.0401 61.6982 12.7411 61.7273 12.4449ZM65.088 12.4449C65.088 11.4688 64.6459 10.898 63.87 10.898C63.0911 10.898 62.6529 11.4688 62.6529 12.4449C62.6529 13.4288 63.0911 13.9952 63.87 13.9952C64.6459 13.9952 65.088 13.4248 65.088 12.4449H65.088Z" fill="black"/>
<path d="M66.9535 13.4248C66.9535 12.6142 67.562 12.147 68.6422 12.0806L69.8721 12.0102V11.6216C69.8721 11.146 69.555 10.8774 68.9426 10.8774C68.4423 10.8774 68.0957 11.0596 67.9963 11.3779H67.1288C67.2203 10.6045 67.9539 10.1084 68.9839 10.1084C70.1222 10.1084 70.7642 10.6704 70.7642 11.6216V14.6982H69.9017V14.0654H69.8308C69.6869 14.2924 69.4848 14.4775 69.2452 14.6017C69.0056 14.7259 68.737 14.7848 68.467 14.7724C68.2764 14.7921 68.0837 14.7719 67.9014 14.7132C67.7192 14.6545 67.5513 14.5586 67.4087 14.4316C67.2661 14.3047 67.152 14.1495 67.0736 13.9761C66.9951 13.8026 66.9542 13.6149 66.9535 13.4248ZM69.8721 13.04V12.6636L68.7634 12.7339C68.1381 12.7754 67.8545 12.9863 67.8545 13.3833C67.8545 13.7886 68.209 14.0244 68.6964 14.0244C68.8392 14.0387 68.9835 14.0244 69.1207 13.9823C69.2578 13.9403 69.385 13.8712 69.4947 13.7794C69.6044 13.6876 69.6943 13.5748 69.7592 13.4477C69.824 13.3207 69.8624 13.1821 69.8721 13.04Z" fill="black"/>
<path d="M71.942 12.4448C71.942 11.022 72.6795 10.1206 73.8267 10.1206C74.1104 10.1077 74.392 10.1751 74.6386 10.315C74.8852 10.4548 75.0865 10.6615 75.219 10.9106H75.286V8.4375H76.182V14.6982H75.3234V13.9868H75.2525C75.1097 14.2343 74.9014 14.4383 74.65 14.5768C74.3987 14.7153 74.114 14.783 73.8267 14.7724C72.6716 14.7725 71.942 13.8711 71.942 12.4448ZM72.8676 12.4448C72.8676 13.3999 73.3215 13.9746 74.0807 13.9746C74.836 13.9746 75.3027 13.3916 75.3027 12.4487C75.3027 11.5103 74.8311 10.919 74.0807 10.919C73.3264 10.919 72.8676 11.4976 72.8676 12.4448H72.8676Z" fill="black"/>
<path d="M79.8894 12.4448C79.8609 12.1489 79.895 11.8503 79.9896 11.5682C80.0842 11.2862 80.2373 11.0268 80.4389 10.8068C80.6405 10.5868 80.8862 10.4111 81.1603 10.2908C81.4344 10.1705 81.7309 10.1084 82.0306 10.1084C82.3304 10.1084 82.6268 10.1705 82.9009 10.2908C83.175 10.4111 83.4207 10.5868 83.6224 10.8068C83.824 11.0268 83.977 11.2862 84.0716 11.5682C84.1662 11.8503 84.2004 12.1489 84.1718 12.4448C84.2009 12.741 84.1672 13.04 84.0728 13.3225C83.9784 13.605 83.8255 13.8648 83.6238 14.0853C83.4222 14.3057 83.1763 14.4818 82.9019 14.6023C82.6275 14.7229 82.3307 14.7851 82.0306 14.7851C81.7305 14.7851 81.4337 14.7229 81.1593 14.6023C80.8849 14.4818 80.639 14.3057 80.4374 14.0853C80.2357 13.8648 80.0828 13.605 79.9884 13.3225C79.894 13.04 79.8603 12.741 79.8894 12.4448ZM83.2501 12.4448C83.2501 11.4687 82.808 10.8979 82.0321 10.8979C81.2532 10.8979 80.815 11.4687 80.815 12.4448C80.815 13.4287 81.2532 13.9951 82.0321 13.9951C82.808 13.9951 83.2501 13.4248 83.2501 12.4448Z" fill="black"/>
<path d="M85.3741 10.1949H86.2367V10.9102H86.3036C86.4172 10.6533 86.6088 10.4379 86.8517 10.2941C87.0946 10.1503 87.3766 10.0852 87.6586 10.1079C87.8795 10.0915 88.1013 10.1245 88.3076 10.2046C88.5139 10.2847 88.6994 10.4098 88.8503 10.5707C89.0013 10.7315 89.1138 10.924 89.1795 11.1338C89.2453 11.3436 89.2626 11.5654 89.2301 11.7827V14.6977H88.3341V12.0059C88.3341 11.2823 88.017 10.9224 87.3543 10.9224C87.2043 10.9155 87.0546 10.9408 86.9154 10.9966C86.7762 11.0525 86.6508 11.1375 86.5478 11.2459C86.4448 11.3543 86.3667 11.4834 86.3188 11.6246C86.2708 11.7657 86.2543 11.9154 86.2702 12.0635V14.6978H85.3741V10.1949Z" fill="black"/>
<path d="M94.2934 9.07422V10.2158H95.2772V10.9644H94.2934V13.2798C94.2934 13.7515 94.4894 13.958 94.9355 13.958C95.0497 13.9576 95.1638 13.9508 95.2772 13.9375V14.6777C95.1162 14.7063 94.9532 14.7215 94.7897 14.7231C93.7932 14.7231 93.3964 14.3755 93.3964 13.5073V10.9643H92.6756V10.2158H93.3964V9.07422H94.2934Z" fill="black"/>
<path d="M96.5011 8.4375H97.3893V10.919H97.4602C97.5793 10.6596 97.7761 10.443 98.0239 10.2987C98.2716 10.1543 98.5582 10.0893 98.8446 10.1123C99.0644 10.1004 99.2841 10.1368 99.488 10.2189C99.692 10.3009 99.8752 10.4266 100.025 10.5869C100.174 10.7473 100.286 10.9383 100.352 11.1465C100.418 11.3546 100.438 11.5747 100.408 11.791V14.6982H99.5113V12.0103C99.5113 11.291 99.1735 10.9268 98.5404 10.9268C98.3864 10.9142 98.2315 10.9352 98.0865 10.9883C97.9416 11.0413 97.81 11.1252 97.7011 11.2339C97.5922 11.3426 97.5086 11.4737 97.4561 11.6178C97.4036 11.7619 97.3835 11.9157 97.3972 12.0683V14.6982H96.5011L96.5011 8.4375Z" fill="black"/>
<path d="M105.633 13.4825C105.511 13.894 105.248 14.25 104.888 14.4882C104.528 14.7263 104.096 14.8315 103.666 14.7852C103.367 14.7931 103.069 14.7362 102.795 14.6187C102.52 14.5012 102.274 14.3258 102.075 14.1046C101.875 13.8835 101.726 13.6219 101.639 13.3381C101.551 13.0543 101.527 12.755 101.568 12.461C101.528 12.1661 101.553 11.8662 101.64 11.5815C101.727 11.2969 101.875 11.0341 102.074 10.811C102.272 10.5879 102.517 10.4098 102.791 10.2886C103.065 10.1674 103.362 10.1059 103.662 10.1085C104.925 10.1085 105.687 10.9645 105.687 12.3785V12.6886H102.481V12.7384C102.467 12.9036 102.488 13.0699 102.543 13.2267C102.597 13.3834 102.684 13.5271 102.798 13.6486C102.912 13.7701 103.05 13.8666 103.204 13.932C103.357 13.9974 103.523 14.0302 103.69 14.0284C103.905 14.0539 104.122 14.0156 104.314 13.9184C104.507 13.8212 104.665 13.6694 104.771 13.4825L105.633 13.4825ZM102.481 12.0313H104.774C104.786 11.8802 104.765 11.7284 104.714 11.5857C104.662 11.443 104.581 11.3125 104.476 11.2026C104.371 11.0928 104.244 11.006 104.102 10.9478C103.961 10.8896 103.81 10.8613 103.657 10.8648C103.502 10.8629 103.348 10.8917 103.204 10.9497C103.061 11.0076 102.931 11.0935 102.821 11.2022C102.711 11.3109 102.625 11.4403 102.566 11.5827C102.508 11.7251 102.479 11.8776 102.481 12.0313H102.481Z" fill="black"/>
</g>
<defs>
<clipPath id="clip0">
<rect width="120.66" height="40" fill="white"/>
</clipPath>
</defs>
</svg>
