<svg width="394" height="407" viewBox="0 0 394 407" fill="none" xmlns="http://www.w3.org/2000/svg">
<path d="M146.201 364.716C143.438 365.241 141.421 367.286 140.233 369.773C138.769 372.84 138.796 376.432 138.824 379.747C138.852 381.516 136.089 381.516 136.061 379.747C136.006 375.824 136.144 371.734 137.94 368.17C139.404 365.213 142.112 362.699 145.455 362.063C146.201 361.925 146.947 362.257 147.168 363.031C147.362 363.694 146.947 364.578 146.201 364.716Z" fill="#B3E8E6"/>
<path d="M93.8673 399.255C86.7661 393.784 77.3991 393.425 68.8059 393.507C59.66 393.59 50.21 394.668 42.3075 399.669C40.7878 400.609 39.4063 398.232 40.926 397.293C49.2153 392.043 59.1902 390.855 68.8059 390.772C77.8689 390.689 87.7885 391.159 95.2765 396.906C96.6304 397.956 95.2765 400.332 93.8673 399.255Z" fill="#B3E8E6"/>
<path d="M190.433 6.86046L205.335 7.85088L220.218 8.99874C225.177 9.39447 230.167 9.53446 235.085 10.2844C240.006 11.0146 244.913 11.8629 249.782 13.2054L249.748 13.5005C244.709 13.7935 239.729 13.5749 234.762 13.2382C229.794 12.9212 224.894 12.0139 219.964 11.3623L205.183 9.32895L190.399 7.15567L190.433 6.86046Z" fill="#00254D"/>
<path d="M183.294 44.9315L198.219 44.4223L213.143 44.0717C218.117 43.968 223.095 43.6069 228.064 43.8597C233.033 44.0927 238 44.4445 242.98 45.2919L242.976 45.5889C237.991 46.3858 233.014 46.6679 228.039 46.831C223.064 47.0139 218.097 46.6026 213.127 46.4488L198.217 45.9082L183.289 45.2287L183.294 44.9315Z" fill="#00254D"/>
<path d="M183.889 80.0242L198.48 76.8389L213.096 73.81C217.971 72.8134 222.803 71.5628 227.736 70.9178C232.666 70.2533 237.616 69.706 242.667 69.6439L242.716 69.9369C237.956 71.6174 233.111 72.7899 228.246 73.8452C223.385 74.92 218.425 75.4086 213.508 76.1512L198.744 78.301L183.938 80.3173L183.889 80.0242Z" fill="#00254D"/>
<path d="M236.983 14.0061C227.034 13.6906 217.148 12.4606 207.425 10.3289C206.945 10.2173 206.021 10.2322 205.614 10.5841C205.294 10.8561 205.133 11.1088 205.7 11.2443C215.601 13.4111 225.667 14.6634 235.794 15.0011C236.208 15.0137 237.286 15.0178 237.521 14.5924C237.757 14.1542 237.45 14.0122 236.983 14.0061Z" fill="#B3E8E6"/>
<path d="M230.326 47.3722C220.396 48.0561 210.436 47.824 200.548 46.6782C200.06 46.6152 199.142 46.7228 198.772 47.1138C198.481 47.4164 198.346 47.684 198.924 47.762C208.992 48.9249 219.133 49.1612 229.243 48.4815C229.657 48.4524 230.729 48.3485 230.92 47.9017C231.111 47.442 230.791 47.3315 230.326 47.3722Z" fill="#B3E8E6"/>
<path d="M230.594 73.9662C220.949 76.425 211.109 77.988 201.176 78.6392C200.685 78.6651 199.801 78.936 199.507 79.3872C199.276 79.7372 199.191 80.0248 199.774 79.9974C209.887 79.3306 219.905 77.7393 229.728 75.2522C230.129 75.1493 231.166 74.8541 231.273 74.3803C231.378 73.8937 231.044 73.8425 230.594 73.9662Z" fill="#B3E8E6"/>
<path d="M271.286 7.73486C271.343 8.38622 271.382 9.05678 271.439 9.70814C275.711 12.4093 280.462 10.8959 284.255 9.57402C290.712 7.35175 293.509 8.80772 296.42 14.9573C300.482 23.5207 306.018 31.3561 307.781 40.9348C308.107 42.6973 308.892 44.6897 311.517 44.1724C309.467 33.5975 315.31 24.6893 317.743 15.0722C318.873 10.5894 323.184 12.4859 327.283 11.4322C314.697 3.19452 301.976 1.06808 288.508 1.94932C282.225 2.23668 276.784 5.07197 271.286 7.73486Z" fill="#B4E8E6"/>
<path d="M374.811 300.71C374.716 302.281 374.428 303.756 372.857 304.599C369.888 310.001 369.466 316.247 367.11 321.841C366.727 326.17 364.236 329.484 361.612 332.626C359.466 335.193 358.259 337.76 359.524 341.056C368.01 331.783 374.811 321.649 376.267 308.737C376.593 305.902 377.436 302.99 374.811 300.71Z" fill="#B3E8E6"/>
<path d="M319.6 365.06C318.565 367.972 314.293 370.827 319.446 373.853C328.968 369.677 333.336 359.255 342.627 354.811C342.359 354.428 342.091 354.026 341.822 353.642C338.508 351.746 335.462 352.723 332.493 354.466C328.795 356.765 325.404 359.505 321.956 362.167C320.96 362.953 320.194 363.949 319.6 365.06Z" fill="#B3E8E6"/>
<path d="M357.646 342.952C354.792 342.531 352.263 343.623 349.715 344.715C346.382 342.493 343.527 344.236 340.635 345.788C339.964 346.439 339.619 347.225 339.581 348.144C339.753 351.228 345.156 350.558 344.16 354.485C350.501 352.799 353.93 347.703 357.646 342.952Z" fill="#B3E8E6"/>
<path d="M376.689 212.682C374.333 210.804 374.831 208.141 374.831 205.651C374.85 176.589 370.138 147.968 367.053 119.193C366.804 116.798 366.555 114.231 363.241 116.952C359.639 120.726 361.21 125.209 361.44 129.576C363.145 164.635 369.199 199.348 370.195 234.464C370.329 238.908 370.118 243.334 369.429 247.721C369.295 251.82 365.961 254.751 365.31 258.679C364.888 263.928 367.13 264.541 370.329 261.035C374.678 256.265 376.804 250.422 376.747 243.813C376.651 233.448 376.689 223.065 376.689 212.682Z" fill="#B3E8E6"/>
<path d="M363.298 252.931C366.095 253.238 368.566 252.223 370.98 251.016C373.547 248.793 372.762 245.747 372.838 242.989C373.451 219.444 370.003 196.206 367.704 172.872C365.884 154.27 364.696 135.611 363.24 116.971C359.217 109.825 361.631 101.089 357.57 93.9434C355.807 90.4184 355.328 86.3379 352.934 83.0811C351.229 80.6673 348.815 79.4411 346.056 78.694C338.7 77.8511 331.841 74.7859 323.776 77.3721C316.726 79.6327 315.059 71.6632 311.956 67.1229C311.017 66.7206 310.136 66.7973 309.293 67.3912C306.917 70.3414 307.262 73.7514 307.53 77.1806C307.894 79.5753 308.699 81.7784 310.059 83.79C310.615 84.5371 311.324 85.131 312.128 85.5908C314.619 86.587 317.262 87.0467 319.868 87.6215C324.217 87.6789 328.412 86.4911 332.723 86.2421C333.546 86.108 334.37 85.8972 335.175 85.6482C338.489 84.4796 341.573 84.6328 344.255 87.2191C349.619 91.4338 351.612 97.0087 351.267 103.695C351.056 107.718 351.114 111.798 352.263 115.764C355.213 133.791 356.918 151.952 358.662 170.114C359.102 174.807 358.623 179.597 360.654 184.041C365.118 190.229 363.624 197.394 363.834 204.29C363.968 205.172 364.217 206.034 364.524 206.877C367.187 214.693 368.355 222.777 368.528 231.015C368.605 234.923 368.145 238.621 364.601 241.111C363.183 242.241 361.612 243.123 360.156 244.215C356.593 248.755 359.792 250.901 363.298 252.931Z" fill="#B3E8E6"/>
<path d="M346.21 80.399C348.068 81.7209 349.907 83.0619 351.766 84.3838C353.471 86.5103 354.812 88.9816 357.455 90.1694C358.126 90.1694 358.796 90.1502 359.467 90.1502C359.122 83.2535 352.992 79.9968 349.831 74.8434C348.566 74.1729 347.302 73.5215 346.037 72.8509C343.93 71.8548 342.647 73.0809 341.459 74.5752C340.903 75.8779 340.884 77.1614 341.478 78.4641C342.723 79.92 344.869 79.2112 346.21 80.399Z" fill="#B3E8E6"/>
<path d="M365.194 205.018C364.39 217.777 369.045 230.555 365.194 243.314C367.838 241.954 370.539 240.077 370.635 237.088C370.961 226.072 371.593 214.923 365.194 205.018Z" fill="#B3E8E6"/>
<path d="M363.277 185.861C364.14 192.221 361.304 198.946 365.193 205.019C365.749 198.505 368.852 191.762 363.277 185.861Z" fill="#B3E8E6"/>
<path d="M307.74 78.6367C308.372 78.6176 308.985 78.6175 309.618 78.6175C309.637 74.786 309.675 70.9737 309.694 67.1422L309.599 67.123C303.583 70.0541 304.886 74.1921 307.683 78.5984L307.74 78.6367Z" fill="#D0F3F2"/>
<path d="M307.702 78.5981C308.334 74.7666 306.265 70.4945 309.618 67.1227C309.235 59.364 311.016 51.3562 306.399 42.6012C302.874 55.954 307.242 69.8431 298.2 80.533C298.775 82.6978 295.422 85.2074 297.587 86.4909C299.484 87.6021 302.415 86.4527 303.986 84.0197C305.154 82.1805 306.457 80.3989 307.702 78.5981Z" fill="#B3E8E6"/>
<path d="M257.931 40.3024C259.061 40.5131 260.402 41.835 261.264 40.4173C262.203 38.8464 261.379 37.4288 259.847 36.4709C259.234 36.4709 258.621 36.4709 258.008 36.4901C257.969 37.7545 257.95 39.038 257.931 40.3024Z" fill="#D6EFD6"/>
<path d="M319.236 306.534C319.236 304.618 319.255 302.702 319.255 300.787C314.849 300.25 312.301 303.009 310.04 306.112C303.584 315.021 297.454 324.12 285.346 326.381C280.71 327.243 282.243 330.998 283.239 334.044C290.174 344.447 301.745 346.132 312.416 349.523C313.278 349.906 314.197 350.117 315.117 350.232C317.818 350.041 320.538 349.37 323.22 350.462L324.121 350.5L325.021 350.481C326.401 348.125 325.979 346.516 323.144 345.807C319.312 344.849 315.5 343.814 311.669 342.799C306.63 339.791 301.209 337.377 296.4 333.776C298.182 330.691 300.481 328.68 303.086 326.917C307.262 323.565 310.902 319.638 315.098 316.266C317.99 313.986 320.73 310.959 319.236 306.534Z" fill="#B3E8E6"/>
<path d="M328.815 264.388C328.815 272.683 328.815 280.978 328.815 289.292C328.144 289.714 327.933 290.135 328.163 290.576C328.393 290.997 328.604 291.208 328.834 291.208C330.098 292.185 329.428 294.12 330.75 295.059C335.558 284.848 328.7 274.771 330.405 264.579C330.424 264.464 329.983 264.139 329.734 264.119C329.409 264.062 329.102 264.273 328.815 264.388Z" fill="#B3E8E6"/>
<path d="M330.729 295.039C330.672 293.468 330.346 292.032 328.814 291.189C329.274 294.407 327.549 298.047 330.672 300.748C330.691 299.465 330.71 298.2 330.729 296.917C330.71 296.285 330.71 295.671 330.729 295.039Z" fill="#D6EFD6"/>
<path d="M353.814 48.9809C352.78 39.019 348.508 29.536 342.454 21.5856C340.941 19.5932 339.331 17.6775 337.626 15.8192C335.902 13.9609 334.006 12.2943 332.013 10.7617C330.04 9.20996 327.837 7.86893 325.672 6.68117C323.507 5.45509 321.304 4.22898 319.024 3.17532C316.745 2.12165 314.35 1.20212 311.821 0.684867C309.273 0.1293 306.725 0.129265 304.216 0.110107C299.177 0.186737 294.12 0.799812 289.235 2.12168C284.349 3.42439 279.579 5.39763 275.326 8.2521C270.958 11.0491 267.567 15.1871 265.096 19.6125C262.567 24.057 260.805 28.8272 259.291 33.6358C257.797 38.4443 256.686 43.5019 256.705 48.7127C256.705 59.1344 261.226 69.1153 267.951 76.7975C274.79 84.4796 283.756 89.8821 293.2 93.3304C297.951 95.0163 302.798 96.4148 307.798 97.1619C312.779 97.8324 318.028 97.7558 322.703 95.8209L322.607 95.5527C317.856 97.0279 312.817 96.8554 308.009 95.8784C303.2 94.9205 298.468 93.3305 293.928 91.4722C284.867 87.7173 276.361 82.3532 270.135 74.9201C266.993 71.2419 264.387 67.123 262.567 62.6593C260.728 58.2339 259.598 53.4829 259.54 48.6935C259.426 43.9041 260.383 39.0956 261.744 34.3828C263.142 29.6701 264.771 25.0148 267.108 20.7427C269.426 16.4897 272.491 12.6583 276.514 9.99537C280.499 7.2367 285.039 5.28269 289.752 3.94166C294.465 2.60064 299.369 1.91096 304.273 1.77686C306.725 1.77686 309.197 1.7385 311.553 2.21744C313.929 2.67722 316.227 3.52017 318.469 4.51636C320.71 5.51255 322.894 6.66198 325.097 7.84975C327.32 9.01835 329.408 10.2253 331.381 11.7196C333.354 13.1947 335.251 14.7847 336.956 16.5472C338.661 18.348 340.289 20.2064 341.822 22.1413C347.952 29.8809 352.358 39.1531 353.585 49.0383L353.814 48.9809Z" fill="#00254D"/>
<path d="M357.626 49.9004C364.925 69.0387 372.243 88.2153 377.493 107.986C378.834 112.909 379.983 117.871 381.056 122.871C381.592 125.381 382.109 127.871 382.531 130.362C382.933 132.852 383.259 135.4 383.623 137.948C385.098 148.082 386.535 158.217 387.301 168.351C387.493 170.918 387.569 173.313 387.569 175.995L388.048 183.715C388.374 188.83 388.681 193.926 388.891 199.022C389.006 201.57 389.102 204.118 389.121 206.628L389.044 214.252C389.025 219.348 388.872 224.444 388.661 229.54C388.048 249.924 385.539 270.211 381.305 290.269L381.669 290.365C388.029 270.805 391.171 250.268 392.474 229.732C392.972 219.444 393.355 209.176 392.646 198.811C392.301 193.677 391.88 188.562 391.42 183.447L390.769 175.822C390.711 173.37 390.558 170.65 390.309 168.102C389.351 157.814 387.703 147.68 386.037 137.565C385.615 135.036 385.251 132.507 384.792 129.959C384.313 127.411 383.738 124.902 383.163 122.392C381.995 117.392 380.73 112.392 379.293 107.469C373.508 87.7172 365.711 68.713 357.933 49.7662L357.626 49.9004Z" fill="#00254D"/>
<path d="M381.42 290.288C379.083 301.419 374.83 312.09 369.446 322.051C364.025 331.937 357.32 341.477 348.028 347.837C343.45 351.094 337.856 352.09 332.281 352.052C329.503 352.052 326.706 351.822 323.947 351.343C321.208 350.883 318.468 350.232 315.901 349.236C310.671 347.167 305.441 344.849 300.365 342.378C295.288 339.868 290.307 337.148 285.709 333.776L285.594 333.929C289.885 337.703 294.751 340.807 299.751 343.565C304.79 346.324 309.924 348.719 315.212 351.018C320.671 353.125 326.495 354.025 332.3 353.949C335.212 353.891 338.124 353.585 340.959 352.857C343.852 352.167 346.515 350.769 348.89 349.121C358.392 342.339 364.983 332.55 370.289 322.511C375.5 312.358 379.504 301.534 381.611 290.327L381.42 290.288Z" fill="#00254D"/>
<path d="M283.946 330.558C281.533 330.29 279.521 328.584 278.333 326.535C277.107 324.485 276.743 322.033 276.743 319.638C276.743 317.224 277.088 314.81 277.356 312.377C277.663 309.963 277.988 307.53 278.41 305.136C280 295.538 282.586 286.036 287.069 277.491C289.311 273.219 292.05 269.254 295.192 265.614C298.315 261.974 301.705 258.564 305.479 255.671C309.196 252.74 313.411 250.326 318.008 249.464C322.568 248.525 327.491 249.445 331.629 252.089L331.802 251.859C330.806 251.131 329.829 250.345 328.775 249.675L327.07 248.851C326.495 248.564 325.94 248.276 325.307 248.142C324.081 247.817 322.836 247.433 321.553 247.414C320.92 247.376 320.269 247.28 319.637 247.299L317.721 247.453C312.549 247.989 307.893 250.479 303.794 253.334C299.713 256.303 296.131 259.867 293.008 263.775C289.885 267.664 287.184 271.917 285.038 276.419C280.651 285.384 278.314 295.135 277.011 304.887C276.686 307.32 276.456 309.772 276.245 312.224C276.073 314.676 275.824 317.128 275.919 319.619C276.015 322.09 276.494 324.676 277.893 326.803C279.234 328.891 281.418 330.634 283.966 330.807L283.946 330.558Z" fill="#00254D"/>
<path d="M331.612 252.031C334.715 259.981 335.29 268.717 334.083 277.051C332.838 285.403 329.907 293.545 325.213 300.519C320.481 307.492 314.408 313.488 307.914 318.833C304.657 321.496 301.228 323.986 297.511 325.96C295.653 326.956 293.737 327.856 291.783 328.623C289.829 329.427 287.798 330.059 285.71 330.443L285.729 330.634C294.35 329.887 302.301 325.519 309.082 320.327C315.883 315.04 321.803 308.603 326.477 301.342C331.152 294.043 333.949 285.691 335.022 277.166C335.999 268.641 335.156 259.828 331.784 251.935L331.612 252.031Z" fill="#00254D"/>
<path d="M319.159 84.4413C323.776 83.1769 328.489 82.334 333.259 81.9317C337.972 81.606 342.953 81.2229 347.263 83.2727C351.574 85.2459 354.831 89.0008 357.11 93.1197C359.428 97.2577 360.789 101.855 361.785 106.511C362.781 111.166 363.336 115.917 363.873 120.668L365.367 134.94C366.287 144.462 367.091 154.002 367.724 163.543C368.356 173.083 368.854 182.643 369.18 192.202C369.563 201.762 369.85 211.321 369.946 220.881C370.08 230.402 369.697 239.981 367.455 249.215C366.919 251.475 366.133 253.774 364.179 254.809C362.245 255.824 359.735 255.901 357.398 256.227C352.666 256.782 347.876 256.954 343.087 256.801L343.068 256.993C347.838 257.395 352.666 257.433 357.455 257.108C358.662 257.031 359.85 256.916 361.057 256.763C362.264 256.61 363.509 256.38 364.677 255.786C365.865 255.192 366.804 254.157 367.398 253.027C368.011 251.897 368.394 250.709 368.72 249.54C371.268 240.192 371.766 230.44 371.823 220.862C371.727 211.264 371.44 201.685 371.038 192.106C370.578 182.528 369.965 172.968 369.218 163.408C368.49 153.849 367.589 144.308 366.574 134.787L364.927 120.515C364.352 115.764 363.739 110.994 362.685 106.281C361.631 101.587 360.175 96.9128 357.742 92.7173C355.367 88.541 351.957 84.7287 347.474 82.7364C342.953 80.6673 337.914 81.1463 333.202 81.5294C328.432 81.9892 323.7 82.9087 319.083 84.2306L319.159 84.4413Z" fill="#00254D"/>
<path d="M317.318 103.158C320.364 102.009 323.812 101.032 326.878 102.354C329.885 103.656 331.935 106.587 332.874 109.672C333.832 112.814 333.851 116.147 333.87 119.461C333.928 122.795 333.966 126.128 334.138 129.442C334.828 142.738 336.552 155.956 338.525 169.117C340.479 182.279 342.472 195.402 344.043 208.563C344.503 211.839 344.771 215.153 345.116 218.448C345.384 221.743 345.633 225.057 345.824 228.352C345.978 231.667 346.15 234.981 346.131 238.295C346.169 239.962 346.15 241.59 346.246 243.295C346.342 244.138 346.514 245 346.916 245.767C347.3 246.533 348.066 247.203 348.966 247.223L348.985 247.031C348.181 246.954 347.568 246.341 347.261 245.613C346.955 244.885 346.84 244.062 346.801 243.257C346.801 241.667 346.955 239.943 347.012 238.295C347.204 234.962 347.165 231.628 347.165 228.295C347.07 221.628 346.61 214.961 345.958 208.333C344.617 195.057 342.184 181.972 340.039 168.868C337.874 155.765 335.958 142.623 335.096 129.385C334.866 126.071 334.771 122.756 334.656 119.442C334.579 116.128 334.502 112.718 333.449 109.499C332.395 106.319 330.23 103.312 327.05 102.009C325.46 101.357 323.717 101.3 322.069 101.549C320.402 101.817 318.832 102.373 317.28 102.986L317.318 103.158Z" fill="#00254D"/>
<path d="M288.929 29.2866C289.829 28.597 291.745 28.4619 292.267 29.8987C292.823 31.9885 291.19 33.4252 289.133 32.5436C287.957 31.7599 288.028 29.9763 288.929 29.2866Z" stroke="#00254D" stroke-miterlimit="10"/>
<path d="M275.445 32.9496C276.345 32.26 278.26 32.125 278.783 33.5617C279.338 35.6515 277.705 37.0882 275.648 36.2066C274.473 35.4229 274.544 33.6393 275.445 32.9496Z" stroke="#00254D" stroke-miterlimit="10"/>
<path d="M271.32 46.403C272.22 45.7134 274.135 45.5783 274.658 47.0151C275.213 49.1049 273.58 50.5416 271.523 49.66C270.348 48.8763 270.419 47.0927 271.32 46.403Z" stroke="#00254D" stroke-miterlimit="10"/>
<path d="M278.929 59.2261C279.829 58.5364 281.745 58.4014 282.267 59.8381C282.823 61.9279 281.19 63.3647 279.133 62.483C277.957 61.6994 278.028 59.9157 278.929 59.2261Z" stroke="#00254D" stroke-miterlimit="10"/>
<path d="M293.403 57.2147C294.303 56.5251 296.218 56.39 296.741 57.8268C297.296 59.9166 295.663 61.3533 293.606 60.4717C292.431 59.688 292.502 57.9044 293.403 57.2147Z" stroke="#00254D" stroke-miterlimit="10"/>
<path d="M295.465 42.7064C296.365 42.0168 298.281 41.8817 298.803 43.3185C299.359 45.4083 297.726 46.845 295.669 45.9634C294.494 45.1797 294.565 43.3961 295.465 42.7064Z" stroke="#00254D" stroke-miterlimit="10"/>
<path d="M283.054 46.7293C283.954 46.0397 285.87 45.9046 286.392 47.3414C286.948 49.4312 285.315 50.8679 283.258 49.9863C282.082 49.2026 282.153 47.4189 283.054 46.7293Z" stroke="#00254D" stroke-miterlimit="10"/>
<path d="M314.277 274.471C315.059 273.883 317.705 275.026 315.999 278.391C315.158 279.075 314.155 277.83 313.983 277.083C313.81 276.336 313.624 274.962 314.277 274.471Z" stroke="#00254D" stroke-miterlimit="10"/>
<path d="M312.937 288.185C313.358 287.515 315.997 286.84 316.399 287.51C316.801 288.181 316.706 289.043 316.572 289.809C316.552 289.963 316.514 290.135 316.399 290.25C316.246 290.442 315.958 290.461 315.729 290.461C315.058 290.48 314.53 290.518 313.917 290.25C313.284 289.982 312.899 288.875 312.937 288.185Z" stroke="#00254D" stroke-miterlimit="10"/>
<path d="M307.386 297.1C308.562 297.1 308.488 298.948 308.315 299.676C308.143 300.404 308.114 301.055 307.386 301.17C307.252 301.189 306.591 301.227 306.476 301.17C306.323 301.093 306.246 300.902 306.189 300.749C305.806 299.695 304.676 297.459 307.386 297.1Z" stroke="#00254D" stroke-miterlimit="10"/>
<path d="M296.186 303.462C297.24 304.222 297.485 305.178 296.521 306.314C296.088 306.824 294.349 306.616 293.472 306.012C292.954 305.666 292.508 305.134 292.494 304.516C292.48 303.71 293.242 303.049 294.033 302.891C294.824 302.732 295.426 303.095 296.186 303.462Z" stroke="#00254D" stroke-miterlimit="10"/>
<path d="M292.495 290.765C292.897 292.144 292.874 293.124 292.088 294.33C291.552 295.135 290.556 295.825 289.674 295.461C288.525 295.001 288.563 293.315 289.138 292.223C289.349 291.821 289.598 291.438 289.943 291.15C290.824 290.403 291.652 289.999 292.495 290.765Z" stroke="#00254D" stroke-miterlimit="10"/>
<path d="M297.851 276.837C298.602 276.837 298.907 277.344 299.252 278.034C299.578 278.723 299.194 279.624 298.543 280.026C297.892 280.428 297.03 280.409 296.302 280.179C295.535 279.93 294.769 279.298 294.884 278.512C294.999 277.823 295.631 277.394 296.302 277.164C297.123 276.882 296.904 276.845 297.851 276.837Z" stroke="#00254D" stroke-miterlimit="10"/>
<path d="M304.331 286.284C304.97 286.651 304.561 287.913 303.794 288.545C303.622 288.698 303.043 289.098 302.454 289.177C301.458 289.311 300.922 287.779 301.535 286.993C302.148 286.208 303.335 286.093 304.331 286.284Z" stroke="#00254D" stroke-miterlimit="10"/>
<path d="M295.211 8.32883C301.59 11.8921 306.399 17.7543 309.406 24.2679C312.472 30.8197 313.813 38.0421 314.196 45.2453C314.541 52.4677 314.062 59.7284 312.855 66.7975C311.686 73.9049 309.349 80.7825 305.786 87.1619L305.939 87.2768C310.46 81.4721 313.2 74.3839 314.732 67.1615C316.207 59.9008 316.284 52.4677 315.709 45.1496C315.135 37.8314 313.583 30.4748 310.269 23.8655C306.954 17.3137 301.839 11.5281 295.287 8.17554L295.211 8.32883Z" fill="#00254D"/>
<path d="M348.737 342.86C345.808 352.171 339.176 359.825 331.661 365.821C324.062 371.872 315.358 376.376 306.268 379.72C288.197 386.848 269.546 392.458 250.508 396.298C231.498 400.222 212.128 402.156 192.731 402.349C187.896 402.405 183.033 402.294 178.197 402.128C173.362 401.935 168.526 401.631 163.802 400.857C159.077 400.084 154.435 398.785 150.207 396.657C146.007 394.53 142.249 391.518 139.459 387.76C136.668 384.03 134.982 379.471 135.12 374.912C135.259 370.38 137.22 365.794 140.73 363.058C144.128 360.295 149.268 359.936 153.108 361.953C155.015 362.975 156.507 364.55 157.281 366.567C158.054 368.557 158.165 370.822 157.833 373.061C157.142 377.537 154.877 381.82 151.975 385.439C149.046 389.059 145.316 392.043 141.089 394.005C136.889 395.967 132.219 396.961 127.522 397.072C122.825 397.21 118.072 396.519 113.402 395.497C104.008 393.508 94.8343 390.164 85.2187 388.092C80.4109 387.042 75.4649 386.544 70.5742 386.323C65.6559 386.296 60.7375 386.545 55.8744 387.235C46.1759 388.644 36.6984 391.297 27.5525 394.668C18.4066 398.067 9.53696 402.073 0.695007 406.107L0.805634 406.356C9.78574 402.626 18.7657 398.896 27.9669 395.829C37.1128 392.679 46.5352 390.164 56.0955 388.948C60.8757 388.341 65.6834 388.175 70.4912 388.313C75.2714 388.589 80.0517 389.142 84.7213 390.275C94.0883 392.43 103.206 395.939 112.822 398.149C117.63 399.227 122.576 399.918 127.605 399.807C132.634 399.669 137.663 398.619 142.277 396.464C146.864 394.309 150.925 391.048 154.103 387.125C157.253 383.173 159.712 378.587 160.541 373.42C160.928 370.85 160.79 368.087 159.767 365.545C158.773 363.003 156.728 360.82 154.324 359.604C149.516 357.145 143.382 357.67 139.21 361.069C135.038 364.412 132.91 369.662 132.799 374.801C132.689 379.996 134.651 385.025 137.718 389.031C140.785 393.065 144.819 396.271 149.295 398.481C153.799 400.692 158.635 401.99 163.498 402.764C168.361 403.538 173.279 403.814 178.142 403.952C183.005 404.09 187.896 404.173 192.759 404.09C212.266 403.786 231.719 401.659 250.784 397.597C269.85 393.563 288.528 387.76 306.544 380.438C315.634 376.984 324.394 372.37 331.964 366.208C339.48 360.101 346.112 352.337 348.985 342.915L348.737 342.86Z" fill="#00254D"/>
<path d="M288.032 382.952C296.156 381.295 303.036 376.735 310.386 373.171C317.1 369.911 323.98 366.236 327.793 359.549C328.401 358.471 330.943 359.494 330.225 360.737C326.329 367.562 319.311 371.403 312.486 374.746C304.721 378.531 297.51 383.201 288.944 384.97C287.618 385.218 286.264 383.312 288.032 382.952Z" fill="#B3E8E6"/>
</svg>
