<?xml version="1.0" encoding="utf-8"?>
<!-- Generator: Adobe Illustrator 25.3.0, SVG Export Plug-In . SVG Version: 6.00 Build 0)  -->
<svg version="1.1" id="Layer_1" xmlns="http://www.w3.org/2000/svg" xmlns:xlink="http://www.w3.org/1999/xlink" x="0px" y="0px"
	 viewBox="0 0 1000 363.5" style="enable-background:new 0 0 1000 363.5;" xml:space="preserve">
<style type="text/css">
	.st0{fill-rule:evenodd;clip-rule:evenodd;fill:#00254D;}
	.st1{fill:#00254D;fill:#FFFFFF;}
	.st2{fill-rule:evenodd;clip-rule:evenodd;}
	.st3{fill-rule:evenodd;clip-rule:evenodd;fill:#059508;}
	.st4{fill-rule:evenodd;clip-rule:evenodd;fill:#FFFFFF;}
	.st5{fill:#FFFFFF;}
</style>
<g>
	<path class="st3" d="M187.02,322.02c0,0,40.45-98.87,141.71-68.61c0,0-19.47,65.01-81.49,77.6
		C247.24,331.01,214.55,334.94,187.02,322.02z"/>
	<path class="st3" d="M124.41,277.98c2.66,2.66,52.4,44.64,53.8,45.83c5.14-113.34-85.56-130.31-85.56-130.31
		c-32.81-2.7-66.96-9.89-66.96-9.89c1.8,150.55,152.34,143.69,152.34,143.69C154.07,313.71,124.41,277.98,124.41,277.98z"/>
	<polygon class="st1" points="168.06,134.22 112.65,134.22 106.58,87.26 91.3,87.26 91.3,82.67 110.62,82.67 116.69,129.63 
		165.09,129.63 178.08,100.6 117.14,100.6 117.14,96.01 185.18,96.01 	"/>
	<rect x="122.01" y="107.31" class="st1" width="54.56" height="4.59"/>
	<rect x="128.3" y="118.54" class="st1" width="43.24" height="4.59"/>
	<rect x="117.07" y="141.14" class="st1" width="20.22" height="3.44"/>
	<rect x="141.48" y="141.14" class="st1" width="20.22" height="3.44"/>
	<path class="st5" d="M137.29,50.82c34.8,0,63.11,28.31,63.11,63.11c0,4.35-0.44,8.6-1.28,12.7c-22.86,6.74-40.71,25.26-46.48,48.51
		c-4.92,1.23-10.06,1.9-15.35,1.9c-34.8,0-63.11-28.31-63.11-63.11C74.18,79.13,102.49,50.82,137.29,50.82 M137.29,46.47
		c-37.2,0-67.47,30.26-67.47,67.47c0,37.2,30.27,67.46,67.47,67.46c5.53,0,11.05-0.68,16.41-2.03l2.54-0.64l0.63-2.54
		c5.38-21.68,22.04-39.07,43.48-45.39l2.51-0.74l0.53-2.56c0.91-4.44,1.37-9.01,1.37-13.57C204.76,76.74,174.49,46.47,137.29,46.47
		L137.29,46.47z"/>
	<path class="st5" d="M219.65,263.15c-38.42,0-69.69-31.26-69.69-69.69s31.26-69.69,69.69-69.69s69.69,31.26,69.69,69.69
		S258.08,263.15,219.65,263.15z M219.65,128.12c-36.03,0-65.33,29.31-65.33,65.34s29.31,65.34,65.33,65.34s65.33-29.31,65.33-65.34
		S255.68,128.12,219.65,128.12z"/>
	<g>
		<g>
			<g>
				<path class="st1" d="M230.39,162.47H202.1c-1.29,0-2.34,0.9-2.34,2c0,1.11,1.05,2,2.34,2h28.29c1.29,0,2.34-0.9,2.34-2
					C232.73,163.37,231.69,162.47,230.39,162.47z"/>
			</g>
		</g>
		<g>
			<g>
				<path class="st1" d="M230.39,173.72H202.1c-1.29,0-2.34,0.9-2.34,2c0,1.11,1.05,2,2.34,2h28.29c1.29,0,2.34-0.9,2.34-2
					C232.73,174.62,231.69,173.72,230.39,173.72z"/>
			</g>
		</g>
		<g>
			<g>
				<path class="st1" d="M230.39,184.97H202.1c-1.29,0-2.34,0.9-2.34,2c0,1.11,1.05,2,2.34,2h28.29c1.29,0,2.34-0.9,2.34-2
					C232.73,185.86,231.69,184.97,230.39,184.97z"/>
			</g>
		</g>
		<g>
			<g>
				<path class="st1" d="M230.39,196.22H202.1c-1.29,0-2.34,0.9-2.34,2c0,1.11,1.05,2,2.34,2h28.29c1.29,0,2.34-0.9,2.34-2
					C232.73,197.11,231.69,196.22,230.39,196.22z"/>
			</g>
		</g>
		<g>
			<g>
				<path class="st1" d="M221.21,208.61h-19.1c-1.29,0-2.34,0.9-2.34,2s1.05,2,2.34,2h19.1c1.29,0,2.34-0.9,2.34-2
					S222.5,208.61,221.21,208.61z"/>
			</g>
		</g>
		<g>
			<g>
				<path class="st1" d="M245.13,222.42c0.53-0.42,0.83-0.98,0.83-1.57v-67.26c0-1.23-1.27-2.23-2.83-2.23H193.2
					c-1.56,0-2.83,1-2.83,2.23v67.26c0,0.59,0.3,1.16,0.83,1.57l8.34,6.56c1.1,0.87,2.9,0.87,4.01,0l6.34-4.98l6.34,4.98
					c0.53,0.42,1.25,0.65,2,0.65c0.75,0,1.47-0.23,2-0.65l6.34-4.98l6.34,4.98c0.53,0.42,1.25,0.65,2,0.65c0.75,0,1.47-0.23,2-0.65
					 M234.99,225.36l-6.32-5.06c-1.1-0.87-2.9-0.87-4.01,0l-6.33,5.06l-6.25-4.87c-0.53-0.42-1.25-0.65-2-0.65
					c-0.75,0-1.47,0.23-2,0.65l-6.53,4.87l-7.07-5.41v-64.11l47.19-0.35v64.24h0"/>
			</g>
		</g>
	</g>
</g>
<g>
	<path class="st5" d="M312.96,44.85c0-3.47,1.21-6.47,3.64-9.02c2.43-2.54,5.38-3.81,8.84-3.81h45.78c12.95,0,22.77,2.77,29.48,8.32
		c6.24,5.55,9.36,14.22,9.36,26.01c0,7.63-1.5,13.76-4.51,18.38c-3.24,5.09-7.75,8.44-13.53,10.06c5.09,1.85,8.9,4.62,11.44,8.32
		c2.08,4.16,3.35,10.17,3.81,18.03l1.04,23.58c0.23,3.7,1.5,6.36,3.81,7.98h-27.05c-1.16-2.31-1.85-4.74-2.08-7.28
		c-0.46-1.85-0.81-8.67-1.04-20.46c-0.46-7.63-1.85-12.72-4.16-15.26c-2.54-2.54-7.17-3.81-13.87-3.81h-26.36v46.82h-24.62V44.85z
		 M366.71,84.73c6.01,0,10.75-1.27,14.22-3.81c2.77-2.77,4.16-6.82,4.16-12.14s-1.39-9.25-4.16-11.79
		c-2.77-2.77-7.05-4.16-12.83-4.16h-30.52v31.91H366.71z"/>
	<path class="st5" d="M506.82,123.92c-2.77,10.63-7.4,18.38-13.87,23.24c-7.63,5.09-16.65,7.63-27.05,7.63
		c-28.44-0.93-42.66-17.34-42.66-49.25c0-31.91,14.33-47.97,43-48.2c29.82,0,43.81,18.38,41.96,55.14h-60.69
		c0.93,14.33,7.17,21.5,18.73,21.5c5.55,0,10.63-2.2,15.26-6.59c2.08-2.31,4.74-3.47,7.98-3.47H506.82z M483.24,95.48
		c-1.39-12.48-7.17-18.73-17.34-18.73c-10.17,0-16.18,6.24-18.03,18.73H483.24z"/>
	<path class="st5" d="M602.19,123.92c-2.31,10.4-6.82,18.03-13.52,22.89c-7.4,5.55-16.19,8.21-26.36,7.98
		c-28.44,0-43-16.19-43.7-48.55c0-32.14,14.45-48.44,43.35-48.9c22.66,0,36.07,10.17,40.23,30.52h-25.66
		c-2.78-6.47-7.86-9.71-15.26-9.71c-12.49,0-18.73,9.36-18.73,28.09c0,18.73,6.59,27.98,19.77,27.75c5.55,0,10.29-2.2,14.22-6.59
		c2.31-2.31,4.97-3.47,7.98-3.47H602.19z"/>
	<path class="st5" d="M697.56,123.92c-2.77,10.63-7.4,18.38-13.87,23.24c-7.63,5.09-16.65,7.63-27.05,7.63
		c-28.44-0.93-42.66-17.34-42.66-49.25c0-31.91,14.33-47.97,43-48.2c29.82,0,43.81,18.38,41.96,55.14h-60.69
		c0.93,14.33,7.17,21.5,18.73,21.5c5.55,0,10.63-2.2,15.26-6.59c2.08-2.31,4.74-3.47,7.98-3.47H697.56z M673.98,95.48
		c-1.39-12.48-7.17-18.73-17.34-18.73s-16.18,6.24-18.03,18.73H673.98z"/>
	<path class="st5" d="M722.19,32.02c7.86,0,11.68,3.81,11.44,11.44v6.94h-23.58V32.02H722.19z M722.19,58.72
		c7.63,0,11.44,3.81,11.44,11.44v82.54h-23.58V58.72H722.19z"/>
	<path class="st5" d="M770.74,177.67c0,7.86-3.93,11.79-11.79,11.79h-11.79V99.64c1.16-27.97,15.84-41.96,44.04-41.96
		c29.13,0,43.7,15.84,43.7,47.51c0,31.9-12.49,48.32-37.45,49.24c-11.79,0-20.69-4.85-26.7-14.57V177.67z M810.62,106.23
		c0-18.96-6.7-28.44-20.11-28.44c-13.41,0-20,9.48-19.77,28.44c0.69,18.03,7.4,27.05,20.11,27.05
		C803.57,133.28,810.16,124.26,810.62,106.23z"/>
	<path class="st5" d="M859,151.49c-8.9-0.81-13.23-6.42-13-16.82V32.02h12.14c3,0,5.66,1.15,7.98,3.47
		c2.31,2.31,3.47,5.09,3.47,8.32v14.91h14.22v5.2c0,3.47-1.16,6.3-3.47,8.5c-2.31,2.2-5.09,3.29-8.32,3.29h-2.43v52.02
		c0,3.93,2.31,5.89,6.94,5.89h7.28v18.03C876.17,152.35,867.9,152.29,859,151.49z"/>
	<path class="st5" d="M915.36,121.83c0.23,4.86,1.97,8.32,5.2,10.4c3.01,2.31,7.75,3.47,14.22,3.47c9.94,0,14.91-3,14.91-9.02
		c0-4.86-8.09-8.67-24.28-11.44c-20.81-3.7-31.33-12.95-31.56-27.74c0-9.25,3.35-16.65,10.06-22.19c6.47-5.09,15.61-7.75,27.4-7.98
		c12.02,0,21.62,2.66,28.79,7.98c6.94,5.55,10.63,13.18,11.1,22.89h-14.91c-5.55-0.23-9.02-2.2-10.4-5.9
		c-1.62-4.16-6.36-6.24-14.22-6.24c-9.25,0-13.87,2.43-13.87,7.28c0,4.86,6.13,8.44,18.38,10.75c15.95,3.24,26.47,7.28,31.56,12.14
		c4.39,4.62,6.59,10.17,6.59,16.65c0,10.4-3.7,18.26-11.1,23.58c-7.17,5.32-17.8,7.98-31.91,7.98c-13.18,0-23-2.77-29.48-8.32
		c-7.17-5.32-10.75-13.41-10.75-24.28H915.36z"/>
</g>
<g>
	<path class="st5" d="M353.34,218.76c0-3.47,1.21-6.47,3.64-9.02c2.43-2.54,5.38-3.81,8.84-3.81h23.93l24.27,91.9l23.58-91.9h36.76
		v120.68h-23.23v-97.45l-24.62,97.45H401.2l-24.62-97.45v97.45h-23.24V218.76z"/>
	<path class="st5" d="M499,205.93c7.86,0,11.68,3.81,11.44,11.44v6.94h-23.58v-18.38H499z M499,232.64
		c7.63,0,11.44,3.81,11.44,11.44v82.54h-23.58v-93.98H499z"/>
	<path class="st5" d="M591.94,326.62c-7.86-0.46-11.79-4.39-11.79-11.79v-48.2c-0.46-9.71-5.9-14.57-16.3-14.57
		c-10.4,0-15.72,4.86-15.95,14.57v60h-23.93v-55.14c0-26.82,13.41-40.23,40.23-40.23c26.82,0,40.11,13.41,39.88,40.23v55.14H591.94z
		"/>
	<path class="st5" d="M689.74,205.93c3.24,0,6.01,1.15,8.32,3.47c2.31,2.31,3.47,5.09,3.47,8.32v12.83v55.49
		c0,28.21-14.68,42.19-44.04,41.96c-29.13-0.46-43.7-16.3-43.7-47.51c0-31.91,12.49-48.32,37.45-49.25
		c11.79,0,20.69,4.86,26.7,14.57v-39.88H689.74z M658.18,252.4c-12.72,0-19.42,9.02-20.11,27.05c-0.23,18.96,6.36,28.44,19.77,28.44
		c13.41,0,20.11-9.48,20.11-28.44C677.48,261.42,670.9,252.4,658.18,252.4z"/>
	<path class="st5" d="M795.17,297.84c-2.77,10.63-7.4,18.38-13.87,23.24c-7.63,5.09-16.65,7.63-27.05,7.63
		c-28.44-0.93-42.66-17.34-42.66-49.25c0-31.91,14.33-47.97,43-48.2c29.82,0,43.81,18.38,41.96,55.14h-60.69
		c0.93,14.33,7.17,21.5,18.73,21.5c5.55,0,10.63-2.2,15.26-6.59c2.08-2.31,4.74-3.47,7.98-3.47H795.17z M771.58,269.4
		c-1.39-12.48-7.17-18.73-17.34-18.73c-10.17,0-16.18,6.24-18.03,18.73H771.58z"/>
	<path class="st5" d="M807.65,278.07c0.69-30.29,16.76-45.43,48.2-45.43h3.47v24.62h-7.98c-13.18,0-19.77,6.82-19.77,20.46v48.9
		h-23.93V278.07z"/>
</g>
</svg>
