<?xml version="1.0" encoding="utf-8"?>
<!-- Generator: Adobe Illustrator 25.3.0, SVG Export Plug-In . SVG Version: 6.00 Build 0)  -->
<svg version="1.1" id="Layer_1" xmlns="http://www.w3.org/2000/svg" xmlns:xlink="http://www.w3.org/1999/xlink" x="0px" y="0px"
	 viewBox="0 0 434.22 156.52" style="enable-background:new 0 0 434.22 156.52;" xml:space="preserve">
<style type="text/css">
	.st0{fill-rule:evenodd;clip-rule:evenodd;fill:#059508;}
	.st1{fill:#FFFFFF;}
	.st2{fill:#00254D;}
</style>
<path class="st0" d="M78.01,134.79c0,0,16.87-41.23,59.1-28.61c0,0-8.12,27.11-33.98,32.36C103.12,138.54,89.49,140.18,78.01,134.79
	z"/>
<path class="st0" d="M51.9,116.42c1.11,1.11,21.85,18.62,22.44,19.11c2.14-47.27-35.68-54.34-35.68-54.34
	c-13.68-1.12-27.92-4.12-27.92-4.12c0.75,62.78,63.53,59.92,63.53,59.92C64.26,131.32,51.9,116.42,51.9,116.42z"/>
<g>
	<circle class="st1" cx="57.27" cy="48.01" r="27.24"/>
	<path class="st2" d="M57.27,76.17c-15.52,0-28.15-12.63-28.15-28.15s12.63-28.15,28.15-28.15S85.42,32.5,85.42,48.02
		S72.79,76.17,57.27,76.17z M57.27,21.69c-14.51,0-26.32,11.81-26.32,26.32s11.81,26.32,26.32,26.32s26.32-11.81,26.32-26.32
		S71.78,21.69,57.27,21.69z"/>
</g>
<polygon class="st2" points="70.1,56.47 46.99,56.47 44.46,36.89 38.09,36.89 38.09,34.97 46.15,34.97 48.68,54.56 68.86,54.56 
	74.28,42.45 48.87,42.45 48.87,40.54 77.24,40.54 "/>
<rect x="50.9" y="45.25" class="st2" width="22.75" height="1.92"/>
<rect x="53.52" y="49.94" class="st2" width="18.03" height="1.92"/>
<rect x="48.83" y="59.36" class="st2" width="8.43" height="1.44"/>
<rect x="59.02" y="59.36" class="st2" width="8.43" height="1.44"/>
<g>
	<circle class="st1" cx="90.99" cy="80.32" r="27.24"/>
	<path class="st2" d="M90.99,108.47c-15.52,0-28.15-12.63-28.15-28.15s12.63-28.15,28.15-28.15s28.15,12.63,28.15,28.15
		C119.15,95.84,106.52,108.47,90.99,108.47z M90.99,54c-14.51,0-26.32,11.8-26.32,26.32c0,14.51,11.81,26.32,26.32,26.32
		s26.32-11.81,26.32-26.32C117.31,65.8,105.51,54,90.99,54z"/>
</g>
<g>
	<g>
		<g>
			<g>
				<path class="st2" d="M96.1,68.25H84.3c-0.54,0-0.98,0.37-0.98,0.83s0.44,0.83,0.98,0.83h11.8c0.54,0,0.98-0.37,0.98-0.83
					C97.07,68.63,96.63,68.25,96.1,68.25z"/>
			</g>
		</g>
		<g>
			<g>
				<path class="st2" d="M96.1,72.95H84.3c-0.54,0-0.98,0.37-0.98,0.83s0.44,0.83,0.98,0.83h11.8c0.54,0,0.98-0.37,0.98-0.83
					C97.07,73.32,96.63,72.95,96.1,72.95z"/>
			</g>
		</g>
		<g>
			<g>
				<path class="st2" d="M96.1,77.64H84.3c-0.54,0-0.98,0.37-0.98,0.83s0.44,0.83,0.98,0.83h11.8c0.54,0,0.98-0.37,0.98-0.83
					C97.07,78.01,96.63,77.64,96.1,77.64z"/>
			</g>
		</g>
		<g>
			<g>
				<path class="st2" d="M96.1,82.33H84.3c-0.54,0-0.98,0.37-0.98,0.83s0.44,0.83,0.98,0.83h11.8c0.54,0,0.98-0.37,0.98-0.83
					C97.07,82.7,96.63,82.33,96.1,82.33z"/>
			</g>
		</g>
		<g>
			<g>
				<path class="st2" d="M92.26,87.5H84.3c-0.54,0-0.98,0.37-0.98,0.83s0.44,0.83,0.98,0.83h7.97c0.54,0,0.98-0.37,0.98-0.83
					C93.24,87.87,92.8,87.5,92.26,87.5z"/>
			</g>
		</g>
		<g>
			<g>
				<path class="st2" d="M102.24,93.26c0.22-0.17,0.35-0.41,0.35-0.66V64.55c0-0.51-0.53-0.93-1.18-0.93H80.58
					c-0.65,0-1.18,0.42-1.18,0.93V92.6c0,0.25,0.12,0.48,0.35,0.66l3.48,2.73c0.46,0.36,1.21,0.36,1.67,0l2.64-2.08l2.64,2.08
					c0.22,0.17,0.52,0.27,0.84,0.27c0.31,0,0.61-0.1,0.84-0.27l2.64-2.08l2.64,2.08c0.22,0.17,0.52,0.27,0.84,0.27
					c0.31,0,0.61-0.1,0.84-0.27 M98.01,94.48l-2.64-2.11c-0.46-0.36-1.21-0.36-1.67,0l-2.64,2.11l-2.61-2.03
					c-0.22-0.17-0.52-0.27-0.84-0.27c-0.31,0-0.61,0.1-0.84,0.27l-2.72,2.03l-2.95-2.26V65.49l19.68-0.15v26.79l0,0"/>
			</g>
		</g>
	</g>
</g>
<g>
	<g>
		<path class="st2" d="M149.2,44.17h-5.31v20.14h-10.25v-52.3h20.44c10.18,0,16.67,7.01,16.67,16.08c0,7.3-4.28,12.84-11.14,14.83
			l11.21,21.4h-11.36L149.2,44.17z M152.15,35.39c5.16,0,8.19-2.95,8.19-7.23c0-4.43-3.02-7.3-8.19-7.3h-8.26v14.53H152.15z"/>
		<path class="st2" d="M210.51,53.91c-1.84,6.27-7.6,11.51-16.53,11.51c-9.96,0-18.74-7.16-18.74-19.4
			c0-11.58,8.56-19.11,17.85-19.11c11.21,0,17.93,7.16,17.93,18.81c0,1.4-0.15,2.88-0.15,3.03H184.9c0.22,4.79,4.28,8.26,9.15,8.26
			c4.57,0,7.08-2.29,8.26-5.53L210.51,53.91z M201.36,42.03c-0.15-3.62-2.51-7.16-8.12-7.16c-5.09,0-7.89,3.84-8.12,7.16H201.36z"/>
		<path class="st2" d="M225.86,46.16c0,6.57,4.28,10.25,9.3,10.25s7.53-3.32,8.34-6.12l8.63,2.88c-1.62,6.05-7.3,12.25-16.97,12.25
			c-10.7,0-19.11-8.12-19.11-19.26c0-11.21,8.26-19.25,18.81-19.25c9.89,0,15.49,6.12,17.04,12.25l-8.78,2.95
			c-0.89-3.02-3.17-6.12-8.04-6.12C230.06,35.98,225.86,39.6,225.86,46.16z"/>
		<path class="st2" d="M291.52,53.91c-1.84,6.27-7.6,11.51-16.53,11.51c-9.96,0-18.74-7.16-18.74-19.4
			c0-11.58,8.56-19.11,17.85-19.11c11.21,0,17.93,7.16,17.93,18.81c0,1.4-0.15,2.88-0.15,3.03h-25.97c0.22,4.79,4.28,8.26,9.15,8.26
			c4.57,0,7.08-2.29,8.26-5.53L291.52,53.91z M282.37,42.03c-0.15-3.62-2.51-7.16-8.12-7.16c-5.09,0-7.89,3.84-8.12,7.16H282.37z"/>
		<path class="st2" d="M304.65,10.01c3.39,0,6.05,2.73,6.05,6.12c0,3.25-2.66,5.98-6.05,5.98c-3.32,0-6.05-2.73-6.05-5.98
			C298.6,12.74,301.33,10.01,304.65,10.01z M299.78,64.31v-36.3h9.81v36.3H299.78z"/>
		<path class="st2" d="M320.07,78.33V28.02h9.52v4.43c1.62-2.8,5.68-5.24,11.14-5.24c10.62,0,16.75,8.12,16.75,18.89
			c0,10.99-6.86,19.11-17.12,19.11c-5.02,0-8.71-1.99-10.48-4.43v17.56L320.07,78.33L320.07,78.33z M338.81,35.98
			c-5.02,0-9.07,3.76-9.07,10.18s4.06,10.25,9.07,10.25c5.02,0,9-3.76,9-10.25C347.81,39.75,343.83,35.98,338.81,35.98z"/>
		<path class="st2" d="M377.18,28.02h7.3v8.71h-7.3v15.2c0,3.17,1.48,4.21,4.28,4.21c1.18,0,2.51-0.15,3.02-0.29v8.12
			c-0.89,0.37-2.66,0.89-5.53,0.89c-7.08,0-11.51-4.21-11.51-11.21v-16.9h-6.57v-8.71h1.84c3.84,0,5.61-2.51,5.61-5.75V17.2h8.85
			v10.82H377.18z"/>
		<path class="st2" d="M398.94,52.36c0.22,2.88,2.36,5.53,6.64,5.53c3.25,0,4.8-1.7,4.8-3.61c0-1.62-1.11-2.95-3.91-3.54l-4.8-1.11
			c-7.01-1.55-10.18-5.75-10.18-10.84c0-6.49,5.75-11.88,13.57-11.88c10.33,0,13.8,6.57,14.24,10.48l-8.19,1.84
			c-0.29-2.14-1.84-4.87-5.98-4.87c-2.58,0-4.65,1.55-4.65,3.62c0,1.77,1.33,2.88,3.32,3.25l5.16,1.11
			c7.16,1.48,10.77,5.83,10.77,11.14c0,5.9-4.57,11.95-14.09,11.95c-10.92,0-14.68-7.08-15.12-11.21L398.94,52.36z"/>
	</g>
</g>
<g>
	<g>
		<path class="st2" d="M198.8,136.84v-36.67l-15.05,36.67h-8.48l-15.05-36.37v36.37h-9.74v-52.3h13.43l15.71,37.77l15.35-37.77
			h13.87v52.31L198.8,136.84L198.8,136.84z"/>
		<path class="st2" d="M224.92,82.54c3.39,0,6.05,2.73,6.05,6.12c0,3.25-2.66,5.98-6.05,5.98c-3.32,0-6.05-2.73-6.05-5.98
			C218.87,85.27,221.6,82.54,224.92,82.54z M220.05,136.84v-36.3h9.81v36.3H220.05z"/>
		<path class="st2" d="M250.15,136.84h-9.81v-36.3h9.52v4.5c2.21-3.76,6.57-5.46,10.48-5.46c9,0,13.13,6.42,13.13,14.39v22.87h-9.81
			v-21.17c0-4.06-1.99-7.23-6.71-7.23c-4.28,0-6.79,3.32-6.79,7.53v20.87H250.15z"/>
		<path class="st2" d="M318.02,130.28c0,2.43,0.15,5.09,0.29,6.57h-9.37c-0.15-0.74-0.37-2.51-0.37-4.21
			c-1.62,2.88-5.31,5.09-10.18,5.09c-10.33,0-17.71-8.12-17.71-19.11c0-10.62,7.16-18.96,17.41-18.96c6.27,0,9.22,2.58,10.25,4.5
			V83.43h9.67L318.02,130.28L318.02,130.28z M299.58,128.95c5.02,0,8.93-3.84,8.93-10.4c0-6.49-3.91-10.11-8.93-10.11
			s-9,3.69-9,10.18S294.41,128.95,299.58,128.95z"/>
		<path class="st2" d="M361.18,126.44c-1.84,6.27-7.6,11.51-16.53,11.51c-9.96,0-18.74-7.16-18.74-19.4
			c0-11.58,8.56-19.11,17.85-19.11c11.21,0,17.93,7.16,17.93,18.81c0,1.4-0.15,2.88-0.15,3.03h-25.97c0.22,4.79,4.28,8.26,9.15,8.26
			c4.57,0,7.08-2.29,8.26-5.53L361.18,126.44z M352.03,114.56c-0.15-3.62-2.51-7.16-8.12-7.16c-5.09,0-7.89,3.84-8.12,7.16H352.03z"
			/>
		<path class="st2" d="M391.58,110.28c-1.11-0.22-2.07-0.29-2.95-0.29c-5.02,0-9.37,2.43-9.37,10.25v16.6h-9.81v-36.3h9.52v5.39
			c2.21-4.8,7.23-5.68,10.33-5.68c0.81,0,1.55,0.07,2.29,0.15L391.58,110.28L391.58,110.28z"/>
	</g>
</g>
</svg>
